<svg xmlns="http://www.w3.org/2000/svg" fill="none" viewBox="0 0 125 20" aria-label="Go to Chainguard Home Page" class="h-[20px] w-[98px] flex-shrink-0 xl:w-[125px] text-brand-non-text-blurple"><path fill="#6226fb" fill-rule="evenodd" d="M17.06 10.832a6.7 6.7 0 0 0 .251-1.861c0-4.22-3.476-8.971-6.95-8.971C6.89 0 3.413 4.75 3.413 8.97c0 .92.165 1.74.46 2.458l-2.088-.118c-.85-.048-1.633.56-1.5 1.405.05.327.149.663.324.952-.59.417-.832 1.184-.354 1.786.481.603 1.187 1.159 2.156 1.159 1.05 0 1.683-.273 2.067-.615q.041.226.177.436c.472.718 1.253 1.509 2.407 1.509 1.965 0 2.184-1.239 2.294-1.86l.024-.134 1.313-.659 1.313.66.024.133c.11.621.33 1.86 2.294 1.86 1.154 0 1.936-.79 2.407-1.51a1 1 0 0 0 .052-.085c.37.16.86.265 1.51.265.968 0 1.674-.556 2.155-1.16.588-.739.088-1.729-.811-2.01l-.298-.094c.873-.454 1.002-1.31.908-2.062-.105-.848-1.026-1.214-1.83-.932zm-6.367 4.445h-.002z" clip-rule="evenodd"></path><path fill="#6226fb" d="M32.815 16.074c-3.988 0-6.538-2.598-6.538-7.178 0-4.33 2.876-6.985 6.672-6.985 3.278 0 5.637 1.885 5.982 5.08h-2.608c-.249-1.751-1.4-2.944-3.374-2.944-2.377 0-4.084 1.828-4.084 4.85 0 3.136 1.687 5.041 4.026 5.041 1.994 0 3.317-1.29 3.586-3.079h2.511c-.326 3.118-2.569 5.215-6.173 5.215m8.001-.346V2.257h2.34V6.76c0 .27-.02.558-.077.924.517-.943 1.4-1.655 2.876-1.655 2.07 0 3.297 1.462 3.297 3.772v5.927h-2.339v-5.581c0-1.386-.67-2.252-1.764-2.252-1.15 0-1.994 1.02-1.994 2.329v5.504zm13.47.346c-1.63 0-3.22-1.078-3.22-2.925 0-2.117 1.629-2.848 3.642-3.117l1.342-.174c.767-.096 1.035-.385 1.035-.846 0-.655-.537-1.232-1.534-1.232-1.092 0-1.782.616-1.878 1.597h-2.416c.153-1.963 1.745-3.348 4.16-3.348 2.857 0 4.007 1.54 4.007 4.176v5.523h-2.166v-.385c0-.308.038-.597.096-.905-.499.924-1.457 1.636-3.068 1.636m.633-1.732c1.246 0 2.243-.924 2.243-2.251v-1.02c-.21.192-.537.288-1.112.404l-.767.154c-1.093.212-1.84.577-1.84 1.424 0 .827.651 1.29 1.476 1.29m6.793 1.386V6.337h2.339v9.39zm-.058-10.815V2.449h2.435v2.464zm4.813 10.815V6.337h2.34v.423c0 .27-.02.558-.077.924.517-.943 1.4-1.655 2.876-1.655 2.07 0 3.297 1.462 3.297 3.772v5.927h-2.339v-5.581c0-1.386-.67-2.252-1.764-2.252-1.15 0-1.993 1.02-1.993 2.329v5.504zM81.394 20c-2.76 0-4.333-1.482-4.333-3.618h2.378c.038 1.116.747 1.77 2.013 1.77 1.227 0 2.262-.73 2.262-2.136v-1.02c0-.423.02-.808.077-1.173-.556.846-1.457 1.558-2.915 1.558-2.434 0-4.198-1.712-4.198-4.676 0-2.925 2.032-4.676 4.084-4.676 1.648 0 2.473.673 3.029 1.655a5 5 0 0 1-.077-.924v-.423h2.34v9.102c0 3.08-1.899 4.561-4.66 4.561m.077-6.485c1.38 0 2.377-1.174 2.377-2.81s-.997-2.81-2.377-2.81c-1.419 0-2.416 1.174-2.416 2.81s.997 2.81 2.416 2.81m10.237 2.56c-1.879 0-3.355-1.29-3.355-3.773V6.337h2.358v5.6c0 1.308.575 2.251 1.706 2.251 1.19 0 2.033-.885 2.033-2.27V6.337h2.339v9.39h-2.32v-.384c0-.289.038-.616.096-.905-.48.905-1.304 1.636-2.857 1.636m10.21 0c-1.629 0-3.22-1.078-3.22-2.926 0-2.117 1.629-2.848 3.642-3.117l1.342-.174c.767-.096 1.036-.385 1.036-.846 0-.655-.537-1.232-1.534-1.232-1.093 0-1.783.616-1.879 1.597h-2.416c.153-1.963 1.745-3.348 4.16-3.348 2.857 0 4.008 1.54 4.008 4.176v5.523h-2.167v-.385c0-.308.038-.597.096-.905-.499.924-1.457 1.636-3.068 1.636m.633-1.733c1.246 0 2.243-.924 2.243-2.251v-1.02c-.211.192-.537.288-1.112.404l-.767.154c-1.093.212-1.84.577-1.84 1.424 0 .827.652 1.29 1.476 1.29m6.793 1.386v-9.39h2.339v.712c0 .346-.019.635-.077.981.499-1.058 1.342-2.001 2.742-2.001.192 0 .345.019.498.058v2.27a2.7 2.7 0 0 0-.671-.077c-1.438 0-2.492.732-2.492 2.79v4.658zm10.46.346c-2.473 0-4.275-1.693-4.275-5.003 0-3.368 2.128-5.042 4.314-5.042 1.457 0 2.357.75 2.895 1.655-.077-.347-.077-.635-.077-.924V2.257H125v13.47h-2.339v-.384c0-.327 0-.577.077-.905-.365.693-1.209 1.636-2.934 1.636m.556-1.847c1.4 0 2.435-1.29 2.435-3.175 0-1.925-1.035-3.157-2.435-3.157-1.399 0-2.454 1.29-2.454 3.157 0 1.943 1.055 3.175 2.454 3.175"></path></svg>