<svg xmlns="http://www.w3.org/2000/svg" width="257" height="40" viewBox="0 0 257 40" fill="none"><path fill-rule="evenodd" clip-rule="evenodd" d="M246.464 28.638V27.171C247.764 28.02 249.081 28.444 250.416 28.444C251.833 28.444 252.909 28.144 253.643 27.542C254.377 26.94 254.745 26.099 254.745 25.017C254.745 24.065 254.498 23.307 254.005 22.739C253.511 22.172 252.441 21.4 250.795 20.422C248.955 19.323 247.789 18.404 247.3 17.664C246.81 16.924 246.566 16.071 246.566 15.101C246.566 13.786 247.065 12.671 248.06 11.752C249.056 10.836 250.386 10.377 252.048 10.377C253.128 10.377 254.208 10.563 255.289 10.935V12.285C254.222 11.7906 253.059 11.5379 251.883 11.545C250.651 11.545 249.675 11.865 248.953 12.505C248.231 13.146 247.87 13.959 247.87 14.945C247.87 15.898 248.118 16.655 248.611 17.217C249.103 17.78 250.169 18.545 251.807 19.514C253.504 20.5 254.633 21.377 255.196 22.142C255.756 22.908 256.036 23.789 256.036 24.785C256.036 26.212 255.552 27.375 254.586 28.275C253.62 29.175 252.255 29.625 250.491 29.625C249.866 29.625 249.147 29.525 248.331 29.326C247.518 29.128 246.896 28.897 246.464 28.638ZM238.37 10.688V25.238C238.37 25.671 238.391 26.19 238.433 26.795H238.37C238.09 26.328 237.835 25.93 237.597 25.601L226.91 10.76C226.85 10.6562 226.758 10.575 226.647 10.5292C226.537 10.4834 226.414 10.4754 226.299 10.5066C226.183 10.5377 226.081 10.6063 226.009 10.7015C225.936 10.7967 225.897 10.9133 225.898 11.033V29.3H227.152V13.907C227.152 13.587 227.142 13.315 227.127 13.09H227.177L227.342 13.35C227.511 13.652 227.704 13.954 227.923 14.258L238.588 29.094L238.603 29.09C238.66 29.1969 238.751 29.2815 238.862 29.3304C238.973 29.3793 239.097 29.3896 239.215 29.3597C239.332 29.3298 239.436 29.2613 239.51 29.1653C239.584 29.0692 239.624 28.9512 239.623 28.83V10.689L238.37 10.688ZM216.12 29.3H217.373V10.688H216.12V29.3ZM202.519 10.982C202.369 10.636 202.218 10.377 201.917 10.377C201.583 10.377 201.434 10.618 201.297 10.982L194.48 29.3H195.861C195.861 29.3 201.708 13.079 201.851 12.507H201.901C201.968 12.724 207.89 29.3 207.89 29.3H209.294L202.52 10.982H202.519ZM180.753 12.564C180.753 12.172 181.07 11.86 181.451 11.86H183.811C186.405 11.86 187.702 13.256 187.702 15.45C187.702 16.615 187.302 17.538 186.502 18.218C185.703 18.898 184.64 19.345 183.314 19.345H182.977V19.331H180.753V12.564ZM187.514 22.863C186.439 20.102 184.491 20.124 184.491 20.124C184.891 20.047 185.801 19.754 185.801 19.754C186.813 19.429 187.601 18.879 188.167 18.101C188.733 17.323 189.016 16.297 189.016 15.234C189.016 13.958 188.59 12.614 187.74 11.84C186.89 11.066 185.745 10.679 184.309 10.679H180.699C180.039 10.679 179.499 11.248 179.499 11.895V29.3H180.753V20.5H183.007C183.757 20.5 184.383 20.693 184.881 21.078C185.38 21.463 185.876 22.218 186.375 23.343L188.793 29.3H190.21L187.514 22.863ZM169.798 27.11C169.037 27.799 167.938 28.143 166.5 28.143L163.796 28.132C163.416 28.132 163.097 27.797 163.097 27.406V20.49L165.799 20.492C169.226 20.492 170.939 21.649 170.939 24.175C170.939 25.442 170.559 26.419 169.799 27.109L169.798 27.11ZM163.098 12.564C163.098 12.173 163.415 11.86 163.796 11.86H166.156C168.75 11.86 170.046 13.256 170.046 15.45C170.046 16.616 169.647 17.538 168.848 18.218C168.048 18.899 166.985 19.345 165.658 19.345H165.322V19.331H163.097L163.098 12.564ZM171.144 21.163C170.412 20.376 169.414 19.923 168.146 19.803V19.753C169.158 19.43 169.946 18.879 170.512 18.101C171.078 17.323 171.361 16.296 171.361 15.234C171.361 13.958 170.935 12.614 170.085 11.84C169.235 11.066 168.091 10.679 166.654 10.679H163.044C162.384 10.679 161.844 11.248 161.844 11.895V28.075C161.844 28.722 162.384 29.29 163.044 29.29H166.755C168.422 29.29 169.753 28.804 170.748 27.83C171.744 26.857 172.241 25.6 172.241 24.06C172.241 22.845 171.875 21.95 171.144 21.163Z" fill="#72BFD0" stroke="#72BFD0"></path><path fill-rule="evenodd" clip-rule="evenodd" d="M155.046 28.698C153.576 29.319 152.046 29.632 150.45 29.632C147.969 29.632 145.945 28.776 144.379 27.068C142.813 25.358 142.03 23.129 142.03 20.378C142.03 17.358 142.88 14.938 144.575 13.116C146.272 11.294 148.428 10.384 151.045 10.384C152.437 10.384 153.771 10.614 155.046 11.071V12.434C153.785 11.8489 152.41 11.5478 151.02 11.552C148.741 11.552 146.89 12.344 145.463 13.927C144.036 15.51 143.321 17.617 143.321 20.247C143.321 22.783 144.003 24.783 145.367 26.25C146.729 27.717 148.457 28.45 150.551 28.45C152.223 28.45 153.721 28.117 155.046 27.45V28.698ZM133.49 29.3H134.742V10.688H133.49V29.3ZM120.932 11.87V29.3H119.692V11.87H114.45V10.688H126.175V11.87H120.932ZM100.108 28.638V27.171C101.408 28.02 102.725 28.444 104.06 28.444C105.477 28.444 106.553 28.144 107.289 27.542C108.022 26.94 108.389 26.099 108.389 25.017C108.389 24.065 108.142 23.307 107.649 22.739C107.155 22.172 106.085 21.4 104.439 20.422C102.599 19.323 101.434 18.404 100.945 17.664C100.455 16.924 100.21 16.071 100.21 15.101C100.21 13.786 100.708 12.671 101.704 11.752C102.7 10.836 104.03 10.377 105.693 10.377C106.797 10.381 107.892 10.5696 108.934 10.935V12.285C107.867 11.7908 106.704 11.5382 105.528 11.545C104.295 11.545 103.318 11.865 102.596 12.505C101.876 13.146 101.514 13.959 101.514 14.945C101.514 15.898 101.761 16.655 102.255 17.217C102.75 17.78 103.815 18.545 105.452 19.514C107.149 20.5 108.277 21.377 108.839 22.142C109.4 22.908 109.68 23.789 109.68 24.785C109.68 26.212 109.197 27.375 108.231 28.275C107.264 29.175 105.899 29.625 104.135 29.625C103.511 29.625 102.791 29.525 101.977 29.326C101.162 29.128 100.539 28.897 100.108 28.638ZM88.623 10.982C88.473 10.636 88.322 10.377 88.022 10.377C87.688 10.377 87.538 10.618 87.401 10.982L80.586 29.3H81.966C81.966 29.3 87.812 13.08 87.955 12.507H88.007C88.073 12.724 93.995 29.3 93.995 29.3H95.4L88.623 10.982ZM69.025 27.415V10.688H67.773V28.084C67.773 28.732 68.313 29.3 68.973 29.3H76.255V28.12H69.725C69.5387 28.1192 69.3604 28.0445 69.2291 27.9123C69.0979 27.7801 69.0245 27.6012 69.025 27.415ZM53.951 11.87H60.482V10.688H53.2C52.54 10.688 52 11.258 52 11.905V28.084C52 28.732 52.54 29.3 53.2 29.3H60.482V28.119H53.952C53.7659 28.1182 53.5877 28.0436 53.4565 27.9116C53.3253 27.7797 53.2517 27.6011 53.252 27.415V20.5H59.963V19.332H53.253V12.574C53.253 12.182 53.571 11.87 53.951 11.87Z" fill="black" stroke="black"></path><path d="M20.1598 6C27.733 6 34 12.9586 34 20C34 26.374 28.475 34 20.1598 34C12.3522 34 6 27.7197 6 20C6 12.2803 12.3522 6 20.1598 6ZM7.26197 20.0394C7.26197 27.0852 13.0428 32.8169 20.1485 32.8169C20.3991 32.8169 20.6478 32.8036 20.8945 32.7771C20.1488 31.8565 18.6904 29.8651 18.6904 25.8547C18.6904 23.0458 19.8702 19.7119 21.0116 16.4882C22.3151 12.8047 23.5468 9.32566 22.4636 7.81094C22.3918 7.7103 22.3056 7.62164 22.213 7.53898C21.5662 7.35852 20.878 7.26197 20.1485 7.26197C13.0428 7.26197 7.26197 12.994 7.26197 20.0394ZM21.5154 32.4462C21.554 32.4928 21.5906 32.5372 21.6253 32.5803C23.0852 32.2675 24.4571 31.4873 25.6531 30.2782C28.1136 27.7905 29.5219 23.8071 29.4202 19.6219C29.2988 14.6537 27.1652 9.63766 23.248 7.89296C24.0658 9.76732 22.9275 12.9798 21.6199 16.6571C20.494 19.8229 19.3296 23.0971 19.3296 25.7916C19.3296 29.7923 20.806 31.5849 21.5154 32.4462ZM26.5598 31.147C26.3629 31.3464 26.1605 31.5338 25.9549 31.7127C30.341 29.5881 33.369 25.1323 33.369 19.9905C33.369 14.9861 30.5004 10.6332 26.3034 8.44507C29.0778 11.0344 30.579 15.3285 30.6834 19.5915C30.7932 24.1045 29.2515 28.4244 26.5598 31.147Z" fill="black" stroke="black" stroke-width="0.6"></path></svg>