<?xml version="1.0" encoding="UTF-8" standalone="no"?>
<!-- Created with Inkscape (http://www.inkscape.org/) -->

<svg
   version="1.1"
   id="svg2"
   width="466.85333"
   height="100.86667"
   viewBox="0 0 466.85333 100.86667"
   sodipodi:docname="logo-wordmark-isovalent-horizontal-dark.eps"
   xmlns:inkscape="http://www.inkscape.org/namespaces/inkscape"
   xmlns:sodipodi="http://sodipodi.sourceforge.net/DTD/sodipodi-0.dtd"
   xmlns="http://www.w3.org/2000/svg"
   xmlns:svg="http://www.w3.org/2000/svg">
  <defs
     id="defs6">
    <clipPath
       clipPathUnits="userSpaceOnUse"
       id="clipPath18">
      <path
         d="m 2821.76,201.82 h 589.29 V 40.3203 h -589.29 z"
         id="path16" />
    </clipPath>
  </defs>
  <sodipodi:namedview
     id="namedview4"
     pagecolor="#ffffff"
     bordercolor="#000000"
     borderopacity="0.25"
     inkscape:showpageshadow="2"
     inkscape:pageopacity="0.0"
     inkscape:pagecheckerboard="0"
     inkscape:deskcolor="#d1d1d1" />
  <g
     id="g8"
     inkscape:groupmode="layer"
     inkscape:label="ink_ext_XXXXXX"
     transform="matrix(1.3333333,0,0,-1.3333333,0,100.86667)">
    <g
       id="g10"
       transform="scale(0.1)">
      <g
         id="g12">
        <g
           id="g14"
           clip-path="url(#clipPath18)">
          <path
             d="m 3111.98,155.121 c 0,0 -13.74,4.559 -24.54,4.559 -12.76,0 -19.63,-4.559 -19.63,-11.395 0,-9.117 8.83,-11.394 13.74,-13.676 l 8.84,-3.418 c 19.63,-7.976 29.45,-23.929 29.45,-41.023 0,-35.3242 -27.49,-47.8594 -51.05,-47.8594 -16.69,0 -32.4,3.418 -33.38,3.418 v 33.0468 c 2.94,-1.1406 15.71,-5.6992 29.45,-5.6992 15.71,0 22.58,5.6992 22.58,13.6758 0,6.8359 -5.89,11.3945 -13.74,13.676 -1.97,1.137 -4.91,2.277 -6.88,2.277 -17.67,6.836 -31.41,18.231 -31.41,42.164 0,26.207 17.67,44.442 46.14,44.442 14.73,0 29.45,-4.559 30.43,-4.559 z m 229.74,-1.141 c -18.66,0 -32.4,-17.089 -32.4,-37.601 0,-20.5157 13.74,-37.6056 32.4,-37.6056 18.65,0 32.39,17.0899 32.39,37.6056 0,20.512 -13.74,37.601 -32.39,37.601 z m 64.79,-37.601 c 0,-41.0235 -27.49,-74.0704 -64.79,-74.0704 -37.31,0 -64.8,33.0469 -64.8,74.0704 0,41.023 27.49,74.07 64.8,74.07 38.29,0 64.79,-33.047 64.79,-74.07 z m -485.97,30.766 c -0.98,1.14 -10.8,7.976 -26.51,7.976 -19.63,0 -34.36,-15.953 -34.36,-37.605 0,-21.6527 13.75,-37.6058 34.36,-37.6058 14.73,0 24.55,6.8398 26.51,7.9804 V 49.1445 c -3.93,-1.1406 -14.73,-4.5586 -28.47,-4.5586 -34.36,0 -65.78,27.3477 -65.78,74.0701 0,42.164 27.49,74.071 65.78,74.071 14.73,0 25.53,-4.559 28.47,-4.559 z m 323.98,0 c -0.98,1.14 -10.8,7.976 -26.51,7.976 -19.63,0 -34.36,-15.953 -34.36,-37.605 0,-21.6527 13.75,-37.6058 34.36,-37.6058 14.73,0 24.55,6.8398 26.51,7.9804 V 49.1445 c -3.92,-1.1406 -14.72,-4.5586 -28.47,-4.5586 -35.34,0 -65.78,27.3477 -65.78,74.0701 0,42.164 27.49,74.071 65.78,74.071 14.73,0 25.53,-4.559 28.47,-4.559 z m -280.78,41.023 h 31.41 V 45.7266 h -31.41 V 188.168"
             style="fill:#100f0d;fill-opacity:1;fill-rule:nonzero;stroke:none"
             id="path20" />
        </g>
      </g>
      <path
         d="M 2699.97,46.9297 V 186.578 c 0,7.82 1.71,14.313 5.13,19.473 3.43,5.215 7.96,9.097 13.61,11.652 5.65,2.606 11.79,3.91 18.41,3.91 4.89,0 9.07,-0.41 12.55,-1.222 3.48,-0.762 6.06,-1.465 7.74,-2.118 l -5.7,-19.718 c -1.14,0.328 -2.61,0.707 -4.4,1.14 -1.79,0.489 -3.97,0.735 -6.52,0.735 -5.92,0 -10.16,-1.465 -12.71,-4.403 -2.5,-2.929 -3.75,-7.168 -3.75,-12.707 V 46.9297 Z m 51.33,125.1443 v -19.551 h -70.72 v 19.551 h 70.72"
         style="fill:#100f0d;fill-opacity:1;fill-rule:nonzero;stroke:none"
         id="path22" />
      <path
         d="m 2606.3,64.8555 c 7.6,0 13.9,2.0078 18.9,6.0273 4.99,4.0195 8.69,9.3711 11.08,16.0508 2.44,6.6797 3.66,14.0434 3.66,22.0824 0,7.984 -1.22,15.316 -3.66,21.996 -2.39,6.734 -6.09,12.14 -11.08,16.215 -5,4.074 -11.3,6.109 -18.9,6.109 -7.66,0 -14.02,-2.035 -19.07,-6.109 -5,-4.075 -8.72,-9.481 -11.16,-16.215 -2.39,-6.68 -3.59,-14.012 -3.59,-21.996 0,-8.039 1.2,-15.4027 3.59,-22.0824 2.44,-6.6797 6.16,-12.0313 11.16,-16.0508 5.05,-4.0195 11.41,-6.0273 19.07,-6.0273 z m -0.09,-20.4532 c -11.73,0 -21.97,2.6915 -30.71,8.0665 -8.75,5.3789 -15.54,12.9023 -20.37,22.5703 -4.84,9.6679 -7.25,20.9648 -7.25,33.8949 0,12.98 2.41,24.332 7.25,34.054 4.83,9.723 11.62,17.274 20.37,22.653 8.74,5.375 18.98,8.062 30.71,8.062 11.74,0 21.97,-2.687 30.72,-8.062 8.74,-5.379 15.53,-12.93 20.37,-22.653 4.83,-9.722 7.25,-21.074 7.25,-34.054 0,-12.9301 -2.42,-24.227 -7.25,-33.8949 -4.84,-9.668 -11.63,-17.1914 -20.37,-22.5703 -8.75,-5.375 -18.98,-8.0665 -30.72,-8.0665"
         style="fill:#100f0d;fill-opacity:1;fill-rule:nonzero;stroke:none"
         id="path24" />
      <path
         d="m 2415.81,202.059 h 24.36 V 83.6758 c 0,-4.7266 0.7,-8.2852 2.12,-10.6719 1.41,-2.3359 3.23,-3.9414 5.45,-4.8086 2.29,-0.8164 4.76,-1.2226 7.42,-1.2226 1.95,0 3.67,0.1367 5.13,0.4062 1.47,0.2734 2.61,0.4883 3.42,0.6524 l 4.4,-20.125 c -1.41,-0.543 -3.42,-1.086 -6.03,-1.629 -2.6,-0.5976 -5.86,-0.9218 -9.77,-0.9765 -6.41,-0.1094 -12.39,1.0312 -17.93,3.4219 -5.54,2.3906 -10.02,6.082 -13.44,11.082 -3.42,4.9961 -5.13,11.2695 -5.13,18.8203 z m 50.02,-29.985 v -19.551 h -68.36 v 19.551 h 68.36"
         style="fill:#100f0d;fill-opacity:1;fill-rule:nonzero;stroke:none"
         id="path26" />
      <path
         d="M 2311.97,46.9297 V 172.074 h 23.54 v -19.879 h 1.31 c 2.28,6.735 6.3,12.032 12.06,15.887 5.81,3.91 12.38,5.867 19.71,5.867 1.52,0 3.32,-0.054 5.38,-0.164 2.12,-0.105 3.77,-0.242 4.97,-0.406 v -23.301 c -0.98,0.27 -2.72,0.57 -5.21,0.895 -2.5,0.382 -5,0.57 -7.5,0.57 -5.76,0 -10.89,-1.223 -15.4,-3.664 -4.45,-2.391 -7.98,-5.731 -10.59,-10.024 -2.61,-4.238 -3.91,-9.07 -3.91,-14.5 V 46.9297 h -24.36"
         style="fill:#100f0d;fill-opacity:1;fill-rule:nonzero;stroke:none"
         id="path28" />
      <path
         d="m 2223.06,63.7148 c 6.73,0 12.49,1.3321 17.27,3.9922 4.83,2.6602 8.5,6.1368 11,10.4297 2.55,4.3438 3.83,8.9883 3.83,13.9297 v 16.1326 c -0.87,-0.871 -2.55,-1.683 -5.05,-2.445 -2.45,-0.703 -5.24,-1.328 -8.39,-1.871 -3.15,-0.492 -6.22,-0.953 -9.21,-1.387 -2.99,-0.379 -5.49,-0.707 -7.5,-0.976 -4.72,-0.598 -9.04,-1.6059 -12.95,-3.0161 -3.86,-1.4101 -6.95,-3.4492 -9.29,-6.1094 -2.28,-2.6093 -3.42,-6.0859 -3.42,-10.4297 0,-6.0312 2.23,-10.5937 6.68,-13.6875 4.45,-3.0429 10.13,-4.5625 17.03,-4.5625 z m -5.3,-19.5546 c -7.93,0 -15.1,1.4648 -21.51,4.3984 -6.41,2.9883 -11.49,7.3047 -15.23,12.957 -3.7,5.6485 -5.54,12.5742 -5.54,20.7735 0,7.0625 1.35,12.875 4.07,17.4375 2.72,4.5624 6.38,8.1754 11,10.8364 4.62,2.66 9.78,4.671 15.48,6.027 5.7,1.359 11.51,2.39 17.44,3.098 7.49,0.867 13.57,1.574 18.25,2.117 4.67,0.597 8.06,1.55 10.18,2.851 2.12,1.305 3.18,3.422 3.18,6.356 v 0.57 c 0,7.117 -2.01,12.629 -6.03,16.539 -3.97,3.91 -9.89,5.867 -17.76,5.867 -8.2,0 -14.67,-1.82 -19.39,-5.461 -4.68,-3.582 -7.91,-7.574 -9.7,-11.972 l -22.89,5.211 c 2.71,7.605 6.68,13.742 11.89,18.414 5.27,4.726 11.33,8.148 18.17,10.265 6.84,2.172 14.04,3.258 21.59,3.258 5,0 10.29,-0.594 15.89,-1.789 5.65,-1.141 10.92,-3.262 15.8,-6.355 4.95,-3.098 8.99,-7.524 12.14,-13.282 3.15,-5.703 4.73,-13.117 4.73,-22.242 V 46.9297 h -23.79 v 17.1094 h -0.98 c -1.57,-3.1485 -3.94,-6.2461 -7.09,-9.2852 -3.15,-3.043 -7.19,-5.5703 -12.14,-7.5781 -4.94,-2.0117 -10.86,-3.0156 -17.76,-3.0156"
         style="fill:#100f0d;fill-opacity:1;fill-rule:nonzero;stroke:none"
         id="path30" />
      <path
         d="m 2063.61,109.504 c 0,-8.801 1.28,-16.5118 3.83,-23.1407 2.55,-6.625 6.25,-11.8125 11.08,-15.5625 4.83,-3.6914 10.75,-5.5391 17.76,-5.5391 7.28,0 13.36,1.9297 18.25,5.7852 4.89,3.9101 8.58,9.207 11.08,15.8867 2.56,6.6797 3.83,14.2034 3.83,22.5704 0,8.254 -1.25,15.668 -3.75,22.242 -2.44,6.57 -6.13,11.758 -11.08,15.563 -4.88,3.8 -11,5.703 -18.33,5.703 -7.06,0 -13.03,-1.821 -17.92,-5.461 -4.84,-3.637 -8.5,-8.715 -11,-15.235 -2.5,-6.519 -3.75,-14.121 -3.75,-22.812 z M 2039.74,0 v 172.074 h 23.79 v -20.285 h 2.04 c 1.41,2.606 3.44,5.621 6.11,9.043 2.66,3.422 6.35,6.41 11.08,8.961 4.72,2.609 10.97,3.91 18.74,3.91 10.1,0 19.12,-2.551 27.05,-7.656 7.93,-5.106 14.15,-12.465 18.65,-22.078 4.57,-9.617 6.85,-21.188 6.85,-34.711 0,-13.5236 -2.26,-25.1213 -6.77,-34.7892 -4.5,-9.6133 -10.7,-17.0274 -18.57,-22.2422 -7.88,-5.1602 -16.87,-7.7422 -26.97,-7.7422 -7.6,0 -13.82,1.2773 -18.66,3.832 -4.78,2.5508 -8.53,5.5391 -11.24,8.9609 -2.72,3.4219 -4.81,6.4649 -6.27,9.125 h -1.47 V 0 h -24.36"
         style="fill:#100f0d;fill-opacity:1;fill-rule:nonzero;stroke:none"
         id="path32" />
      <path
         d="M 1816.82,46.9297 1780,172.074 h 25.17 l 24.53,-91.9021 h 1.22 l 24.6,91.9021 h 25.18 l 24.44,-91.4959 h 1.22 l 24.36,91.4959 h 25.18 L 1919.15,46.9297 h -24.84 l -25.43,90.3553 h -1.87 l -25.42,-90.3553 h -24.77"
         style="fill:#100f0d;fill-opacity:1;fill-rule:nonzero;stroke:none"
         id="path34" />
      <path
         d="m 1708.05,64.8555 c 7.61,0 13.91,2.0078 18.91,6.0273 4.99,4.0195 8.69,9.3711 11.08,16.0508 2.44,6.6797 3.66,14.0434 3.66,22.0824 0,7.984 -1.22,15.316 -3.66,21.996 -2.39,6.734 -6.09,12.14 -11.08,16.215 -5,4.074 -11.3,6.109 -18.91,6.109 -7.66,0 -14.01,-2.035 -19.06,-6.109 -5,-4.075 -8.72,-9.481 -11.16,-16.215 -2.39,-6.68 -3.59,-14.012 -3.59,-21.996 0,-8.039 1.2,-15.4027 3.59,-22.0824 2.44,-6.6797 6.16,-12.0313 11.16,-16.0508 5.05,-4.0195 11.4,-6.0273 19.06,-6.0273 z m -0.08,-20.4532 c -11.73,0 -21.97,2.6915 -30.71,8.0665 -8.75,5.3789 -15.54,12.9023 -20.37,22.5703 -4.84,9.6679 -7.25,20.9648 -7.25,33.8949 0,12.98 2.41,24.332 7.25,34.054 4.83,9.723 11.62,17.274 20.37,22.653 8.74,5.375 18.98,8.062 30.71,8.062 11.73,0 21.97,-2.687 30.72,-8.062 8.74,-5.379 15.53,-12.93 20.37,-22.653 4.83,-9.722 7.25,-21.074 7.25,-34.054 0,-12.9301 -2.42,-24.227 -7.25,-33.8949 -4.84,-9.668 -11.63,-17.1914 -20.37,-22.5703 -8.75,-5.375 -18.99,-8.0665 -30.72,-8.0665"
         style="fill:#100f0d;fill-opacity:1;fill-rule:nonzero;stroke:none"
         id="path36" />
      <path
         d="M 1542.5,121.234 V 46.9297 h -24.36 V 172.074 h 23.38 v -20.367 h 1.55 c 2.88,6.629 7.38,11.949 13.52,15.969 6.19,4.019 13.99,6.027 23.38,6.027 8.53,0 16,-1.789 22.41,-5.375 6.41,-3.531 11.38,-8.801 14.91,-15.805 3.53,-7.007 5.3,-15.671 5.3,-25.992 V 46.9297 h -24.36 v 76.6683 c 0,9.07 -2.37,16.16 -7.09,21.265 -4.73,5.16 -11.22,7.739 -19.48,7.739 -5.64,0 -10.67,-1.219 -15.07,-3.664 -4.34,-2.446 -7.79,-6.032 -10.35,-10.754 -2.49,-4.672 -3.74,-10.321 -3.74,-16.95"
         style="fill:#100f0d;fill-opacity:1;fill-rule:nonzero;stroke:none"
         id="path38" />
      <path
         d="m 202.516,402.27 -2.149,-4.305 v 0 0 l 0.008,-0.004 0.016,-0.008 0.066,-0.031 0.231,-0.113 c 0.199,-0.098 0.488,-0.239 0.843,-0.411 0.711,-0.335 1.707,-0.804 2.852,-1.312 2.144,-0.953 5.004,-2.145 7.539,-2.898 38.933,-17.11 81.101,-25.637 125.789,-26.293 v 0 h 0.066 c 27.215,0 51.27,4.648 72.094,13.378 v 0 l 0.121,0.055 c 20.731,9.36 37.098,21.547 48.766,38.02 11.609,16.39 17.793,34.914 17.793,55.453 0,24.937 -6.754,44.992 -19.367,59.707 h 0.004 l -0.086,0.097 c -12.778,14.122 -27.672,24.989 -45.336,31.797 -17.27,7.297 -39.661,13.864 -67.02,20.379 v 0 l -0.117,0.024 c -21.359,4.535 -38.016,9.031 -50.059,13.465 -11.832,4.363 -21.027,9.902 -28.965,17.23 -7.292,6.734 -10.808,15.766 -10.808,27.031 0,16.407 7.465,29.84 23.656,39.434 v 0 l 0.067,0.043 c 15.902,9.785 37.691,14.89 64.46,14.89 28.024,0 55.473,-5.093 82.372,-14.058 2.074,-0.692 4.453,-1.371 6.269,-1.867 0.918,-0.25 1.711,-0.457 2.274,-0.602 l 0.664,-0.172 0.183,-0.047 0.047,-0.011 0.016,-0.004 h 0.004 v 0 0 l 1.168,4.664 -1.168,-4.664 4.039,-1.012 1.578,3.852 16.258,39.668 1.214,2.96 -2.265,2.266 -3.399,-3.402 c 3.399,3.402 3.391,3.41 3.383,3.418 l -0.015,0.015 -0.032,0.032 -0.062,0.058 -0.121,0.106 c -0.074,0.066 -0.145,0.125 -0.211,0.175 -0.129,0.102 -0.25,0.184 -0.356,0.254 -0.203,0.133 -0.41,0.25 -0.609,0.356 -0.395,0.207 -0.93,0.453 -1.691,0.765 -1.524,0.625 -4.219,1.633 -9.086,3.258 -31.805,11.914 -66.825,17.832 -105.657,17.832 -29.058,0 -54.523,-4.613 -75.519,-14.758 -20.86,-9.433 -37.223,-23.003 -48.184,-40.132 -10.906,-17.039 -16.367,-35.5 -16.367,-56.567 0,-23.679 6.777,-43.777 20.102,-58.504 12.836,-14.183 28.41,-25.035 46.695,-31.82 17.824,-7.258 40.793,-14.465 68.832,-21.637 v 0 l 0.059,-0.015 c 21.281,-5.157 37.398,-10.317 49.035,-14.196 11.258,-3.75 20.359,-8.664 27.535,-15.238 6.867,-6.297 10.144,-13.484 10.144,-22.469 0,-18.382 -6.957,-31.746 -20.746,-40.765 -14.136,-9.246 -35.949,-14.254 -66.136,-14.254 -35.68,0 -69.387,6.988 -100.536,20.93 -1.886,1.101 -4.425,2.273 -6.371,3.132 -1.054,0.461 -2,0.864 -2.683,1.145 -0.344,0.144 -0.621,0.258 -0.813,0.336 l -0.226,0.09 -0.063,0.027 -0.015,0.008 h -0.008 v 0 0 l -1.789,-4.465 1.789,4.465 -4.278,1.711 -1.89,-4.196 -18.211,-40.32 -1.903,-4.211 4.133,-2.066 2.153,4.301"
         style="fill:#100f0d;fill-opacity:1;fill-rule:nonzero;stroke:none"
         id="path40" />
      <path
         d="m 202.516,402.27 -2.149,-4.305 v 0 0 l 0.008,-0.004 0.016,-0.008 0.066,-0.031 0.231,-0.113 c 0.199,-0.098 0.488,-0.239 0.843,-0.411 0.711,-0.335 1.707,-0.804 2.852,-1.312 2.144,-0.953 5.004,-2.145 7.539,-2.898 38.933,-17.11 81.101,-25.637 125.789,-26.293 v 0 h 0.066 c 27.215,0 51.27,4.648 72.094,13.378 v 0 l 0.121,0.055 c 20.731,9.36 37.098,21.547 48.766,38.02 11.609,16.39 17.793,34.914 17.793,55.453 0,24.937 -6.754,44.992 -19.367,59.707 h 0.004 l -0.086,0.097 c -12.778,14.122 -27.672,24.989 -45.336,31.797 -17.27,7.297 -39.661,13.864 -67.02,20.379 v 0 l -0.117,0.024 c -21.359,4.535 -38.016,9.031 -50.059,13.465 -11.832,4.363 -21.027,9.902 -28.965,17.23 -7.292,6.734 -10.808,15.766 -10.808,27.031 0,16.407 7.465,29.84 23.656,39.434 v 0 l 0.067,0.043 c 15.902,9.785 37.691,14.89 64.46,14.89 28.024,0 55.473,-5.093 82.372,-14.058 2.074,-0.692 4.453,-1.371 6.269,-1.867 0.918,-0.25 1.711,-0.457 2.274,-0.602 l 0.664,-0.172 0.183,-0.047 0.047,-0.011 0.016,-0.004 h 0.004 v 0 0 l 1.168,4.664 -1.168,-4.664 4.039,-1.012 1.578,3.852 16.258,39.668 1.214,2.96 -2.265,2.266 -3.399,-3.402 c 3.399,3.402 3.391,3.41 3.383,3.418 l -0.015,0.015 -0.032,0.032 -0.062,0.058 -0.121,0.106 c -0.074,0.066 -0.145,0.125 -0.211,0.175 -0.129,0.102 -0.25,0.184 -0.356,0.254 -0.203,0.133 -0.41,0.25 -0.609,0.356 -0.395,0.207 -0.93,0.453 -1.691,0.765 -1.524,0.625 -4.219,1.633 -9.086,3.258 -31.805,11.914 -66.825,17.832 -105.657,17.832 -29.058,0 -54.523,-4.613 -75.519,-14.758 -20.86,-9.433 -37.223,-23.003 -48.184,-40.132 -10.906,-17.039 -16.367,-35.5 -16.367,-56.567 0,-23.679 6.777,-43.777 20.102,-58.504 12.836,-14.183 28.41,-25.035 46.695,-31.82 17.824,-7.258 40.793,-14.465 68.832,-21.637 v 0 l 0.059,-0.015 c 21.281,-5.157 37.398,-10.317 49.035,-14.196 11.258,-3.75 20.359,-8.664 27.535,-15.238 6.867,-6.297 10.144,-13.484 10.144,-22.469 0,-18.382 -6.957,-31.746 -20.746,-40.765 -14.136,-9.246 -35.949,-14.254 -66.136,-14.254 -35.68,0 -69.387,6.988 -100.536,20.93 -1.886,1.101 -4.425,2.273 -6.371,3.132 -1.054,0.461 -2,0.864 -2.683,1.145 -0.344,0.144 -0.621,0.258 -0.813,0.336 l -0.226,0.09 -0.063,0.027 -0.015,0.008 h -0.008 v 0 0 l -1.789,-4.465 1.789,4.465 -4.278,1.711 -1.89,-4.196 -18.211,-40.32 -1.903,-4.211 4.133,-2.066 z"
         style="fill:none;stroke:#100f0d;stroke-width:9.61814;stroke-linecap:butt;stroke-linejoin:miter;stroke-miterlimit:4;stroke-dasharray:none;stroke-opacity:1"
         id="path42" />
      <path
         d="m 892.77,489.012 v 0 l -0.051,-0.106 C 882.703,468.25 867.727,451.418 847.77,439.57 c -20,-11.875 -43.2,-18.187 -70.379,-18.187 -27.2,0 -50.993,6.316 -70.278,18.121 -19.449,12.562 -34.457,28.836 -45.105,49.508 -10.645,20.66 -15.723,44.586 -15.723,70.629 0,26.043 5.078,49.972 15.723,70.632 10.691,20.754 25.719,37.622 45.058,49.477 19.293,11.824 43.106,18.148 70.325,18.148 27.144,0 50.316,-6.293 70.3,-18.136 19.438,-12.559 34.434,-28.824 45.079,-49.489 10.644,-20.66 15.722,-44.589 15.722,-70.632 0,-26.043 -5.078,-49.969 -15.722,-70.629 z m -303.575,70.715 -0.004,-0.086 0.004,-0.086 c 0.66,-37.055 8.61,-70.34 23.977,-99.078 15.383,-28.758 37.473,-51.504 65.512,-68.196 28.199,-16.781 61.601,-24.734 98.707,-24.734 37.101,0 69.839,7.953 98.015,24.715 28.082,16.054 50.172,38.82 65.551,68.218 16.012,29.375 23.965,62.008 24.625,99.075 l 0.004,0.129 -0.004,0.129 c -1.324,37.027 -9.269,69.613 -24.605,98.953 l -0.024,0.039 c -15.383,28.761 -37.469,51.504 -65.512,68.195 -28.183,16.777 -60.933,24.738 -98.05,24.738 -37.106,0 -70.508,-7.953 -98.707,-24.738 -28.039,-16.691 -50.129,-39.434 -65.512,-68.195 -15.367,-28.735 -23.317,-62.02 -23.977,-99.078"
         style="fill:#100f0d;fill-opacity:1;fill-rule:nonzero;stroke:none"
         id="path44" />
      <path
         d="m 892.77,489.012 v 0 l -0.051,-0.106 C 882.703,468.25 867.727,451.418 847.77,439.57 c -20,-11.875 -43.2,-18.187 -70.379,-18.187 -27.2,0 -50.993,6.316 -70.278,18.121 -19.449,12.562 -34.457,28.836 -45.105,49.508 -10.645,20.66 -15.723,44.586 -15.723,70.629 0,26.043 5.078,49.972 15.723,70.632 10.691,20.754 25.719,37.622 45.058,49.477 19.293,11.824 43.106,18.148 70.325,18.148 27.144,0 50.316,-6.293 70.3,-18.136 19.438,-12.559 34.434,-28.824 45.079,-49.489 10.644,-20.66 15.722,-44.589 15.722,-70.632 0,-26.043 -5.078,-49.969 -15.722,-70.629 z m -303.575,70.715 -0.004,-0.086 0.004,-0.086 c 0.66,-37.055 8.61,-70.34 23.977,-99.078 15.383,-28.758 37.473,-51.504 65.512,-68.196 28.199,-16.781 61.601,-24.734 98.707,-24.734 37.101,0 69.839,7.953 98.015,24.715 28.082,16.054 50.172,38.82 65.551,68.218 16.012,29.375 23.965,62.008 24.625,99.075 l 0.004,0.129 -0.004,0.129 c -1.324,37.027 -9.269,69.613 -24.605,98.953 l -0.024,0.039 c -15.383,28.761 -37.469,51.504 -65.512,68.195 -28.183,16.777 -60.933,24.738 -98.05,24.738 -37.106,0 -70.508,-7.953 -98.707,-24.738 -28.039,-16.691 -50.129,-39.434 -65.512,-68.195 -15.367,-28.735 -23.317,-62.02 -23.977,-99.078 z"
         style="fill:none;stroke:#100f0d;stroke-width:9.61814;stroke-linecap:butt;stroke-linejoin:miter;stroke-miterlimit:4;stroke-dasharray:none;stroke-opacity:1"
         id="path46" />
      <path
         d="m 1050.51,749.789 h -7.2 l 2.76,-6.652 153.47,-370.024 1.23,-2.968 h 3.22 55.27 3.22 l 1.23,2.976 152.82,370.024 2.74,6.644 h -7.19 -51.37 -3.25 l -1.21,-3.019 -124.96,-311.454 -125.59,311.461 -1.22,3.012 h -3.24 -50.73"
         style="fill:#100f0d;fill-opacity:1;fill-rule:nonzero;stroke:none"
         id="path48" />
      <path
         d="m 1050.51,749.789 h -7.2 l 2.76,-6.652 153.47,-370.024 1.23,-2.968 h 3.22 55.27 3.22 l 1.23,2.976 152.82,370.024 2.74,6.644 h -7.19 -51.37 -3.25 l -1.21,-3.019 -124.96,-311.454 -125.59,311.461 -1.22,3.012 h -3.24 z"
         style="fill:none;stroke:#100f0d;stroke-width:9.61814;stroke-linecap:butt;stroke-linejoin:miter;stroke-miterlimit:4;stroke-dasharray:none;stroke-opacity:1"
         id="path50" />
      <path
         d="m 1525.77,373.102 124.97,298.929 124.98,-298.929 1.23,-2.957 h 3.2 51.38 7.26 l -2.83,6.687 -156.73,370.023 -1.24,2.934 h -3.18 -47.48 -3.18 l -1.25,-2.934 -156.72,-370.023 -2.83,-6.687 h 7.26 50.72 3.21 l 1.23,2.957"
         style="fill:#100f0d;fill-opacity:1;fill-rule:nonzero;stroke:none"
         id="path52" />
      <path
         d="m 1525.77,373.102 124.97,298.929 124.98,-298.929 1.23,-2.957 h 3.2 51.38 7.26 l -2.83,6.687 -156.73,370.023 -1.24,2.934 h -3.18 -47.48 -3.18 l -1.25,-2.934 -156.72,-370.023 -2.83,-6.687 h 7.26 50.72 3.21 z"
         style="fill:none;stroke:#100f0d;stroke-width:9.61814;stroke-linecap:butt;stroke-linejoin:miter;stroke-miterlimit:4;stroke-dasharray:none;stroke-opacity:1"
         id="path54" />
      <path
         d="m 1961.33,377.559 v -4.813 h 252.18 v 57.094 h -4.8 -190.3 l -0.64,315.148 -0.01,4.801 h -4.8 -46.82 -4.81 V 744.98 377.559"
         style="fill:#100f0d;fill-opacity:1;fill-rule:nonzero;stroke:none"
         id="path56" />
      <path
         d="m 1961.33,377.559 v -4.813 h 252.18 v 57.094 h -4.8 -190.3 l -0.64,315.148 -0.01,4.801 h -4.8 -46.82 -4.81 v -4.809 z"
         style="fill:none;stroke:#100f0d;stroke-width:9.61814;stroke-linecap:butt;stroke-linejoin:miter;stroke-miterlimit:4;stroke-dasharray:none;stroke-opacity:1"
         id="path58" />
      <path
         d="m 2338.77,747.188 h -4.81 V 377.559 h 4.81 v -4.161 h 255.57 4.81 v 4.809 44.223 4.808 h -4.81 -203.29 v 106.137 h 184.43 4.81 v 4.809 44.218 4.813 h -4.81 -184.43 v 106.133 h 203.29 4.81 v 4.808 44.223 4.809 h -4.81 -255.57"
         style="fill:#100f0d;fill-opacity:1;fill-rule:nonzero;stroke:none"
         id="path60" />
      <path
         d="m 2338.77,747.188 h -4.81 V 377.559 h 4.81 v -4.161 h 255.57 4.81 v 4.809 44.223 4.808 h -4.81 -203.29 v 106.137 h 184.43 4.81 v 4.809 44.218 4.813 h -4.81 -184.43 v 106.133 h 203.29 4.81 v 4.808 44.223 4.809 h -4.81 z"
         style="fill:none;stroke:#100f0d;stroke-width:9.61814;stroke-linecap:butt;stroke-linejoin:miter;stroke-miterlimit:4;stroke-dasharray:none;stroke-opacity:1"
         id="path62" />
      <path
         d="m 2746.25,374.953 v -4.808 h 56.43 l 0.01,4.8 0.62,266.528 227.61,-269.621 1.44,-1.707 h 2.24 34.46 4.81 v 4.808 370.027 4.809 h -4.81 -47.47 -4.81 V 744.98 477.219 l -228.22,270.859 -1.45,1.711 h -2.23 -0.06 -0.05 -0.05 -0.06 -0.05 -0.06 -0.05 -0.06 -0.06 -0.05 -0.06 -0.06 -0.05 -0.06 -0.06 -0.06 -0.06 -0.06 -0.06 -0.06 -0.06 -0.06 -0.06 -0.06 -0.06 -0.06 -0.07 -0.06 -0.06 -0.06 -0.07 -0.06 -0.07 -0.06 -0.06 -0.07 -0.06 -0.07 -0.07 -0.06 -0.07 -0.06 -0.07 -0.07 -0.07 -0.06 -0.07 -0.07 -0.07 -0.07 -0.07 -0.07 -0.07 -0.07 -0.07 -0.07 -0.07 -0.07 -0.07 -0.07 -0.07 -0.07 -0.08 -0.07 -0.07 -0.07 -0.08 -0.07 -0.07 -0.08 -0.07 -0.08 -0.07 -0.08 -0.07 -0.08 -0.07 -0.08 -0.07 -0.08 -0.07 -0.08 -0.08 -0.07 -0.08 -0.08 -0.08 -0.07 -0.08 -0.08 -0.08 -0.08 -0.08 -0.07 -0.08 -0.08 -0.08 -0.08 -0.08 -0.08 -0.08 -0.08 -0.08 -0.08 -0.08 -0.09 -0.08 -0.08 -0.08 -0.08 -0.08 -0.08 -0.09 -0.08 -0.08 -0.08 -0.09 -0.08 -0.08 -0.09 -0.08 -0.08 -0.09 -0.08 -0.08 -0.09 -0.08 -0.09 -0.08 -0.09 -0.08 -0.08 -0.09 -0.08 -0.09 -0.08 -0.09 -0.09 -0.08 -0.09 -0.08 -0.09 -0.08 -0.09 -0.09 -0.08 -0.09 -0.09 -0.08 -0.09 -0.09 -0.08 -0.09 -0.09 -0.08 -0.09 -0.09 -0.08 -0.09 -0.09 -0.09 -0.08 -0.09 -0.09 -0.09 -0.08 -0.09 -0.09 -0.09 -0.09 -0.08 -0.09 -0.09 -0.09 -0.09 -0.09 -0.08 -0.09 -0.09 -0.09 -0.09 -0.09 -0.08 -0.09 -0.09 -0.09 -0.09 -0.09 -0.09 -0.08 -0.09 -0.09 -0.09 -0.09 -0.09 -0.09 -0.09 -0.08 -0.09 -0.09 -0.09 -0.09 -0.09 -0.09 -0.09 -0.08 -0.09 -0.09 -0.09 -0.09 -0.09 -0.09 -0.08 -0.09 -0.09 -0.09 -0.09 -0.09 -0.09 -0.08 -0.09 -0.09 -0.09 -0.09 -0.08 -0.09 -0.09 -0.09 -0.09 -0.08 -0.09 -0.09 -0.09 -0.09 -0.08 -0.09 -0.09 -0.09 -0.08 -0.09 -0.09 -0.08 -0.09 -0.09 -0.08 -0.09 -0.09 -0.08 -0.09 -0.09 -0.08 -0.09 -0.09 -0.08 -0.09 -0.08 -0.09 -0.08 -0.09 -0.09 -0.08 -0.09 -0.08 -0.09 -0.08 -0.09 -0.08 -0.08 -0.09 -0.08 -0.09 -0.08 -0.08 -0.09 -0.08 -0.09 -0.08 -0.08 -0.08 -0.09 -0.08 -0.08 -0.08 -0.09 -0.08 -0.08 -0.08 -0.08 -0.09 -0.08 -0.08 -0.08 -0.08 -0.08 -0.08 -0.08 -0.08 -0.08 -0.08 -0.08 -0.08 -0.08 -0.08 -0.08 -0.07 -0.08 -0.08 -0.08 -0.08 -0.07 -0.08 -0.08 -0.08 -0.07 -0.08 -0.08 -0.07 -0.08 -0.07 -0.08 -0.07 -0.08 -0.07 -0.08 -0.07 -0.08 -0.07 -0.07 -0.08 -0.07 -0.07 -0.08 -0.07 -0.07 -0.07 -0.08 -0.07 -0.07 -0.07 -0.07 -0.07 -0.07 -0.07 -0.07 -0.07 -0.07 -0.07 -0.07 -0.06 -0.07 -0.07 -0.07 -0.07 -0.06 -0.07 -0.07 -0.06 -0.07 -0.06 -0.07 -0.06 -0.07 -0.06 -0.07 -0.06 -0.06 -0.07 -0.06 -0.06 -0.07 -0.06 -0.06 -0.06 -0.06 -0.06 -0.06 -0.06 -0.06 -0.06 -0.06 -0.06 -0.06 -0.06 -0.05 -0.06 -0.06 -0.06 -0.05 -0.06 -0.05 -0.06 -0.05 -0.06 -0.05 -0.06 -0.05 -0.05 -0.06 -0.05 -0.05 -0.05 -0.06 -0.05 -0.05 -0.05 -0.05 -0.05 -0.05 -0.05 -0.04 -0.05 -0.05 -0.05 -0.04 -0.05 -0.05 -0.04 -0.05 -0.04 -0.05 -0.04 -0.05 -0.04 -0.04 -0.04 -0.05 -0.04 -0.04 -0.04 -0.04 -0.04 -0.04 -0.04 -0.04 -0.04 -0.04 -0.03 -0.04 -0.04 -0.03 -0.04 -0.03 -0.04 -0.03 -0.04 -0.03 -0.04 -0.03 -0.03 -0.03 -0.03 -0.03 -0.03 -0.03 -0.03 -0.03 -0.03 -0.03 -0.03 -0.03 -0.02 -0.03 -0.02 -0.03 -0.02 -0.03 -0.02 -0.03 -0.02 -0.02 -0.02 -0.02 -0.03 -0.02 -0.02 -0.02 -0.01 -0.02 -0.02 -0.02 -0.01 -0.02 -0.02 -0.01 -0.02 -0.01 -0.02 -0.01 -0.01 -0.01 -0.02 -0.01 -0.01 -0.01 -0.01 -0.01 v 0 h -0.01 -0.01 -0.01 v 0 h -0.01 v 0 h -0.01 v 0 h -0.01 v 0 0 h -0.01 v 0 0 -4.809 4.809 h -4.81 V 744.98 374.953"
         style="fill:#100f0d;fill-opacity:1;fill-rule:nonzero;stroke:none"
         id="path64" />
      <path
         d="m 2746.25,374.953 v -4.808 h 56.43 l 0.01,4.8 0.62,266.528 227.61,-269.621 1.44,-1.707 h 2.24 34.46 4.81 v 4.808 370.027 4.809 h -4.81 -47.47 -4.81 V 744.98 477.219 l -228.22,270.859 -1.45,1.711 h -2.23 -0.06 -0.05 -0.05 -0.06 -0.05 -0.06 -0.05 -0.06 -0.06 -0.05 -0.06 -0.06 -0.05 -0.06 -0.06 -0.06 -0.06 -0.06 -0.06 -0.06 -0.06 -0.06 -0.06 -0.06 -0.06 -0.06 -0.07 -0.06 -0.06 -0.06 -0.07 -0.06 -0.07 -0.06 -0.06 -0.07 -0.06 -0.07 -0.07 -0.06 -0.07 -0.06 -0.07 -0.07 -0.07 -0.06 -0.07 -0.07 -0.07 -0.07 -0.07 -0.07 -0.07 -0.07 -0.07 -0.07 -0.07 -0.07 -0.07 -0.07 -0.07 -0.07 -0.08 -0.07 -0.07 -0.07 -0.08 -0.07 -0.07 -0.08 -0.07 -0.08 -0.07 -0.08 -0.07 -0.08 -0.07 -0.08 -0.07 -0.08 -0.07 -0.08 -0.08 -0.07 -0.08 -0.08 -0.08 -0.07 -0.08 -0.08 -0.08 -0.08 -0.08 -0.07 -0.08 -0.08 -0.08 -0.08 -0.08 -0.08 -0.08 -0.08 -0.08 -0.08 -0.08 -0.09 -0.08 -0.08 -0.08 -0.08 -0.08 -0.08 -0.09 -0.08 -0.08 -0.08 -0.09 -0.08 -0.08 -0.09 -0.08 -0.08 -0.09 -0.08 -0.08 -0.09 -0.08 -0.09 -0.08 -0.09 -0.08 -0.08 -0.09 -0.08 -0.09 -0.08 -0.09 -0.09 -0.08 -0.09 -0.08 -0.09 -0.08 -0.09 -0.09 -0.08 -0.09 -0.09 -0.08 -0.09 -0.09 -0.08 -0.09 -0.09 -0.08 -0.09 -0.09 -0.08 -0.09 -0.09 -0.09 -0.08 -0.09 -0.09 -0.09 -0.08 -0.09 -0.09 -0.09 -0.09 -0.08 -0.09 -0.09 -0.09 -0.09 -0.09 -0.08 -0.09 -0.09 -0.09 -0.09 -0.09 -0.08 -0.09 -0.09 -0.09 -0.09 -0.09 -0.09 -0.08 -0.09 -0.09 -0.09 -0.09 -0.09 -0.09 -0.09 -0.08 -0.09 -0.09 -0.09 -0.09 -0.09 -0.09 -0.09 -0.08 -0.09 -0.09 -0.09 -0.09 -0.09 -0.09 -0.08 -0.09 -0.09 -0.09 -0.09 -0.09 -0.09 -0.08 -0.09 -0.09 -0.09 -0.09 -0.08 -0.09 -0.09 -0.09 -0.09 -0.08 -0.09 -0.09 -0.09 -0.09 -0.08 -0.09 -0.09 -0.09 -0.08 -0.09 -0.09 -0.08 -0.09 -0.09 -0.08 -0.09 -0.09 -0.08 -0.09 -0.09 -0.08 -0.09 -0.09 -0.08 -0.09 -0.08 -0.09 -0.08 -0.09 -0.09 -0.08 -0.09 -0.08 -0.09 -0.08 -0.09 -0.08 -0.08 -0.09 -0.08 -0.09 -0.08 -0.08 -0.09 -0.08 -0.09 -0.08 -0.08 -0.08 -0.09 -0.08 -0.08 -0.08 -0.09 -0.08 -0.08 -0.08 -0.08 -0.09 -0.08 -0.08 -0.08 -0.08 -0.08 -0.08 -0.08 -0.08 -0.08 -0.08 -0.08 -0.08 -0.08 -0.08 -0.08 -0.07 -0.08 -0.08 -0.08 -0.08 -0.07 -0.08 -0.08 -0.08 -0.07 -0.08 -0.08 -0.07 -0.08 -0.07 -0.08 -0.07 -0.08 -0.07 -0.08 -0.07 -0.08 -0.07 -0.07 -0.08 -0.07 -0.07 -0.08 -0.07 -0.07 -0.07 -0.08 -0.07 -0.07 -0.07 -0.07 -0.07 -0.07 -0.07 -0.07 -0.07 -0.07 -0.07 -0.07 -0.06 -0.07 -0.07 -0.07 -0.07 -0.06 -0.07 -0.07 -0.06 -0.07 -0.06 -0.07 -0.06 -0.07 -0.06 -0.07 -0.06 -0.06 -0.07 -0.06 -0.06 -0.07 -0.06 -0.06 -0.06 -0.06 -0.06 -0.06 -0.06 -0.06 -0.06 -0.06 -0.06 -0.06 -0.06 -0.05 -0.06 -0.06 -0.06 -0.05 -0.06 -0.05 -0.06 -0.05 -0.06 -0.05 -0.06 -0.05 -0.05 -0.06 -0.05 -0.05 -0.05 -0.06 -0.05 -0.05 -0.05 -0.05 -0.05 -0.05 -0.05 -0.04 -0.05 -0.05 -0.05 -0.04 -0.05 -0.05 -0.04 -0.05 -0.04 -0.05 -0.04 -0.05 -0.04 -0.04 -0.04 -0.05 -0.04 -0.04 -0.04 -0.04 -0.04 -0.04 -0.04 -0.04 -0.04 -0.04 -0.03 -0.04 -0.04 -0.03 -0.04 -0.03 -0.04 -0.03 -0.04 -0.03 -0.04 -0.03 -0.03 -0.03 -0.03 -0.03 -0.03 -0.03 -0.03 -0.03 -0.03 -0.03 -0.03 -0.03 -0.02 -0.03 -0.02 -0.03 -0.02 -0.03 -0.02 -0.03 -0.02 -0.02 -0.02 -0.02 -0.03 -0.02 -0.02 -0.02 -0.01 -0.02 -0.02 -0.02 -0.01 -0.02 -0.02 -0.01 -0.02 -0.01 -0.02 -0.01 -0.01 -0.01 -0.02 -0.01 -0.01 -0.01 -0.01 -0.01 v 0 h -0.01 -0.01 -0.01 v 0 h -0.01 v 0 h -0.01 v 0 h -0.01 v 0 0 h -0.01 v 0 0 -4.809 4.809 h -4.81 v -4.809 z"
         style="fill:none;stroke:#100f0d;stroke-width:9.61814;stroke-linecap:butt;stroke-linejoin:miter;stroke-miterlimit:4;stroke-dasharray:none;stroke-opacity:1"
         id="path66" />
      <path
         d="m 3310.72,374.957 v -4.809 h 57.09 v 322.551 h 123.95 4.81 v 4.809 44.219 4.812 h -4.81 -304.35 -4.8 v -4.812 -44.219 -4.809 h 4.8 123.31 V 374.957"
         style="fill:#100f0d;fill-opacity:1;fill-rule:nonzero;stroke:none"
         id="path68" />
      <path
         d="m 3310.72,374.957 v -4.809 h 57.09 v 322.551 h 123.95 4.81 v 4.809 44.219 4.812 h -4.81 -304.35 -4.8 v -4.812 -44.219 -4.809 h 4.8 123.31 z"
         style="fill:none;stroke:#100f0d;stroke-width:9.61814;stroke-linecap:butt;stroke-linejoin:miter;stroke-miterlimit:4;stroke-dasharray:none;stroke-opacity:1"
         id="path70" />
      <path
         d="m 61.8984,744.98 v 4.809 H 4.80859 V 370.145 h 4.8086 47.47261 4.8086 v 4.808 370.027"
         style="fill:#100f0d;fill-opacity:1;fill-rule:nonzero;stroke:none"
         id="path72" />
      <path
         d="m 61.8984,744.98 v 4.809 H 4.80859 V 370.145 h 4.8086 47.47261 4.8086 v 4.808 z"
         style="fill:none;stroke:#100f0d;stroke-width:9.61814;stroke-linecap:butt;stroke-linejoin:miter;stroke-miterlimit:4;stroke-dasharray:none;stroke-opacity:1"
         id="path74" />
      <path
         d="m 1670.91,514.77 18.85,-31.864 -18.85,-32.515 h -36.42 l -18.86,32.515 18.86,31.864 h 36.42"
         style="fill:#3843a1;fill-opacity:1;fill-rule:nonzero;stroke:none"
         id="path76" />
    </g>
  </g>
</svg>
