<svg width="320" height="150" viewBox="0 0 320 150" fill="none" xmlns="http://www.w3.org/2000/svg">
<path d="M133.623 64.676C134.906 63.2764 136.176 61.8653 137.433 60.443C138.748 59.0193 140.046 57.5802 141.327 56.126C142.492 54.7503 143.649 53.3676 144.798 51.978C145.772 50.8621 146.732 49.7333 147.676 48.592H162.66C159.764 51.9275 156.829 55.229 153.856 58.496C150.842 61.799 147.737 65.0172 144.544 68.147C146.237 69.671 147.987 71.505 149.793 73.65C151.617 75.7611 153.368 77.9351 155.041 80.168C156.688 82.3586 158.242 84.6183 159.697 86.941C161.108 89.198 162.294 91.258 163.253 93.121H148.777C147.768 91.4902 146.724 89.8815 145.645 88.296C144.503 86.4704 143.288 84.691 142.004 82.962C140.715 81.1675 139.33 79.4436 137.856 77.798C136.445 76.161 135.034 74.778 133.623 73.65V93.12H121.01V29.46L133.623 27.427V64.676ZM207.218 91.597C205.074 92.217 202.308 92.782 198.922 93.29C195.536 93.855 191.98 94.137 188.255 94.137C184.474 94.137 181.313 93.629 178.774 92.613C176.29 91.597 174.315 90.186 172.848 88.38C171.38 86.518 170.336 84.317 169.715 81.777C169.095 79.237 168.784 76.444 168.784 73.396V48.592H181.398V71.872C181.398 75.936 181.934 78.87 183.006 80.676C184.079 82.482 186.082 83.386 189.017 83.386C189.92 83.386 190.879 83.357 191.895 83.301C192.8 83.202 193.703 83.089 194.604 82.962V48.592H207.218V91.597ZM247.588 70.517C247.588 62.391 244.597 58.327 238.614 58.327C237.316 58.327 236.018 58.497 234.72 58.835C233.479 59.174 232.463 59.597 231.673 60.105V83.047C232.293 83.16 233.084 83.272 234.043 83.385C235.002 83.442 236.046 83.47 237.175 83.47C240.618 83.47 243.214 82.285 244.964 79.915C246.713 77.545 247.588 74.411 247.588 70.517ZM260.456 70.857C260.456 74.412 259.92 77.629 258.847 80.507C257.831 83.385 256.336 85.84 254.36 87.872C252.385 89.904 249.958 91.484 247.08 92.612C244.202 93.685 240.928 94.222 237.26 94.222C235.648 94.2174 234.037 94.1323 232.434 93.967C230.792 93.8539 229.154 93.6848 227.524 93.46C225.994 93.2426 224.47 92.9886 222.953 92.698C221.645 92.4009 220.346 92.062 219.059 91.682V29.459L231.673 27.427V49.607C233.084 48.987 234.551 48.507 236.075 48.168C237.599 47.83 239.235 47.66 240.985 47.66C244.145 47.66 246.939 48.225 249.366 49.354C251.793 50.426 253.824 51.978 255.461 54.01C257.098 56.041 258.339 58.496 259.186 61.375C260.032 64.197 260.456 67.358 260.456 70.857ZM268.034 71.195C268.034 67.245 268.626 63.802 269.812 60.867C271.053 57.876 272.662 55.392 274.637 53.417C276.564 51.4736 278.869 49.9464 281.41 48.93C284.006 47.914 286.658 47.406 289.367 47.406C295.688 47.406 300.683 49.353 304.351 53.248C308.02 57.086 309.854 62.758 309.854 70.264C309.854 70.997 309.826 71.816 309.769 72.719C309.713 73.565 309.657 74.327 309.6 75.004H280.986C281.268 77.6 282.482 79.66 284.626 81.184C286.771 82.708 289.649 83.47 293.261 83.47C295.575 83.47 297.833 83.272 300.034 82.877C302.291 82.426 304.126 81.89 305.537 81.269L307.23 91.512C306.552 91.851 305.649 92.19 304.521 92.528C303.271 92.8939 301.998 93.1769 300.711 93.375C299.256 93.6727 297.787 93.8987 296.309 94.052C294.729 94.222 293.149 94.306 291.568 94.306C287.561 94.306 284.062 93.713 281.071 92.528C278.136 91.343 275.681 89.735 273.706 87.703C271.787 85.615 270.348 83.16 269.388 80.338C268.485 77.516 268.034 74.468 268.034 71.195ZM297.664 66.37C297.609 65.3037 297.409 64.2498 297.071 63.237C296.798 62.2385 296.307 61.3132 295.632 60.528C295.011 59.738 294.193 59.089 293.177 58.581C292.217 58.073 291.004 57.819 289.537 57.819C288.126 57.819 286.912 58.073 285.896 58.581C284.88 59.033 284.034 59.653 283.357 60.443C282.679 61.233 282.143 62.165 281.748 63.237C281.409 64.2587 281.154 65.3066 280.986 66.37H297.664Z" fill="#253391"/>
<path d="M120.712 128.969V104.24H137.412V108.915H126.279V113.768H136.163V118.335H126.279V124.295H138.233V128.969H120.712ZM160.792 128.969C159.788 126.835 158.824 124.682 157.902 122.511C156.965 120.312 156.061 118.099 155.19 115.873C154.372 113.788 153.575 111.694 152.799 109.593C152.162 107.815 151.543 106.031 150.943 104.24H157.081C157.557 105.667 158.068 107.214 158.615 108.879L160.328 113.803C160.897 115.374 161.468 116.944 162.041 118.514C162.514 119.825 163.026 121.122 163.575 122.403C164.027 121.309 164.527 120.013 165.074 118.514C165.668 116.952 166.239 115.382 166.787 113.803C167.38 112.169 167.951 110.528 168.5 108.879C169.03 107.335 169.553 105.789 170.07 104.24H175.994C175.37 106.027 174.74 107.811 174.102 109.593C173.349 111.698 172.564 113.792 171.747 115.873C170.876 118.099 169.972 120.312 169.035 122.511C168.113 124.682 167.149 126.835 166.145 128.969H160.792ZM189.899 128.969V104.24H206.6V108.915H195.466V113.768H205.351V118.335H195.466V124.295H207.42V128.969H189.899ZM238.838 128.969C237.225 126.106 235.499 123.309 233.664 120.584C231.842 117.867 229.864 115.258 227.741 112.769V128.969H222.245V104.24H226.777C227.688 105.165 228.557 106.129 229.382 107.131C230.379 108.33 231.343 109.555 232.273 110.806C233.296 112.123 234.283 113.468 235.234 114.838C236.21 116.218 237.126 117.55 237.982 118.835V104.24H243.513V128.969H238.838ZM278.265 104.24V108.986H270.807V128.969H265.24V108.986H257.782V104.24H278.265ZM299.292 124.723C300.077 124.723 300.719 124.663 301.219 124.545C301.742 124.402 302.159 124.223 302.468 124.009C302.777 123.771 302.991 123.498 303.11 123.189C303.229 122.879 303.289 122.534 303.289 122.154C303.289 121.345 302.908 120.679 302.147 120.155C301.386 119.608 300.077 119.025 298.222 118.407C297.401 118.116 296.592 117.795 295.795 117.443C295.011 117.078 294.278 116.611 293.618 116.052C292.973 115.477 292.441 114.787 292.048 114.018C291.644 113.209 291.442 112.233 291.442 111.091C291.442 109.95 291.656 108.927 292.084 108.023C292.502 107.108 293.125 106.302 293.904 105.667C294.689 105.025 295.64 104.537 296.759 104.204C297.877 103.848 299.137 103.669 300.541 103.669C302.206 103.669 303.646 103.848 304.859 104.204C306.072 104.561 307.071 104.954 307.856 105.382L306.251 109.771C305.507 109.392 304.731 109.082 303.931 108.843C303.098 108.558 302.087 108.415 300.898 108.415C299.566 108.415 298.602 108.605 298.007 108.986C297.437 109.343 297.151 109.902 297.151 110.663C297.151 111.115 297.258 111.496 297.472 111.805C297.686 112.114 297.984 112.4 298.364 112.662C298.769 112.899 299.221 113.125 299.72 113.34C300.244 113.53 300.815 113.732 301.433 113.946C302.718 114.422 303.836 114.898 304.788 115.374C305.739 115.826 306.524 116.361 307.143 116.979C307.778 117.587 308.266 118.331 308.57 119.156C308.879 119.989 309.034 121 309.034 122.189C309.034 124.497 308.225 126.293 306.607 127.578C304.99 128.839 302.551 129.469 299.292 129.469C298.301 129.477 297.31 129.405 296.33 129.255C295.536 129.153 294.749 128.998 293.975 128.791C293.38 128.626 292.796 128.423 292.227 128.184C291.813 128.001 291.408 127.799 291.013 127.578L292.583 123.153C293.321 123.557 294.225 123.926 295.295 124.259C296.39 124.568 297.722 124.723 299.292 124.723Z" fill="#4D7CF4"/>
<path d="M77.484 27.5C77.484 27.5 83.053 35.777 83.61 40.806C84.167 45.836 83.61 48.814 83.61 48.814" stroke="#7DA0F7" stroke-width="1.663"/>
<path d="M65.66 12.98L69.837 10.221C70.0799 10.0605 70.3521 9.94944 70.638 9.89414C70.9238 9.83884 71.2178 9.8404 71.5031 9.89871C71.7883 9.95703 72.0593 10.071 72.3006 10.234C72.5418 10.3971 72.7485 10.606 72.909 10.849L82.821 25.857C82.9814 26.1 83.0925 26.3722 83.1477 26.6581C83.2029 26.944 83.2013 27.238 83.1429 27.5233C83.0844 27.8086 82.9704 28.0795 82.8073 28.3207C82.6441 28.5619 82.435 28.7686 82.192 28.929L78.016 31.687C77.7731 31.8475 77.5009 31.9586 77.215 32.0139C76.9292 32.0692 76.6352 32.0676 76.3499 32.0093C76.0647 31.951 75.7937 31.837 75.5524 31.674C75.3112 31.5109 75.1045 31.302 74.944 31.059L65.033 16.05C64.7092 15.5594 64.5934 14.9604 64.7112 14.3845C64.829 13.8086 65.1706 13.3031 65.661 12.979L65.66 12.98Z" fill="#0A349F"/>
<path d="M7 47.118H103.669L96.561 68.742H14.108L7 47.118Z" fill="#1D59F1"/>
<path d="M7 36.943H103.669V47.119H7V36.943ZM17.176 122.164H94.766V132.34H17.176V122.164Z" fill="#4D7CF4"/>
<path d="M29.895 110.717H82.045L94.765 122.164H17.175L29.895 110.717Z" fill="#7DA0F7"/>
<path d="M23.161 56.022H87.507L81.073 117.151H29.596L23.161 56.022Z" fill="#4D7CF4"/>
<path fill-rule="evenodd" clip-rule="evenodd" d="M55.852 64.066C55.5405 64.0879 55.2501 64.2311 55.0431 64.4648C54.8361 64.6986 54.729 65.0042 54.745 65.316V65.634C54.775 65.994 54.83 66.351 54.901 66.704C55.005 67.38 55.042 68.065 55.012 68.749C54.9473 68.9744 54.8196 69.1767 54.644 69.332L54.619 69.809C53.9345 69.8661 53.2548 69.971 52.585 70.123C49.7683 70.7578 47.2059 72.2205 45.227 74.323L44.821 74.036C44.7107 74.0692 44.5948 74.0803 44.4802 74.0686C44.3656 74.057 44.2544 74.0228 44.153 73.968C43.6044 73.562 43.0967 73.1035 42.637 72.599C42.4063 72.3231 42.1599 72.0606 41.899 71.813L41.649 71.613C41.4258 71.4343 41.1516 71.331 40.866 71.318C40.52 71.3 40.186 71.448 39.968 71.717C39.7852 71.9743 39.7118 72.2936 39.7639 72.6049C39.816 72.9163 39.9893 73.1942 40.246 73.378L40.479 73.564C40.779 73.764 41.091 73.946 41.412 74.11C42.0148 74.4433 42.5803 74.8399 43.099 75.293C43.233 75.484 43.311 75.709 43.323 75.943L43.692 76.28C41.7032 79.2656 40.886 82.8802 41.397 86.431L40.923 86.567C40.8004 86.7631 40.6353 86.9292 40.44 87.053C39.78 87.23 39.104 87.341 38.422 87.386C38.06 87.3935 37.6987 87.4219 37.34 87.471L37.041 87.538H37.007C36.7992 87.5666 36.6034 87.6524 36.4415 87.7858C36.2795 87.9192 36.1579 88.0949 36.0901 88.2934C36.0222 88.4919 36.0109 88.7054 36.0573 88.91C36.1038 89.1146 36.2061 89.3022 36.353 89.452C36.655 89.756 37.103 89.864 37.509 89.731H37.531L37.836 89.697C38.1797 89.5942 38.517 89.471 38.846 89.328C39.4805 89.0735 40.1383 88.8812 40.81 88.754C41.043 88.767 41.266 88.847 41.456 88.982L41.963 88.897C43.0608 92.3056 45.3697 95.1937 48.453 97.015L48.247 97.446C48.341 97.644 48.377 97.864 48.348 98.082C48.0687 98.7285 47.7274 99.3463 47.329 99.927C47.1102 100.215 46.9082 100.516 46.724 100.828L46.58 101.132C46.4763 101.313 46.4245 101.519 46.4303 101.727C46.4361 101.936 46.4993 102.139 46.6129 102.314C46.7265 102.488 46.8861 102.629 47.0742 102.719C47.2623 102.809 47.4715 102.845 47.679 102.824C48.103 102.776 48.465 102.494 48.614 102.094L48.754 101.807C48.8818 101.47 48.99 101.126 49.078 100.776C49.17 100.549 49.249 100.316 49.327 100.089C49.501 99.579 49.666 99.094 49.949 98.754C50.0826 98.6286 50.2509 98.5464 50.432 98.518L50.686 98.056C54.0275 99.3405 57.7251 99.3498 61.073 98.082L61.298 98.512C61.528 98.5471 61.7347 98.6719 61.873 98.859C62.191 99.464 62.448 100.098 62.643 100.752C62.733 101.102 62.843 101.447 62.971 101.785L63.111 102.072C63.1846 102.268 63.311 102.439 63.4762 102.568C63.6413 102.696 63.8388 102.776 64.0466 102.799C64.2545 102.822 64.4646 102.786 64.6538 102.697C64.8429 102.608 65.0036 102.468 65.118 102.293C65.2316 102.117 65.2943 101.914 65.299 101.705C65.3038 101.496 65.2505 101.29 65.145 101.109L64.998 100.804C64.8137 100.494 64.6117 100.194 64.393 99.907C64.0044 99.3415 63.6651 98.7437 63.379 98.12C63.3519 98.0054 63.3481 97.8865 63.3679 97.7703C63.3876 97.6542 63.4305 97.5432 63.494 97.444C63.4218 97.2968 63.359 97.1452 63.306 96.99C66.383 95.155 68.6817 92.257 69.768 88.843L70.248 88.928C70.4197 88.7713 70.6456 88.6874 70.878 88.694C71.548 88.823 72.206 89.032 72.842 89.269C73.172 89.421 73.51 89.549 73.852 89.658C73.897 89.67 73.953 89.681 74.01 89.692L74.143 89.72H74.165C74.3645 89.7847 74.5781 89.7927 74.7818 89.7431C74.9856 89.6935 75.1716 89.5883 75.3191 89.4392C75.4665 89.29 75.5697 89.1029 75.617 88.8985C75.6643 88.6942 75.6539 88.4808 75.587 88.282C75.5187 88.0833 75.3965 87.9076 75.234 87.7744C75.0715 87.6413 74.8752 87.5559 74.667 87.528L74.339 87.45C73.9806 87.4012 73.6196 87.3732 73.258 87.366C72.576 87.3221 71.9 87.2106 71.24 87.033C71.0359 86.9186 70.8674 86.7501 70.753 86.546L70.296 86.411C70.7829 82.8614 69.9495 79.2566 67.954 76.281L68.353 75.913C68.337 75.6811 68.4124 75.4521 68.563 75.275C69.081 74.828 69.644 74.435 70.236 74.098C70.556 73.934 70.868 73.752 71.169 73.552L71.415 73.352C71.5515 73.2681 71.6686 73.1562 71.7586 73.0236C71.8487 72.8911 71.9095 72.7409 71.9372 72.5831C71.9649 72.4253 71.9587 72.2634 71.9192 72.1081C71.8796 71.9529 71.8075 71.8078 71.7077 71.6824C71.6079 71.5571 71.4826 71.4544 71.3402 71.3811C71.1977 71.3078 71.0413 71.2655 70.8813 71.2572C70.7213 71.2488 70.5613 71.2745 70.412 71.3326C70.2626 71.3906 70.1273 71.4798 70.015 71.594L69.765 71.793C69.503 72.04 69.257 72.303 69.025 72.579C68.579 73.089 68.085 73.554 67.55 73.969C67.3338 74.0573 67.0972 74.0832 66.867 74.044L66.44 74.348C63.971 71.7607 60.6468 70.1575 57.085 69.836C57.085 69.716 57.074 69.556 57.066 69.443C57.0633 69.4064 57.0609 69.3697 57.059 69.333C56.8678 69.2016 56.7357 69.0006 56.691 68.773C56.6674 68.0905 56.7103 67.4072 56.819 66.733C56.892 66.378 56.943 66.023 56.975 65.663V65.325C56.9917 65.0129 56.885 64.7067 56.6779 64.4726C56.4708 64.2385 56.1798 64.0954 55.868 64.074L55.852 64.066ZM54.444 72.797L54.106 78.701H54.08C54.0698 78.8797 54.0127 79.0526 53.9143 79.2022C53.816 79.3517 53.68 79.4728 53.52 79.553C53.3595 79.6352 53.179 79.6703 52.9993 79.6542C52.8197 79.6381 52.6483 79.5715 52.505 79.462L47.663 76.031C49.2043 74.517 51.138 73.4637 53.246 72.99C53.6408 72.9056 54.0397 72.8412 54.441 72.797H54.444ZM64.006 76.049C62.1747 74.2558 59.8054 73.1133 57.262 72.797L57.597 78.694C57.6001 78.8795 57.655 79.0605 57.7555 79.2165C57.856 79.3724 57.9981 79.4972 58.1657 79.5766C58.3334 79.6561 58.5199 79.6871 58.7043 79.6661C58.8886 79.6452 59.0635 79.5731 59.209 79.458L64.006 76.048V76.049ZM45.905 78.252C44.5575 80.4462 43.9788 83.0265 44.26 85.586L49.943 83.951V83.934C50.1157 83.8861 50.2723 83.7924 50.3961 83.6628C50.5199 83.5332 50.6064 83.3725 50.6464 83.1978C50.6863 83.0231 50.6783 82.8408 50.6231 82.6702C50.568 82.4997 50.4677 82.3472 50.333 82.229V82.204L45.905 78.252ZM67.463 85.565C67.7096 83.0076 67.1148 80.4396 65.769 78.251L65.776 78.264L61.381 82.198C61.2465 82.3167 61.1463 82.4693 61.0911 82.64C61.0358 82.8106 61.0275 82.993 61.067 83.168C61.147 83.524 61.417 83.807 61.772 83.903V83.925L67.463 85.565ZM54.945 82.51H56.757L57.864 83.916L57.462 85.674L55.834 86.457L54.203 85.674L53.819 83.916L54.945 82.51ZM60.977 87.307C60.9012 87.2985 60.8248 87.2985 60.749 87.307L60.742 87.332C60.5824 87.3413 60.4275 87.3887 60.2901 87.4704C60.1527 87.5521 60.037 87.6656 59.9527 87.8014C59.8684 87.9372 59.818 88.0912 59.8057 88.2506C59.7933 88.4099 59.8195 88.5699 59.882 88.717L62.147 94.2C64.324 92.809 65.992 90.73 66.837 88.296L60.977 87.307ZM50.907 87.332C51.0702 87.3346 51.2302 87.3773 51.373 87.4563C51.5158 87.5353 51.637 87.6482 51.726 87.785C51.906 88.062 51.936 88.411 51.805 88.715V88.737L49.554 94.176C47.3994 92.7944 45.7607 90.7406 44.892 88.333L50.702 87.347C50.7668 87.3403 50.8322 87.3403 50.897 87.347L50.907 87.332ZM56.723 90.219C56.6348 90.0569 56.5033 89.9224 56.3431 89.8306C56.183 89.7388 56.0005 89.6932 55.816 89.699L55.831 89.731C55.6592 89.7342 55.4911 89.7817 55.343 89.8689C55.195 89.9562 55.072 90.0802 54.986 90.229L52.112 95.396C54.159 96.093 56.358 96.206 58.464 95.724L59.609 95.386L56.745 90.219H56.723Z" fill="white"/>
<path d="M54.745 65.316H54.885L54.884 65.309L54.745 65.316ZM55.853 64.066L55.92 63.944L55.884 63.924L55.843 63.927L55.853 64.066ZM54.745 65.634H54.606L54.607 65.646L54.745 65.634ZM54.901 66.704L55.038 66.683L55.037 66.676L54.901 66.704ZM55.012 68.749L55.146 68.787L55.15 68.771V68.755L55.012 68.749ZM54.644 69.332L54.552 69.228L54.509 69.267L54.506 69.325L54.644 69.332ZM54.619 69.809L54.63 69.947L54.75 69.937L54.757 69.816L54.619 69.809ZM45.227 74.323L45.147 74.436L45.245 74.506L45.327 74.418L45.227 74.323ZM44.821 74.036L44.901 73.923L44.846 73.883L44.781 73.903L44.821 74.036ZM44.153 73.968L44.071 74.079L44.079 74.086L44.088 74.09L44.153 73.968ZM42.637 72.6L42.531 72.69L42.535 72.693L42.637 72.6ZM41.899 71.814L41.994 71.714L41.985 71.706L41.899 71.814ZM41.649 71.614L41.562 71.723L41.648 71.615L41.649 71.614ZM39.968 71.718L39.861 71.63L39.856 71.637L39.968 71.718ZM40.246 73.379L40.332 73.271L40.327 73.267L40.246 73.379ZM40.479 73.565L40.392 73.674L40.402 73.681L40.479 73.565ZM41.412 74.111L41.479 73.99L41.475 73.988L41.412 74.111ZM43.099 75.294L43.212 75.214L43.202 75.201L43.19 75.19L43.099 75.294ZM43.323 75.944L43.185 75.951L43.188 76.007L43.23 76.045L43.323 75.944ZM43.692 76.281L43.807 76.358L43.873 76.259L43.786 76.179L43.692 76.281ZM41.397 86.432L41.435 86.566L41.551 86.532L41.534 86.412L41.397 86.432ZM40.923 86.568L40.885 86.434L40.835 86.449L40.806 86.494L40.923 86.568ZM40.44 87.054L40.476 87.188L40.496 87.183L40.514 87.172L40.44 87.054ZM38.422 87.387L38.425 87.526H38.431L38.422 87.387ZM37.34 87.472L37.321 87.334L37.31 87.337L37.34 87.472ZM37.041 87.539V87.678H37.057L37.072 87.674L37.041 87.539ZM37.007 87.539V87.4H36.997L36.988 87.401L37.008 87.538L37.007 87.539ZM37.509 89.732V89.592H37.487L37.467 89.6L37.509 89.732ZM37.531 89.732V89.87H37.547L37.531 89.732ZM37.836 89.698L37.851 89.835H37.863L37.875 89.831L37.836 89.698ZM38.846 89.329L38.795 89.2L38.791 89.202L38.846 89.329ZM40.81 88.755L40.818 88.616H40.801L40.784 88.618L40.81 88.755ZM41.456 88.983L41.376 89.095L41.422 89.129L41.478 89.119L41.456 88.983ZM41.963 88.898L42.095 88.856L42.058 88.742L41.94 88.762L41.963 88.898ZM48.453 97.016L48.578 97.076L48.633 96.961L48.523 96.897L48.453 97.016ZM48.247 97.447L48.122 97.387L48.093 97.447L48.122 97.507L48.247 97.447ZM48.348 98.083L48.475 98.138L48.483 98.12L48.486 98.1L48.348 98.083ZM47.329 99.928L47.439 100.012L47.443 100.007L47.329 99.928ZM46.724 100.829L46.604 100.758L46.599 100.77L46.724 100.829ZM46.58 101.133L46.7 101.203L46.706 101.192L46.58 101.133ZM48.614 102.095L48.488 102.034L48.484 102.047L48.614 102.095ZM48.754 101.808L48.879 101.869L48.883 101.857L48.753 101.808H48.754ZM49.078 100.777L48.95 100.725L48.946 100.733L48.944 100.743L49.078 100.777ZM49.949 98.755L49.854 98.655L49.848 98.66L49.842 98.666L49.949 98.755ZM50.432 98.519L50.454 98.655L50.521 98.645L50.554 98.585L50.432 98.519ZM50.686 98.057L50.736 97.927L50.623 97.884L50.564 97.991L50.686 98.057ZM61.073 98.083L61.196 98.019L61.139 97.909L61.024 97.953L61.073 98.083ZM61.298 98.513L61.175 98.578L61.208 98.64L61.278 98.65L61.298 98.513ZM61.873 98.86L61.996 98.796L61.99 98.786L61.984 98.777L61.873 98.86ZM62.643 100.753L62.778 100.719L62.776 100.713L62.643 100.753ZM62.971 101.786L62.841 101.835L62.847 101.846L62.971 101.786ZM63.111 102.073L63.241 102.024L63.236 102.012L63.111 102.073ZM65.145 101.11L65.02 101.17L65.025 101.179L65.145 101.11ZM64.998 100.805L65.123 100.745L65.117 100.735L64.998 100.805ZM64.393 99.908L64.279 99.987L64.283 99.992L64.393 99.908ZM63.379 98.121L63.244 98.153L63.247 98.167L63.253 98.18L63.379 98.121ZM63.494 97.445L63.61 97.52L63.652 97.454L63.618 97.384L63.494 97.445ZM63.306 96.991L63.236 96.871L63.139 96.929L63.175 97.035L63.306 96.991ZM69.768 88.844L69.791 88.708L69.672 88.687L69.635 88.802L69.768 88.844ZM70.248 88.929L70.223 89.065L70.291 89.077L70.341 89.031L70.248 88.929ZM70.878 88.695L70.904 88.559L70.894 88.557H70.882L70.878 88.695ZM72.842 89.27L72.9 89.144L72.89 89.14L72.842 89.27ZM73.852 89.659L73.811 89.791L73.816 89.793L73.852 89.659ZM74.143 89.721L74.111 89.856L74.127 89.86H74.143V89.721ZM74.165 89.721L74.208 89.589L74.188 89.583H74.165V89.721ZM74.667 87.529L74.635 87.665L74.649 87.667L74.667 87.529ZM74.339 87.451L74.371 87.316L74.358 87.314L74.339 87.452V87.451ZM73.258 87.367L73.248 87.505H73.255L73.258 87.367ZM71.24 87.034L71.172 87.155L71.187 87.163L71.204 87.168L71.24 87.034ZM70.753 86.547L70.873 86.479L70.846 86.43L70.792 86.414L70.753 86.547ZM70.296 86.412L70.159 86.393L70.143 86.511L70.257 86.545L70.296 86.412ZM67.954 76.282L67.86 76.182L67.773 76.262L67.839 76.36L67.954 76.282ZM68.353 75.914L68.447 76.016L68.496 75.971L68.491 75.904L68.353 75.914ZM68.563 75.276L68.473 75.17L68.463 75.178L68.457 75.186L68.562 75.276H68.563ZM70.236 74.099L70.173 73.976L70.167 73.979L70.236 74.099ZM71.169 73.553L71.246 73.669L71.256 73.661L71.169 73.553ZM71.415 73.353L71.342 73.236L71.335 73.241L71.328 73.246L71.415 73.353ZM70.014 71.595L70.101 71.703L70.107 71.698L70.113 71.692L70.014 71.595ZM69.764 71.794L69.677 71.685L69.669 71.693L69.764 71.794ZM69.025 72.58L69.13 72.671L69.132 72.669L69.025 72.58ZM67.55 73.97L67.602 74.1L67.62 74.092L67.635 74.08L67.55 73.97ZM66.867 74.045L66.891 73.909L66.834 73.899L66.787 73.932L66.867 74.045ZM66.44 74.349L66.34 74.445L66.422 74.532L66.52 74.462L66.44 74.349ZM57.085 69.837H56.946V69.963L57.072 69.975L57.085 69.837ZM57.059 69.334L57.198 69.329L57.195 69.259L57.138 69.221L57.059 69.334ZM56.691 68.774L56.552 68.778V68.789L56.555 68.799L56.691 68.774ZM56.819 66.734L56.683 66.706V66.711L56.819 66.734ZM56.975 65.664L57.113 65.676V65.664H56.975ZM56.975 65.326L56.836 65.318V65.326H56.975ZM55.868 64.075L55.8 64.196L55.827 64.211L55.858 64.213L55.868 64.075ZM54.106 78.702V78.841H54.236L54.244 78.711L54.106 78.702ZM54.444 72.798L54.582 72.806L54.591 72.66H54.444V72.798ZM54.08 78.702V78.564H53.948L53.942 78.696L54.08 78.702ZM52.505 79.463L52.587 79.351L52.585 79.35L52.505 79.463ZM47.663 76.032L47.566 75.932L47.447 76.049L47.583 76.145L47.663 76.032ZM54.441 72.798V72.66H54.425L54.441 72.798ZM57.262 72.798L57.279 72.66L57.114 72.64L57.124 72.806L57.262 72.798ZM64.006 76.05L64.086 76.163L64.222 76.067L64.103 75.951L64.006 76.05ZM57.596 78.695L57.736 78.693V78.687L57.596 78.695ZM59.209 79.459L59.129 79.346L59.123 79.351L59.209 79.459ZM45.905 78.253L45.807 78.155L45.703 78.258L45.813 78.356L45.905 78.253ZM44.26 85.587L44.123 85.602L44.141 85.765L44.299 85.72L44.26 85.587ZM49.943 83.952L49.981 84.086L50.081 84.056V83.952H49.943ZM49.943 83.935L49.906 83.802L49.804 83.83V83.935H49.943ZM50.333 82.23H50.195V82.293L50.242 82.334L50.333 82.23ZM50.333 82.205H50.472V82.142L50.426 82.102L50.333 82.205ZM45.907 78.251L46.025 78.324L45.809 78.154L45.907 78.251ZM65.769 78.252L65.887 78.179L65.645 78.314L65.769 78.252ZM67.463 85.566L67.424 85.699L67.584 85.745L67.6 85.579L67.463 85.566ZM65.776 78.266L65.868 78.369L65.947 78.299L65.9 78.203L65.776 78.266ZM61.381 82.199L61.473 82.303V82.3L61.381 82.197V82.199ZM61.772 83.904H61.91V83.798L61.808 83.77L61.772 83.904ZM61.772 83.926H61.632V84.03L61.733 84.06L61.772 83.926ZM56.757 82.511L56.866 82.425L56.824 82.372H56.757V82.511ZM54.945 82.511V82.372H54.879L54.837 82.425L54.945 82.511ZM57.865 83.917L57.999 83.948L58.014 83.884L57.973 83.832L57.864 83.917H57.865ZM57.462 85.675L57.522 85.8L57.582 85.771L57.597 85.706L57.462 85.675ZM55.834 86.458L55.774 86.583L55.834 86.612L55.894 86.582L55.834 86.458ZM54.203 85.675L54.068 85.705L54.082 85.771L54.143 85.801L54.203 85.675ZM53.819 83.917L53.711 83.831L53.67 83.882L53.684 83.947L53.819 83.917ZM60.749 87.307L60.734 87.17L60.639 87.18L60.615 87.272L60.749 87.307ZM60.977 87.307L61 87.17H60.997L60.977 87.307ZM60.742 87.333L60.75 87.472L60.85 87.466L60.876 87.369L60.742 87.333ZM59.882 88.718L60.01 88.665V88.663L59.882 88.718ZM62.147 94.201L62.019 94.254L62.082 94.407L62.222 94.317L62.147 94.201ZM66.837 88.297L66.968 88.342L67.022 88.187L66.86 88.16L66.837 88.297ZM50.907 87.333L50.91 87.195L50.834 87.193L50.792 87.256L50.907 87.333ZM51.805 88.716L51.678 88.661L51.667 88.687V88.716H51.805ZM51.805 88.738L51.933 88.791L51.943 88.765V88.738H51.805ZM49.554 94.177L49.479 94.294L49.619 94.383L49.682 94.23L49.554 94.177ZM44.892 88.334L44.869 88.197L44.705 88.225L44.762 88.381L44.892 88.334ZM50.702 87.348L50.687 87.21L50.678 87.212L50.702 87.348ZM50.897 87.348L50.883 87.486L50.966 87.495L51.013 87.425L50.897 87.348ZM55.816 89.699L55.811 89.561L55.6 89.568L55.69 89.758L55.816 89.699ZM56.723 90.22L56.601 90.286L56.641 90.359H56.723V90.22ZM55.831 89.732L55.834 89.87L56.047 89.865L55.956 89.672L55.831 89.732ZM54.986 90.23L54.866 90.161L54.864 90.163L54.986 90.23ZM52.112 95.397L51.992 95.33L51.91 95.475L52.068 95.528L52.112 95.397ZM58.464 95.725L58.495 95.86L58.503 95.858L58.464 95.725ZM59.609 95.387L59.648 95.52L59.813 95.471L59.73 95.32L59.609 95.387ZM56.745 90.22L56.866 90.153L56.826 90.081H56.746L56.745 90.22ZM54.884 65.309C54.8697 65.0334 54.9642 64.7642 55.1471 64.5575C55.33 64.3509 55.5867 64.2243 55.862 64.205L55.842 63.928C55.4943 63.9524 55.17 64.1124 54.9391 64.3735C54.7081 64.6346 54.5888 64.9759 54.607 65.324L54.884 65.309ZM54.884 65.635V65.317H54.607V65.635H54.884ZM55.037 66.678C54.9658 66.3295 54.9144 65.9773 54.883 65.623L54.607 65.646C54.638 66.012 54.693 66.375 54.765 66.732L55.037 66.678ZM55.151 68.756C55.1809 68.0633 55.143 67.3684 55.038 66.683L54.764 66.726C54.866 67.393 54.904 68.069 54.874 68.744L55.151 68.756ZM54.736 69.436C54.9316 69.2634 55.0738 69.0376 55.146 68.787L54.879 68.712C54.822 68.911 54.709 69.091 54.552 69.228L54.736 69.436ZM54.757 69.816L54.782 69.34L54.506 69.325L54.48 69.802L54.757 69.816ZM52.617 70.259C53.2799 70.1086 53.9526 70.0037 54.63 69.947L54.607 69.672C53.9164 69.7297 53.2308 69.8357 52.555 69.989L52.617 70.259ZM45.327 74.418C47.287 72.334 49.828 70.889 52.617 70.259L52.555 69.989C49.7108 70.6295 47.1233 72.1061 45.125 74.229L45.327 74.418ZM44.741 74.149L45.146 74.437L45.306 74.211L44.901 73.924L44.741 74.149ZM44.088 74.091C44.324 74.218 44.602 74.248 44.861 74.169L44.781 73.903C44.6882 73.931 44.5908 73.9414 44.4943 73.9316C44.3979 73.9218 44.3043 73.8931 44.219 73.847L44.088 74.091ZM42.535 72.693C43.001 73.205 43.515 73.669 44.071 74.081L44.236 73.858C43.6944 73.4576 43.1934 73.0051 42.74 72.507L42.535 72.693ZM41.803 71.915C42.06 72.159 42.303 72.418 42.531 72.69L42.743 72.511C42.5085 72.2312 42.2591 71.9651 41.994 71.714L41.803 71.915ZM41.562 71.723L41.813 71.923L41.985 71.706L41.735 71.506L41.562 71.723ZM40.859 71.457C41.116 71.47 41.362 71.562 41.562 71.723L41.735 71.507C41.4893 71.31 41.1876 71.1959 40.873 71.181L40.859 71.457ZM40.076 71.805C40.1698 71.6893 40.2896 71.5974 40.4257 71.5369C40.5618 71.4765 40.7103 71.4491 40.859 71.457L40.873 71.181C40.6808 71.1709 40.4889 71.2063 40.313 71.2846C40.1371 71.3628 39.9822 71.4805 39.861 71.63L40.076 71.805ZM40.327 73.267C40.0999 73.1045 39.9456 72.8586 39.8996 72.5832C39.8537 72.3078 39.9189 72.0254 40.081 71.798L39.856 71.637C39.6516 71.924 39.5694 72.2813 39.6273 72.6289C39.6852 72.9764 39.8786 73.2868 40.165 73.492L40.327 73.267ZM40.566 73.457L40.332 73.271L40.159 73.488L40.392 73.674L40.565 73.457H40.566ZM41.475 73.988C41.1583 73.8268 40.8511 73.6465 40.555 73.45L40.402 73.681C40.707 73.884 41.022 74.068 41.349 74.235L41.475 73.988ZM43.19 75.19C42.6642 74.7304 42.09 74.3282 41.479 73.99L41.344 74.232C41.9379 74.561 42.4953 74.9518 43.007 75.398L43.19 75.19ZM43.462 75.936C43.4476 75.6771 43.361 75.4263 43.212 75.214L42.985 75.374C43.105 75.544 43.174 75.744 43.185 75.951L43.462 75.936ZM43.786 76.179L43.417 75.841L43.23 76.045L43.598 76.383L43.786 76.179ZM41.534 86.412C41.0276 82.8948 41.837 79.3154 43.807 76.358L43.577 76.204C41.5688 79.218 40.7434 82.8671 41.259 86.452L41.534 86.412ZM40.961 86.701L41.435 86.566L41.358 86.299L40.885 86.434L40.961 86.701ZM40.514 87.172C40.728 87.038 40.907 86.854 41.041 86.641L40.806 86.494C40.6946 86.6729 40.5441 86.8243 40.366 86.937L40.514 87.172ZM38.431 87.526C39.122 87.48 39.807 87.366 40.476 87.188L40.404 86.92C39.753 87.094 39.086 87.204 38.413 87.249L38.431 87.526ZM37.359 87.609C37.712 87.561 38.069 87.533 38.425 87.526L38.419 87.249C38.052 87.2562 37.6847 87.2846 37.321 87.334L37.359 87.609ZM37.072 87.674L37.371 87.607L37.31 87.337L37.01 87.404L37.072 87.674ZM37.007 87.678H37.041V87.4H37.007V87.678ZM36.223 88.339C36.2826 88.1652 36.3892 88.0114 36.5309 87.8945C36.6727 87.7777 36.8441 87.7024 37.026 87.677L36.988 87.401C36.7549 87.4332 36.5354 87.5306 36.3538 87.6803C36.1723 87.8301 36.036 88.0273 35.96 88.25L36.223 88.339ZM36.453 89.356C36.3242 89.2244 36.2346 89.0597 36.1939 88.8801C36.1533 88.7005 36.1634 88.5132 36.223 88.339L35.96 88.25C35.8837 88.4727 35.8708 88.7111 35.9228 88.9407C35.9747 89.1702 36.0894 89.3818 36.254 89.55L36.453 89.356ZM37.467 89.6C37.2919 89.6571 37.1033 89.6645 36.9243 89.6212C36.7452 89.578 36.5817 89.4858 36.452 89.355L36.254 89.55C36.592 89.891 37.095 90.013 37.552 89.863L37.467 89.6ZM37.531 89.593L37.509 89.592V89.87H37.531V89.593ZM37.821 89.56L37.516 89.594L37.546 89.869L37.851 89.835L37.821 89.56ZM38.791 89.202C38.4668 89.3426 38.1346 89.4639 37.796 89.565L37.875 89.831C38.2241 89.7268 38.5667 89.602 38.901 89.457L38.791 89.202ZM40.784 88.618C40.102 88.747 39.437 88.943 38.795 89.2L38.898 89.458C39.523 89.208 40.172 89.016 40.836 88.891L40.784 88.618ZM41.536 88.87C41.3255 88.7192 41.0765 88.6312 40.818 88.616L40.802 88.893C41.009 88.905 41.207 88.975 41.375 89.096L41.536 88.87ZM41.94 88.762L41.433 88.846L41.478 89.119L41.986 89.035L41.94 88.762ZM48.523 96.897C45.4684 95.0933 43.1828 92.2325 42.095 88.856L41.831 88.941C42.9393 92.3815 45.2699 95.2966 48.382 97.135L48.523 96.897ZM48.372 97.507L48.578 97.076L48.328 96.956L48.122 97.387L48.372 97.507ZM48.486 98.1C48.5183 97.856 48.4787 97.6089 48.372 97.387L48.122 97.507C48.2051 97.6801 48.236 97.8736 48.211 98.064L48.486 98.1ZM47.443 100.007C47.847 99.417 48.193 98.792 48.475 98.138L48.221 98.027C47.9453 98.6657 47.6084 99.2763 47.215 99.85L47.443 100.007ZM46.843 100.9C47.025 100.592 47.223 100.296 47.439 100.012L47.219 99.844C46.9968 100.137 46.7917 100.442 46.605 100.759L46.843 100.9ZM46.706 101.192L46.849 100.888L46.599 100.77L46.455 101.074L46.706 101.192ZM46.728 102.24C46.6281 102.086 46.5726 101.908 46.5677 101.725C46.5627 101.542 46.6085 101.362 46.7 101.203L46.46 101.064C46.222 101.478 46.235 101.99 46.495 102.391L46.728 102.24ZM47.664 102.687C47.4819 102.706 47.2982 102.674 47.133 102.595C46.9678 102.517 46.8277 102.394 46.728 102.24L46.495 102.391C46.755 102.792 47.218 103.013 47.693 102.963L47.664 102.687ZM48.484 102.047C48.42 102.219 48.3094 102.37 48.1646 102.483C48.0198 102.596 47.8465 102.667 47.664 102.687L47.693 102.963C47.9267 102.937 48.1496 102.846 48.3349 102.701C48.5203 102.557 48.6619 102.363 48.744 102.143L48.484 102.047ZM48.629 101.747L48.488 102.034L48.739 102.156L48.879 101.868L48.629 101.747ZM48.944 100.743C48.857 101.087 48.7502 101.426 48.624 101.758L48.883 101.857C49.013 101.514 49.124 101.164 49.213 100.811L48.944 100.743ZM49.196 100.046C49.118 100.273 49.04 100.502 48.95 100.725L49.207 100.829C49.3 100.597 49.381 100.361 49.457 100.135L49.196 100.046ZM49.842 98.666C49.539 99.03 49.367 99.542 49.196 100.046L49.457 100.135C49.633 99.616 49.792 99.16 50.055 98.844L49.842 98.666ZM50.411 98.382C50.2022 98.4146 50.0081 98.5104 49.854 98.655L50.044 98.856C50.1575 98.7497 50.3003 98.679 50.454 98.655L50.411 98.382ZM50.564 97.991L50.311 98.451L50.554 98.585L50.807 98.124L50.564 97.991ZM61.024 97.953C57.7078 99.2092 54.0451 99.2003 50.735 97.928L50.636 98.186C54.0094 99.4827 57.7422 99.4919 61.122 98.212L61.024 97.953ZM61.421 98.449L61.196 98.019L60.951 98.147L61.175 98.578L61.421 98.449ZM61.984 98.777C61.8236 98.5609 61.5842 98.4171 61.318 98.377L61.278 98.65C61.4716 98.6796 61.6456 98.7855 61.762 98.943L61.984 98.777ZM62.776 100.713C62.578 100.05 62.3168 99.4085 61.996 98.796L61.75 98.924C62.064 99.521 62.317 100.147 62.51 100.793L62.776 100.713ZM63.101 101.736C62.9738 101.404 62.8659 101.064 62.778 100.719L62.509 100.787C62.599 101.143 62.71 101.493 62.841 101.835L63.101 101.736ZM63.236 102.012L63.096 101.725L62.847 101.846L62.987 102.134L63.236 102.012ZM64.062 102.661C63.8799 102.641 63.7069 102.571 63.5622 102.458C63.4175 102.346 63.3057 102.195 63.241 102.024L62.982 102.122C63.0648 102.341 63.2067 102.534 63.3921 102.677C63.5774 102.821 63.7989 102.91 64.032 102.936L64.062 102.661ZM65.002 102.218C64.9015 102.371 64.7605 102.494 64.5946 102.572C64.4287 102.65 64.2443 102.681 64.062 102.661L64.032 102.936C64.2651 102.962 64.5008 102.923 64.7129 102.823C64.9251 102.723 65.1054 102.566 65.234 102.37L65.002 102.218ZM65.025 101.179C65.1175 101.338 65.1642 101.519 65.1599 101.702C65.1557 101.886 65.1007 102.065 65.001 102.219L65.234 102.37C65.3615 102.173 65.4318 101.944 65.4371 101.709C65.4424 101.474 65.3825 101.243 65.264 101.04L65.025 101.179ZM64.873 100.866L65.02 101.17L65.27 101.049L65.123 100.745L64.873 100.866ZM64.283 99.992C64.498 100.275 64.697 100.57 64.879 100.876L65.117 100.735C64.9301 100.42 64.7251 100.116 64.503 99.824L64.283 99.992ZM63.253 98.18C63.5426 98.8107 63.8858 99.4152 64.279 99.987L64.507 99.829C64.1227 99.2702 63.7871 98.6793 63.504 98.063L63.253 98.18ZM63.377 97.37C63.3034 97.4849 63.2538 97.6135 63.2309 97.748C63.2081 97.8825 63.2125 98.0203 63.244 98.153L63.514 98.089C63.4911 97.9926 63.4878 97.8925 63.5043 97.7948C63.5207 97.697 63.5567 97.6036 63.61 97.52L63.377 97.37ZM63.175 97.035C63.23 97.196 63.295 97.354 63.369 97.506L63.619 97.385C63.5491 97.2427 63.4883 97.0961 63.437 96.946L63.175 97.035ZM69.635 88.802C68.5592 92.1836 66.2826 95.0542 63.235 96.872L63.377 97.11C66.4831 95.2577 68.8035 92.3322 69.9 88.886L69.635 88.802ZM70.271 88.792L69.791 88.708L69.744 88.981L70.223 89.065L70.271 88.792ZM70.882 88.557C70.6135 88.5491 70.3524 88.646 70.154 88.827L70.341 89.031C70.4864 88.8987 70.6775 88.8281 70.874 88.834L70.882 88.557ZM72.89 89.14C72.2453 88.8916 71.581 88.6966 70.904 88.559L70.852 88.832C71.512 88.958 72.162 89.165 72.793 89.4L72.89 89.14ZM73.894 89.527C73.5549 89.4205 73.2229 89.2926 72.9 89.144L72.784 89.396C73.119 89.551 73.463 89.681 73.811 89.791L73.894 89.527ZM74.037 89.557C73.9874 89.5479 73.938 89.5372 73.889 89.525L73.816 89.793C73.866 89.806 73.928 89.818 73.983 89.829L74.037 89.557ZM74.176 89.587C74.1295 89.5761 74.0839 89.5661 74.037 89.557L73.983 89.829L74.111 89.856L74.176 89.587ZM74.165 89.583H74.143V89.86H74.165V89.583ZM75.22 89.343C75.0906 89.4736 74.9275 89.5657 74.7488 89.6092C74.5701 89.6526 74.3829 89.6456 74.208 89.589L74.123 89.853C74.3468 89.9253 74.5863 89.9341 74.8148 89.8783C75.0432 89.8225 75.2517 89.7043 75.417 89.537L75.22 89.343ZM75.455 88.327C75.5136 88.5014 75.5226 88.6886 75.4811 88.8678C75.4396 89.047 75.3493 89.2121 75.22 89.343L75.417 89.537C75.5825 89.3698 75.6983 89.1598 75.7514 88.9307C75.8045 88.7015 75.793 88.462 75.718 88.239L75.455 88.327ZM74.649 87.667C75.021 87.717 75.333 87.973 75.456 88.328L75.718 88.239C75.6414 88.0161 75.5043 87.818 75.3221 87.6685C75.1398 87.5191 74.9196 87.4234 74.686 87.392L74.649 87.667ZM74.307 87.587L74.635 87.665L74.699 87.394L74.371 87.316L74.307 87.587ZM73.255 87.505C73.611 87.513 73.967 87.541 74.321 87.589L74.358 87.314C73.994 87.2643 73.6274 87.2355 73.26 87.228L73.255 87.505ZM71.204 87.168C71.872 87.348 72.556 87.461 73.248 87.505L73.267 87.229C72.5941 87.1856 71.9271 87.0754 71.276 86.9L71.204 87.168ZM70.632 86.615C70.759 86.842 70.947 87.029 71.172 87.155L71.307 86.913C71.127 86.813 70.976 86.662 70.873 86.479L70.632 86.615ZM70.257 86.545L70.713 86.68L70.792 86.414L70.336 86.279L70.257 86.545ZM67.84 76.359C69.8165 79.3061 70.6421 82.8764 70.16 86.392L70.435 86.43C70.9261 82.847 70.0845 79.2084 68.07 76.205L67.84 76.359ZM68.26 75.812L67.861 76.18L68.049 76.384L68.448 76.015L68.26 75.812ZM68.458 75.185C68.2839 75.3903 68.197 75.6555 68.216 75.924L68.491 75.904C68.477 75.7078 68.5415 75.5139 68.669 75.364L68.458 75.185ZM70.168 73.978C69.569 74.318 68.998 74.718 68.473 75.17L68.653 75.38C69.166 74.94 69.721 74.55 70.305 74.219L70.168 73.978ZM71.093 73.437C70.7969 73.6338 70.4897 73.8145 70.173 73.976L70.3 74.222C70.626 74.055 70.942 73.871 71.246 73.669L71.093 73.437ZM71.329 73.245L71.083 73.445L71.257 73.66L71.503 73.46L71.329 73.245ZM71.807 72.281C71.8277 72.4676 71.795 72.6563 71.7129 72.8251C71.6308 72.9939 71.5025 73.136 71.343 73.235L71.49 73.471C71.906 73.212 72.136 72.738 72.083 72.251L71.807 72.281ZM71.147 71.452C71.3241 71.514 71.4801 71.6248 71.5969 71.7716C71.7137 71.9185 71.7866 72.0945 71.807 72.281L72.083 72.251C72.0565 72.0125 71.9629 71.7863 71.8132 71.5987C71.6635 71.4112 71.4627 71.2698 71.236 71.191L71.147 71.452ZM70.114 71.691C70.246 71.5579 70.4129 71.4649 70.5955 71.4226C70.7781 71.3803 70.97 71.3905 71.147 71.452L71.236 71.191C71.0096 71.1121 70.7665 71.0988 70.5329 71.1528C70.2993 71.2068 70.0858 71.3258 69.917 71.496L70.114 71.691ZM69.851 71.901L70.101 71.701L69.929 71.485L69.679 71.685L69.851 71.901ZM69.133 72.668C69.36 72.396 69.603 72.138 69.86 71.893L69.669 71.693C69.404 71.9441 69.1545 72.2102 68.92 72.49L69.133 72.668ZM67.636 74.079C68.1784 73.6585 68.6791 73.1866 69.131 72.67L68.922 72.488C68.482 72.991 67.995 73.45 67.466 73.86L67.636 74.079ZM66.845 74.181C67.1 74.225 67.363 74.196 67.603 74.098L67.499 73.841C67.3069 73.9195 67.0966 73.9427 66.892 73.908L66.845 74.181ZM66.521 74.461L66.949 74.157L66.788 73.931L66.36 74.236L66.52 74.462L66.521 74.461ZM57.073 69.974C60.6014 70.2926 63.8943 71.8819 66.34 74.445L66.54 74.253C64.0481 71.6414 60.6931 70.0229 57.098 69.698L57.073 69.974ZM56.929 69.452C56.937 69.566 56.947 69.722 56.947 69.836H57.224C57.224 69.711 57.213 69.545 57.205 69.433L56.929 69.452ZM56.922 69.34C56.922 69.365 56.926 69.406 56.929 69.452L57.205 69.433L57.199 69.328L56.922 69.34ZM56.555 68.799C56.605 69.063 56.761 69.296 56.981 69.448L57.139 69.22C56.9772 69.1089 56.8656 68.9387 56.828 68.746L56.555 68.799ZM56.683 66.711C56.573 67.395 56.53 68.086 56.553 68.777L56.83 68.767C56.807 68.094 56.85 67.42 56.957 66.755L56.683 66.711ZM56.838 65.65C56.8067 66.0043 56.7553 66.3565 56.684 66.705L56.956 66.76C57.03 66.4 57.081 66.04 57.114 65.675L56.838 65.65ZM56.838 65.325V65.663H57.114V65.325H56.838ZM55.859 64.212C56.434 64.252 56.867 64.744 56.837 65.317L57.114 65.332C57.1324 64.9837 57.0131 64.6421 56.7819 64.3809C56.5507 64.1197 56.226 63.9599 55.878 63.936L55.859 64.212ZM55.786 64.187L55.801 64.195L55.936 63.953L55.921 63.944L55.786 64.187ZM54.246 78.709L54.583 72.805L54.307 72.789L53.969 78.693L54.246 78.709ZM54.082 78.84H54.107V78.563H54.081L54.082 78.84ZM53.586 79.675C53.954 79.479 54.201 79.127 54.22 78.708L53.943 78.695C53.9337 78.8498 53.8837 78.9994 53.798 79.1287C53.7123 79.2579 53.594 79.3622 53.455 79.431L53.585 79.677L53.586 79.675ZM52.424 79.574C52.756 79.816 53.204 79.878 53.586 79.675L53.455 79.431C53.3175 79.501 53.164 79.5306 53.0104 79.5164C52.8568 79.5023 52.7094 79.4449 52.587 79.351L52.424 79.574ZM47.584 76.144L52.426 79.575L52.586 79.349L47.744 75.918L47.584 76.144ZM53.216 72.854C51.0827 73.3335 49.1258 74.3996 47.566 75.932L47.761 76.13C49.2838 74.634 51.1943 73.5932 53.277 73.125L53.217 72.855L53.216 72.854ZM54.425 72.66C54.02 72.704 53.617 72.769 53.217 72.855L53.277 73.125C53.667 73.042 54.061 72.978 54.456 72.935L54.425 72.66ZM54.445 72.659H54.442V72.936H54.445V72.659ZM57.246 72.934C59.7593 73.2467 62.1005 74.3759 63.91 76.148L64.104 75.95C62.2509 74.1357 59.8526 72.9799 57.279 72.66L57.246 72.934ZM57.736 78.687L57.4 72.79L57.124 72.806L57.458 78.703L57.736 78.687ZM58.225 79.454C58.0804 79.3854 57.9579 79.2776 57.8715 79.143C57.7851 79.0083 57.7381 78.853 57.736 78.693L57.459 78.696C57.465 79.127 57.715 79.52 58.106 79.706L58.225 79.454ZM59.124 79.35C58.9989 79.4502 58.8482 79.5132 58.6891 79.5317C58.5299 79.5503 58.3688 79.5237 58.224 79.455L58.106 79.706C58.2974 79.7967 58.5105 79.8308 58.7209 79.8062C58.9314 79.7816 59.1306 79.6984 59.296 79.566L59.124 79.35ZM63.927 75.936L59.129 79.346L59.29 79.571L64.087 76.161L63.927 75.936ZM44.399 85.571C44.1211 83.0422 44.6928 80.4929 46.024 78.325L45.788 78.18C44.425 80.4 43.8396 83.0105 44.124 85.6L44.399 85.571ZM49.906 83.818L44.223 85.453L44.3 85.719L49.982 84.085L49.906 83.818ZM49.806 83.934V83.951H50.082V83.934H49.806ZM50.514 83.168C50.4793 83.3185 50.4046 83.4567 50.2977 83.5681C50.1909 83.6796 50.0559 83.7601 49.907 83.801L49.981 84.068C50.379 83.958 50.69 83.637 50.783 83.23L50.514 83.168ZM50.244 82.333C50.48 82.54 50.584 82.861 50.514 83.168L50.783 83.23C50.8287 83.0304 50.8204 82.8222 50.7572 82.6274C50.694 82.4327 50.5792 82.2587 50.425 82.124L50.242 82.334L50.244 82.333ZM50.196 82.203V82.229H50.473V82.204L50.196 82.203ZM45.814 78.355L50.242 82.307L50.427 82.1L45.999 78.149L45.814 78.355ZM45.789 78.178V78.18L46.024 78.325L46.026 78.323L45.789 78.178ZM46.004 78.35L46.006 78.348L45.81 78.152L45.809 78.154L46.004 78.35ZM65.652 78.324C66.9817 80.4866 67.5694 83.024 67.326 85.551L67.601 85.578C67.8507 82.9906 67.2493 80.3925 65.888 78.178L65.652 78.324ZM65.9 78.203L65.894 78.189L65.646 78.313L65.653 78.326L65.9 78.203ZM61.473 82.3L65.868 78.367L65.683 78.16L61.289 82.093L61.473 82.3ZM61.202 83.137C61.1678 82.9863 61.1748 82.8291 61.2224 82.682C61.2699 82.5349 61.3561 82.4033 61.472 82.301L61.289 82.093C61.1359 82.2281 61.0218 82.4018 60.9588 82.596C60.8959 82.7902 60.8862 82.9978 60.931 83.197L61.202 83.137ZM61.808 83.768C61.659 83.7281 61.5238 83.6483 61.417 83.537C61.3102 83.4258 61.2358 83.2875 61.202 83.137L60.931 83.197C61.021 83.604 61.331 83.927 61.735 84.036L61.808 83.768ZM61.91 83.924V83.902H61.633V83.924H61.91ZM67.5 85.431L61.81 83.791L61.733 84.057L67.424 85.697L67.5 85.431ZM56.757 82.372H54.945V82.648H56.757V82.37V82.372ZM57.973 83.83L56.866 82.423L56.648 82.595L57.755 84.001L57.973 83.83ZM57.597 85.704L57.999 83.946L57.729 83.884L57.327 85.642L57.597 85.704ZM55.894 86.582L57.522 85.798L57.402 85.548L55.774 86.331L55.894 86.582ZM54.144 85.798L55.774 86.581L55.894 86.331L54.263 85.548L54.144 85.798ZM53.684 83.945L54.068 85.703L54.338 85.643L53.955 83.886L53.684 83.945ZM54.837 82.423L53.71 83.83L53.927 84.003L55.052 82.597L54.836 82.424L54.837 82.423ZM60.764 87.443C60.8285 87.436 60.8935 87.436 60.958 87.443L60.997 87.17C60.9096 87.16 60.8214 87.16 60.734 87.17L60.764 87.443ZM60.876 87.367L60.883 87.342L60.615 87.27L60.608 87.295L60.876 87.367ZM60.071 87.874C60.1436 87.7571 60.2433 87.6593 60.3617 87.589C60.48 87.5187 60.6136 87.4779 60.751 87.47L60.734 87.193C60.366 87.214 60.031 87.413 59.836 87.727L60.071 87.874ZM60.01 88.661C59.9564 88.5345 59.934 88.397 59.9446 88.2601C59.9552 88.1231 59.9986 87.9907 60.071 87.874L59.836 87.727C59.7397 87.8816 59.6821 88.057 59.6678 88.2385C59.6535 88.42 59.6831 88.6023 59.754 88.77L60.01 88.661ZM62.275 94.146L60.01 88.663L59.754 88.768L62.019 94.252L62.275 94.146ZM66.706 88.249C65.872 90.653 64.224 92.707 62.072 94.082L62.222 94.317C64.424 92.909 66.112 90.804 66.968 88.34L66.706 88.249ZM60.954 87.443L66.814 88.431L66.86 88.158L61 87.17L60.954 87.443ZM51.842 87.709C51.7408 87.5532 51.6029 87.4247 51.4404 87.3348C51.2779 87.2448 51.0957 87.1961 50.91 87.193L50.905 87.47C51.0453 87.4724 51.1829 87.5092 51.3056 87.5772C51.4284 87.6452 51.5326 87.7423 51.609 87.86L51.842 87.709ZM51.932 88.769C52.0054 88.5986 52.0356 88.4126 52.0199 88.2277C52.0042 88.0428 51.9431 87.8646 51.842 87.709L51.609 87.86C51.6855 87.9773 51.7319 88.1108 51.7439 88.2503C51.756 88.3899 51.7333 88.5303 51.678 88.659L51.932 88.769ZM51.944 88.736V88.714H51.666V88.736H51.944ZM49.682 94.228L51.933 88.788L51.677 88.683L49.426 94.122L49.682 94.228ZM44.762 88.378C45.6406 90.8148 47.2986 92.8935 49.479 94.292L49.629 94.058C47.4999 92.6931 45.8805 90.6639 45.022 88.285L44.762 88.378ZM50.678 87.21L44.868 88.195L44.915 88.468L50.725 87.483L50.678 87.21ZM50.911 87.209C50.8365 87.2013 50.7615 87.2023 50.687 87.21L50.716 87.484C50.7715 87.4782 50.8275 87.4782 50.883 87.484L50.911 87.209ZM50.792 87.254L50.782 87.27L51.012 87.423L51.022 87.408L50.792 87.254ZM55.82 89.836C55.9789 89.8311 56.136 89.8704 56.2739 89.9495C56.4118 90.0286 56.525 90.1444 56.601 90.284L56.845 90.152C56.7445 89.9671 56.5946 89.8137 56.412 89.709C56.2294 89.6043 56.0214 89.5524 55.811 89.559L55.82 89.836ZM55.956 89.67L55.941 89.638L55.691 89.757L55.705 89.789L55.956 89.67ZM55.106 90.297C55.1801 90.1688 55.286 90.062 55.4136 89.9868C55.5412 89.9116 55.686 89.8707 55.834 89.868L55.827 89.591C55.431 89.601 55.064 89.811 54.865 90.159L55.106 90.297ZM52.233 95.463L55.107 90.295L54.866 90.161L51.991 95.328L52.233 95.463ZM58.433 95.588C56.3514 96.064 54.1785 95.9518 52.157 95.264L52.067 95.526C54.1374 96.2307 56.363 96.3457 58.495 95.858L58.433 95.588ZM59.569 95.252L58.425 95.59L58.503 95.856L59.648 95.518L59.569 95.252ZM56.624 90.285L59.487 95.452L59.73 95.318L56.866 90.151L56.624 90.285ZM56.724 90.357H56.745V90.079H56.723L56.724 90.357Z" fill="white"/>
</svg>
