<svg width="320" height="180" viewBox="0 0 320 180" fill="none" xmlns="http://www.w3.org/2000/svg">
<path d="M51.468 43.612L55.008 49.632H68.834L72.28 43.767L101.883 57.85C102.795 58.284 103.602 58.9089 104.252 59.6824C104.901 60.4559 105.376 61.3598 105.645 62.333L105.717 62.615L114.872 102.353C115.112 103.329 115.134 104.347 114.936 105.333C114.738 106.319 114.324 107.248 113.725 108.056L113.539 108.297L87.881 140.164C86.591 141.727 84.68 142.71 82.64 142.797L82.333 142.804H41.16C40.1519 142.809 39.1542 142.6 38.2332 142.19C37.3122 141.781 36.4889 141.179 35.818 140.427L35.619 140.194L9.949 108.333C9.80767 108.152 9.67389 107.966 9.548 107.774C8.53722 106.286 8.15318 104.459 8.479 102.69L8.548 102.36L17.643 62.655C17.8817 61.6232 18.3506 60.6587 19.0145 59.8336C19.6784 59.0085 20.5202 58.344 21.477 57.89C21.477 57.89 51.44 43.624 51.468 43.612Z" fill="#001C47"/>
<path d="M61.376 39.474H61.343C62.4133 39.4307 63.4795 39.6286 64.463 40.053L64.787 40.203L72.28 43.767L68.834 49.633H55.008L51.468 43.61L58.632 40.199C59.3812 39.8292 60.1894 39.5936 61.02 39.503L61.376 39.474Z" fill="white"/>
<path opacity="0.285" d="M52.826 126.349L66.71 139.111C67.178 139.541 67.897 139.541 68.364 139.111L82.249 126.349C82.4851 126.132 82.6663 125.861 82.7775 125.56C82.8888 125.259 82.927 124.936 82.889 124.617L68.834 54.145H66.24L52.186 124.617C52.108 125.264 52.346 125.908 52.826 126.349Z" fill="white"/>
<path d="M47.21 126.349L61.094 139.111C61.562 139.541 62.281 139.541 62.748 139.111L76.633 126.349C76.8691 126.132 77.0503 125.861 77.1616 125.56C77.2728 125.259 77.311 124.936 77.273 124.617L68.834 54.145H55.008L46.57 124.617C46.492 125.264 46.73 125.908 47.21 126.349Z" fill="white"/>
<path d="M144.762 77.921C146.028 76.5394 147.281 75.1467 148.522 73.743C149.82 72.3378 151.102 70.917 152.366 69.481C153.516 68.1227 154.659 66.7577 155.793 65.386C156.755 64.2845 157.702 63.1704 158.634 62.044H173.425C170.567 65.3371 167.669 68.5963 164.734 71.821C161.76 75.0818 158.694 78.2587 155.542 81.348C157.213 82.852 158.94 84.662 160.723 86.779C162.524 88.8632 164.252 91.0095 165.904 93.214C167.53 95.3763 169.064 97.607 170.5 99.9C171.893 102.128 173.063 104.162 174.01 106H159.72C158.724 104.39 157.693 102.802 156.628 101.237C155.501 99.4349 154.302 97.6785 153.035 95.972C151.763 94.2001 150.396 92.4983 148.94 90.874C147.547 89.259 146.155 87.894 144.762 86.78V106H132.31V43.157L144.762 41.152V77.921ZM213.366 104.496C211.249 105.109 208.519 105.666 205.177 106.167C201.834 106.724 198.324 107.003 194.647 107.003C190.914 107.003 187.795 106.501 185.288 105.499C182.836 104.496 180.886 103.103 179.438 101.32C177.989 99.482 176.959 97.309 176.346 94.802C175.733 92.295 175.427 89.537 175.427 86.529V62.044H187.878V85.024C187.878 89.036 188.407 91.933 189.466 93.716C190.524 95.498 192.502 96.39 195.399 96.39C196.291 96.39 197.238 96.362 198.24 96.306C199.133 96.2085 200.025 96.0972 200.915 95.972V62.044H213.366V104.496ZM249.173 83.688C249.173 75.665 246.22 71.654 240.315 71.654C239.034 71.654 237.752 71.821 236.471 72.155C235.245 72.49 234.242 72.907 233.462 73.409V96.055C234.075 96.167 234.855 96.278 235.802 96.39C236.749 96.445 237.78 96.473 238.894 96.473C242.293 96.473 244.855 95.303 246.582 92.963C248.309 90.623 249.173 87.532 249.173 83.688ZM261.875 84.022C261.875 87.532 261.346 90.707 260.287 93.548C259.285 96.39 257.808 98.813 255.858 100.819C253.908 102.824 251.513 104.384 248.672 105.499C245.83 106.557 242.599 107.086 238.978 107.086C237.474 107.086 235.886 107.003 234.214 106.836C232.593 106.724 230.977 106.556 229.368 106.334C227.858 106.12 226.353 105.869 224.855 105.582C223.563 105.289 222.281 104.955 221.011 104.579V43.158L233.462 41.152V63.047C234.861 62.4322 236.316 61.9563 237.808 61.626C239.312 61.292 240.928 61.124 242.655 61.124C245.775 61.124 248.532 61.681 250.928 62.796C253.324 63.854 255.329 65.386 256.945 67.392C258.56 69.398 259.786 71.821 260.622 74.662C261.457 77.448 261.875 80.568 261.875 84.022ZM265.312 84.356C265.312 80.456 265.897 77.058 267.067 74.161C268.293 71.208 269.881 68.757 271.83 66.807C273.732 64.8885 276.008 63.3807 278.516 62.377C281.079 61.375 283.697 60.874 286.371 60.874C292.611 60.874 297.541 62.796 301.163 66.64C304.784 70.428 306.594 76.027 306.594 83.437C306.594 84.161 306.567 84.969 306.511 85.86C306.461 86.6128 306.405 87.3651 306.344 88.117H278.098C278.377 90.679 279.574 92.713 281.691 94.217C283.808 95.721 286.65 96.473 290.215 96.473C292.457 96.4767 294.694 96.281 296.901 95.888C299.129 95.443 300.94 94.913 302.332 94.301L304.004 104.412C303.335 104.746 302.444 105.081 301.33 105.415C300.096 105.776 298.84 106.055 297.569 106.251C296.132 106.545 294.682 106.768 293.224 106.919C291.664 107.086 290.104 107.17 288.544 107.17C284.588 107.17 281.134 106.585 278.182 105.415C275.285 104.245 272.861 102.657 270.911 100.652C269.017 98.59 267.596 96.167 266.649 93.382C265.758 90.596 265.312 87.587 265.312 84.356ZM294.561 79.593C294.506 78.5407 294.309 77.5006 293.976 76.501C293.706 75.5154 293.221 74.602 292.555 73.827C291.942 73.047 291.134 72.406 290.132 71.905C289.185 71.403 287.987 71.153 286.538 71.153C285.145 71.153 283.948 71.403 282.945 71.905C281.942 72.35 281.106 72.963 280.438 73.743C279.769 74.523 279.24 75.443 278.85 76.501C278.515 77.5092 278.263 78.5434 278.098 79.593H294.561ZM159.336 125.341C158.585 119.115 153.873 115.535 147.634 115.535C140.513 115.535 135.077 120.563 135.077 129.382C135.077 138.175 140.421 143.229 147.634 143.229C154.544 143.229 158.717 138.635 159.336 133.673L153.57 133.647C153.031 136.529 150.767 138.188 147.726 138.188C143.633 138.188 140.855 135.147 140.855 129.382C140.855 123.775 143.593 120.576 147.766 120.576C150.885 120.576 153.136 122.379 153.57 125.341H159.336ZM168.257 142.861L170.257 136.714H179.985L181.985 142.861H188.093L178.8 115.903H171.455L162.149 142.861H168.257ZM171.705 132.265L175.022 122.064H175.233L178.55 132.265H171.705ZM192.032 142.861H197.731V133.304H201.891L206.998 142.861H213.289L207.564 132.383C210.631 131.067 212.329 128.395 212.329 124.709C212.329 119.352 208.788 115.903 202.667 115.903H192.032V142.861ZM197.731 128.724V120.563H201.575C204.865 120.563 206.458 122.024 206.458 124.709C206.458 127.381 204.865 128.724 201.601 128.724H197.731ZM217.051 142.861H235.268V138.162H222.75V131.725H234.281V127.026H222.75V120.603H235.215V115.903H217.051V142.861ZM240.441 142.861H258.658V138.162H246.14V131.725H257.671V127.026H246.14V120.603H258.605V115.903H240.441V142.861ZM263.831 142.861H269.53V133.304H273.689L278.797 142.861H285.088L279.363 132.383C282.429 131.067 284.127 128.395 284.127 124.709C284.127 119.352 280.587 115.903 274.466 115.903H263.831V142.861ZM269.53 128.724V120.563H273.374C276.664 120.563 278.257 122.024 278.257 124.709C278.257 127.381 276.664 128.724 273.4 128.724H269.53ZM303.473 123.656H308.936C308.857 118.852 304.908 115.535 298.906 115.535C292.996 115.535 288.665 118.799 288.692 123.696C288.678 127.671 291.482 129.948 296.036 131.041L298.972 131.778C301.907 132.488 303.539 133.331 303.552 135.147C303.539 137.122 301.67 138.464 298.774 138.464C295.813 138.464 293.68 137.095 293.496 134.397H287.981C288.126 140.228 292.298 143.242 298.84 143.242C305.421 143.242 309.291 140.096 309.304 135.16C309.291 130.672 305.908 128.29 301.222 127.237L298.8 126.657C296.458 126.118 294.496 125.249 294.536 123.314C294.536 121.577 296.076 120.3 298.866 120.3C301.591 120.3 303.263 121.537 303.473 123.656Z" fill="#001C47"/>
</svg>
