<svg viewBox="0 0 320 180" fill="none" xmlns="http://www.w3.org/2000/svg"><g clip-path="url(#clip0)"><path d="M51.468 43.612l3.54 6.02h13.826l3.446-5.865 29.603 14.083a7.045 7.045 0 013.762 4.483l.072.282 9.155 39.738a6.83 6.83 0 01-1.147 5.703l-.186.241-25.658 31.867c-1.29 1.563-3.201 2.546-5.241 2.633l-.307.007H41.16a7.106 7.106 0 01-5.342-2.377l-.199-.233-25.67-31.861a8.299 8.299 0 01-.401-.559 6.843 6.843 0 01-1.069-5.084l.069-.33 9.095-39.705a7.028 7.028 0 013.834-4.765S51.44 43.624 51.468 43.612z" fill="#001C47"></path><path d="M61.376 39.474h-.033a7.145 7.145 0 013.12.579l.324.15 7.493 3.564-3.446 5.866H55.008l-3.54-6.023 7.164-3.411a7.144 7.144 0 012.388-.696l.356-.03z" fill="#fff"></path><path opacity=".285" d="M52.826 126.349l13.884 12.762c.468.43 1.187.43 1.654 0l13.885-12.762a2.028 2.028 0 00.64-1.732L68.834 54.145H66.24l-14.054 70.472c-.078.647.16 1.291.64 1.732z" fill="#fff"></path><path d="M47.21 126.349l13.884 12.762c.468.43 1.187.43 1.654 0l13.885-12.762a2.028 2.028 0 00.64-1.732l-8.439-70.472H55.008l-8.438 70.472c-.078.647.16 1.291.64 1.732z" fill="#fff"></path><path d="M144.762 77.921a319.484 319.484 0 003.76-4.178 239.364 239.364 0 003.844-4.262 455.95 455.95 0 003.427-4.095 167.454 167.454 0 002.841-3.342h14.791a554.349 554.349 0 01-8.691 9.777 236.464 236.464 0 01-9.192 9.527c1.671 1.504 3.398 3.314 5.181 5.431a118.537 118.537 0 015.181 6.435A95.107 95.107 0 01170.5 99.9c1.393 2.228 2.563 4.262 3.51 6.1h-14.29a130.6 130.6 0 00-3.092-4.763 79.93 79.93 0 00-3.593-5.265 60.544 60.544 0 00-4.095-5.098c-1.393-1.615-2.785-2.98-4.178-4.094V106H132.31V43.157l12.452-2.005v36.77zm68.604 26.575c-2.117.613-4.847 1.17-8.189 1.671-3.343.557-6.853.836-10.53.836-3.733 0-6.852-.502-9.359-1.504-2.452-1.003-4.402-2.396-5.85-4.179-1.449-1.838-2.479-4.011-3.092-6.518-.613-2.507-.919-5.265-.919-8.273V62.044h12.451v22.98c0 4.012.529 6.909 1.588 8.692 1.058 1.782 3.036 2.674 5.933 2.674.892 0 1.839-.028 2.841-.084a86.961 86.961 0 002.675-.334V62.044h12.451v42.452zm35.807-20.808c0-8.023-2.953-12.034-8.858-12.034-1.281 0-2.563.167-3.844.501-1.226.335-2.229.752-3.009 1.254v22.646c.613.112 1.393.223 2.34.335.947.055 1.978.083 3.092.083 3.399 0 5.961-1.17 7.688-3.51 1.727-2.34 2.591-5.431 2.591-9.275zm12.702.334c0 3.51-.529 6.685-1.588 9.526-1.002 2.842-2.479 5.265-4.429 7.271-1.95 2.005-4.345 3.565-7.186 4.68-2.842 1.058-6.073 1.587-9.694 1.587-1.504 0-3.092-.083-4.764-.25a71.68 71.68 0 01-4.846-.502 94.73 94.73 0 01-4.513-.752 61.283 61.283 0 01-3.844-1.003V43.158l12.451-2.006v21.895a23.34 23.34 0 014.346-1.421c1.504-.334 3.12-.502 4.847-.502 3.12 0 5.877.557 8.273 1.672 2.396 1.058 4.401 2.59 6.017 4.596 1.615 2.006 2.841 4.429 3.677 7.27.835 2.786 1.253 5.906 1.253 9.36zm3.437.334c0-3.9.585-7.298 1.755-10.195 1.226-2.953 2.814-5.404 4.763-7.354a19.746 19.746 0 016.686-4.43c2.563-1.002 5.181-1.503 7.855-1.503 6.24 0 11.17 1.922 14.792 5.766 3.621 3.788 5.431 9.387 5.431 16.797 0 .724-.027 1.532-.083 2.423a149.95 149.95 0 01-.167 2.257h-28.246c.279 2.562 1.476 4.596 3.593 6.1 2.117 1.504 4.959 2.256 8.524 2.256a37.78 37.78 0 006.686-.585c2.228-.445 4.039-.975 5.431-1.587l1.672 10.111c-.669.334-1.56.669-2.674 1.003a29.298 29.298 0 01-3.761.836 44.833 44.833 0 01-4.345.668c-1.56.167-3.12.251-4.68.251-3.956 0-7.41-.585-10.362-1.755-2.897-1.17-5.321-2.758-7.271-4.763-1.894-2.062-3.315-4.485-4.262-7.27-.891-2.786-1.337-5.795-1.337-9.026zm29.249-4.763a11.696 11.696 0 00-.585-3.092 6.893 6.893 0 00-1.421-2.674c-.613-.78-1.421-1.421-2.423-1.922-.947-.502-2.145-.752-3.594-.752-1.393 0-2.59.25-3.593.752-1.003.445-1.839 1.058-2.507 1.838-.669.78-1.198 1.7-1.588 2.758a19.273 19.273 0 00-.752 3.092h16.463zm-135.225 45.748c-.751-6.226-5.463-9.806-11.702-9.806-7.121 0-12.557 5.028-12.557 13.847 0 8.793 5.344 13.847 12.557 13.847 6.91 0 11.083-4.594 11.702-9.556l-5.766-.026c-.539 2.882-2.803 4.541-5.844 4.541-4.093 0-6.871-3.041-6.871-8.806 0-5.607 2.738-8.806 6.911-8.806 3.119 0 5.37 1.803 5.804 4.765h5.766zm8.921 17.52l2-6.147h9.728l2 6.147h6.108l-9.293-26.958h-7.345l-9.306 26.958h6.108zm3.448-10.596l3.317-10.201h.211l3.317 10.201h-6.845zm20.327 10.596h5.699v-9.557h4.16l5.107 9.557h6.291l-5.725-10.478c3.067-1.316 4.765-3.988 4.765-7.674 0-5.357-3.541-8.806-9.662-8.806h-10.635v26.958zm5.699-14.137v-8.161h3.844c3.29 0 4.883 1.461 4.883 4.146 0 2.672-1.593 4.015-4.857 4.015h-3.87zm19.32 14.137h18.217v-4.699H222.75v-6.437h11.531v-4.699H222.75v-6.423h12.465v-4.7h-18.164v26.958zm23.39 0h18.217v-4.699H246.14v-6.437h11.531v-4.699H246.14v-6.423h12.465v-4.7h-18.164v26.958zm23.39 0h5.699v-9.557h4.159l5.108 9.557h6.291l-5.725-10.478c3.066-1.316 4.764-3.988 4.764-7.674 0-5.357-3.54-8.806-9.661-8.806h-10.635v26.958zm5.699-14.137v-8.161h3.844c3.29 0 4.883 1.461 4.883 4.146 0 2.672-1.593 4.015-4.857 4.015h-3.87zm33.943-5.068h5.463c-.079-4.804-4.028-8.121-10.03-8.121-5.91 0-10.241 3.264-10.214 8.161-.014 3.975 2.79 6.252 7.344 7.345l2.936.737c2.935.71 4.567 1.553 4.58 3.369-.013 1.975-1.882 3.317-4.778 3.317-2.961 0-5.094-1.369-5.278-4.067h-5.515c.145 5.831 4.317 8.845 10.859 8.845 6.581 0 10.451-3.146 10.464-8.082-.013-4.488-3.396-6.87-8.082-7.923l-2.422-.58c-2.342-.539-4.304-1.408-4.264-3.343 0-1.737 1.54-3.014 4.33-3.014 2.725 0 4.397 1.237 4.607 3.356z" fill="#001C47"></path></g></svg>