<svg width="178" height="71" viewBox="0 0 178 71" fill="none" xmlns="http://www.w3.org/2000/svg">
<path d="M74.3278 30.6133C75.0412 29.9508 75.7477 29.2829 76.4471 28.6097C77.1784 27.9358 77.9005 27.2546 78.6131 26.5663C79.2613 25.9152 79.9049 25.2607 80.5438 24.6029C81.0858 24.0747 81.6194 23.5405 82.1447 23.0002H90.4796C88.8686 24.579 87.2361 26.1417 85.5824 27.6881C83.906 29.2515 82.1787 30.7748 80.4026 32.2563C81.3443 32.9776 82.3177 33.8457 83.3223 34.861C84.3371 35.8603 85.3108 36.8893 86.2415 37.9462C87.1579 38.9831 88.022 40.0527 88.8314 41.1521C89.6163 42.2204 90.276 43.1955 90.8094 44.0773H82.7572C82.1959 43.3054 81.615 42.5439 81.015 41.7934C80.3795 40.9293 79.7039 40.0871 78.9897 39.2687C78.2727 38.4193 77.5025 37.6033 76.6824 36.8244C75.8975 36.0495 75.1126 35.3949 74.3278 34.861V44.0768H67.3118V13.9444L74.3278 12.9821V30.6133ZM115.265 43.3559C114.072 43.6494 112.534 43.9168 110.65 44.1573C108.767 44.4247 106.789 44.5582 104.717 44.5582C102.614 44.5582 100.855 44.3177 99.443 43.8368C98.0613 43.3559 96.9627 42.688 96.1466 41.8332C95.3301 40.9519 94.7493 39.9101 94.4039 38.7078C94.059 37.5055 93.886 36.1835 93.886 34.7408V23.0002H100.903V34.0194C100.903 35.943 101.201 37.3318 101.797 38.1866C102.394 39.0415 103.508 39.4694 105.141 39.4694C105.643 39.4694 106.176 39.4557 106.742 39.4291C107.245 39.3823 107.747 39.3288 108.248 39.2687V23.0002H115.265V43.3559ZM137.721 33.378C137.721 29.5317 136.057 27.6081 132.729 27.6081C132.007 27.6081 131.285 27.6886 130.563 27.8486C129.873 28.009 129.307 28.2093 128.868 28.4497V39.3089C129.213 39.3624 129.653 39.4154 130.186 39.4689C130.72 39.4959 131.301 39.5091 131.929 39.5091C133.844 39.5091 135.288 38.9482 136.261 37.8264C137.234 36.7046 137.721 35.2212 137.721 33.378ZM144.879 33.539C144.879 35.2217 144.58 36.7444 143.984 38.1067C143.418 39.4689 142.587 40.6309 141.488 41.5928C140.389 42.5546 139.039 43.3024 137.438 43.8364C135.837 44.3442 134.016 44.5984 131.976 44.5984C131.079 44.5962 130.183 44.556 129.291 44.4777C128.378 44.4242 127.467 44.3441 126.56 44.2377C125.709 44.1349 124.862 44.0146 124.018 43.8771C123.29 43.7364 122.567 43.576 121.852 43.3962V13.9439L128.868 12.9821V23.4806C129.653 23.1872 130.469 22.96 131.317 22.7995C132.164 22.6395 133.074 22.5591 134.048 22.5591C135.806 22.5591 137.36 22.8265 138.71 23.3609C140.06 23.8683 141.19 24.6029 142.1 25.5647C143.011 26.5261 143.701 27.6881 144.172 29.0508C144.643 30.3866 144.879 31.8828 144.879 33.539ZM149.094 33.699C149.094 31.8293 149.423 30.1996 150.083 28.8104C150.773 27.3946 151.668 26.2189 152.767 25.2841C153.839 24.3642 155.121 23.6413 156.534 23.1602C157.978 22.6793 159.453 22.4388 160.96 22.4388C164.476 22.4388 167.255 23.3604 169.295 25.2041C171.336 27.0207 172.356 29.7055 172.356 33.2583C172.356 33.6053 172.341 33.9929 172.309 34.4203C172.278 34.8208 172.247 35.1814 172.215 35.5019H156.298C156.455 36.7307 157.131 37.7057 158.323 38.4271C159.516 39.1485 161.117 39.5091 163.126 39.5091C164.413 39.5091 165.67 39.4154 166.894 39.2284C168.149 39.015 169.17 38.7613 169.955 38.4673L170.897 43.3157C170.519 43.4761 170.017 43.6366 169.39 43.7966C168.694 43.9698 167.986 44.1037 167.27 44.1975C166.461 44.3384 165.644 44.4454 164.822 44.518C163.943 44.5984 163.064 44.6382 162.185 44.6382C159.956 44.6382 158.009 44.3575 156.346 43.7966C154.713 43.2357 153.347 42.4746 152.249 41.5128C151.181 40.5244 150.381 39.3624 149.847 38.0267C149.345 36.6909 149.094 35.2482 149.094 33.699ZM165.576 31.4151C165.545 30.9104 165.434 30.4116 165.246 29.9322C165.094 29.4596 164.82 29.0216 164.445 28.6499C164.1 28.276 163.645 27.9688 163.08 27.7283C162.546 27.4879 161.871 27.3677 161.055 27.3677C160.27 27.3677 159.595 27.4879 159.03 27.7283C158.464 27.9423 157.994 28.2358 157.617 28.6097C157.24 28.9836 156.942 29.4248 156.722 29.9322C156.533 30.4158 156.392 30.9118 156.298 31.4151H165.576Z" fill="#253391"/>
<path d="M67.146 61.0453V49.3403H76.4354V51.5531H70.2427V53.8502H75.7406V56.0119H70.2427V58.833H76.8921V61.0453H67.146ZM89.4405 61.0453C88.8818 60.0352 88.3459 59.0161 87.833 57.9886C87.3119 56.9476 86.809 55.9002 86.3244 54.8466C85.8695 53.8595 85.4262 52.8686 84.9944 51.874C84.64 51.0325 84.2959 50.1879 83.962 49.3403H87.3763C87.6411 50.0157 87.9253 50.748 88.2296 51.5361L89.1824 53.8668C89.4991 54.6104 89.8167 55.3537 90.1353 56.0966C90.3984 56.7172 90.683 57.3311 90.9886 57.9374C91.24 57.4196 91.5181 56.8062 91.8224 56.0966C92.1528 55.3573 92.4704 54.614 92.7752 53.8668C93.1048 53.0935 93.4225 52.3165 93.7281 51.5361C94.0228 50.8052 94.3139 50.0732 94.6014 49.3403H97.8966C97.5497 50.186 97.1988 51.0306 96.8442 51.874C96.4253 52.8705 95.9886 53.8614 95.5342 54.8466C95.0496 55.9002 94.5467 56.9476 94.0257 57.9886C93.5128 59.0161 92.9768 60.0352 92.4181 61.0453H89.4405ZM105.631 61.0453V49.3403H114.921V51.5531H108.728V53.8502H114.226V56.0119H108.728V58.833H115.377V61.0453H105.631ZM132.854 61.0453C131.957 59.6904 130.996 58.3664 129.976 57.0764C128.962 55.7905 127.862 54.5555 126.681 53.3773V61.0453H123.624V49.3403H126.145C126.651 49.7779 127.135 50.2345 127.594 50.7087C128.148 51.2761 128.684 51.8561 129.202 52.4482C129.771 53.0717 130.32 53.7081 130.849 54.3567C131.392 55.0099 131.901 55.6403 132.377 56.2486V49.3403H135.454V61.0453H132.854ZM154.785 49.3403V51.5867H150.636V61.0453H147.54V51.5867H143.391V49.3403H154.785ZM166.481 59.0356C166.918 59.0356 167.275 59.0072 167.553 58.9513C167.844 58.8836 168.076 58.7989 168.248 58.6976C168.42 58.585 168.539 58.4557 168.605 58.3095C168.671 58.1627 168.705 57.9994 168.705 57.8196C168.705 57.4366 168.493 57.1214 168.069 56.8734C167.646 56.6145 166.918 56.3385 165.886 56.046C165.429 55.9085 164.979 55.7563 164.536 55.5897C164.1 55.4171 163.692 55.1957 163.325 54.9313C162.966 54.6592 162.67 54.3327 162.452 53.9685C162.227 53.5856 162.115 53.1236 162.115 52.5831C162.115 52.043 162.234 51.5588 162.472 51.1309C162.704 50.698 163.051 50.3164 163.484 50.0157C163.921 49.7118 164.45 49.4809 165.072 49.3232C165.694 49.1547 166.395 49.07 167.176 49.07C168.102 49.07 168.903 49.1547 169.578 49.3232C170.253 49.4922 170.808 49.6782 171.245 49.8808L170.352 51.9583C169.938 51.7791 169.506 51.6321 169.062 51.519C168.598 51.3841 168.036 51.3164 167.375 51.3164C166.634 51.3164 166.097 51.4064 165.766 51.5867C165.449 51.7557 165.29 52.0203 165.29 52.3805C165.29 52.5944 165.35 52.7748 165.469 52.921C165.588 53.0673 165.754 53.2027 165.965 53.3267C166.19 53.4389 166.442 53.5458 166.719 53.6476C167.011 53.7375 167.328 53.8332 167.672 53.9345C168.387 54.1598 169.009 54.3851 169.538 54.6104C170.067 54.8243 170.504 55.0776 170.848 55.3701C171.201 55.6578 171.473 56.0102 171.642 56.4005C171.814 56.7948 171.9 57.2734 171.9 57.8361C171.9 58.9286 171.45 59.7787 170.55 60.3869C169.651 60.9838 168.294 61.282 166.481 61.282C165.93 61.2857 165.379 61.2518 164.834 61.1807C164.392 61.1324 163.954 61.059 163.524 60.9611C163.193 60.8828 162.868 60.7868 162.551 60.6738C162.321 60.5872 162.096 60.4915 161.876 60.3869L162.749 58.2924C163.16 58.4837 163.663 58.6583 164.258 58.8159C164.867 58.9622 165.608 59.0356 166.481 59.0356Z" fill="#4D7CF4"/>
<path d="M43.1005 13.0167C43.1005 13.0167 46.1982 16.9344 46.5081 19.3148C46.8179 21.6957 46.5081 23.1053 46.5081 23.1053" stroke="#7DA0F7" stroke-width="1.663"/>
<path d="M36.5234 6.14387L38.8468 4.83794C38.982 4.76197 39.1334 4.7094 39.2924 4.68322C39.4514 4.65705 39.6149 4.65778 39.7736 4.68539C39.9323 4.71299 40.083 4.76692 40.2172 4.8441C40.3514 4.92128 40.4664 5.02019 40.5556 5.13519L46.0692 12.239C46.1584 12.354 46.2202 12.4829 46.2509 12.6182C46.2816 12.7535 46.2807 12.8927 46.2482 13.0277C46.2157 13.1627 46.1523 13.291 46.0615 13.4051C45.9708 13.5193 45.8545 13.6171 45.7193 13.6931L43.3964 14.9985C43.2613 15.0745 43.1099 15.1271 42.9508 15.1532C42.7918 15.1794 42.6283 15.1787 42.4696 15.1511C42.311 15.1235 42.1602 15.0695 42.026 14.9924C41.8919 14.9152 41.7768 14.8163 41.6876 14.7013L36.1746 7.597C35.9945 7.3648 35.9301 7.08124 35.9956 6.80865C36.0611 6.53607 36.2511 6.29678 36.5239 6.14339L36.5234 6.14387Z" fill="#0A349F"/>
<path d="M3.89375 22.3025H57.6659L53.712 32.5379H7.84757L3.89375 22.3025Z" fill="#1D59F1"/>
<path d="M3.89375 17.4863H57.6659V22.303H3.89375V17.4863ZM9.55414 57.8243H52.7136V62.6409H9.55414V57.8243Z" fill="#4D7CF4"/>
<path d="M16.6291 52.4061H45.6375L52.713 57.8243H9.55359L16.6291 52.4061Z" fill="#7DA0F7"/>
<path d="M12.8833 26.5171H48.6758L45.0969 55.4515H16.4628L12.8833 26.5171Z" fill="#4D7CF4"/>
<path fill-rule="evenodd" clip-rule="evenodd" d="M31.0677 30.3246C30.8944 30.3349 30.7329 30.4027 30.6177 30.5133C30.5026 30.624 30.443 30.7687 30.4519 30.9163V31.0668C30.4686 31.2372 30.4992 31.4062 30.5387 31.5732C30.5965 31.8932 30.6171 32.2174 30.6004 32.5412C30.5644 32.6479 30.4934 32.7436 30.3957 32.8172L30.3818 33.0429C30.0011 33.07 29.623 33.1196 29.2504 33.1916C27.6836 33.492 26.2583 34.1844 25.1575 35.1796L24.9317 35.0437C24.8703 35.0594 24.8059 35.0647 24.7421 35.0592C24.6784 35.0536 24.6165 35.0375 24.5601 35.0115C24.255 34.8193 23.9725 34.6023 23.7168 34.3635C23.5885 34.2329 23.4514 34.1087 23.3063 33.9915L23.1673 33.8968C23.0431 33.8122 22.8906 33.7634 22.7317 33.7572C22.5393 33.7487 22.3535 33.8187 22.2322 33.9461C22.1305 34.0679 22.0897 34.219 22.1187 34.3663C22.1476 34.5137 22.2441 34.6453 22.3868 34.7323L22.5164 34.8203C22.6833 34.915 22.8569 35.0011 23.0354 35.0787C23.3707 35.2365 23.6853 35.4242 23.9738 35.6387C24.0484 35.7291 24.0917 35.8356 24.0984 35.9464L24.3037 36.1059C23.1974 37.5191 22.7428 39.23 23.0271 40.9107L22.7634 40.9751C22.6952 41.0679 22.6034 41.1465 22.4948 41.2051C22.1276 41.2889 21.7516 41.3414 21.3722 41.3627C21.1709 41.3663 20.9699 41.3797 20.7704 41.403L20.6041 41.4347H20.5851C20.4695 41.4482 20.3606 41.4888 20.2706 41.5519C20.1805 41.6151 20.1128 41.6983 20.0751 41.7922C20.0374 41.8862 20.0311 41.9872 20.0569 42.0841C20.0827 42.1809 20.1397 42.2697 20.2214 42.3406C20.3893 42.4845 20.6385 42.5356 20.8644 42.4727H20.8766L21.0463 42.4566C21.2375 42.4079 21.4251 42.3496 21.6081 42.2819C21.961 42.1615 22.3269 42.0705 22.7006 42.0102C22.8302 42.0164 22.9542 42.0543 23.0599 42.1182L23.3419 42.0779C23.9526 43.6913 25.2369 45.0584 26.952 45.9205L26.8374 46.1245C26.8897 46.2182 26.9097 46.3223 26.8936 46.4255C26.7382 46.7315 26.5484 47.0239 26.3268 47.2988C26.2051 47.4353 26.0927 47.5777 25.9902 47.7253L25.9101 47.8692C25.8525 47.9548 25.8236 48.0523 25.8269 48.151C25.8301 48.2497 25.8652 48.3457 25.9284 48.4284C25.9916 48.5112 26.0804 48.5776 26.185 48.6202C26.2896 48.6628 26.406 48.6801 26.5214 48.67C26.7573 48.6473 26.9587 48.5138 27.0415 48.3245L27.1194 48.1887C27.1905 48.0291 27.2507 47.8662 27.2996 47.7007C27.3508 47.5932 27.3948 47.4829 27.4381 47.3755C27.5349 47.1341 27.6267 46.9045 27.7841 46.7436C27.8585 46.6842 27.9521 46.6453 28.0528 46.6319L28.1941 46.4132C30.0528 47.0212 32.1096 47.0256 33.9719 46.4255L34.097 46.629C34.225 46.6456 34.34 46.7047 34.4169 46.7933C34.5937 47.0796 34.7367 47.3797 34.8452 47.6893C34.8952 47.855 34.9564 48.0183 35.0276 48.1783L35.1055 48.3141C35.1464 48.4067 35.2167 48.4879 35.3086 48.5487C35.4005 48.6094 35.5103 48.6472 35.6259 48.6581C35.7416 48.6689 35.8585 48.6523 35.9637 48.61C36.0688 48.5678 36.1582 48.5016 36.2219 48.4187C36.2851 48.3356 36.3199 48.2392 36.3226 48.1403C36.3252 48.0414 36.2956 47.9437 36.2369 47.8583L36.1551 47.7139C36.0526 47.567 35.9403 47.4253 35.8186 47.2893C35.6024 47.0217 35.4137 46.7387 35.2546 46.4435C35.2395 46.3892 35.2374 46.3329 35.2484 46.278C35.2594 46.223 35.2832 46.1705 35.3185 46.1235C35.2784 46.0538 35.2434 45.9821 35.214 45.9086C36.9255 45.0401 38.2042 43.6683 38.8084 42.0524L39.0754 42.0926C39.171 42.0184 39.2966 41.9787 39.4259 41.9818C39.7986 42.0429 40.1646 42.1418 40.5184 42.254C40.7019 42.326 40.8899 42.3865 41.0802 42.4381C41.1052 42.4438 41.1364 42.449 41.1681 42.4542L41.242 42.4675H41.2543C41.3653 42.4981 41.484 42.5019 41.5974 42.4784C41.7107 42.4549 41.8142 42.4051 41.8962 42.3345C41.9783 42.264 42.0356 42.1754 42.062 42.0787C42.0883 41.9819 42.0825 41.8809 42.0453 41.7868C42.0073 41.6928 41.9393 41.6096 41.8489 41.5466C41.7585 41.4835 41.6493 41.4432 41.5335 41.4299L41.3511 41.393C41.1517 41.3699 40.9509 41.3566 40.7498 41.3533C40.3704 41.3325 39.9944 41.2797 39.6272 41.1956C39.5137 41.1415 39.42 41.0617 39.3564 40.9651L39.1021 40.9012C39.373 39.2211 38.9094 37.5148 37.7994 36.1064L38.0214 35.9322C38.0124 35.8224 38.0544 35.714 38.1382 35.6302C38.4263 35.4186 38.7395 35.2326 39.0688 35.0731C39.2468 34.9954 39.4203 34.9093 39.5878 34.8146L39.7246 34.72C39.8005 34.6802 39.8657 34.6273 39.9157 34.5645C39.9658 34.5018 39.9997 34.4307 40.0151 34.356C40.0305 34.2813 40.027 34.2047 40.005 34.1312C39.983 34.0577 39.9429 33.989 39.8874 33.9297C39.8319 33.8704 39.7622 33.8218 39.683 33.787C39.6037 33.7523 39.5167 33.7324 39.4277 33.7284C39.3387 33.7244 39.2497 33.7366 39.1667 33.7641C39.0836 33.7916 39.0083 33.8338 38.9458 33.8878L38.8068 33.982C38.661 34.0989 38.5242 34.2234 38.3952 34.3541C38.1471 34.5955 37.8723 34.8156 37.5747 35.012C37.4544 35.0538 37.3228 35.0661 37.1948 35.0475L36.9573 35.1914C35.5838 33.9668 33.7348 33.2079 31.7535 33.0557C31.7535 32.9989 31.7474 32.9232 31.743 32.8697C31.7415 32.8524 31.7402 32.835 31.7391 32.8176C31.6327 32.7555 31.5592 32.6603 31.5344 32.5526C31.5212 32.2295 31.5451 31.9061 31.6056 31.587C31.6462 31.4189 31.6745 31.2509 31.6923 31.0805V30.9205C31.7017 30.7728 31.6423 30.6278 31.5271 30.5171C31.4119 30.4063 31.25 30.3385 31.0766 30.3284L31.0677 30.3246ZM30.2845 34.4573L30.0965 37.2518H30.082C30.0763 37.3364 30.0445 37.4182 29.9899 37.489C29.9352 37.5598 29.8595 37.6171 29.7705 37.6551C29.6812 37.694 29.5808 37.7106 29.4809 37.703C29.381 37.6954 29.2856 37.6638 29.2059 37.612L26.5125 35.988C27.3699 35.2714 28.4455 34.7728 29.6181 34.5486C29.8377 34.5086 30.0596 34.4782 30.2828 34.4573H30.2845ZM35.6033 35.9965C34.5847 35.1478 33.2668 34.607 31.852 34.4573L32.0383 37.2485C32.04 37.3363 32.0706 37.422 32.1265 37.4958C32.1824 37.5696 32.2614 37.6287 32.3547 37.6663C32.4479 37.7039 32.5517 37.7186 32.6543 37.7087C32.7568 37.6987 32.854 37.6646 32.935 37.6101L35.6033 35.9961V35.9965ZM25.5347 37.0393C24.7851 38.0779 24.4632 39.2992 24.6196 40.5107L27.7808 39.7368V39.7288C27.8769 39.7061 27.964 39.6617 28.0328 39.6004C28.1017 39.5391 28.1498 39.463 28.172 39.3803C28.1943 39.2976 28.1898 39.2113 28.1591 39.1306C28.1284 39.0499 28.0727 38.9777 27.9977 38.9217V38.9099L25.5347 37.0393ZM37.5263 40.5008C37.6634 39.2903 37.3326 38.0748 36.584 37.0388L36.5879 37.045L34.1432 38.9071C34.0684 38.9632 34.0127 39.0355 33.9819 39.1163C33.9512 39.197 33.9466 39.2834 33.9685 39.3662C34.013 39.5347 34.1632 39.6687 34.3607 39.7141V39.7245L37.5263 40.5008ZM30.5632 39.0547H31.5711L32.1868 39.7203L31.9632 40.5524L31.0577 40.923L30.1504 40.5524L29.9368 39.7203L30.5632 39.0547ZM33.9185 41.3253C33.8763 41.3213 33.8338 41.3213 33.7916 41.3253L33.7877 41.3372C33.699 41.3415 33.6128 41.364 33.5364 41.4027C33.46 41.4413 33.3956 41.4951 33.3487 41.5593C33.3018 41.6236 33.2737 41.6965 33.2669 41.772C33.2601 41.8474 33.2746 41.9231 33.3094 41.9927L34.5693 44.588C35.7802 43.9296 36.708 42.9455 37.1781 41.7935L33.9185 41.3253ZM28.317 41.3372C28.4078 41.3384 28.4968 41.3586 28.5762 41.396C28.6557 41.4334 28.7231 41.4868 28.7726 41.5516C28.8727 41.6827 28.8894 41.8479 28.8165 41.9918V42.0022L27.5644 44.5767C26.3659 43.9227 25.4544 42.9506 24.9712 41.811L28.203 41.3443C28.239 41.3411 28.2754 41.3411 28.3115 41.3443L28.317 41.3372ZM31.5522 42.7037C31.5031 42.6269 31.4299 42.5633 31.3409 42.5198C31.2518 42.4764 31.1503 42.4548 31.0477 42.4575L31.056 42.4727C30.9604 42.4742 30.8669 42.4967 30.7846 42.538C30.7022 42.5793 30.6338 42.638 30.586 42.7084L28.9873 45.1541C30.1259 45.484 31.3491 45.5375 32.5206 45.3094L33.1575 45.1494L31.5644 42.7037H31.5522Z" fill="white"/>
<path d="M30.4519 30.9163H30.5298L30.5292 30.9129L30.4519 30.9163ZM31.0682 30.3246L31.1055 30.2668L31.0855 30.2574L31.0627 30.2588L31.0682 30.3246ZM30.4519 31.0668H30.3746L30.3751 31.0725L30.4519 31.0668ZM30.5387 31.5732L30.6149 31.5633L30.6143 31.56L30.5387 31.5732ZM30.6004 32.5412L30.675 32.5592L30.6772 32.5516V32.544L30.6004 32.5412ZM30.3957 32.8172L30.3445 32.7679L30.3206 32.7864L30.319 32.8138L30.3957 32.8172ZM30.3818 33.0429L30.3879 33.1083L30.4547 33.1035L30.4586 33.0463L30.3818 33.0429ZM25.1575 35.1796L25.113 35.233L25.1675 35.2662L25.2131 35.2245L25.1575 35.1796ZM24.9317 35.0437L24.9762 34.9902L24.9456 34.9713L24.9094 34.9808L24.9317 35.0437ZM24.5601 35.0115L24.5145 35.0641L24.5189 35.0674L24.524 35.0693L24.5601 35.0115ZM23.7168 34.364L23.6579 34.4066L23.6601 34.408L23.7168 34.364ZM23.3063 33.992L23.3592 33.9446L23.3542 33.9409L23.3063 33.992ZM23.1673 33.8973L23.1189 33.9489L23.1667 33.8978L23.1673 33.8973ZM22.2322 33.9465L22.1727 33.9049L22.1699 33.9082L22.2322 33.9465ZM22.3868 34.7327L22.4347 34.6816L22.4319 34.6797L22.3868 34.7327ZM22.5164 34.8208L22.4681 34.8724L22.4736 34.8757L22.5164 34.8208ZM23.0354 35.0792L23.0727 35.0219L23.0705 35.021L23.0354 35.0792ZM23.9738 35.6392L24.0367 35.6013L24.0311 35.5951L24.0244 35.5899L23.9738 35.6392ZM24.0984 35.9468L24.0217 35.9501L24.0233 35.9767L24.0467 35.9946L24.0984 35.9468ZM24.3037 36.1064L24.3676 36.1428L24.4044 36.0959L24.356 36.0581L24.3037 36.1064ZM23.0271 40.9112L23.0482 40.9746L23.1127 40.9585L23.1033 40.9017L23.0271 40.9112ZM22.7634 40.9755L22.7423 40.9121L22.7145 40.9192L22.6983 40.9405L22.7634 40.9755ZM22.4948 41.2056L22.5148 41.269L22.5259 41.2666L22.5359 41.2614L22.4948 41.2056ZM21.3722 41.3632L21.3739 41.429H21.3772L21.3722 41.3632ZM20.7704 41.4034L20.7598 41.3381L20.7537 41.3395L20.7704 41.4034ZM20.6041 41.4351V41.5009H20.613L20.6213 41.499L20.6041 41.4351ZM20.5851 41.4351V41.3693H20.5796L20.5746 41.3698L20.5857 41.4347L20.5851 41.4351ZM20.8644 42.4732V42.4069H20.8521L20.841 42.4107L20.8644 42.4732ZM20.8766 42.4732V42.5385H20.8855L20.8766 42.4732ZM21.0463 42.4571L21.0546 42.5219H21.0613L21.068 42.52L21.0463 42.4571ZM21.6081 42.2824L21.5797 42.2213L21.5775 42.2223L21.6081 42.2824ZM22.7006 42.0107L22.705 41.9449H22.6956L22.6861 41.9459L22.7006 42.0107ZM23.0599 42.1186L23.0154 42.1716L23.041 42.1877L23.0721 42.183L23.0599 42.1186ZM23.3419 42.0784L23.4153 42.0585L23.3948 42.0046L23.3291 42.014L23.3419 42.0784ZM26.952 45.9209L27.0215 45.9493L27.0521 45.8949L26.9909 45.8646L26.952 45.9209ZM26.8374 46.1249L26.7679 46.0965L26.7517 46.1249L26.7679 46.1533L26.8374 46.1249ZM26.8936 46.426L26.9642 46.452L26.9687 46.4435L26.9703 46.434L26.8936 46.426ZM26.3268 47.2993L26.3879 47.339L26.3902 47.3367L26.3268 47.2993ZM25.9902 47.7257L25.9235 47.6921L25.9207 47.6978L25.9902 47.7257ZM25.9101 47.8696L25.9769 47.9028L25.9802 47.8976L25.9101 47.8696ZM27.0415 48.325L26.9714 48.2961L26.9692 48.3023L27.0415 48.325ZM27.1194 48.1891L27.1889 48.218L27.1912 48.2123L27.1189 48.1891H27.1194ZM27.2996 47.7011L27.2284 47.6765L27.2262 47.6803L27.2251 47.685L27.2996 47.7011ZM27.7841 46.744L27.7313 46.6967L27.7279 46.6991L27.7246 46.7019L27.7841 46.744ZM28.0528 46.6323L28.065 46.6967L28.1023 46.692L28.1207 46.6636L28.0528 46.6323ZM28.1941 46.4137L28.2219 46.3521L28.159 46.3318L28.1262 46.3824L28.1941 46.4137ZM33.9719 46.426L34.0403 46.3957L34.0086 46.3436L33.9446 46.3644L33.9719 46.426ZM34.097 46.6295L34.0286 46.6603L34.0469 46.6896L34.0859 46.6943L34.097 46.6295ZM34.4169 46.7937L34.4853 46.7635L34.4819 46.7587L34.4786 46.7545L34.4169 46.7937ZM34.8452 47.6898L34.9203 47.6737L34.9191 47.6708L34.8452 47.6898ZM35.0276 48.1787L34.9553 48.2019L34.9586 48.2071L35.0276 48.1787ZM35.1055 48.3146L35.1778 48.2914L35.175 48.2857L35.1055 48.3146ZM36.2369 47.8587L36.1674 47.8871L36.1702 47.8914L36.2369 47.8587ZM36.1551 47.7144L36.2247 47.686L36.2213 47.6812L36.1551 47.7144ZM35.8186 47.2898L35.7552 47.3272L35.7574 47.3296L35.8186 47.2898ZM35.2546 46.444L35.1795 46.4591L35.1811 46.4657L35.1845 46.4719L35.2546 46.444ZM35.3185 46.124L35.3831 46.1595L35.4064 46.1282L35.3875 46.0951L35.3185 46.124ZM35.214 45.9091L35.175 45.8523L35.1211 45.8797L35.1411 45.9299L35.214 45.9091ZM38.8084 42.0528L38.8212 41.9885L38.755 41.9785L38.7345 42.033L38.8084 42.0528ZM39.0754 42.0931L39.0615 42.1574L39.0994 42.1631L39.1272 42.1414L39.0754 42.0931ZM39.4259 41.9823L39.4403 41.9179L39.4348 41.917H39.4281L39.4259 41.9823ZM40.5184 42.2545L40.5506 42.1948L40.5451 42.1929L40.5184 42.2545ZM41.0802 42.4386L41.0574 42.5011L41.0601 42.502L41.0802 42.4386ZM41.242 42.468L41.2242 42.5319L41.2331 42.5337H41.242V42.468ZM41.2543 42.468L41.2782 42.4055L41.2671 42.4026H41.2543V42.468ZM41.5335 41.4304L41.5157 41.4948L41.5235 41.4957L41.5335 41.4304ZM41.3511 41.3935L41.3689 41.3296L41.3616 41.3286L41.3511 41.394V41.3935ZM40.7498 41.3537L40.7442 41.419H40.7481L40.7498 41.3537ZM39.6272 41.1961L39.5894 41.2534L39.5978 41.2572L39.6072 41.2595L39.6272 41.1961ZM39.3564 40.9656L39.4231 40.9334L39.4081 40.9102L39.378 40.9026L39.3564 40.9656ZM39.1021 40.9017L39.0259 40.8927L39.017 40.9486L39.0805 40.9646L39.1021 40.9017ZM37.7994 36.1068L37.7471 36.0595L37.6987 36.0974L37.7354 36.1437L37.7994 36.1068ZM38.0214 35.9326L38.0736 35.9809L38.1009 35.9596L38.0981 35.9279L38.0214 35.9326ZM38.1382 35.6307L38.0881 35.5805L38.0825 35.5843L38.0792 35.588L38.1376 35.6307H38.1382ZM39.0688 35.0735L39.0337 35.0153L39.0304 35.0167L39.0688 35.0735ZM39.5878 34.8151L39.6306 34.87L39.6361 34.8662L39.5878 34.8151ZM39.7246 34.7204L39.684 34.6651L39.6801 34.6674L39.6762 34.6698L39.7246 34.7204ZM38.9453 33.8883L38.9937 33.9394L38.997 33.9371L39.0004 33.9342L38.9453 33.8883ZM38.8062 33.9825L38.7578 33.9309L38.7534 33.9347L38.8062 33.9825ZM38.3952 34.3545L38.4536 34.3976L38.4547 34.3967L38.3952 34.3545ZM37.5747 35.0125L37.6036 35.074L37.6136 35.0702L37.622 35.0645L37.5747 35.0125ZM37.1948 35.048L37.2081 34.9836L37.1764 34.9789L37.1503 34.9945L37.1948 35.048ZM36.9572 35.1919L36.9016 35.2373L36.9472 35.2785L37.0017 35.2454L36.9572 35.1919ZM31.7535 33.0562H31.6762V33.1158L31.7463 33.1215L31.7535 33.0562ZM31.7391 32.8181L31.8164 32.8157L31.8147 32.7826L31.783 32.7646L31.7391 32.8181ZM31.5344 32.553L31.457 32.5549V32.5601L31.4587 32.5649L31.5344 32.553ZM31.6056 31.5874L31.5299 31.5742V31.5765L31.6056 31.5874ZM31.6923 31.081L31.7691 31.0867V31.081H31.6923ZM31.6923 30.921L31.615 30.9172V30.921H31.6923ZM31.0766 30.3288L31.0387 30.3861L31.0538 30.3932L31.071 30.3942L31.0766 30.3288ZM30.0965 37.2523V37.3181H30.1688L30.1732 37.2566L30.0965 37.2523ZM30.2845 34.4577L30.3612 34.4615L30.3662 34.3924H30.2845V34.4577ZM30.082 37.2523V37.187H30.0086L30.0052 37.2495L30.082 37.2523ZM29.2059 37.6125L29.2515 37.5595L29.2504 37.559L29.2059 37.6125ZM26.5125 35.9885L26.4586 35.9412L26.3924 35.9965L26.468 36.042L26.5125 35.9885ZM30.2828 34.4577V34.3924H30.2739L30.2828 34.4577ZM31.852 34.4577L31.8614 34.3924L31.7697 34.3829L31.7752 34.4615L31.852 34.4577ZM35.6033 35.997L35.6478 36.0505L35.7235 36.0051L35.6573 35.9501L35.6033 35.997ZM32.0378 37.249L32.1156 37.248V37.2452L32.0378 37.249ZM32.935 37.6106L32.8905 37.5571L32.8872 37.5595L32.935 37.6106ZM25.5347 37.0398L25.4801 36.9934L25.4223 37.0421L25.4835 37.0885L25.5347 37.0398ZM24.6196 40.5112L24.5434 40.5183L24.5534 40.5954L24.6413 40.5741L24.6196 40.5112ZM27.7808 39.7373L27.8019 39.8007L27.8576 39.7865V39.7373H27.7808ZM27.7808 39.7292L27.7602 39.6663L27.7035 39.6795V39.7292H27.7808ZM27.9977 38.9222H27.921V38.952L27.9471 38.9714L27.9977 38.9222ZM27.9977 38.9104H28.0751V38.8806L28.0495 38.8616L27.9977 38.9104ZM25.5358 37.0388L25.6014 37.0734L25.4813 36.9929L25.5358 37.0388ZM36.584 37.0393L36.6496 37.0047L36.515 37.0686L36.584 37.0393ZM37.5263 40.5013L37.5046 40.5642L37.5936 40.586L37.6025 40.5074L37.5263 40.5013ZM36.5879 37.0459L36.6391 37.0947L36.683 37.0615L36.6569 37.0161L36.5879 37.0459ZM34.1432 38.9075L34.1944 38.9568V38.9553L34.1432 38.9066V38.9075ZM34.3607 39.7146H34.4374V39.6644L34.3807 39.6511L34.3607 39.7146ZM34.3607 39.725H34.2828V39.7742L34.339 39.7884L34.3607 39.725ZM31.5711 39.0552L31.6317 39.0145L31.6083 38.9894H31.5711V39.0552ZM30.5632 39.0552V38.9894H30.5264L30.5031 39.0145L30.5632 39.0552ZM32.1874 39.7207L32.2619 39.7354L32.2703 39.7051L32.2475 39.6805L32.1868 39.7207H32.1874ZM31.9632 40.5528L31.9966 40.612L32.03 40.5983L32.0383 40.5675L31.9632 40.5528ZM31.0577 40.9235L31.0243 40.9826L31.0577 40.9964L31.091 40.9822L31.0577 40.9235ZM30.1504 40.5528L30.0753 40.567L30.0831 40.5983L30.117 40.6125L30.1504 40.5528ZM29.9368 39.7207L29.8767 39.68L29.8539 39.7042L29.8617 39.7349L29.9368 39.7207ZM33.7916 41.3253L33.7833 41.2605L33.7304 41.2652L33.7171 41.3088L33.7916 41.3253ZM33.9185 41.3253L33.9312 41.2605H33.9296L33.9185 41.3253ZM33.7877 41.3376L33.7922 41.4034L33.8478 41.4006L33.8623 41.3547L33.7877 41.3376ZM33.3094 41.9932L33.3806 41.9681V41.9672L33.3094 41.9932ZM34.5693 44.5885L34.4981 44.6136L34.5331 44.686L34.611 44.6434L34.5693 44.5885ZM37.1781 41.7939L37.2509 41.8152L37.281 41.7419L37.1909 41.7291L37.1781 41.7939ZM28.317 41.3376L28.3187 41.2723L28.2764 41.2714L28.253 41.3012L28.317 41.3376ZM28.8165 41.9923L28.7459 41.9662L28.7398 41.9785V41.9923H28.8165ZM28.8165 42.0027L28.8877 42.0278L28.8933 42.0154V42.0027H28.8165ZM27.5644 44.5771L27.5227 44.6325L27.6006 44.6746L27.6356 44.6022L27.5644 44.5771ZM24.9712 41.8114L24.9584 41.7466L24.8672 41.7598L24.8989 41.8337L24.9712 41.8114ZM28.203 41.3447L28.1946 41.2794L28.1896 41.2804L28.203 41.3447ZM28.3115 41.3447L28.3037 41.4101L28.3498 41.4143L28.376 41.3812L28.3115 41.3447ZM31.0476 42.4575L31.0449 42.3922L30.9275 42.3955L30.9776 42.4855L31.0476 42.4575ZM31.5522 42.7041L31.4843 42.7354L31.5066 42.7699H31.5522V42.7041ZM31.056 42.4732L31.0577 42.5385L31.1761 42.5361L31.1255 42.4448L31.056 42.4732ZM30.586 42.7089L30.5192 42.6762L30.5181 42.6772L30.586 42.7089ZM28.9873 45.1546L28.9205 45.1229L28.8749 45.1915L28.9628 45.2166L28.9873 45.1546ZM32.5206 45.3098L32.5378 45.3737L32.5423 45.3728L32.5206 45.3098ZM33.1575 45.1499L33.1792 45.2128L33.271 45.1896L33.2248 45.1181L33.1575 45.1499ZM31.5644 42.7041L31.6317 42.6724L31.6095 42.6384H31.565L31.5644 42.7041ZM30.5292 30.9129C30.5213 30.7825 30.5738 30.6551 30.6756 30.5572C30.7773 30.4594 30.9201 30.3995 31.0732 30.3904L31.0621 30.2593C30.8687 30.2708 30.6883 30.3465 30.5598 30.4701C30.4314 30.5937 30.365 30.7553 30.3751 30.92L30.5292 30.9129ZM30.5292 31.0672V30.9167H30.3751V31.0672H30.5292ZM30.6143 31.5609C30.5747 31.396 30.5461 31.2293 30.5287 31.0616L30.3751 31.0725C30.3924 31.2457 30.423 31.4175 30.463 31.5865L30.6143 31.5609ZM30.6777 32.5445C30.6944 32.2166 30.6733 31.8877 30.6149 31.5633L30.4625 31.5836C30.5192 31.8994 30.5403 32.2193 30.5237 32.5388L30.6777 32.5445ZM30.4469 32.8664C30.5557 32.7847 30.6348 32.6778 30.675 32.5592L30.5264 32.5237C30.4947 32.6179 30.4319 32.7031 30.3445 32.7679L30.4469 32.8664ZM30.4586 33.0463L30.4725 32.8209L30.319 32.8138L30.3045 33.0396L30.4586 33.0463ZM29.2682 33.2559C29.637 33.1847 30.0111 33.1351 30.3879 33.1083L30.3751 32.9781C29.991 33.0054 29.6096 33.0556 29.2337 33.1281L29.2682 33.2559ZM25.2131 35.2245C26.3034 34.2381 27.7168 33.5541 29.2682 33.2559L29.2337 33.1281C27.6516 33.4313 26.2123 34.1302 25.1008 35.1351L25.2131 35.2245ZM24.8872 35.0972L25.1125 35.2335L25.2015 35.1266L24.9762 34.9907L24.8872 35.0972ZM24.524 35.0698C24.6552 35.1299 24.8099 35.1441 24.9539 35.1067L24.9094 34.9808C24.8578 34.994 24.8036 34.9989 24.75 34.9943C24.6963 34.9897 24.6443 34.9761 24.5968 34.9543L24.524 35.0698ZM23.6601 34.408C23.9193 34.6504 24.2052 34.87 24.5145 35.065L24.6063 34.9595C24.305 34.7699 24.0263 34.5558 23.7741 34.32L23.6601 34.408ZM23.2529 34.0398C23.3959 34.1553 23.531 34.2779 23.6579 34.4066L23.7758 34.3219C23.6453 34.1894 23.5066 34.0635 23.3592 33.9446L23.2529 34.0398ZM23.1189 33.9489L23.2585 34.0436L23.3542 33.9409L23.2151 33.8462L23.1189 33.9489ZM22.7278 33.823C22.8708 33.8291 23.0076 33.8727 23.1189 33.9489L23.2151 33.8467C23.0784 33.7534 22.9106 33.6994 22.7356 33.6924L22.7278 33.823ZM22.2923 33.9877C22.3444 33.9329 22.4111 33.8895 22.4868 33.8608C22.5625 33.8322 22.6451 33.8192 22.7278 33.823L22.7356 33.6924C22.6287 33.6875 22.5219 33.7043 22.4241 33.7414C22.3263 33.7784 22.2401 33.8341 22.1727 33.9049L22.2923 33.9877ZM22.4319 34.6797C22.3056 34.6028 22.2197 34.4864 22.1942 34.356C22.1686 34.2257 22.2049 34.092 22.2951 33.9844L22.1699 33.9082C22.0562 34.044 22.0105 34.2132 22.0427 34.3777C22.0749 34.5422 22.1825 34.6891 22.3418 34.7862L22.4319 34.6797ZM22.5648 34.7697L22.4347 34.6816L22.3384 34.7843L22.4681 34.8724L22.5643 34.7697H22.5648ZM23.0705 35.021C22.8943 34.9447 22.7234 34.8594 22.5587 34.7663L22.4736 34.8757C22.6433 34.9718 22.8185 35.0589 23.0004 35.1379L23.0705 35.021ZM24.0244 35.5899C23.732 35.3724 23.4126 35.182 23.0727 35.0219L22.9976 35.1365C23.328 35.2922 23.638 35.4772 23.9226 35.6884L24.0244 35.5899ZM24.1757 35.9431C24.1677 35.8205 24.1195 35.7018 24.0367 35.6013L23.9104 35.677C23.9772 35.7575 24.0155 35.8522 24.0217 35.9501L24.1757 35.9431ZM24.356 36.0581L24.1507 35.8981L24.0467 35.9946L24.2514 36.1546L24.356 36.0581ZM23.1033 40.9017C22.8216 39.2369 23.2718 37.5426 24.3676 36.1428L24.2397 36.0699C23.1226 37.4965 22.6635 39.2238 22.9503 40.9206L23.1033 40.9017ZM22.7846 41.0385L23.0482 40.9746L23.0054 40.8482L22.7423 40.9121L22.7846 41.0385ZM22.5359 41.2614C22.655 41.198 22.7545 41.1109 22.8291 41.0101L22.6983 40.9405C22.6363 41.0252 22.5527 41.0969 22.4536 41.1502L22.5359 41.2614ZM21.3772 41.429C21.7616 41.4072 22.1426 41.3533 22.5148 41.269L22.4747 41.1421C22.1126 41.2245 21.7416 41.2766 21.3672 41.2979L21.3772 41.429ZM20.7809 41.4683C20.9773 41.4456 21.1759 41.4323 21.3739 41.429L21.3706 41.2979C21.1664 41.3013 20.9621 41.3147 20.7598 41.3381L20.7809 41.4683ZM20.6213 41.499L20.7876 41.4673L20.7537 41.3395L20.5868 41.3712L20.6213 41.499ZM20.5851 41.5009H20.6041V41.3693H20.5851V41.5009ZM20.149 41.8138C20.1822 41.7316 20.2415 41.6587 20.3203 41.6034C20.3992 41.5481 20.4945 41.5125 20.5957 41.5005L20.5746 41.3698C20.4449 41.3851 20.3228 41.4312 20.2218 41.502C20.1209 41.5729 20.045 41.6663 20.0028 41.7717L20.149 41.8138ZM20.277 42.2952C20.2054 42.2329 20.1555 42.1549 20.1329 42.0699C20.1103 41.9849 20.1159 41.8963 20.149 41.8138L20.0028 41.7717C19.9603 41.8771 19.9532 41.9899 19.982 42.0986C20.0109 42.2072 20.0747 42.3074 20.1663 42.387L20.277 42.2952ZM20.841 42.4107C20.7436 42.4377 20.6387 42.4412 20.5391 42.4207C20.4395 42.4002 20.3486 42.3566 20.2764 42.2947L20.1663 42.387C20.3543 42.5484 20.6341 42.6062 20.8883 42.5352L20.841 42.4107ZM20.8766 42.4074L20.8644 42.4069V42.5385H20.8766V42.4074ZM21.0379 42.3917L20.8683 42.4078L20.885 42.538L21.0546 42.5219L21.0379 42.3917ZM21.5775 42.2223C21.3972 42.2889 21.2124 42.3462 21.024 42.3941L21.068 42.52C21.2622 42.4707 21.4527 42.4116 21.6387 42.343L21.5775 42.2223ZM22.6861 41.9459C22.3067 42.0069 21.9368 42.0997 21.5797 42.2213L21.637 42.3435C21.9847 42.2251 22.3457 42.1343 22.715 42.0751L22.6861 41.9459ZM23.1044 42.0651C22.9873 41.9938 22.8488 41.9521 22.705 41.9449L22.6961 42.076C22.8113 42.0817 22.9214 42.1148 23.0148 42.1721L23.1044 42.0651ZM23.3291 42.014L23.0471 42.0538L23.0721 42.183L23.3547 42.1432L23.3291 42.014ZM26.9909 45.8646C25.2918 45.0108 24.0204 43.6567 23.4153 42.0585L23.2685 42.0988C23.885 43.7272 25.1814 45.107 26.9125 45.9772L26.9909 45.8646ZM26.9069 46.1533L27.0215 45.9493L26.8825 45.8925L26.7679 46.0965L26.9069 46.1533ZM26.9703 46.434C26.9883 46.3185 26.9663 46.2015 26.9069 46.0965L26.7679 46.1533C26.8141 46.2353 26.8313 46.3269 26.8174 46.417L26.9703 46.434ZM26.3902 47.3367C26.6149 47.0574 26.8074 46.7616 26.9642 46.452L26.8229 46.3995C26.6696 46.7018 26.4822 46.9908 26.2633 47.2623L26.3902 47.3367ZM26.0564 47.7593C26.1577 47.6136 26.2678 47.4735 26.3879 47.339L26.2656 47.2595C26.1419 47.3981 26.0279 47.5427 25.924 47.6926L26.0564 47.7593ZM25.9802 47.8976L26.0598 47.7537L25.9207 47.6978L25.8406 47.8417L25.9802 47.8976ZM25.9925 48.3936C25.9369 48.3209 25.906 48.2365 25.9033 48.1498C25.9005 48.0631 25.926 47.9779 25.9769 47.9028L25.8434 47.837C25.711 48.0329 25.7182 48.2753 25.8628 48.4651L25.9925 48.3936ZM26.5131 48.6052C26.4118 48.6142 26.3096 48.5992 26.2177 48.5619C26.1258 48.5245 26.0479 48.4663 25.9925 48.3936L25.8628 48.4651C26.0075 48.6549 26.265 48.7595 26.5292 48.7358L26.5131 48.6052ZM26.9692 48.3023C26.9336 48.3837 26.8721 48.4552 26.7916 48.5087C26.711 48.5622 26.6146 48.5956 26.5131 48.6052L26.5292 48.7358C26.6592 48.7234 26.7832 48.6806 26.8863 48.612C26.9894 48.5435 27.0682 48.452 27.1139 48.3477L26.9692 48.3023ZM27.0499 48.1603L26.9714 48.2961L27.1111 48.3539L27.1889 48.2175L27.0499 48.1603ZM27.2251 47.685C27.1767 47.848 27.1173 48.0084 27.0471 48.1655L27.1912 48.2123C27.2635 48.05 27.3252 47.8843 27.3747 47.7172L27.2251 47.685ZM27.3653 47.3551C27.3219 47.4626 27.2785 47.571 27.2284 47.6765L27.3714 47.7257C27.4231 47.6159 27.4682 47.5042 27.5105 47.3972L27.3653 47.3551ZM27.7246 46.7019C27.5561 46.8742 27.4604 47.1166 27.3653 47.3551L27.5105 47.3972C27.6084 47.1516 27.6968 46.9357 27.8431 46.7862L27.7246 46.7019ZM28.0411 46.5675C27.925 46.5829 27.817 46.6283 27.7313 46.6967L27.837 46.7919C27.9001 46.7415 27.9796 46.7081 28.065 46.6967L28.0411 46.5675ZM28.1262 46.3824L27.9855 46.6002L28.1207 46.6636L28.2614 46.4454L28.1262 46.3824ZM33.9446 46.3644C32.0999 46.959 30.0626 46.9548 28.2213 46.3526L28.1663 46.4747C30.0427 47.0885 32.1191 47.0929 33.9991 46.487L33.9446 46.3644ZM34.1654 46.5992L34.0403 46.3957L33.904 46.4563L34.0286 46.6603L34.1654 46.5992ZM34.4786 46.7545C34.3894 46.6522 34.2562 46.5841 34.1081 46.5651L34.0859 46.6943C34.1936 46.7083 34.2904 46.7585 34.3551 46.833L34.4786 46.7545ZM34.9191 47.6708C34.809 47.3572 34.6637 47.0534 34.4853 46.7635L34.3484 46.824C34.5231 47.1066 34.6638 47.4029 34.7712 47.7087L34.9191 47.6708ZM35.0999 48.1551C35.0292 47.9977 34.9692 47.837 34.9203 47.6737L34.7706 47.7059C34.8207 47.8744 34.8824 48.04 34.9553 48.2019L35.0999 48.1551ZM35.175 48.2857L35.0971 48.1498L34.9586 48.2071L35.0365 48.3434L35.175 48.2857ZM35.6345 48.5929C35.5332 48.5833 35.437 48.55 35.3565 48.4968C35.276 48.4436 35.2138 48.3725 35.1778 48.2914L35.0337 48.3378C35.0798 48.4416 35.1587 48.5326 35.2618 48.6006C35.3649 48.6686 35.4881 48.711 35.6178 48.7231L35.6345 48.5929ZM36.1574 48.3832C36.1015 48.4558 36.023 48.5139 35.9307 48.5509C35.8384 48.5879 35.7359 48.6024 35.6345 48.5929L35.6178 48.7231C35.7474 48.7353 35.8785 48.7167 35.9966 48.6694C36.1146 48.6221 36.2149 48.548 36.2864 48.4551L36.1574 48.3832ZM36.1702 47.8914C36.2216 47.9665 36.2476 48.0523 36.2452 48.1391C36.2428 48.226 36.2122 48.3107 36.1568 48.3837L36.2864 48.4551C36.3573 48.3618 36.3964 48.2535 36.3994 48.1424C36.4023 48.0313 36.369 47.9216 36.3031 47.8256L36.1702 47.8914ZM36.0856 47.7433L36.1674 47.8871L36.3064 47.8299L36.2247 47.686L36.0856 47.7433ZM35.7574 47.3296C35.877 47.4635 35.9877 47.6031 36.0889 47.748L36.2213 47.6812C36.1173 47.532 36.0033 47.3881 35.8798 47.25L35.7574 47.3296ZM35.1845 46.4719C35.3455 46.7704 35.5365 47.0565 35.7552 47.3272L35.882 47.2524C35.6682 46.9879 35.4816 46.7082 35.3241 46.4165L35.1845 46.4719ZM35.2535 46.0885C35.2125 46.1429 35.1849 46.2037 35.1722 46.2674C35.1595 46.3311 35.162 46.3963 35.1795 46.4591L35.3297 46.4288C35.3169 46.3832 35.3151 46.3358 35.3242 46.2895C35.3334 46.2433 35.3534 46.199 35.3831 46.1595L35.2535 46.0885ZM35.1411 45.9299C35.1717 46.0061 35.2078 46.0809 35.249 46.1529L35.3881 46.0956C35.3492 46.0282 35.3154 45.9588 35.2868 45.8878L35.1411 45.9299ZM38.7345 42.033C38.1361 43.6336 36.8697 44.9923 35.1745 45.8528L35.2535 45.9654C36.9812 45.0887 38.2719 43.7039 38.8819 42.0727L38.7345 42.033ZM39.0882 42.0282L38.8212 41.9885L38.7951 42.1177L39.0615 42.1574L39.0882 42.0282ZM39.4281 41.917C39.2788 41.9133 39.1335 41.9591 39.0232 42.0448L39.1272 42.1414C39.2081 42.0787 39.3144 42.0453 39.4237 42.0481L39.4281 41.917ZM40.5451 42.1929C40.1865 42.0754 39.8169 41.9831 39.4403 41.9179L39.4114 42.0472C39.7785 42.1068 40.1401 42.2048 40.4911 42.316L40.5451 42.1929ZM41.1035 42.3761C40.9149 42.3257 40.7302 42.2652 40.5506 42.1948L40.4861 42.3141C40.6724 42.3875 40.8638 42.449 41.0574 42.5011L41.1035 42.3761ZM41.1831 42.3903C41.1555 42.386 41.128 42.381 41.1008 42.3752L41.0601 42.502C41.088 42.5082 41.1224 42.5139 41.153 42.5191L41.1831 42.3903ZM41.2604 42.4045C41.2346 42.3994 41.2091 42.3946 41.1831 42.3903L41.153 42.5191L41.2242 42.5319L41.2604 42.4045ZM41.2543 42.4026H41.242V42.5337H41.2543V42.4026ZM41.8411 42.289C41.7691 42.3508 41.6784 42.3945 41.579 42.415C41.4796 42.4356 41.3755 42.4323 41.2782 42.4055L41.2309 42.5304C41.3554 42.5647 41.4886 42.5688 41.6157 42.5424C41.7428 42.516 41.8588 42.4601 41.9507 42.3809L41.8411 42.289ZM41.9718 41.8081C42.0044 41.8907 42.0095 41.9793 41.9864 42.0641C41.9633 42.1489 41.913 42.2271 41.8411 42.289L41.9507 42.3809C42.0427 42.3017 42.1071 42.2023 42.1367 42.0938C42.1663 41.9854 42.1598 41.872 42.1181 41.7665L41.9718 41.8081ZM41.5235 41.4957C41.7304 41.5194 41.904 41.6406 41.9724 41.8086L42.1181 41.7665C42.0755 41.661 41.9993 41.5672 41.8979 41.4965C41.7965 41.4257 41.674 41.3804 41.5441 41.3656L41.5235 41.4957ZM41.3333 41.4579L41.5157 41.4948L41.5513 41.3665L41.3689 41.3296L41.3333 41.4579ZM40.7481 41.419C40.9461 41.4228 41.1441 41.4361 41.3411 41.4588L41.3616 41.3286C41.1591 41.3051 40.9552 41.2915 40.7509 41.2879L40.7481 41.419ZM39.6072 41.2595C39.9788 41.3447 40.3593 41.3982 40.7442 41.419L40.7548 41.2884C40.3804 41.2679 40.0095 41.2157 39.6473 41.1327L39.6072 41.2595ZM39.289 40.9978C39.3597 41.1052 39.4643 41.1937 39.5894 41.2534L39.6645 41.1388C39.5644 41.0915 39.4804 41.02 39.4231 40.9334L39.289 40.9978ZM39.0805 40.9646L39.3341 41.0285L39.378 40.9026L39.1244 40.8387L39.0805 40.9646ZM37.736 36.1433C38.8354 37.5382 39.2946 39.2282 39.0265 40.8922L39.1795 40.9102C39.4527 39.2143 38.9845 37.492 37.8639 36.0704L37.736 36.1433ZM37.9696 35.8844L37.7477 36.0585L37.8523 36.1551L38.0742 35.9804L37.9696 35.8844ZM38.0798 35.5876C37.9829 35.6847 37.9346 35.8103 37.9451 35.9374L38.0981 35.9279C38.0903 35.835 38.1262 35.7432 38.1971 35.6723L38.0798 35.5876ZM39.0309 35.0163C38.6978 35.1772 38.3801 35.3665 38.0881 35.5805L38.1882 35.6799C38.4736 35.4716 38.7823 35.287 39.1072 35.1303L39.0309 35.0163ZM39.5455 34.7602C39.3808 34.8533 39.2099 34.9388 39.0337 35.0153L39.1044 35.1318C39.2857 35.0527 39.4615 34.9656 39.6306 34.87L39.5455 34.7602ZM39.6768 34.6693L39.5399 34.764L39.6367 34.8657L39.7735 34.7711L39.6768 34.6693ZM39.9426 34.213C39.9541 34.3013 39.936 34.3906 39.8903 34.4705C39.8446 34.5505 39.7733 34.6177 39.6845 34.6646L39.7663 34.7763C39.9977 34.6537 40.1256 34.4293 40.0962 34.1988L39.9426 34.213ZM39.5755 33.8206C39.6741 33.8499 39.7608 33.9024 39.8258 33.9719C39.8908 34.0414 39.9313 34.1247 39.9426 34.213L40.0962 34.1988C40.0814 34.0859 40.0294 33.9789 39.9461 33.8901C39.8628 33.8013 39.7511 33.7344 39.625 33.6971L39.5755 33.8206ZM39.0009 33.9338C39.0743 33.8708 39.1672 33.8267 39.2687 33.8067C39.3703 33.7867 39.477 33.7915 39.5755 33.8206L39.625 33.6971C39.4991 33.6597 39.3639 33.6534 39.2339 33.679C39.104 33.7045 38.9852 33.7609 38.8913 33.8415L39.0009 33.9338ZM38.8546 34.0332L38.9937 33.9385L38.898 33.8362L38.7589 33.9309L38.8546 34.0332ZM38.4552 34.3962C38.5815 34.2675 38.7167 34.1453 38.8596 34.0294L38.7534 33.9347C38.6059 34.0536 38.4672 34.1795 38.3367 34.3119L38.4552 34.3962ZM37.6225 35.0641C37.9243 34.865 38.2027 34.6417 38.4541 34.3971L38.3379 34.311C38.0931 34.5491 37.8222 34.7663 37.528 34.9604L37.6225 35.0641ZM37.1825 35.1124C37.3244 35.1332 37.4707 35.1195 37.6042 35.0731L37.5463 34.9514C37.4394 34.9886 37.3225 34.9996 37.2087 34.9831L37.1825 35.1124ZM37.0023 35.2449L37.2404 35.101L37.1508 34.994L36.9127 35.1384L37.0017 35.2454L37.0023 35.2449ZM31.7469 33.121C33.7095 33.2718 35.5412 34.0241 36.9016 35.2373L37.0129 35.1464C35.6267 33.9103 33.7605 33.1442 31.7608 32.9904L31.7469 33.121ZM31.6668 32.874C31.6712 32.9279 31.6768 33.0018 31.6768 33.0557H31.8308C31.8308 32.9966 31.8247 32.918 31.8203 32.865L31.6668 32.874ZM31.6629 32.8209C31.6629 32.8328 31.6651 32.8522 31.6668 32.874L31.8203 32.865L31.8169 32.8153L31.6629 32.8209ZM31.4587 32.5649C31.4865 32.6898 31.5733 32.8001 31.6957 32.8721L31.7836 32.7641C31.6936 32.7115 31.6315 32.631 31.6106 32.5398L31.4587 32.5649ZM31.5299 31.5765C31.4687 31.9003 31.4448 32.2274 31.4576 32.5545L31.6117 32.5497C31.5989 32.2312 31.6228 31.9121 31.6823 31.5974L31.5299 31.5765ZM31.6161 31.0743C31.5987 31.242 31.5701 31.4088 31.5305 31.5737L31.6818 31.5997C31.7229 31.4293 31.7513 31.2589 31.7697 31.0862L31.6161 31.0743ZM31.6161 30.9205V31.0805H31.7697V30.9205H31.6161ZM31.0716 30.3937C31.3914 30.4126 31.6323 30.6455 31.6156 30.9167L31.7697 30.9238C31.7799 30.7589 31.7135 30.5972 31.5849 30.4736C31.4563 30.35 31.2757 30.2744 31.0821 30.2631L31.0716 30.3937ZM31.031 30.3819L31.0393 30.3856L31.1144 30.2711L31.1061 30.2668L31.031 30.3819ZM30.1743 37.2556L30.3618 34.461L30.2083 34.4535L30.0203 37.248L30.1743 37.2556ZM30.0831 37.3176H30.097V37.1865H30.0826L30.0831 37.3176ZM29.8072 37.7128C30.0119 37.6201 30.1493 37.4535 30.1599 37.2551L30.0058 37.249C30.0006 37.3222 29.9728 37.3931 29.9251 37.4542C29.8775 37.5154 29.8117 37.5648 29.7343 37.5974L29.8067 37.7138L29.8072 37.7128ZM29.1608 37.665C29.3455 37.7796 29.5947 37.8089 29.8072 37.7128L29.7343 37.5974C29.6579 37.6305 29.5725 37.6445 29.4871 37.6378C29.4016 37.6311 29.3196 37.6039 29.2515 37.5595L29.1608 37.665ZM26.4686 36.0415L29.162 37.6655L29.251 37.5585L26.5576 35.9345L26.4686 36.0415ZM29.6014 34.4842C28.4147 34.7112 27.3262 35.2158 26.4586 35.9412L26.5671 36.0349C27.4141 35.3268 28.4768 34.8341 29.6353 34.6125L29.602 34.4847L29.6014 34.4842ZM30.2739 34.3924C30.0486 34.4132 29.8245 34.444 29.602 34.4847L29.6353 34.6125C29.8523 34.5732 30.0714 34.5429 30.2911 34.5226L30.2739 34.3924ZM30.285 34.3919H30.2834V34.523H30.285V34.3919ZM31.8431 34.5221C33.2411 34.6701 34.5434 35.2046 35.5499 36.0434L35.6578 35.9497C34.6271 35.0909 33.293 34.5438 31.8614 34.3924L31.8431 34.5221ZM32.1156 37.2452L31.9287 34.4539L31.7752 34.4615L31.961 37.2528L32.1156 37.2452ZM32.3877 37.6082C32.3072 37.5758 32.2391 37.5248 32.191 37.461C32.1429 37.3973 32.1168 37.3238 32.1156 37.248L31.9616 37.2495C31.9649 37.4535 32.104 37.6395 32.3215 37.7275L32.3877 37.6082ZM32.8877 37.559C32.8182 37.6064 32.7343 37.6362 32.6458 37.645C32.5573 37.6538 32.4676 37.6412 32.3871 37.6087L32.3215 37.7275C32.4279 37.7705 32.5465 37.7866 32.6635 37.7749C32.7806 37.7633 32.8914 37.7239 32.9834 37.6613L32.8877 37.559ZM35.5594 35.9431L32.8905 37.5571L32.9801 37.6636L35.6484 36.0496L35.5594 35.9431ZM24.6969 40.5036C24.5424 39.3067 24.8604 38.1 25.6009 37.0738L25.4696 37.0052C24.7114 38.056 24.3858 39.2917 24.544 40.5173L24.6969 40.5036ZM27.7602 39.6739L24.599 40.4478L24.6419 40.5737L27.8025 39.8002L27.7602 39.6739ZM27.7046 39.7288V39.7368H27.8581V39.7288H27.7046ZM28.0984 39.3662C28.0791 39.4374 28.0375 39.5029 27.9781 39.5556C27.9187 39.6083 27.8436 39.6464 27.7608 39.6658L27.8019 39.7922C28.0233 39.7401 28.1963 39.5882 28.248 39.3955L28.0984 39.3662ZM27.9482 38.971C28.0795 39.0689 28.1373 39.2209 28.0984 39.3662L28.248 39.3955C28.2735 39.3011 28.2689 39.2025 28.2337 39.1103C28.1985 39.0182 28.1347 38.9358 28.0489 38.872L27.9471 38.9714L27.9482 38.971ZM27.9215 38.9094V38.9217H28.0756V38.9099L27.9215 38.9094ZM25.484 37.088L27.9471 38.9587L28.05 38.8607L25.5869 36.9905L25.484 37.088ZM25.4701 37.0043V37.0052L25.6009 37.0738L25.602 37.0729L25.4701 37.0043ZM25.5897 37.0857L25.5908 37.0847L25.4818 36.992L25.4813 36.9929L25.5897 37.0857ZM36.5189 37.0734C37.2586 38.097 37.5855 39.298 37.4501 40.4942L37.6031 40.5069C37.742 39.2822 37.4074 38.0524 36.6502 37.0043L36.5189 37.0734ZM36.6569 37.0161L36.6535 37.0095L36.5156 37.0682L36.5195 37.0743L36.6569 37.0161ZM34.1944 38.9553L36.6391 37.0937L36.5362 36.9957L34.092 38.8574L34.1944 38.9553ZM34.0436 39.3515C34.0246 39.2802 34.0285 39.2058 34.0549 39.1361C34.0814 39.0665 34.1293 39.0042 34.1938 38.9558L34.092 38.8574C34.0068 38.9213 33.9434 39.0035 33.9084 39.0954C33.8733 39.1874 33.868 39.2856 33.8929 39.3799L34.0436 39.3515ZM34.3807 39.6502C34.2978 39.6313 34.2226 39.5935 34.1632 39.5409C34.1038 39.4882 34.0624 39.4227 34.0436 39.3515L33.8929 39.3799C33.9429 39.5726 34.1154 39.7255 34.3401 39.7771L34.3807 39.6502ZM34.4374 39.724V39.7136H34.2834V39.724H34.4374ZM37.5469 40.4374L34.3818 39.6611L34.339 39.787L37.5046 40.5633L37.5469 40.4374ZM31.5711 38.9894H30.5632V39.1201H31.5711V38.9885V38.9894ZM32.2475 39.6795L31.6317 39.0136L31.5104 39.095L32.1262 39.7605L32.2475 39.6795ZM32.0383 40.5666L32.2619 39.7345L32.1118 39.7051L31.8881 40.5372L32.0383 40.5666ZM31.091 40.9822L31.9966 40.6111L31.9299 40.4927L31.0243 40.8634L31.091 40.9822ZM30.1176 40.6111L31.0243 40.9817L31.091 40.8634L30.1838 40.4927L30.1176 40.6111ZM29.8617 39.734L30.0753 40.5661L30.2255 40.5377L30.0125 39.7061L29.8617 39.734ZM30.5031 39.0136L29.8762 39.6795L29.9969 39.7614L30.6227 39.0959L30.5025 39.014L30.5031 39.0136ZM33.8 41.3897C33.8358 41.3864 33.872 41.3864 33.9079 41.3897L33.9296 41.2605C33.881 41.2558 33.8319 41.2558 33.7833 41.2605L33.8 41.3897ZM33.8623 41.3537L33.8662 41.3419L33.7171 41.3078L33.7132 41.3196L33.8623 41.3537ZM33.4145 41.5937C33.4549 41.5383 33.5103 41.4921 33.5762 41.4588C33.642 41.4255 33.7163 41.4062 33.7927 41.4025L33.7833 41.2714C33.5786 41.2813 33.3922 41.3755 33.2838 41.5241L33.4145 41.5937ZM33.3806 41.9662C33.3508 41.9064 33.3383 41.8413 33.3442 41.7764C33.3501 41.7116 33.3742 41.649 33.4145 41.5937L33.2838 41.5241C33.2302 41.5973 33.1981 41.6803 33.1902 41.7662C33.1823 41.8522 33.1987 41.9384 33.2382 42.0178L33.3806 41.9662ZM34.6405 44.5625L33.3806 41.9672L33.2382 42.0169L34.4981 44.6126L34.6405 44.5625ZM37.1052 41.7712C36.6413 42.9091 35.7246 43.8813 34.5275 44.5322L34.611 44.6434C35.8358 43.9769 36.7748 42.9806 37.2509 41.8143L37.1052 41.7712ZM33.9057 41.3897L37.1653 41.8574L37.1909 41.7281L33.9312 41.2605L33.9057 41.3897ZM28.8371 41.5156C28.7808 41.4419 28.7041 41.381 28.6137 41.3385C28.5233 41.2959 28.422 41.2728 28.3187 41.2714L28.3159 41.4025C28.394 41.4036 28.4705 41.421 28.5388 41.4532C28.607 41.4854 28.665 41.5314 28.7075 41.5871L28.8371 41.5156ZM28.8872 42.0173C28.928 41.9367 28.9448 41.8487 28.9361 41.7611C28.9274 41.6736 28.8934 41.5893 28.8371 41.5156L28.7075 41.5871C28.7501 41.6426 28.7759 41.7058 28.7826 41.7718C28.7893 41.8379 28.7767 41.9044 28.7459 41.9653L28.8872 42.0173ZM28.8938 42.0017V41.9913H28.7392V42.0017H28.8938ZM27.6356 44.6013L28.8877 42.0263L28.7453 41.9766L27.4932 44.5511L27.6356 44.6013ZM24.8989 41.8323C25.3876 42.9857 26.3099 43.9696 27.5227 44.6316L27.6061 44.5208C26.4218 43.8747 25.521 42.9143 25.0435 41.7882L24.8989 41.8323ZM28.1896 41.2794L24.9578 41.7456L24.984 41.8749L28.2158 41.4086L28.1896 41.2794ZM28.3192 41.2789C28.2778 41.2753 28.2361 41.2758 28.1946 41.2794L28.2108 41.4091C28.2417 41.4064 28.2728 41.4064 28.3037 41.4091L28.3192 41.2789ZM28.253 41.3002L28.2475 41.3078L28.3754 41.3802L28.381 41.3731L28.253 41.3002ZM31.0499 42.5224C31.1383 42.5201 31.2257 42.5387 31.3024 42.5761C31.3791 42.6135 31.442 42.6683 31.4843 42.7344L31.62 42.672C31.5641 42.5844 31.4807 42.5118 31.3792 42.4623C31.2776 42.4127 31.1619 42.3881 31.0449 42.3913L31.0499 42.5224ZM31.1255 42.4438L31.1172 42.4287L30.9781 42.485L30.9859 42.5001L31.1255 42.4438ZM30.6527 42.7406C30.6939 42.6799 30.7529 42.6293 30.8238 42.5938C30.8948 42.5582 30.9753 42.5388 31.0577 42.5375L31.0538 42.4064C30.8335 42.4112 30.6293 42.5106 30.5187 42.6753L30.6527 42.7406ZM29.0546 45.1858L30.6533 42.7396L30.5192 42.6762L28.92 45.1219L29.0546 45.1858ZM32.5034 45.245C31.3455 45.4703 30.1368 45.4172 29.0123 45.0916L28.9623 45.2157C30.1139 45.5492 31.3519 45.6036 32.5378 45.3728L32.5034 45.245ZM33.1353 45.086L32.4989 45.2459L32.5423 45.3719L33.1792 45.2119L33.1353 45.086ZM31.4971 42.7349L33.0896 45.1806L33.2248 45.1172L31.6317 42.6715L31.4971 42.7349ZM31.5527 42.769H31.5644V42.6374H31.5522L31.5527 42.769Z" fill="white"/>
</svg>
