<?xml version="1.0" encoding="utf-8"?>
<svg version="1.1" id="Layer_1" x="0px" y="0px" viewBox="0 0 340.2 340.2" style="enable-background:new 0 0 340.2 340.2;" xmlns="http://www.w3.org/2000/svg">
  <style type="text/css">
	.st0{fill:#FFFFFF;}
	.st1{fill:#004158;}
	.st2{fill:#0080C9;}
	.st3{fill:#005D95;}
	.st4{fill:#0BBBEF;}
	.st5{fill:#A1DAF8;}
	.st6{fill:#00B1EB;}
	.st7{fill:#A0D9F7;}
</style>
  <g>
    <path class="st0" d="M288.6,214.6H231l-2.2-83.7h1.3c2.9,0,4.8-1.3,4.8-3.2c0-1.3-0.9-2.3-2.3-2.8c1.3-0.5,2.3-1.4,2.3-2.8 c0-1.3-0.9-2.3-2.3-2.8c1.3-0.5,2.3-1.4,2.3-2.8c0-1.4-1.1-2.5-2.8-3c1.6-0.8,2.8-2.4,2.8-4.3v-4.9c0-2.1-1.4-4-3.3-4.6 c0.8-0.6,1.3-1.5,1.3-2.5l0.3-1.3c0-0.1,0-0.3,0-0.4v-3.1c0-1.1-0.9-2-2-2h-1c-0.3,0-0.5,0.1-0.8,0.1c-0.2-0.1-0.5-0.1-0.8-0.1h-1 l0-1.3c1.3-0.4,2.2-1.6,2.2-2.9c0-1.4-1-2.6-2.4-3l-0.4-14.8c0.2-0.1,0.4-0.3,0.6-0.4c0.5-0.5,0.8-1.1,0.8-1.8c0-0.3-0.1-0.7-0.2-1 c0.1-0.3,0.2-0.6,0.2-1c0-0.9-0.5-1.8-1.6-2.3l-0.4-13.2c0-1.1-0.9-1.9-2-1.9s-2,0.9-2,1.9L222.2,62c-1,0.4-1.5,1.2-1.5,2.2 c0,0.3,0.1,0.7,0.2,1c-0.1,0.3-0.2,0.6-0.2,1c0,0.9,0.5,1.7,1.4,2.1l-0.4,14.9c-1.4,0.4-2.4,1.6-2.4,3c0,1.4,0.9,2.5,2.2,2.9l0,1.3 c-0.1,0-0.2,0-0.3,0h-1c-0.3,0-0.5,0.1-0.8,0.1c-0.2-0.1-0.5-0.1-0.8-0.1h-1c-1.1,0-2,0.9-2,2V97c0,1.3,0.6,2.3,1.6,2.9 c-1.7,0.8-2.8,2.4-2.8,4.4v4.9c0,1.9,1.1,3.6,2.8,4.4c-1.7,0.5-2.8,1.6-2.8,2.9c0,1.3,0.9,2.3,2.3,2.8c-1.4,0.5-2.3,1.5-2.3,2.8 c0,1.3,0.9,2.3,2.3,2.8c-1.4,0.5-2.3,1.5-2.3,2.8c0,2.1,2.4,3.2,4.8,3.2h1.1l-2.2,83.7H147l-0.7-2.7c2.1-1.1,3.5-3.3,3.5-5.9 c0-1.1-0.3-2.1-0.7-3c0.3-0.2,0.6-0.3,1-0.5c1.2,1.8,3.3,3,5.6,3c3.7,0,6.7-3,6.7-6.7c0-1.6-0.5-3-1.5-4.2c0.3-0.3,0.6-0.6,0.9-0.9 c1,0.5,2.1,0.8,3.2,0.8c3.7,0,6.7-3,6.7-6.7c0-2-0.9-3.8-2.3-5c0.3-0.6,0.6-1.3,0.9-1.9c3.5-0.2,6.3-3.1,6.3-6.7 c0-2.2-1.1-4.3-2.9-5.5c0.2-1.2,0.3-2.5,0.3-3.7c1.6-1.3,2.6-3.2,2.6-5.3c0-2.5-1.4-4.7-3.4-5.8c-0.4-2-1-4.1-1.7-6 c0.1-0.5,0.2-1.1,0.2-1.7c0-2.6-1.5-4.9-3.8-6c-1.8-3-3.9-5.8-6.3-8.3c-0.7-1.2-1.7-2.2-3-2.8c-8.2-7.1-18.5-11-29.3-11 c-10.5,0-20.8,3.7-28.8,10.6c-2.2,0.6-3.9,2.3-4.5,4.4c-1.9,2.1-3.5,4.4-5,6.8c-2.7,0.9-4.6,3.4-4.6,6.4c0,0.9,0.2,1.7,0.5,2.5 c-0.5,1.5-0.9,3.1-1.3,4.7c-2.5,1-4.2,3.4-4.2,6.2c0,2.4,1.3,4.6,3.3,5.8c0.1,1,0.1,1.9,0.3,2.8c-2.1,1.1-3.5,3.3-3.5,5.9 c0,3.7,3,6.7,6.7,6.7c0.1,0,0.2,0,0.3,0c0.2,0.5,0.5,1,0.7,1.5c-1.7,1.2-2.7,3.2-2.7,5.4c0,3.7,3,6.7,6.7,6.7c1.3,0,2.5-0.4,3.6-1 c0.3,0.3,0.5,0.5,0.8,0.8c-1.1,1.2-1.8,2.8-1.8,4.5c0,3.7,3,6.7,6.7,6.7c2.4,0,4.5-1.3,5.7-3.2c0.3,0.2,0.6,0.3,0.9,0.5 c-0.5,1-0.8,2.1-0.8,3.2c0,2.7,1.6,5.1,4,6.1l-0.7,2.5H51c-4.2,0-7.7,3.4-7.7,7.7v9.2c0,4.2,3.4,7.7,7.7,7.7h237.7 c4.2,0,7.7-3.4,7.7-7.7v-9.2C296.3,218.1,292.9,214.6,288.6,214.6z M126.2,199c-0.6,0-1.2-0.1-1.8-0.2l1.8-8.9V199z M135.5,207.3 c0.1,0,0.2,0,0.2,0l1.5,7.4h-5.4c2.2-1.1,3.8-3.4,3.8-6C135.6,208.1,135.6,207.7,135.5,207.3z M154.8,188.5l-12.4-14.7l16.6,9.6 C157.8,185.2,156.4,186.9,154.8,188.5z M163.2,175.4c-0.3,0.9-0.7,1.8-1.2,2.7l-16.7-9.6l18.2,3.2c-0.3,0.8-0.5,1.6-0.5,2.4 C163.1,174.6,163.1,175,163.2,175.4z M165.4,164.8c0,0.4,0,0.8-0.1,1.2l-18.7-3.3l16.5-2.9C163.1,161.7,164,163.5,165.4,164.8z M164.1,152.9c0.1,0.2,0.1,0.4,0.2,0.6l-18.9,3.3l13.4-7.8C159.8,151.1,161.8,152.6,164.1,152.9z M155.6,141.8c1,0,1.9-0.2,2.8-0.6 c0.2,0.3,0.4,0.6,0.6,0.8l-16.5,9.5l9.2-11C152.8,141.4,154.2,141.8,155.6,141.8z M142.6,134.6c2.2,0.2,4.4-0.9,5.8-2.6 c0.3,0.2,0.7,0.4,1,0.6c-0.2,0.6-0.4,1.2-0.5,1.9l-11.1,13.2L142.6,134.6z M150.2,192.4c-1.8,1.3-3.8,2.4-5.8,3.4l-6.6-18.1 L150.2,192.4z M132.2,131.2c1.6-0.9,2.7-2.4,3.2-4.2c0.3,0.1,0.7,0.1,1,0.2c0,0.2,0,0.4,0,0.7c0,1.3,0.3,2.5,1,3.5l-5.2,14.3V131.2 z M132.2,190.1l1.8,8.7c-0.6,0.1-1.2,0.1-1.8,0.2V190.1z M121.4,127.4c0.3-0.1,0.7-0.1,1.1-0.2c0.5,2,1.9,3.6,3.8,4.4v14.1 l-5.4-14.9c0.4-0.9,0.6-1.8,0.6-2.8C121.4,127.7,121.4,127.5,121.4,127.4z M109.6,132.3c1.2,1.4,3.1,2.3,5.1,2.3 c0.4,0,0.7,0,1.1-0.1l4.8,13.2l-11.9-14.1c0-0.2-0.1-0.4-0.2-0.6C108.9,132.7,109.3,132.5,109.6,132.3z M99.9,141.4 c0.7,0.3,1.5,0.4,2.3,0.4c1.6,0,3.1-0.6,4.3-1.5l9.5,11.3L99.4,142C99.6,141.8,99.7,141.6,99.9,141.4z M94.3,152.7 c2.2-0.5,3.9-2,4.8-4l13.8,8l-18.8-3.3C94.2,153.2,94.3,153,94.3,152.7z M92.9,164.1c1.1-1.2,1.7-2.8,1.7-4.4c0,0,0-0.1,0-0.1 l17.5,3.1L93,166C93,165.4,93,164.8,92.9,164.1z M96.3,178.2c-0.7-1.5-1.3-3-1.8-4.5c0-0.6-0.2-1.2-0.4-1.8l18.7-3.3L96.3,178.2z M103.6,188.5c-1.6-1.6-3-3.3-4.3-5.1l16.6-9.6L103.6,188.5z M108.2,192.4l12.4-14.7l-6.6,18.1C112,194.8,110,193.7,108.2,192.4z M122.2,209.2c0.2,2.4,1.7,4.5,3.8,5.5h-4.9L122.2,209.2z"/>
    <path class="st0" d="M184.9,98.2l3.3,0.2c0.1,0.1,0.2,0.2,0.2,0.3l1.3,1.5c0.6,0.8,1.7,0.9,2.6,0.5l0.1-0.1 c0.4-0.2,0.8-0.5,1.2-0.7l0.4-0.3c0.1,0,0.3,0.1,0.3,0.1l3.9,1.2c0.2,0.1,0.4,0.1,0.6,0.1c0.8,0,1.6-0.5,1.9-1.4l0.1-0.2 c0.2-0.7,0.1-1.4-0.4-1.9c-0.6-0.7-1.3-1.2-1.9-1.7l-0.1-0.1c0,0-0.1,0-0.1-0.1l-0.9-0.6c0,0-0.1-0.1-0.1-0.1l-1-0.6 c-0.2-0.1-0.4-0.2-0.5-0.3l-0.1-0.1c0,0-0.1,0-0.1,0c-0.1,0-0.2-0.1-0.4-0.1c-0.3-0.1-0.5-0.1-0.8-0.2c-0.6-0.1-1.1-0.1-1.7,0 c-0.2,0-0.5,0.1-0.7,0.2c-0.1-0.1-0.2-0.2-0.3-0.2c-0.8-0.6-1.7-0.8-2.8-0.8c-0.3,0-0.4,0-0.6,0.1l-0.1,0c-0.2,0-0.4,0.1-0.5,0.1 c0,0-0.2,0-0.2,0l-0.3,0.1c-0.3,0.1-0.5,0.1-0.7,0.2c-0.7,0.2-1.4,0.4-2.2,0.8c-0.6,0.3-1,1-1.1,1.7l0,0.2 C182.9,97.2,183.8,98.2,184.9,98.2z"/>
    <path class="st0" d="M199.2,103.1c-0.2,0.1-0.3,0.2-0.4,0.3c0,0-0.1,0-0.1,0c0,0-0.1,0-0.1,0c-0.7-0.1-1.4,0-2,0.3 c0,0-0.1,0-0.1,0.1c-0.4,0.2-0.8,0.5-1.1,0.7l-0.2,0.1c-0.4,0.3-0.8,0.6-1.2,1c-0.6,0.6-0.7,1.4-0.5,2.1l0,0.1 c0.3,0.8,1.1,1.3,1.9,1.3c0.2,0,0.4,0,0.7-0.1l1.8-0.6l1.1,0.5c0.9,0.4,1.9,0.1,2.5-0.7l0.5-0.7l2.6-0.3c1.1-0.1,1.9-1.1,1.8-2.2 l0-0.1c-0.1-0.8-0.6-1.4-1.3-1.7c-0.6-0.2-1.1-0.3-1.6-0.4c0,0-0.1,0-0.1,0c-0.5-0.1-1-0.1-1.6-0.1c-0.3,0-0.6,0-1.3,0.1 C199.9,102.8,199.5,102.9,199.2,103.1z"/>
    <path class="st0" d="M250,152h30.2c6.1,0,11.1-5,11.1-11c0.1-2.9-0.9-5.6-2.9-7.7c-1.5-1.6-3.4-2.7-5.5-3.2 c-1.1-6.5-6.7-11.4-13.4-11.4c-6.6,0-12.1,4.7-13.4,11.1c-3.1,0.9-5.7,3.1-7,6.1c-4.1,0.4-7.2,3.9-7.2,8.1 C241.9,148.4,245.5,152,250,152z"/>
    <path class="st0" d="M152.7,95.6h19.4c4.4,0,8-3.6,8-7.9c0.1-3.7-2.2-6.8-5.5-7.8c-1-4.3-4.8-7.5-9.4-7.5c-4.6,0-8.3,3.1-9.3,7.4 c-1.9,0.7-3.4,2-4.3,3.8c-2.8,0.5-5,3-5,6C146.6,92.9,149.3,95.6,152.7,95.6z"/>
    <path class="st0" d="M87,122.8h16.1c3.9,0,7-3.1,7-7c0-3.3-2.2-6.1-5.2-6.9c-1-3.5-4.2-6-8-6c-3,0-5.7,1.6-7.2,4.1 c-1.8,0-3.4,0.9-4.4,2.2c-3,0.8-5.2,3.5-5.2,6.7C80.1,119.7,83.2,122.8,87,122.8z"/>
  </g>
  <g>
    <g>
      <g>
        <g>
          <path class="st1" d="M129.2,205.2c-23.3,0-42.3-19-42.3-42.3s19-42.3,42.3-42.3s42.3,19,42.3,42.3S152.5,205.2,129.2,205.2z M129.2,121.5c-22.8,0-41.3,18.5-41.3,41.3s18.5,41.3,41.3,41.3s41.3-18.5,41.3-41.3S152,121.5,129.2,121.5z"/>
        </g>
      </g>
      <g>
        <g>
          <path class="st2" d="M129.2,176.3c-7.4,0-13.5-6-13.5-13.5c0-7.4,6-13.5,13.5-13.5c7.4,0,13.5,6,13.5,13.5 C142.6,170.2,136.6,176.3,129.2,176.3z M129.2,150.4c-6.9,0-12.5,5.6-12.5,12.5s5.6,12.5,12.5,12.5c6.9,0,12.5-5.6,12.5-12.5 S136.1,150.4,129.2,150.4z"/>
        </g>
      </g>
      <g>
        <g>
          <g>
            <g>
              <rect x="87.5" y="162.2" transform="matrix(0.3419 -0.9397 0.9397 0.3419 -67.8349 228.4767)" class="st1" width="83.4" height="1"/>
            </g>
          </g>
        </g>
        <g>
          <g>
            <g>
              <rect x="87.5" y="162.2" transform="matrix(0.6429 -0.766 0.766 0.6429 -78.4584 157.0794)" class="st1" width="83.4" height="1"/>
            </g>
          </g>
        </g>
        <g>
          <g>
            <g>
              <rect x="87.5" y="162.2" transform="matrix(0.8658 -0.5003 0.5003 0.8658 -64.0634 86.4694)" class="st1" width="83.4" height="1"/>
            </g>
          </g>
        </g>
        <g>
          <g>
            <g>
              <rect x="87.5" y="162.2" transform="matrix(0.9848 -0.1739 0.1739 0.9848 -26.3244 24.9477)" class="st1" width="83.4" height="1"/>
            </g>
          </g>
        </g>
        <g>
          <g>
            <g>
              <rect x="128.7" y="121" transform="matrix(0.1736 -0.9848 0.9848 0.1736 -53.4063 261.664)" class="st1" width="1" height="83.4"/>
            </g>
          </g>
        </g>
        <g>
          <g>
            <g>
              <rect x="128.7" y="121" transform="matrix(0.5 -0.866 0.866 0.5 -76.2752 193.238)" class="st1" width="1" height="83.4"/>
            </g>
          </g>
        </g>
        <g>
          <g>
            <g>
              <rect x="128.7" y="121" transform="matrix(0.766 -0.6428 0.6428 0.766 -74.3369 121.122)" class="st1" width="1" height="83.4"/>
            </g>
          </g>
        </g>
        <g>
          <g>
            <g>
              <rect x="128.7" y="121" transform="matrix(0.9397 -0.342 0.342 0.9397 -47.8509 53.9995)" class="st1" width="1" height="83.4"/>
            </g>
          </g>
        </g>
        <g>
          <g>
            <g>
              <rect x="128.7" y="121" class="st1" width="1" height="83.4"/>
            </g>
          </g>
        </g>
      </g>
      <g>
        <g>
          <path class="st2" d="M129.2,202.6c-22,0-39.8-17.9-39.8-39.8c0-22,17.9-39.8,39.8-39.8s39.8,17.9,39.8,39.8 C169,184.8,151.1,202.6,129.2,202.6z M129.2,124c-21.4,0-38.8,17.4-38.8,38.8s17.4,38.8,38.8,38.8s38.8-17.4,38.8-38.8 S150.6,124,129.2,124z"/>
        </g>
      </g>
      <g>
        <polygon class="st2" points="146,220.3 130.1,162.5 129.2,162.8 128.3,162.5 112.5,219.7 112.4,220.3 117.1,221.6 129.2,163 &#10;&#9;&#9;&#9;&#9;141.2,221.6 &#9;&#9;&#9;"/>
      </g>
      <g>
        <g>
          <g>
            <circle class="st3" cx="143.1" cy="127.9" r="4.2"/>
          </g>
        </g>
        <g>
          <g>
            <circle class="st3" cx="155.6" cy="135.1" r="4.2"/>
          </g>
        </g>
        <g>
          <g>
            <circle class="st3" cx="164.9" cy="146.2" r="4.2"/>
          </g>
        </g>
        <g>
          <g>
            <circle class="st3" cx="169.8" cy="159.7" r="4.2"/>
          </g>
        </g>
        <g>
          <g>
            <circle class="st3" cx="169.8" cy="174.2" r="4.2"/>
          </g>
        </g>
        <g>
          <g>
            <circle class="st3" cx="164.9" cy="187.8" r="4.2"/>
          </g>
        </g>
        <g>
          <g>
            <circle class="st3" cx="155.6" cy="198.8" r="4.2"/>
          </g>
        </g>
        <g>
          <g>
            <circle class="st3" cx="143.1" cy="206" r="4.2"/>
          </g>
        </g>
        <g>
          <g>
            <circle class="st3" cx="128.9" cy="208.6" r="4.2"/>
          </g>
        </g>
        <g>
          <g>
            <circle class="st3" cx="114.7" cy="206" r="4.2"/>
          </g>
        </g>
        <g>
          <g>
            <circle class="st3" cx="102.2" cy="198.8" r="4.2"/>
          </g>
        </g>
        <g>
          <g>
            <circle class="st3" cx="92.9" cy="187.8" r="4.2"/>
          </g>
        </g>
        <g>
          <g>
            <circle class="st3" cx="87.9" cy="174.2" r="4.2"/>
          </g>
        </g>
        <g>
          <g>
            <circle class="st3" cx="87.9" cy="159.7" r="4.2"/>
          </g>
        </g>
        <g>
          <g>
            <circle class="st3" cx="92.9" cy="146.2" r="4.2"/>
          </g>
        </g>
        <g>
          <g>
            <circle class="st3" cx="102.2" cy="135.1" r="4.2"/>
          </g>
        </g>
        <g>
          <g>
            <circle class="st3" cx="114.7" cy="127.9" r="4.2"/>
          </g>
        </g>
        <g>
          <g>
            <circle class="st3" cx="128.9" cy="125.4" r="4.2"/>
          </g>
        </g>
      </g>
      <g>
        <g>
          <path class="st4" d="M143.6,127.9h2.8c0-1.6-1.2-3-2.8-3.2V127.9z"/>
        </g>
        <g>
          <path class="st4" d="M142.6,124.6c-1.6,0.2-2.8,1.6-2.8,3.2h2.8V124.6z"/>
        </g>
      </g>
      <g>
        <g>
          <path class="st4" d="M156.1,135.1h2.8c0-1.6-1.2-3-2.8-3.2V135.1z"/>
        </g>
        <g>
          <path class="st4" d="M155.1,131.9c-1.6,0.2-2.8,1.6-2.8,3.2h2.8V131.9z"/>
        </g>
      </g>
      <g>
        <g>
          <path class="st4" d="M165.4,146.2h2.8c0-1.6-1.2-3-2.8-3.2V146.2z"/>
        </g>
        <g>
          <path class="st4" d="M164.4,142.9c-1.6,0.2-2.8,1.6-2.8,3.2h2.8V142.9z"/>
        </g>
      </g>
      <g>
        <g>
          <path class="st4" d="M170.3,159.7h2.8c0-1.6-1.2-3-2.8-3.2V159.7z"/>
        </g>
        <g>
          <path class="st4" d="M169.4,156.5c-1.6,0.2-2.8,1.6-2.8,3.2h2.8V156.5z"/>
        </g>
      </g>
      <g>
        <g>
          <path class="st4" d="M170.3,174.2h2.8c0-1.6-1.2-3-2.8-3.2V174.2z"/>
        </g>
        <g>
          <path class="st4" d="M169.4,171c-1.6,0.2-2.8,1.6-2.8,3.2h2.8V171z"/>
        </g>
      </g>
      <g>
        <g>
          <path class="st4" d="M165.4,187.8h2.8c0-1.6-1.2-3-2.8-3.2V187.8z"/>
        </g>
        <g>
          <path class="st4" d="M164.4,184.5c-1.6,0.2-2.8,1.6-2.8,3.2h2.8V184.5z"/>
        </g>
      </g>
      <g>
        <g>
          <path class="st4" d="M156.1,198.8h2.8c0-1.6-1.2-3-2.8-3.2V198.8z"/>
        </g>
        <g>
          <path class="st4" d="M155.1,195.6c-1.6,0.2-2.8,1.6-2.8,3.2h2.8V195.6z"/>
        </g>
      </g>
      <g>
        <g>
          <path class="st4" d="M143.6,206h2.8c0-1.6-1.2-3-2.8-3.2V206z"/>
        </g>
        <g>
          <path class="st4" d="M142.6,202.8c-1.6,0.2-2.8,1.6-2.8,3.2h2.8V202.8z"/>
        </g>
      </g>
      <g>
        <g>
          <path class="st4" d="M129.4,208.6h2.8c0-1.6-1.2-3-2.8-3.2V208.6z"/>
        </g>
        <g>
          <path class="st4" d="M128.4,205.3c-1.6,0.2-2.8,1.6-2.8,3.2h2.8V205.3z"/>
        </g>
      </g>
      <g>
        <g>
          <path class="st4" d="M114.2,202.8c-1.6,0.2-2.8,1.6-2.8,3.2h2.8V202.8z"/>
        </g>
        <g>
          <path class="st4" d="M115.1,206h2.8c0-1.6-1.2-3-2.8-3.2V206z"/>
        </g>
      </g>
      <g>
        <g>
          <path class="st4" d="M102.6,198.8h2.8c0-1.6-1.2-3-2.8-3.2V198.8z"/>
        </g>
        <g>
          <path class="st4" d="M101.7,195.6c-1.6,0.2-2.8,1.6-2.8,3.2h2.8V195.6z"/>
        </g>
      </g>
      <g>
        <g>
          <path class="st4" d="M92.4,184.5c-1.6,0.2-2.8,1.6-2.8,3.2h2.8V184.5z"/>
        </g>
        <g>
          <path class="st4" d="M93.4,187.8h2.8c0-1.6-1.2-3-2.8-3.2V187.8z"/>
        </g>
      </g>
      <g>
        <g>
          <path class="st4" d="M88.4,174.2h2.8c0-1.6-1.2-3-2.8-3.2V174.2z"/>
        </g>
        <g>
          <path class="st4" d="M87.4,171c-1.6,0.2-2.8,1.6-2.8,3.2h2.8V171z"/>
        </g>
      </g>
      <g>
        <g>
          <path class="st4" d="M88.4,159.7h2.8c0-1.6-1.2-3-2.8-3.2V159.7z"/>
        </g>
        <g>
          <path class="st4" d="M87.4,156.5c-1.6,0.2-2.8,1.6-2.8,3.2h2.8V156.5z"/>
        </g>
      </g>
      <g>
        <g>
          <path class="st4" d="M93.4,146.2h2.8c0-1.6-1.2-3-2.8-3.2V146.2z"/>
        </g>
        <g>
          <path class="st4" d="M92.4,142.9c-1.6,0.2-2.8,1.6-2.8,3.2h2.8V142.9z"/>
        </g>
      </g>
      <g>
        <g>
          <path class="st4" d="M102.6,135.1h2.8c0-1.6-1.2-3-2.8-3.2V135.1z"/>
        </g>
        <g>
          <path class="st4" d="M101.7,131.9c-1.6,0.2-2.8,1.6-2.8,3.2h2.8V131.9z"/>
        </g>
      </g>
      <g>
        <g>
          <path class="st4" d="M115.1,127.9h2.8c0-1.6-1.2-3-2.8-3.2V127.9z"/>
        </g>
        <g>
          <path class="st4" d="M114.2,124.6c-1.6,0.2-2.8,1.6-2.8,3.2h2.8V124.6z"/>
        </g>
      </g>
      <g>
        <g>
          <path class="st4" d="M129.4,125.4h2.8c0-1.6-1.2-3-2.8-3.2V125.4z"/>
        </g>
        <g>
          <path class="st4" d="M128.4,122.1c-1.6,0.2-2.8,1.6-2.8,3.2h2.8V122.1z"/>
        </g>
      </g>
      <g>
        <circle class="st2" cx="129.2" cy="162.8" r="5.2"/>
      </g>
    </g>
    <g>
      <g>
        <polygon class="st1" points="224.6,48.8 229.1,217.3 220.1,217.3 &#9;&#9;&#9;"/>
      </g>
      <g>
        <path class="st3" d="M229.4,118c0-1.6-1.3-2.8-2.8-2.8h-3.9c-1.6,0-2.8,1.3-2.8,2.8v8c0,1.6,1.3,2.8,2.8,2.8h3.9 c1.6,0,2.8-1.3,2.8-2.8V118z"/>
      </g>
      <g>
        <path class="st3" d="M232.9,104.3c0-1.6-1.3-2.8-2.8-2.8h-10.8c-1.6,0-2.8,1.3-2.8,2.8v4.9c0,1.6,1.3,2.8,2.8,2.8h10.8 c1.6,0,2.8-1.3,2.8-2.8V104.3z"/>
      </g>
      <g>
        <path class="st2" d="M231.2,95.5v-3.1h-1v1.8c-0.1,0-0.3-0.1-0.5-0.1h-1v-1.7h-1v1.7h-1.5v-1.7h-1v1.7h-1.5v-1.7h-1v1.7h-1.5 v-1.7h-1v1.7h-1c-0.2,0-0.3,0-0.5,0.1v-1.8h-1v3.1l0,0V97c0,0.8,0.6,1.4,1.4,1.4h10.4c0.8,0,1.4-0.6,1.4-1.4L231.2,95.5 L231.2,95.5z"/>
      </g>
      <g>
        <path class="st4" d="M232.9,116.5c0-0.7-1.3-1.2-2.8-1.2h-10.8c-1.6,0-2.8,0.6-2.8,1.2c0,0.7,1.3,1.2,2.8,1.2h10.8 C231.6,117.7,232.9,117.1,232.9,116.5z"/>
      </g>
      <g>
        <path class="st4" d="M232.9,122.1c0-0.7-1.3-1.2-2.8-1.2h-10.8c-1.6,0-2.8,0.6-2.8,1.2c0,0.7,1.3,1.2,2.8,1.2h10.8 C231.6,123.3,232.9,122.7,232.9,122.1z"/>
      </g>
      <g>
        <path class="st4" d="M232.9,127.7c0-0.7-1.3-1.2-2.8-1.2h-10.8c-1.6,0-2.8,0.6-2.8,1.2s1.3,1.2,2.8,1.2h10.8 C231.6,128.9,232.9,128.4,232.9,127.7z"/>
      </g>
      <g>
        <path class="st4" d="M227.9,86.2c0-0.6-0.6-1.1-1.4-1.1h-3.8c-0.8,0-1.4,0.5-1.4,1.1s0.6,1.1,1.4,1.1h3.8 C227.3,87.3,227.9,86.8,227.9,86.2z"/>
      </g>
      <g>
        <path class="st2" d="M226.6,66.2c0-0.4-0.6-0.6-1.4-0.6h-1.1c-0.8,0-1.4,0.3-1.4,0.6s0.6,0.6,1.4,0.6h1.1 C226,66.9,226.6,66.6,226.6,66.2z"/>
      </g>
      <g>
        <path class="st2" d="M226.6,64.2c0-0.4-0.6-0.6-1.4-0.6h-1.1c-0.8,0-1.4,0.3-1.4,0.6c0,0.4,0.6,0.6,1.4,0.6h1.1 C226,64.9,226.6,64.6,226.6,64.2z"/>
      </g>
    </g>
    <path class="st0" d="M288.6,188.4l-0.6-3.9l0-0.5c0-0.2-0.1-0.3-0.1-0.5l-0.6-4.1c-0.1-1-1-1.7-2-1.7h-14.2l-0.5-3.4 c-0.1-1-1-1.7-2-1.7s-1.8,0.7-2,1.7l-0.5,3.4h-2.5c-0.1-1-1-1.7-2-1.7h-0.5c-0.1,0-0.2,0-0.3,0v-1.5c0-1.1-0.9-2-2-2h-0.5 c-0.1,0-0.3,0-0.4,0v-0.7c0-1.1-0.9-2-2-2h-0.5c-1.1,0-2,0.9-2,2v0.7c-0.1,0-0.2,0-0.3,0h-0.5c-1.1,0-2,0.9-2,2v1.5 c-0.1,0-0.2,0-0.3,0h-0.5c-1,0-1.8,0.7-2,1.7h-2.4l-0.5-3.4c-0.1-1-1-1.7-2-1.7s-1.8,0.7-2,1.7l-0.5,3.4H211v-9.1 c0-1-0.8-1.9-1.8-2v-17.2c0-0.1,0-0.1,0-0.2l-0.3-3.1c-0.1-0.6-0.4-1.1-0.8-1.4l0,0c-0.1-0.7-0.5-1.3-1.1-1.6v-0.4 c0-0.1,0-0.2,0-0.3l-0.7-4.5c-0.1-0.5-0.3-0.9-0.7-1.2v-0.7c0-0.1,0-0.2,0-0.3l-1.9-11.8c-0.2-1-1-1.7-2-1.7c-1,0-1.8,0.7-2,1.7 l-1.9,11.8c0,0.1,0,0.2,0,0.3v0.7c-0.4,0.3-0.6,0.7-0.7,1.2l-0.7,4.5c0,0.1,0,0.2,0,0.3v0.4c-0.6,0.3-1,0.9-1.1,1.6l0,0 c-0.4,0.3-0.7,0.8-0.8,1.4l-0.3,3.1c0,0.1,0,0.1,0,0.2v17.2c-1,0.1-1.8,1-1.8,2v9.1h-18.5l-1.5-10.2c-0.1-1-1-1.7-2-1.7 c-1,0-1.8,0.7-2,1.7l-1.7,11.8c0,0.1,0,0.2,0,0.3v9.9l-0.1,0.5c0,0.3,0,0.6,0.1,0.9v26.2c0,1.1,0.9,2,2,2H287c1.1,0,2-0.9,2-2 v-27.6C289,189.2,288.9,188.8,288.6,188.4z"/>
    <g>
      <polygon class="st3" points="170.3,179.8 285.3,179.8 286.9,190.4 168.7,190.4 &#9;&#9;"/>
    </g>
    <g>
      <g>
        <path class="st0" d="M161.1,197.5c0.1-0.2,0.1-0.5,0.1-0.7v-0.4c0-1.5-1.2-2.8-2.8-2.9c-0.1-0.1-0.2-0.1-0.3-0.2l-0.2-0.1 c0.1-0.8,0-1.6-0.4-2.3c0-0.1-0.1-0.4-0.1-0.5l0.5-4.4c0-0.2,0.1-0.8-0.1-1.3c0.2-0.6,0.2-1.4,0-2.2l-1-2.7v-0.1 c0.4-1,0.1-2.1-0.3-2.9l-0.5-0.9v-0.1c0.1-0.3,0.2-0.7,0.4-1.1l0.1-0.3c0.3-0.9,0.3-2.2,0-3.1l0,0l2.1-2.2 c0.8-0.9,1.2-2.3,0.9-3.4l-0.9-3.2c-0.1-0.4-0.4-1-0.6-1.5c0-0.4,0-0.8-0.1-1.2c-0.2-1-0.6-1.9-1.3-2.6c-0.9-1-2.3-1.7-3.7-1.7 h-0.1c-1,0-1.9,0.3-2.5,1c-1.3,1.3-1.1,3.3-0.4,4.8h-0.3c-0.9,0.1-1.7,0.5-2.1,1.2c-0.4,0.5-0.5,1.2-0.4,1.8 c-0.3,0.7-0.5,1.6-0.5,2.3v0.1c0,0.7,0.1,1.1,0.2,1.5c-1,0.4-1.8,1.4-2,2.4l-1.2,4.6c-0.1,0.6-0.1,1.1,0.1,1.6l-1.8,1.5 c-0.5,0.4-1.4,1.3-1.4,2.5c0,0.8,0.5,1.5,1.2,1.9c-0.1,0.3-0.2,0.6-0.2,1c-0.5,1-0.3,2.2-0.3,2.4l0.6,3.6c0.1,0.3,0.1,1,0.1,1.3 l-0.2,2.7c-1,0.5-1.7,1.5-1.7,2.6v0.4c0,0.2,0,0.5,0.1,0.7c-0.7,0.8-1.1,1.9-1.1,3v21.7c0,2.7,2.2,4.8,4.8,4.8h13.5 c2.7,0,4.8-2.2,4.8-4.8v-21.7C162.2,199.3,161.8,198.3,161.1,197.5z M153.8,164.1c0.1,0,0.2,0,0.3,0.1v0.5 C154,164.5,153.9,164.3,153.8,164.1z"/>
      </g>
      <g>
        <path class="st0" d="M154.5,159.3c-0.4-0.4-1-0.7-1.5-0.7l0,0c-0.2,0-0.3,0-0.4,0.1c-0.2,0.2-0.1,1,0.4,1.6 c0.4,0.5,1,0.8,1.6,0.9h0.1h0.1c0-0.2,0-0.4,0-0.5c0.1-0.1,0.2-0.2,0.3-0.2l0,0v-0.1C154.9,160,154.7,159.6,154.5,159.3z"/>
      </g>
      <g>
        <path class="st0" d="M147.7,174.9L147.7,174.9c0.4-0.1,0.6-0.5,0.5-1l0,0c0-0.3-0.1-0.4-0.2-0.4c-0.1,0-0.2,0.1-0.3,0.3l-0.2,0.4 C147.4,174.6,147.4,174.9,147.7,174.9z"/>
      </g>
    </g>
    <g>
      <path class="st1" d="M286.9,189.6h-0.5v-2h-0.1l-0.3-3.4l-0.3,3.4h-0.1v2h-0.8v0.8h-0.5v-0.8h-0.8v0.8H283v-0.8h-1v0.8h-0.5v-0.8 l0,0h-0.8l0,0v-2h-0.1l-0.3-3.4l-0.3,3.4h-0.1v2h-0.8v0.8h-0.5v-0.8h-0.8v0.8h-0.5v-0.8h-0.8v0.8H276v-0.8l0,0h-1l0,0v-2h-0.1 l-0.3-3.4l-0.3,3.4h-0.1v2h-0.8v0.8h-0.5v-0.8h-0.8v0.8h-0.5v-0.8h-0.8v0.8h-0.5v-3.9l-1.7-11.8l-1.7,11.8v3.9h-0.1l-2.1-2.9v-4.9 H264v4.2l-2.3-3.2v-5.5h-0.5v4.9l-2.3-3.2v-5.2h-0.5v1.3H256l0,0v-4h-0.5v4l0,0h-2.3v-1.3h-0.5v5.2l-2.3,3.2v-4.9h-0.5v5.5 l-2.3,3.2v-4.2H247v4.9l-2.1,2.9h-0.1v-3.9l-1.7-11.8l-1.7,11.8v3.1h-0.1v0.8h-0.5v-0.8H240v0.8h-0.5v-0.8h-0.8v0.8h-0.5v-0.8l0,0 h-0.8l0,0v-2h-0.1l-0.3-3.4l-0.3,3.4h-0.1v2h-0.8v0.8H235v-0.8h-0.8v0.8h-0.5v-0.8h-0.8v0.8h-0.5v-0.8l0,0h-0.8l0,0v-2h-0.1 l-0.3-3.4l-0.3,3.4h-0.1v2H230v0.8h-0.5v-0.8h-0.8v0.8H228v-0.8h-0.8v0.8h-0.5v-0.8l0,0h-0.8l0,0v-2h-0.1l-0.3-3.4l-0.3,3.4h-0.1 v2h-0.8v0.8h-0.5v-0.8H223v0.8h-0.5v-0.8h-0.8v0.8h-0.5v-0.8l0,0h-0.8l0,0v-2H220l-0.3-3.4l-0.3,3.4h-0.1v2h-0.8v0.8H218v-0.8h-1 v0.8h-0.5v-0.8h-0.8v0.8h-0.5v-0.8l0,0h-0.8l0,0v-2h-0.1l-0.3-3.4l-0.3,3.4h-0.1v2h-0.8v0.8h-0.5v-0.8h-0.8v0.8H211v-0.8h-1v0.8 h-0.5v-0.8H209v-20.9h-1.8v-19.2l-0.3-3.1l-0.3,3.1l0,0l-0.5-4.5l-0.5,4.5l-0.3-3.1l-0.3,3.1v-6.7l-0.7-4.5l-0.7,4.5v-6.7 l-1.9-11.8l-1.9,11.8v6.7l-0.7-4.5l-0.7,4.5v6.7l-0.3-3.1l-0.3,3.1l0,0l-0.5-4.5l-0.5,4.5l-0.3-3.1l-0.3,3.1v19.2h-1.8v20.9h-0.6 v0.8h-0.5v-0.8h-0.8v0.8H192v-0.8h-0.8v0.8h-0.5v-0.8l0,0h-0.8l0,0v-2h-0.1l-0.3-3.4l-0.3,3.4h-0.1v2h-0.8v0.8h-0.5v-0.8H187v0.8 h-0.5v-0.8h-0.8v0.8h-0.5v-0.8l0,0h-0.8l0,0v-2h-0.1l-0.3-3.4l-0.3,3.4H183v2h-0.8v0.8h-0.5v-0.8h-0.8v0.8h-0.5v-0.8h-0.8v0.8H179 v-0.8l0,0h-0.8l0,0v-2h-0.1l-0.3-3.4l-0.3,3.4h-0.1v2h-0.8v0.8H176v-0.8h-0.8v0.8h-0.5v-0.8h-0.8v0.8h-0.5v-0.8h-0.8v0.8h-0.4 v-10.7l-1.7-11.8l-1.7,11.8v10.7v2.1v24.7H287v-26.6l0,0v-1H286.9z M258.3,176.5v2.6l-2-2.6H258.3z M253.1,176.5h2l-2,2.6V176.5z"/>
    </g>
    <g>
      <g>
        <g>
          <g>
            <path class="st4" d="M261.1,203.9L261.1,203.9c-1,0-1.8,0.8-1.8,1.8v1.8h3.5v-1.8C262.9,204.7,262.1,203.9,261.1,203.9z"/>
          </g>
        </g>
        <g>
          <g>
            <path class="st4" d="M255.5,203.9L255.5,203.9c-1,0-1.8,0.8-1.8,1.8v1.8h3.5v-1.8C257.3,204.7,256.5,203.9,255.5,203.9z"/>
          </g>
        </g>
        <g>
          <g>
            <path class="st4" d="M249.9,203.9L249.9,203.9c-1,0-1.8,0.8-1.8,1.8v1.8h3.5v-1.8C251.6,204.7,250.9,203.9,249.9,203.9z"/>
          </g>
        </g>
      </g>
      <g>
        <g>
          <g>
            <path class="st4" d="M261.1,198.5L261.1,198.5c-1,0-1.8,0.8-1.8,1.8v1.8h3.5v-1.8C262.9,199.3,262.1,198.5,261.1,198.5z"/>
          </g>
        </g>
        <g>
          <g>
            <path class="st4" d="M255.5,198.5L255.5,198.5c-1,0-1.8,0.8-1.8,1.8v1.8h3.5v-1.8C257.3,199.3,256.5,198.5,255.5,198.5z"/>
          </g>
        </g>
        <g>
          <g>
            <path class="st4" d="M249.9,198.5L249.9,198.5c-1,0-1.8,0.8-1.8,1.8v1.8h3.5v-1.8C251.6,199.3,250.9,198.5,249.9,198.5z"/>
          </g>
        </g>
      </g>
      <g>
        <g>
          <g>
            <path class="st4" d="M261.1,193.1L261.1,193.1c-1,0-1.8,0.8-1.8,1.8v1.8h3.5v-1.8C262.9,193.9,262.1,193.1,261.1,193.1z"/>
          </g>
        </g>
        <g>
          <g>
            <path class="st4" d="M255.5,193.1L255.5,193.1c-1,0-1.8,0.8-1.8,1.8v1.8h3.5v-1.8C257.3,193.9,256.5,193.1,255.5,193.1z"/>
          </g>
        </g>
        <g>
          <g>
            <path class="st4" d="M249.9,193.1L249.9,193.1c-1,0-1.8,0.8-1.8,1.8v1.8h3.5v-1.8C251.6,193.9,250.9,193.1,249.9,193.1z"/>
          </g>
        </g>
      </g>
    </g>
    <g>
      <g>
        <g>
          <g>
            <rect x="190" y="203.9" class="st2" width="2.7" height="3.5"/>
          </g>
        </g>
        <g>
          <g>
            <rect x="184.6" y="203.9" class="st2" width="2.7" height="3.5"/>
          </g>
        </g>
        <g>
          <g>
            <rect x="179.2" y="203.9" class="st2" width="2.7" height="3.5"/>
          </g>
        </g>
        <g>
          <g>
            <rect x="173.8" y="203.9" class="st2" width="2.7" height="3.5"/>
          </g>
        </g>
      </g>
      <g>
        <g>
          <g>
            <rect x="190" y="198.5" class="st2" width="2.7" height="3.5"/>
          </g>
        </g>
        <g>
          <g>
            <rect x="184.6" y="198.5" class="st2" width="2.7" height="3.5"/>
          </g>
        </g>
        <g>
          <g>
            <rect x="179.2" y="198.5" class="st2" width="2.7" height="3.5"/>
          </g>
        </g>
        <g>
          <g>
            <rect x="173.8" y="198.5" class="st2" width="2.7" height="3.5"/>
          </g>
        </g>
      </g>
      <g>
        <g>
          <g>
            <rect x="190" y="193.1" class="st2" width="2.7" height="3.5"/>
          </g>
        </g>
        <g>
          <g>
            <rect x="184.6" y="193.1" class="st2" width="2.7" height="3.5"/>
          </g>
        </g>
        <g>
          <g>
            <rect x="179.2" y="193.1" class="st2" width="2.7" height="3.5"/>
          </g>
        </g>
        <g>
          <g>
            <rect x="173.8" y="193.1" class="st2" width="2.7" height="3.5"/>
          </g>
        </g>
      </g>
    </g>
    <g>
      <g>
        <g>
          <g>
            <rect x="220.3" y="203.9" class="st2" width="2.7" height="3.5"/>
          </g>
        </g>
        <g>
          <g>
            <rect x="214.9" y="203.9" class="st2" width="2.7" height="3.5"/>
          </g>
        </g>
        <g>
          <g>
            <rect x="209.5" y="203.9" class="st2" width="2.7" height="3.5"/>
          </g>
        </g>
      </g>
      <g>
        <g>
          <g>
            <rect x="220.3" y="198.5" class="st2" width="2.7" height="3.5"/>
          </g>
        </g>
        <g>
          <g>
            <rect x="214.9" y="198.5" class="st2" width="2.7" height="3.5"/>
          </g>
        </g>
        <g>
          <g>
            <rect x="209.5" y="198.5" class="st2" width="2.7" height="3.5"/>
          </g>
        </g>
      </g>
      <g>
        <g>
          <g>
            <rect x="220.3" y="193.1" class="st2" width="2.7" height="3.5"/>
          </g>
        </g>
        <g>
          <g>
            <rect x="214.9" y="193.1" class="st2" width="2.7" height="3.5"/>
          </g>
        </g>
        <g>
          <g>
            <rect x="209.5" y="193.1" class="st2" width="2.7" height="3.5"/>
          </g>
        </g>
      </g>
    </g>
    <g>
      <g>
        <g>
          <g>
            <rect x="237.9" y="203.9" class="st2" width="2.7" height="3.5"/>
          </g>
        </g>
        <g>
          <g>
            <rect x="232.6" y="203.9" class="st2" width="2.7" height="3.5"/>
          </g>
        </g>
        <g>
          <g>
            <rect x="227.2" y="203.9" class="st2" width="2.7" height="3.5"/>
          </g>
        </g>
      </g>
      <g>
        <g>
          <g>
            <rect x="237.9" y="198.5" class="st2" width="2.7" height="3.5"/>
          </g>
        </g>
        <g>
          <g>
            <rect x="232.6" y="198.5" class="st2" width="2.7" height="3.5"/>
          </g>
        </g>
        <g>
          <g>
            <rect x="227.2" y="198.5" class="st2" width="2.7" height="3.5"/>
          </g>
        </g>
      </g>
    </g>
    <g>
      <g>
        <g>
          <g>
            <rect x="280.9" y="203.9" class="st2" width="2.7" height="3.5"/>
          </g>
        </g>
        <g>
          <g>
            <rect x="275.5" y="203.9" class="st2" width="2.7" height="3.5"/>
          </g>
        </g>
        <g>
          <g>
            <rect x="270.1" y="203.9" class="st2" width="2.7" height="3.5"/>
          </g>
        </g>
      </g>
      <g>
        <g>
          <g>
            <rect x="280.9" y="198.5" class="st2" width="2.7" height="3.5"/>
          </g>
        </g>
        <g>
          <g>
            <rect x="275.5" y="198.5" class="st2" width="2.7" height="3.5"/>
          </g>
        </g>
        <g>
          <g>
            <rect x="270.1" y="198.5" class="st2" width="2.7" height="3.5"/>
          </g>
        </g>
      </g>
    </g>
    <g>
      <g>
        <g>
          <path class="st4" d="M193.9,217.2h-4.3v-4.9c0-0.8,0.4-1.5,1-1.9l1.1-0.7l1.1,0.7c0.6,0.4,1,1.1,1,1.9L193.9,217.2L193.9,217.2z "/>
        </g>
      </g>
      <g>
        <g>
          <path class="st4" d="M188.3,217.2H184v-4.9c0-0.8,0.4-1.5,1-1.9l1.1-0.7l1.1,0.7c0.6,0.4,1,1.1,1,1.9L188.3,217.2L188.3,217.2z"/>
        </g>
      </g>
      <g>
        <g>
          <path class="st4" d="M182.7,217.2h-4.3v-4.9c0-0.8,0.4-1.5,1-1.9l1.1-0.7l1.1,0.7c0.6,0.4,1,1.1,1,1.9L182.7,217.2L182.7,217.2z "/>
        </g>
      </g>
      <g>
        <g>
          <path class="st4" d="M177,217.2h-4.3v-4.9c0-0.8,0.4-1.5,1-1.9l1.1-0.7l1.1,0.7c0.6,0.4,1,1.1,1,1.9L177,217.2L177,217.2z"/>
        </g>
      </g>
    </g>
    <g>
      <g>
        <g>
          <path class="st4" d="M224.3,217.2H220v-4.9c0-0.8,0.4-1.5,1-1.9l1.1-0.7l1.1,0.7c0.6,0.4,1,1.1,1,1.9L224.3,217.2L224.3,217.2z"/>
        </g>
      </g>
      <g>
        <g>
          <path class="st4" d="M218.7,217.2h-4.3v-4.9c0-0.8,0.4-1.5,1-1.9l1.1-0.7l1.1,0.7c0.6,0.4,1,1.1,1,1.9L218.7,217.2L218.7,217.2z "/>
        </g>
      </g>
      <g>
        <g>
          <path class="st4" d="M213,217.2h-4.3v-4.9c0-0.8,0.4-1.5,1-1.9l1.1-0.7l1.1,0.7c0.6,0.4,1,1.1,1,1.9L213,217.2L213,217.2z"/>
        </g>
      </g>
    </g>
    <g>
      <g>
        <g>
          <path class="st4" d="M241.9,217.2h-4.3v-4.9c0-0.8,0.4-1.5,1-1.9l1.1-0.7l1.1,0.7c0.6,0.4,1,1.1,1,1.9L241.9,217.2L241.9,217.2z "/>
        </g>
      </g>
      <g>
        <g>
          <path class="st4" d="M236.3,217.2H232v-4.9c0-0.8,0.4-1.5,1-1.9l1.1-0.7l1.1,0.7c0.6,0.4,1,1.1,1,1.9L236.3,217.2L236.3,217.2z"/>
        </g>
      </g>
      <g>
        <g>
          <path class="st4" d="M230.7,217.2h-4.3v-4.9c0-0.8,0.4-1.5,1-1.9l1.1-0.7l1.1,0.7c0.6,0.4,1,1.1,1,1.9L230.7,217.2L230.7,217.2z "/>
        </g>
      </g>
    </g>
    <g>
      <g>
        <g>
          <path class="st4" d="M263.4,217.2h-4.3v-4.9c0-0.8,0.4-1.5,1-1.9l1.1-0.7l1.1,0.7c0.6,0.4,1,1.1,1,1.9L263.4,217.2L263.4,217.2z "/>
        </g>
      </g>
      <g>
        <g>
          <path class="st4" d="M257.8,217.2h-4.3v-4.9c0-0.8,0.4-1.5,1-1.9l1.1-0.7l1.1,0.7c0.6,0.4,1,1.1,1,1.9v4.9H257.8z"/>
        </g>
      </g>
      <g>
        <g>
          <path class="st4" d="M252.2,217.2h-4.3v-4.9c0-0.8,0.4-1.5,1-1.9l1.1-0.7l1.1,0.7c0.6,0.4,1,1.1,1,1.9L252.2,217.2L252.2,217.2z "/>
        </g>
      </g>
    </g>
    <g>
      <g>
        <g>
          <path class="st4" d="M284.8,217.2h-4.3v-4.9c0-0.8,0.4-1.5,1-1.9l1.1-0.7l1.1,0.7c0.6,0.4,1,1.1,1,1.9L284.8,217.2L284.8,217.2z "/>
        </g>
      </g>
      <g>
        <g>
          <path class="st4" d="M279.2,217.2h-4.3v-4.9c0-0.8,0.4-1.5,1-1.9l1.1-0.7l1.1,0.7c0.6,0.4,1,1.1,1,1.9L279.2,217.2L279.2,217.2z "/>
        </g>
      </g>
      <g>
        <g>
          <path class="st4" d="M273.6,217.2h-4.3v-4.9c0-0.8,0.4-1.5,1-1.9l1.1-0.7l1.1,0.7c0.6,0.4,1,1.1,1,1.9L273.6,217.2L273.6,217.2z "/>
        </g>
      </g>
    </g>
    <g>
      <g>
        <g>
          <g>
            <polygon class="st4" points="283.6,193.8 283.1,193.1 282.7,193.8 282.7,196.7 283.6,196.7 &#9;&#9;&#9;&#9;&#9;"/>
          </g>
        </g>
        <g>
          <g>
            <polygon class="st4" points="281.8,193.8 281.3,193.1 280.9,193.8 280.9,196.7 281.8,196.7 &#9;&#9;&#9;&#9;&#9;"/>
          </g>
        </g>
      </g>
      <g>
        <g>
          <g>
            <polygon class="st4" points="278.2,193.8 277.7,193.1 277.3,193.8 277.3,196.7 278.2,196.7 &#9;&#9;&#9;&#9;&#9;"/>
          </g>
        </g>
        <g>
          <g>
            <polygon class="st4" points="276.4,193.8 275.9,193.1 275.5,193.8 275.5,196.7 276.4,196.7 &#9;&#9;&#9;&#9;&#9;"/>
          </g>
        </g>
      </g>
      <g>
        <g>
          <g>
            <polygon class="st4" points="272.8,193.8 272.4,193.1 271.9,193.8 271.9,196.7 272.8,196.7 &#9;&#9;&#9;&#9;&#9;"/>
          </g>
        </g>
        <g>
          <g>
            <polygon class="st4" points="271,193.8 270.6,193.1 270.1,193.8 270.1,196.7 271,196.7 &#9;&#9;&#9;&#9;&#9;"/>
          </g>
        </g>
      </g>
    </g>
    <g>
      <path class="st4" d="M203.7,217.2h-4.3v-4.9c0-0.8,0.4-1.5,1-1.9l1.1-0.7l1.1,0.7c0.6,0.4,1,1.1,1,1.9L203.7,217.2L203.7,217.2z"/>
    </g>
    <g>
      <path class="st4" d="M203.7,207.6h-4.3v-1.7c0-0.8,0.4-1.5,1-1.9l1.1-0.7l1.1,0.7c0.6,0.4,1,1.1,1,1.9L203.7,207.6L203.7,207.6z"/>
    </g>
    <g>
      <path class="st4" d="M203.7,202.2h-4.3v-1.7c0-0.8,0.4-1.5,1-1.9l1.1-0.7l1.1,0.7c0.6,0.4,1,1.1,1,1.9L203.7,202.2L203.7,202.2z"/>
    </g>
    <g>
      <path class="st4" d="M203.7,196.8h-4.3v-1.7c0-0.8,0.4-1.5,1-1.9l1.1-0.7l1.1,0.7c0.6,0.4,1,1.1,1,1.9L203.7,196.8L203.7,196.8z"/>
    </g>
    <g>
      <g>
        <g>
          <polygon class="st2" points="204.7,151.5 204.3,150.9 203.8,151.5 203.8,154 204.7,154 &#9;&#9;&#9;&#9;"/>
        </g>
      </g>
      <g>
        <g>
          <polygon class="st2" points="202.9,151.5 202.5,150.9 202,151.5 202,154 202.9,154 &#9;&#9;&#9;&#9;"/>
        </g>
      </g>
      <g>
        <g>
          <polygon class="st2" points="201.1,151.5 200.7,150.9 200.2,151.5 200.2,154 201.1,154 &#9;&#9;&#9;&#9;"/>
        </g>
      </g>
      <g>
        <g>
          <polygon class="st2" points="199.3,151.5 198.9,150.9 198.4,151.5 198.4,154 199.3,154 &#9;&#9;&#9;&#9;"/>
        </g>
      </g>
      <g>
        <g>
          <polygon class="st2" points="202,138.8 201.6,138 201.1,138.8 201.1,141.9 202,141.9 &#9;&#9;&#9;&#9;"/>
        </g>
      </g>
      <g>
        <g>
          <polygon class="st2" points="202.3,145.9 201.6,145 200.9,145.9 200.9,149.5 202.3,149.5 &#9;&#9;&#9;&#9;"/>
        </g>
      </g>
    </g>
    <g>
      <circle class="st4" cx="201.6" cy="158" r="2.1"/>
    </g>
    <g>
      <g>
        <g>
          <polygon class="st2" points="200.6,165.1 199.9,164.4 199.1,165.1 199.1,168.2 200.6,168.2 &#9;&#9;&#9;&#9;"/>
        </g>
      </g>
      <g>
        <g>
          <polygon class="st2" points="204,165.1 203.3,164.4 202.6,165.1 202.6,168.2 204,168.2 &#9;&#9;&#9;&#9;"/>
        </g>
      </g>
    </g>
    <g>
      <g>
        <g>
          <g>
            <polygon class="st2" points="240.6,193.8 240.2,193.1 239.8,193.8 239.8,196.7 240.6,196.7 &#9;&#9;&#9;&#9;&#9;"/>
          </g>
        </g>
        <g>
          <g>
            <polygon class="st2" points="238.8,193.8 238.4,193.1 238,193.8 238,196.7 238.8,196.7 &#9;&#9;&#9;&#9;&#9;"/>
          </g>
        </g>
      </g>
      <g>
        <g>
          <g>
            <polygon class="st2" points="235.2,193.8 234.8,193.1 234.4,193.8 234.4,196.7 235.2,196.7 &#9;&#9;&#9;&#9;&#9;"/>
          </g>
        </g>
        <g>
          <g>
            <polygon class="st2" points="233.4,193.8 233,193.1 232.6,193.8 232.6,196.7 233.4,196.7 &#9;&#9;&#9;&#9;&#9;"/>
          </g>
        </g>
      </g>
      <g>
        <g>
          <g>
            <polygon class="st2" points="229.8,193.8 229.4,193.1 229,193.8 229,196.7 229.8,196.7 &#9;&#9;&#9;&#9;&#9;"/>
          </g>
        </g>
        <g>
          <g>
            <polygon class="st2" points="228,193.8 227.6,193.1 227.2,193.8 227.2,196.7 228,196.7 &#9;&#9;&#9;&#9;&#9;"/>
          </g>
        </g>
      </g>
    </g>
    <g>
      <g>
        <path class="st0" d="M76.5,128.1c-1.4,0-2.5,1.1-2.5,2.5v0.4c-2.9,1.2-4.8,4.2-4.8,6.7c0,1.1,0.4,2.2,1.1,3.2v0.9V152 c-0.6,0.3-1.1,1-1.1,1.8V167h-0.1v-13.1c0-0.8-0.4-1.4-1.1-1.8v-10.2V141c0.7-1,1.1-2.1,1.1-3.2c0-2.5-1.9-5.5-4.8-6.7v-0.4 c0-1.4-1.1-2.5-2.5-2.5s-2.5,1.1-2.5,2.5v0.4c-2.9,1.2-4.8,4.2-4.8,6.7c0,1.1,0.4,2.2,1.1,3.2v0.9v10.2c-0.6,0.3-1.1,1-1.1,1.8 V167h-0.1c-1.1,0-2,0.9-2,2v48.3c0,1.1,0.9,2,2,2h2.1h1.1h4.2h10.5h3.4h55.6c1.1,0,2-0.9,2-2v-26.8V189c0-0.4-0.1-0.8-0.3-1.2 l-13.7-20c-0.4-0.5-1-0.9-1.7-0.9h-34v-13.1c0-0.8-0.4-1.4-1.1-1.8v-10.2v-0.9c0.7-1,1.1-2.1,1.1-3.2c0-2.5-1.9-5.5-4.8-6.7v-0.4 C79,129.3,77.9,128.1,76.5,128.1L76.5,128.1z"/>
      </g>
    </g>
    <g>
      <g>
        <g>
          <polygon class="st1" points="117.7,169 81.8,169 81.8,153.9 80.7,153.9 80.7,135.6 72.3,135.6 72.3,153.9 71.2,153.9 71.2,169 &#10;&#9;&#9;&#9;&#9;&#9;67.2,169 67.2,153.9 66.1,153.9 66.1,135.6 57.7,135.6 57.7,153.9 56.6,153.9 56.6,169 54.5,169 54.5,217.3 56.6,217.3 &#10;&#9;&#9;&#9;&#9;&#9;56.6,217.3 57.7,217.3 61.9,217.3 61.9,217.3 131.4,217.3 131.4,189 &#9;&#9;&#9;&#9;"/>
        </g>
        <g>
          <path class="st2" d="M61.9,136.7c-0.3,0-0.5-0.2-0.5-0.5v-5.5c0-0.3,0.2-0.5,0.5-0.5s0.5,0.2,0.5,0.5v5.5 C62.4,136.5,62.2,136.7,61.9,136.7z"/>
        </g>
        <g>
          <path class="st2" d="M76.5,136.7c-0.3,0-0.5-0.2-0.5-0.5v-5.5c0-0.3,0.2-0.5,0.5-0.5s0.5,0.2,0.5,0.5v5.5 C77,136.5,76.8,136.7,76.5,136.7z"/>
        </g>
        <g>
          <path class="st3" d="M67.2,137.8c0,2.3-2.4,4.1-5.3,4.1s-5.3-1.9-5.3-4.1c0-2.3,2.4-5.2,5.3-5.2S67.2,135.5,67.2,137.8z"/>
        </g>
        <g>
          <path class="st3" d="M81.8,137.8c0,2.3-2.4,4.1-5.3,4.1s-5.3-1.9-5.3-4.1c0-2.3,2.4-5.2,5.3-5.2S81.8,135.5,81.8,137.8z"/>
        </g>
        <g>
          <polygon class="st3" points="131.4,189 117.7,169 69.6,169 69.6,189 &#9;&#9;&#9;&#9;"/>
        </g>
      </g>
      <g>
        <g>
          <g>
            <path class="st4" d="M126.4,217.3H123v-15.6c0-2.4,0.3-4.7,0.8-6l0.9-2.3l0.9,2.3c0.5,1.3,0.8,3.6,0.8,6 C126.4,201.7,126.4,217.3,126.4,217.3z"/>
          </g>
        </g>
        <g>
          <g>
            <path class="st4" d="M119.2,217.3h-3.4v-15.6c0-2.4,0.3-4.7,0.8-6l0.9-2.3l0.9,2.3c0.5,1.3,0.8,3.6,0.8,6 C119.2,201.7,119.2,217.3,119.2,217.3z"/>
          </g>
        </g>
        <g>
          <g>
            <path class="st4" d="M112,217.3h-3.4v-15.6c0-2.4,0.3-4.7,0.8-6l0.9-2.3l0.9,2.3c0.5,1.3,0.8,3.6,0.8,6 C112,201.7,112,217.3,112,217.3z"/>
          </g>
        </g>
        <g>
          <g>
            <path class="st4" d="M104.7,217.3h-3.4v-15.6c0-2.4,0.3-4.7,0.8-6l0.9-2.3l0.9,2.3c0.5,1.3,0.8,3.6,0.8,6 C104.7,201.7,104.7,217.3,104.7,217.3z"/>
          </g>
        </g>
        <g>
          <g>
            <path class="st4" d="M97.5,217.3h-3.4v-15.6c0-2.4,0.3-4.7,0.8-6l0.9-2.3l0.9,2.3c0.5,1.3,0.8,3.6,0.8,6 C97.5,201.7,97.5,217.3,97.5,217.3z"/>
          </g>
        </g>
        <g>
          <g>
            <path class="st4" d="M90.3,217.3h-3.4v-15.6c0-2.4,0.3-4.7,0.8-6l0.9-2.3l0.9,2.3c0.5,1.3,0.8,3.6,0.8,6 C90.3,201.7,90.3,217.3,90.3,217.3z"/>
          </g>
        </g>
        <g>
          <g>
            <path class="st4" d="M83,217.3h-3.4v-15.6c0-2.4,0.3-4.7,0.8-6l0.9-2.3l0.9,2.3c0.5,1.3,0.8,3.6,0.8,6 C83,201.7,83,217.3,83,217.3z"/>
          </g>
        </g>
        <g>
          <g>
            <path class="st4" d="M75.8,217.3h-3.4v-15.6c0-2.4,0.3-4.7,0.8-6l0.9-2.3l0.9,2.3c0.5,1.3,0.8,3.6,0.8,6 C75.8,201.7,75.8,217.3,75.8,217.3z"/>
          </g>
        </g>
      </g>
      <g>
        <g>
          <g>
            <rect x="60.4" y="176.8" class="st4" width="3" height="3"/>
          </g>
        </g>
        <g>
          <g>
            <rect x="60.4" y="185.3" class="st4" width="3" height="3"/>
          </g>
        </g>
        <g>
          <g>
            <rect x="60.4" y="193.8" class="st4" width="3" height="3"/>
          </g>
        </g>
        <g>
          <g>
            <rect x="60.4" y="202.3" class="st4" width="3" height="3"/>
          </g>
        </g>
      </g>
      <g>
        <circle class="st4" cx="61.9" cy="159.9" r="2.8"/>
      </g>
      <g>
        <circle class="st4" cx="76.5" cy="159.9" r="2.8"/>
      </g>
      <g>
        <path class="st4" d="M63.5,153.9h-3.2v-4.8c0-0.8,0.3-1.5,0.8-1.9l0.8-0.7l0.8,0.7c0.5,0.4,0.8,1.1,0.8,1.9 C63.5,149.1,63.5,153.9,63.5,153.9z"/>
      </g>
      <g>
        <path class="st4" d="M78.1,153.9h-3.2v-4.8c0-0.8,0.3-1.5,0.8-1.9l0.8-0.7l0.8,0.7c0.5,0.4,0.8,1.1,0.8,1.9L78.1,153.9 L78.1,153.9z"/>
      </g>
      <g>
        <g>
          <rect x="57.7" y="140.4" class="st2" width="8.4" height="1.5"/>
        </g>
      </g>
      <g>
        <g>
          <rect x="72.3" y="140.4" class="st2" width="8.4" height="1.5"/>
        </g>
      </g>
      <g>
        <rect x="69.3" y="189" class="st2" width="62.1" height="1.5"/>
      </g>
      <g>
        <g>
          <g>
            <rect x="54.5" y="179.3" class="st2" width="14.7" height="0.6"/>
          </g>
        </g>
        <g>
          <g>
            <rect x="54.5" y="187.8" class="st2" width="14.7" height="0.6"/>
          </g>
        </g>
        <g>
          <g>
            <rect x="54.5" y="196.3" class="st2" width="14.7" height="0.6"/>
          </g>
        </g>
        <g>
          <g>
            <rect x="54.5" y="204.8" class="st2" width="14.7" height="0.6"/>
          </g>
        </g>
      </g>
      <g>
        <rect x="69.3" y="169" class="st2" width="0.7" height="48.2"/>
      </g>
      <g>
        <g>
          <g>
            <g>
              <rect x="110.5" y="173.2" class="st4" width="1.9" height="1.9"/>
            </g>
          </g>
          <g>
            <g>
              <rect x="110.5" y="178.8" class="st4" width="1.9" height="1.9"/>
            </g>
          </g>
          <g>
            <g>
              <rect x="110.5" y="184.5" class="st4" width="1.9" height="1.9"/>
            </g>
          </g>
        </g>
        <g>
          <g>
            <g>
              <rect x="105.1" y="173.2" class="st4" width="1.9" height="1.9"/>
            </g>
          </g>
          <g>
            <g>
              <rect x="105.1" y="178.8" class="st4" width="1.9" height="1.9"/>
            </g>
          </g>
          <g>
            <g>
              <rect x="105.1" y="184.5" class="st4" width="1.9" height="1.9"/>
            </g>
          </g>
        </g>
        <g>
          <g>
            <g>
              <rect x="99.7" y="173.2" class="st4" width="1.9" height="1.9"/>
            </g>
          </g>
          <g>
            <g>
              <rect x="99.7" y="178.8" class="st4" width="1.9" height="1.9"/>
            </g>
          </g>
          <g>
            <g>
              <rect x="99.7" y="184.5" class="st4" width="1.9" height="1.9"/>
            </g>
          </g>
        </g>
        <g>
          <g>
            <g>
              <rect x="94.3" y="173.2" class="st4" width="1.9" height="1.9"/>
            </g>
          </g>
          <g>
            <g>
              <rect x="94.3" y="178.8" class="st4" width="1.9" height="1.9"/>
            </g>
          </g>
          <g>
            <g>
              <rect x="94.3" y="184.5" class="st4" width="1.9" height="1.9"/>
            </g>
          </g>
        </g>
        <g>
          <g>
            <g>
              <rect x="88.9" y="173.2" class="st4" width="1.9" height="1.9"/>
            </g>
          </g>
          <g>
            <g>
              <rect x="88.9" y="178.8" class="st4" width="1.9" height="1.9"/>
            </g>
          </g>
          <g>
            <g>
              <rect x="88.9" y="184.5" class="st4" width="1.9" height="1.9"/>
            </g>
          </g>
        </g>
        <g>
          <g>
            <g>
              <rect x="83.5" y="173.2" class="st4" width="1.9" height="1.9"/>
            </g>
          </g>
          <g>
            <g>
              <rect x="83.5" y="178.8" class="st4" width="1.9" height="1.9"/>
            </g>
          </g>
          <g>
            <g>
              <rect x="83.5" y="184.5" class="st4" width="1.9" height="1.9"/>
            </g>
          </g>
        </g>
        <g>
          <g>
            <g>
              <rect x="78.1" y="173.2" class="st4" width="1.9" height="1.9"/>
            </g>
          </g>
          <g>
            <g>
              <rect x="78.1" y="178.8" class="st4" width="1.9" height="1.9"/>
            </g>
          </g>
          <g>
            <g>
              <rect x="78.1" y="184.5" class="st4" width="1.9" height="1.9"/>
            </g>
          </g>
        </g>
        <g>
          <g>
            <g>
              <rect x="72.8" y="173.2" class="st4" width="1.9" height="1.9"/>
            </g>
          </g>
          <g>
            <g>
              <rect x="72.8" y="178.8" class="st4" width="1.9" height="1.9"/>
            </g>
          </g>
          <g>
            <g>
              <rect x="72.8" y="184.5" class="st4" width="1.9" height="1.9"/>
            </g>
          </g>
        </g>
      </g>
      <g>
        <polygon class="st2" points="117.7,169 117.7,189 119.2,189 119.2,171.1 &#9;&#9;&#9;"/>
      </g>
    </g>
    <g>
      <path class="st5" d="M280.6,132.3L280.6,132.3c0-6.1-5-11.1-11.1-11.1c-6,0-10.8,4.7-11.1,10.7c-3.7,0.3-6.7,3-7.5,6.5 c-0.3,0-0.6-0.1-0.9-0.1c-3.1,0-5.6,2.5-5.6,5.6s2.5,5.6,5.6,5.6h30.2c4.8,0,8.6-3.9,8.6-8.6C289,136.2,285.2,132.4,280.6,132.3z"/>
    </g>
    <g>
      <path class="st5" d="M172.3,82L172.3,82c0-3.9-3.2-7.1-7.1-7.1c-3.8,0-7,3-7.1,6.9c-2.4,0.2-4.3,1.9-4.8,4.2 c-0.2,0-0.4-0.1-0.6-0.1c-2,0-3.6,1.6-3.6,3.6s1.6,3.6,3.6,3.6h19.4c3.1,0,5.5-2.5,5.5-5.5C177.7,84.5,175.3,82.1,172.3,82z"/>
    </g>
    <g>
      <path class="st5" d="M103.1,111.2c-0.1,0-0.3,0-0.4,0l0,0c0-3.2-2.6-5.8-5.8-5.8c-2.8,0-5.1,1.9-5.7,4.5c-0.4-0.3-1-0.4-1.5-0.4 c-1.3,0-2.4,0.8-2.8,2c-2.4,0.1-4.3,2-4.3,4.4s2,4.4,4.4,4.4c0.1,0,0.1,0,0.2,0l0,0h15.9c2.5,0,4.5-2,4.5-4.5 S105.6,111.2,103.1,111.2z"/>
    </g>
    <g>
      <g>
        <path class="st1" d="M160.2,222.2c0,1.6-1.3,2.8-2.8,2.8h-13.5c-1.6,0-2.8-1.3-2.8-2.8v-21.7c0-1.6,1.3-2.8,2.8-2.8h13.5 c1.6,0,2.8,1.3,2.8,2.8V222.2z"/>
      </g>
    </g>
    <g>
      <g>
        <path class="st6" d="M154.6,162.2c-0.1,0-0.1,0-0.2,0c-0.8-0.1-1.7-0.6-2.3-1.3s-1-2.2-0.3-2.9c0.3-0.3,0.6-0.4,1.1-0.4 c0.8,0,1.7,0.4,2.2,1c0.4,0.4,0.7,1,0.8,1.6c0.1,0.7,0,1.3-0.4,1.6l0,0C155.4,162.1,155,162.2,154.6,162.2z M153,158.6 c-0.2,0-0.3,0-0.4,0.1c-0.2,0.2-0.1,1,0.4,1.6c0.4,0.5,1,0.8,1.6,0.9c0.2,0,0.3,0,0.4-0.1l0,0c0.1-0.1,0.2-0.3,0.1-0.7 c-0.1-0.4-0.3-0.8-0.5-1.1C154.1,158.9,153.5,158.6,153,158.6L153,158.6z"/>
      </g>
    </g>
    <g>
      <path class="st2" d="M155.9,193.3c0.2-0.3,0.2-1,0-1.4l0,0c-0.2-0.4-0.4-1.2-0.3-1.7l0.5-4.4c0.1-0.5-0.1-1-0.2-1.2 c-0.2-0.1-0.1-0.3,0.1-0.4s0.3-0.6,0.1-1l-1-2.7c-0.2-0.5-0.2-1.1,0-1.4c0.1-0.3,0.1-0.9-0.1-1.3l-0.5-0.9 c-0.2-0.4-0.3-1.1-0.2-1.4c0.1-0.3,0.3-1,0.5-1.4l0.1-0.3c0.2-0.5,0.2-1.2,0-1.7l-0.2-0.4c-0.2-0.5-0.1-1.1,0.3-1.5l2.4-2.5 c0.3-0.4,0.5-1,0.4-1.5l-0.9-3.2c-0.1-0.5-0.5-1.2-0.8-1.6l-0.4-0.6c-0.3-0.4-0.6-0.5-0.8-0.2c-0.1,0.3,0,0.9,0.4,1.2l0.2,0.2 c0.3,0.3,0.7,1,0.7,1.5l0.2,2.1c0,0.5-0.3,1.1-0.7,1.4l-1.4,0.9c-0.4,0.3-1,0.7-1.3,1.1c-0.3,0.3-0.7,0.2-0.8-0.2v-0.1 c-0.1-0.5,0.1-0.9,0.5-0.9s0.6-0.5,0.5-0.9l-0.1-0.5c-0.1-0.5-0.5-1.1-0.9-1.4s-0.6-0.8-0.5-1.1s-0.3-0.6-0.8-0.5l-0.6,0.1 c-0.5,0-0.8,0.3-0.7,0.7c0.1,0.3,0,0.9-0.2,1.2s-0.3,1-0.3,1.5v0.1c0,0.5,0.1,1,0.2,1.1c0.1,0.1,0.1,0.6,0,1.1s-0.6,1-1,1.1 s-0.9,0.6-1.1,1.1L146,176c-0.1,0.5,0.2,0.8,0.7,0.7l0.5-0.1c0.5-0.1,0.6,0.1,0.2,0.4l-3.8,3.1c-0.4,0.3-0.7,0.7-0.7,0.9 s0.4,0.2,0.8,0l0.6-0.3c0.5-0.2,0.7,0,0.5,0.5l-0.2,0.3c-0.2,0.4-0.4,1-0.4,1.3c0,0.2-0.1,0.6-0.3,0.7c-0.1,0.1-0.2,0.4-0.1,0.5 s0,0.4-0.2,0.7c-0.2,0.2-0.2,0.8-0.1,1.3l0.6,3.6c0.1,0.5,0.1,1.3,0.1,1.8l-0.3,4.5c0,0.5,0.3,0.9,0.8,0.9H157 c0.5,0,0.9-0.2,0.9-0.5s-0.3-0.8-0.8-1l-0.9-0.6C155.8,194.2,155.6,193.7,155.9,193.3z M147.8,174.9c-0.3,0.1-0.4-0.2-0.2-0.7 l0.2-0.4c0.2-0.5,0.4-0.4,0.5,0.1l0,0C148.3,174.4,148.1,174.9,147.8,174.9z"/>
    </g>
    <g>
      <path class="st3" d="M159.2,196.8c0,0.5-0.4,0.9-0.9,0.9h-15.4c-0.5,0-0.9-0.4-0.9-0.9v-0.4c0-0.5,0.4-0.9,0.9-0.9h15.4 c0.5,0,0.9,0.4,0.9,0.9V196.8z"/>
    </g>
    <g>
      <path class="st3" d="M144.5,184c0.3-0.4,0.9-0.4,1.3,0s1.2,0.8,1.7,0.9s0.4,0.4-0.3,0.7l-0.8,0.4c-0.7,0.4-1.5,0.2-1.9-0.3 C144.3,185.2,144.3,184.4,144.5,184z"/>
    </g>
    <path class="st3" d="M152.8,194.8l-2.2-8c-0.2-0.8-0.2-2,0-2.7l0.5-2c0.2-0.8,0.2-2-0.1-2.7l-0.3-1v-0.1c0.3-0.2,0.6-0.5,0.7-0.7 c0.4-0.5,0.7-1.3,0.5-1.6s-0.3-0.3-0.4,0s-0.6,0.7-1.1,0.7s-1.4,0.4-2,0.9l-2.5,2c-0.6,0.5-1,1-0.9,1.2s0.8,0,1.5-0.3l2.5-1.1 c0.1,0.2,0.2,0.4,0.3,0.6l0.4,0.4c0.5,0.6,0.8,1.6,0.5,2.3l-0.8,2.2c-0.3,0.7-0.5,2-0.5,2.8l-0.2,7.2c0,0.8,0.6,1.4,1.4,1.4h1.7 C152.5,196.2,153,195.5,152.8,194.8z"/>
    <g>
      <path class="st3" d="M147.4,182.5c-0.2-0.1-0.2-0.2,0-0.4s0.5-0.3,0.7-0.2s0.2,0.2,0,0.4S147.6,182.6,147.4,182.5z"/>
    </g>
    <g>
      <path class="st3" d="M151.4,169.4c0.2-0.4,0.1-0.7-0.2-0.7s-0.9-0.1-1.2-0.3c-0.4-0.2-0.6-0.1-0.6,0.3c0,0.4,0.4,0.9,0.9,1.1 S151.2,169.9,151.4,169.4z"/>
    </g>
    <g>
      <path class="st1" d="M50.4,254.7l-1.5,1.6v2.9h-2.6v-11.4h2.6v5.3l5.1-5.3h2.9l-4.7,5.1l5,6.3h-3.1L50.4,254.7z"/>
      <path class="st1" d="M66.7,250.4v8.8h-2.4v-1c-0.7,0.8-1.6,1.2-2.7,1.2c-2.2,0-3.7-1.2-3.7-3.9v-5h2.5v4.6c0,1.5,0.7,2.1,1.8,2.1 c1.2,0,2-0.8,2-2.4v-4.3h2.5V250.4z"/>
      <path class="st1" d="M78.6,254.8c0,2.8-1.9,4.5-4.4,4.5c-1.2,0-2.1-0.4-2.8-1.1v1H69v-12.1h2.5v4.3c0.7-0.7,1.5-1.1,2.6-1.1 C76.7,250.3,78.6,252,78.6,254.8z M76.1,254.8c0-1.5-1-2.4-2.2-2.4c-1.3,0-2.2,0.9-2.2,2.4c0,1.5,1,2.4,2.2,2.4 S76.1,256.3,76.1,254.8z"/>
      <path class="st1" d="M88.9,255.5h-6.6c0.2,1.1,1.2,1.8,2.5,1.8c0.9,0,1.6-0.3,2.2-0.8l1.4,1.5c-0.8,0.9-2,1.4-3.6,1.4 c-3,0-5-1.9-5-4.5c0-2.6,2-4.5,4.7-4.5c2.6,0,4.6,1.7,4.6,4.5C88.9,255,88.9,255.3,88.9,255.5z M82.2,254h4.3 c-0.2-1.1-1-1.8-2.2-1.8C83.2,252.2,82.4,252.9,82.2,254z"/>
      <path class="st1" d="M96.1,250.3v2.3c-0.2,0-0.4,0-0.6,0c-1.4,0-2.3,0.8-2.3,2.4v4.1h-2.5v-8.8h2.4v1.2 C93.7,250.7,94.7,250.3,96.1,250.3z"/>
      <path class="st1" d="M106.5,254.1v5H104v-4.6c0-1.4-0.7-2.1-1.8-2.1c-1.2,0-2.1,0.8-2.1,2.4v4.3h-2.5v-8.8h2.4v1 c0.7-0.7,1.7-1.2,2.9-1.2C105,250.3,106.5,251.5,106.5,254.1z"/>
      <path class="st1" d="M117.5,255.5h-6.6c0.2,1.1,1.2,1.8,2.5,1.8c0.9,0,1.6-0.3,2.2-0.8l1.4,1.5c-0.8,0.9-2,1.4-3.6,1.4 c-3,0-5-1.9-5-4.5c0-2.6,2-4.5,4.7-4.5c2.6,0,4.6,1.7,4.6,4.5C117.5,255,117.5,255.3,117.5,255.5z M110.8,254h4.3 c-0.2-1.1-1-1.8-2.2-1.8C111.8,252.2,111,252.9,110.8,254z"/>
      <path class="st1" d="M124.9,258.7c-0.5,0.4-1.3,0.6-2.1,0.6c-2.1,0-3.3-1.1-3.3-3.1v-3.6h-1.4v-2h1.4v-2.1h2.5v2.1h2.2v2H122v3.6 c0,0.8,0.4,1.2,1.1,1.2c0.4,0,0.8-0.1,1-0.3L124.9,258.7z"/>
      <path class="st1" d="M134.6,255.5H128c0.2,1.1,1.2,1.8,2.5,1.8c0.9,0,1.6-0.3,2.2-0.8l1.4,1.5c-0.8,0.9-2,1.4-3.6,1.4 c-3,0-5-1.9-5-4.5c0-2.6,2-4.5,4.7-4.5c2.6,0,4.6,1.7,4.6,4.5C134.6,255,134.6,255.3,134.6,255.5z M127.9,254h4.3 c-0.2-1.1-1-1.8-2.2-1.8C128.9,252.2,128.1,252.9,127.9,254z"/>
      <path class="st1" d="M135.5,258.4l0.8-1.8c0.8,0.5,2,0.8,3,0.8c1.2,0,1.6-0.3,1.6-0.8c0-1.4-5.3,0-5.3-3.5c0-1.7,1.5-2.8,4.1-2.8 c1.2,0,2.5,0.3,3.4,0.8l-0.8,1.8c-0.9-0.5-1.7-0.7-2.5-0.7c-1.1,0-1.6,0.4-1.6,0.8c0,1.5,5.3,0,5.3,3.5c0,1.6-1.5,2.8-4.1,2.8 C137.8,259.3,136.3,258.9,135.5,258.4z"/>
      <path class="st1" d="M149.1,253.5c0-3.4,2.6-5.9,6.2-5.9c2,0,3.6,0.7,4.7,2l-1.7,1.6c-0.8-0.9-1.7-1.3-2.9-1.3 c-2.1,0-3.7,1.5-3.7,3.7s1.5,3.7,3.7,3.7c1.1,0,2.1-0.5,2.9-1.4l1.7,1.6c-1.1,1.3-2.7,2-4.7,2 C151.7,259.4,149.1,256.9,149.1,253.5z"/>
      <path class="st1" d="M160.6,254.8c0-2.6,2-4.5,4.8-4.5s4.8,1.9,4.8,4.5c0,2.6-2,4.5-4.8,4.5S160.6,257.4,160.6,254.8z M167.6,254.8c0-1.5-1-2.4-2.2-2.4c-1.3,0-2.2,0.9-2.2,2.4c0,1.5,1,2.4,2.2,2.4C166.7,257.2,167.6,256.3,167.6,254.8z"/>
      <path class="st1" d="M186.7,254.1v5h-2.5v-4.6c0-1.4-0.6-2.1-1.7-2.1c-1.1,0-1.9,0.7-1.9,2.3v4.4H178v-4.6c0-1.4-0.6-2.1-1.7-2.1 c-1.1,0-1.9,0.7-1.9,2.3v4.4h-2.5v-8.8h2.4v1c0.7-0.8,1.6-1.1,2.8-1.1s2.3,0.5,2.9,1.4c0.7-0.9,1.8-1.4,3.2-1.4 C185.2,250.3,186.7,251.5,186.7,254.1z"/>
      <path class="st1" d="M203.8,254.1v5h-2.5v-4.6c0-1.4-0.6-2.1-1.7-2.1c-1.1,0-1.9,0.7-1.9,2.3v4.4h-2.5v-4.6c0-1.4-0.6-2.1-1.7-2.1 c-1.1,0-1.9,0.7-1.9,2.3v4.4H189v-8.8h2.4v1c0.7-0.8,1.6-1.1,2.8-1.1s2.3,0.5,2.9,1.4c0.7-0.9,1.8-1.4,3.2-1.4 C202.3,250.3,203.8,251.5,203.8,254.1z"/>
      <path class="st1" d="M214.9,250.4v8.8h-2.4v-1c-0.7,0.8-1.6,1.2-2.7,1.2c-2.2,0-3.7-1.2-3.7-3.9v-5h2.5v4.6c0,1.5,0.7,2.1,1.8,2.1 c1.2,0,2-0.8,2-2.4v-4.3h2.5V250.4z"/>
      <path class="st1" d="M226.3,254.1v5h-2.5v-4.6c0-1.4-0.7-2.1-1.8-2.1c-1.2,0-2.1,0.8-2.1,2.4v4.3h-2.5v-8.8h2.4v1 c0.7-0.7,1.7-1.2,2.9-1.2C224.7,250.3,226.3,251.5,226.3,254.1z"/>
      <path class="st1" d="M228.3,247.8c0-0.8,0.6-1.4,1.6-1.4s1.6,0.6,1.6,1.4c0,0.8-0.6,1.5-1.6,1.5S228.3,248.6,228.3,247.8z M228.6,250.4h2.5v8.8h-2.5V250.4z"/>
      <path class="st1" d="M239.1,258.7c-0.5,0.4-1.3,0.6-2.1,0.6c-2.1,0-3.3-1.1-3.3-3.1v-3.6h-1.4v-2h1.4v-2.1h2.5v2.1h2.2v2h-2.2v3.6 c0,0.8,0.4,1.2,1.1,1.2c0.4,0,0.8-0.1,1-0.3L239.1,258.7z"/>
      <path class="st1" d="M249.1,250.4l-4,9.3c-0.8,2.1-2.1,2.8-3.6,2.8c-0.9,0-1.9-0.3-2.4-0.8l0.9-1.8c0.4,0.3,0.9,0.6,1.4,0.6 c0.7,0,1.1-0.3,1.4-1.1v-0.1l-3.8-8.8h2.6l2.5,5.9l2.5-5.9h2.5V250.4z"/>
      <path class="st1" d="M254.9,247.8h5.2c3.7,0,6.3,2.2,6.3,5.7c0,3.5-2.6,5.7-6.3,5.7h-5.2L254.9,247.8L254.9,247.8z M260,257 c2.3,0,3.7-1.4,3.7-3.5c0-2.2-1.5-3.5-3.7-3.5h-2.4v7.1h2.4V257z"/>
      <path class="st1" d="M276,254.2v5h-2.4v-1.1c-0.5,0.8-1.4,1.2-2.7,1.2c-2.1,0-3.3-1.1-3.3-2.7c0-1.5,1.1-2.6,3.8-2.6h2 c0-1.1-0.7-1.7-2-1.7c-0.9,0-1.9,0.3-2.5,0.8l-0.9-1.8c1-0.7,2.4-1.1,3.8-1.1C274.4,250.3,276,251.5,276,254.2z M273.4,256.4v-0.9 h-1.7c-1.2,0-1.6,0.4-1.6,1c0,0.6,0.5,1.1,1.4,1.1C272.4,257.6,273.1,257.2,273.4,256.4z"/>
      <path class="st1" d="M286.8,250.4l-4,9.3c-0.8,2.1-2.1,2.8-3.6,2.8c-0.9,0-1.9-0.3-2.4-0.8l0.9-1.8c0.4,0.3,0.9,0.6,1.4,0.6 c0.7,0,1.1-0.3,1.4-1.1v-0.1l-3.8-8.8h2.6l2.5,5.9l2.5-5.9h2.5V250.4z"/>
      <path class="st1" d="M286.9,258.4l0.8-1.8c0.8,0.5,2,0.8,3,0.8c1.2,0,1.6-0.3,1.6-0.8c0-1.4-5.3,0-5.3-3.5c0-1.7,1.5-2.8,4.1-2.8 c1.2,0,2.5,0.3,3.4,0.8l-0.8,1.8c-0.9-0.5-1.7-0.7-2.5-0.7c-1.1,0-1.6,0.4-1.6,0.8c0,1.5,5.3,0,5.3,3.5c0,1.6-1.5,2.8-4.1,2.8 C289.2,259.3,287.7,258.9,286.9,258.4z"/>
    </g>
    <g>
      <path class="st2" d="M114.9,287v-7.7l-3.8,6.3h-1l-3.8-6.2v7.6h-2v-11.5h1.8l4.6,7.7l4.5-7.7h1.8V287L114.9,287L114.9,287z"/>
      <path class="st2" d="M121.6,281.9v-6.5h2.1v6.4c0,2.4,1.1,3.4,2.9,3.4c1.9,0,2.9-1,2.9-3.4v-6.4h2.1v6.5c0,3.4-1.9,5.2-5,5.2 S121.6,285.3,121.6,281.9z"/>
      <path class="st2" d="M146.6,275.4V287h-1.8l-6.4-7.8v7.8h-2.1v-11.5h1.8l6.4,7.8v-7.8h2.1V275.4z"/>
      <path class="st2" d="M151.4,275.4h2.1V287h-2.1V275.4z"/>
      <path class="st2" d="M157.5,281.2c0-3.4,2.6-5.9,6.2-5.9c1.9,0,3.5,0.7,4.6,1.9l-1.4,1.3c-0.8-0.9-1.9-1.4-3.1-1.4 c-2.4,0-4.1,1.7-4.1,4.1s1.7,4.1,4.1,4.1c1.2,0,2.2-0.4,3.1-1.4l1.4,1.3c-1.1,1.3-2.7,1.9-4.6,1.9 C160.1,287.1,157.5,284.6,157.5,281.2z"/>
      <path class="st2" d="M182.2,275.4V287H180v-5h-6v4.9h-2.1v-11.5h2.1v4.8h6v-4.8H182.2z"/>
      <path class="st2" d="M200.7,285.1v1.8h-8.5v-1.4l4.6-4.4c1.1-1.1,1.3-1.7,1.3-2.4c0-1.1-0.7-1.7-2.1-1.7c-1.1,0-2.1,0.4-2.7,1.2 l-1.5-1.2c0.9-1.2,2.5-1.9,4.4-1.9c2.5,0,4.1,1.3,4.1,3.3c0,1.1-0.3,2.1-1.9,3.6l-3.1,2.9h5.4V285.1z"/>
      <path class="st2" d="M203.5,281.2c0-3.8,2.1-5.9,4.8-5.9c2.8,0,4.8,2.1,4.8,5.9s-2.1,5.9-4.8,5.9S203.5,285,203.5,281.2z M211,281.2c0-2.8-1.1-4.1-2.7-4.1c-1.6,0-2.7,1.3-2.7,4.1c0,2.8,1.1,4.1,2.7,4.1C209.9,285.3,211,284,211,281.2z"/>
      <path class="st2" d="M224.6,285.1v1.8H216v-1.4l4.6-4.4c1.1-1.1,1.3-1.7,1.3-2.4c0-1.1-0.7-1.7-2.1-1.7c-1.1,0-2.1,0.4-2.7,1.2 l-1.5-1.2c0.9-1.2,2.5-1.9,4.4-1.9c2.5,0,4.1,1.3,4.1,3.3c0,1.1-0.3,2.1-1.9,3.6l-3.1,2.9h5.5V285.1z"/>
      <path class="st2" d="M 236.3 285.1 L 236.3 286.9 L 227.7 286.9 L 227.7 285.5 L 232.3 281.1 C 233.4 280 233.6 279.4 233.6 278.7 C 233.6 277.6 232.9 277 231.5 277 C 230.4 277 229.4 277.4 228.8 278.2 L 227.3 277 C 228.2 275.8 229.8 275.1 231.7 275.1 C 234.2 275.1 235.8 276.4 235.8 278.4 C 235.8 279.5 235.5 280.5 233.9 282 L 230.8 284.9 L 236.3 284.9 L 236.3 285.1 Z"/>
    </g>
    <g>
      <rect x="45.8" y="281" class="st2" width="51" height="1"/>
    </g>
    <g>
      <rect x="243.3" y="281" class="st2" width="51" height="1"/>
    </g>
  </g>
  <g>
    <path class="st7" d="M198.7,98.8c-0.5-0.6-1.1-1-1.7-1.5l-0.9-0.6l-0.9-0.5c-0.2-0.1-0.3-0.2-0.5-0.2l-0.1-0.1 c-0.1,0-0.2-0.1-0.2-0.1c-0.2,0-0.3-0.1-0.5-0.1c-0.3,0-0.7,0-1.1,0c-0.2,0-0.4,0.1-0.6,0.2c-0.1,0-0.2,0.1-0.3,0.1l-0.1,0.1 c-0.2,0.1-0.3,0.2-0.5,0.3c-0.1-0.1-0.1-0.1-0.2-0.2l-0.3-0.3l-0.2-0.2c-0.1-0.1-0.2-0.2-0.4-0.3c-0.5-0.4-1.1-0.5-1.7-0.5 c-0.2,0-0.2,0-0.3,0l-0.2,0c-0.2,0-0.3,0.1-0.5,0.1c-0.3,0.1-0.6,0.1-0.9,0.2c-0.6,0.2-1.2,0.4-1.8,0.7l0,0.2l3.6,0.2 c0.3,0,0.5,0.1,0.7,0.3c0.2,0.2,0.4,0.4,0.6,0.7l1.1,1.4l0.1,0.1l0.1-0.1c0.6-0.3,1.1-0.7,1.7-1.1c0.3-0.2,0.5-0.3,0.9-0.2 c0.3,0,0.6,0.2,0.9,0.2l3.9,1.2L198.7,98.8z"/>
    <path class="st7" d="M204.2,105c-0.5-0.2-0.9-0.2-1.3-0.3c-0.4-0.1-0.9-0.1-1.3-0.1c-0.2,0-0.4,0-0.8,0c-0.2,0-0.4,0.1-0.5,0.2 c-0.1,0.1-0.2,0.1-0.3,0.2c-0.1,0.1-0.2,0.2-0.2,0.2c-0.1,0.2-0.3,0.3-0.4,0.5c-0.1-0.1-0.3-0.1-0.4-0.2c-0.2-0.1-0.3-0.1-0.7-0.2 c-0.3,0-0.7,0-0.9,0.1c-0.4,0.2-0.7,0.4-1,0.6c-0.3,0.2-0.6,0.5-0.9,0.8l0,0.1l2.2-0.8c0.2-0.1,0.4-0.1,0.5,0 c0.2,0,0.3,0.1,0.5,0.2l1,0.5l0.1,0l0-0.1l0.8-1c0.2-0.4,0.7-0.4,1.1-0.4L204.2,105L204.2,105z"/>
  </g>
  <g>
    <path class="st1" d="M294.3,231.5c0,3.1-2.6,5.7-5.7,5.7H51c-3.1,0-5.7-2.6-5.7-5.7v-9.2c0-3.1,2.6-5.7,5.7-5.7h237.7 c3.1,0,5.7,2.6,5.7,5.7V231.5z"/>
  </g>
</svg>