<?xml version="1.0" encoding="UTF-8"?><svg xmlns="http://www.w3.org/2000/svg" width="512" height="100" viewBox="0 0 512 100"><g id="a"><polygon points="367.12 4.42 346.16 4.42 325.4 29.94 325.4 4.42 308.9 4.42 308.9 72.35 325.4 72.35 325.4 56.34 331.61 48.58 349.75 72.35 370.33 72.35 342.28 35.28 367.12 4.42" fill="#0086ff" stroke-width="0"/><path d="M490.16,8.93c-5.33-3.01-11.18-4.51-17.51-4.51h-28.92v67.93h28.92c6.4,0,12.27-1.47,17.61-4.41,5.34-2.95,9.56-6.97,12.66-12.08,3.11-5.11,4.66-10.84,4.66-17.18s-1.57-12.13-4.71-17.37c-3.14-5.24-7.38-9.37-12.72-12.37ZM488.61,47.7c-1.65,2.78-3.88,4.98-6.69,6.6-2.82,1.62-5.91,2.42-9.27,2.42h-12.42V20.05h12.42c3.36,0,6.45.82,9.27,2.47,2.81,1.65,5.04,3.88,6.69,6.7,1.65,2.82,2.48,5.9,2.48,9.27s-.83,6.44-2.48,9.22Z" fill="#0086ff" stroke-width="0"/><path d="M420.1,46.57c-1.44,2.95-3.59,5.3-6.45,7.06-2.85,1.76-5.97,2.64-9.36,2.64s-6.26-.8-8.99-2.4c-2.73-1.6-4.91-3.76-6.54-6.49-1.63-2.73-2.45-5.72-2.45-8.99s.82-6.26,2.45-8.99c1.63-2.73,3.81-4.91,6.54-6.54,2.73-1.63,5.72-2.45,8.99-2.45s6.38.87,9.17,2.59c2.79,1.73,4.97,3.97,6.54,6.73l14.12-7.53c-2.89-5.39-7-9.7-12.33-12.94-5.33-3.23-11.16-4.85-17.5-4.85s-11.83,1.52-17.03,4.56c-5.21,3.04-9.33,7.17-12.37,12.37-3.04,5.21-4.56,10.88-4.56,17.03s1.52,11.83,4.56,17.03c3.04,5.21,7.17,9.33,12.37,12.37,5.2,3.04,10.88,4.56,17.03,4.56s12.2-1.65,17.6-4.94c5.39-3.29,9.53-7.67,12.42-13.13l-14.21-7.71Z" fill="#0086ff" stroke-width="0"/><path d="M293.73,45.82l-6.02-26.16c-.33-1.37-1.25-2.52-2.52-3.14l-24.38-11.64c-1.28-.61-2.77-.61-4.05,0l-24.37,11.65c-1.27.61-2.19,1.77-2.52,3.14l-6.01,26.16c-.15.66-.15,1.35,0,2.01.04.2.1.4.17.59.12.33.27.65.46.94.08.13.17.25.26.37l8.67,10.78c.02-.14.03-.29.05-.43.15-1.11-.2-2.1-.56-3.09-.63-1.7-1.47-3.31-1.72-5.15-.27-2.09-.21-4.18-.17-6.27.02-1.17-.3-2.23-.65-3.3-.47-1.43-1.09-2.81-1.3-4.32-.11-.75-.13-1.5.1-2.24.15-.47.41-.84.91-.85.51,0,.82.37.94.82.25.93.46,1.86.65,2.8.28,1.34.7,2.65,1.27,3.91.36.82.67.83,1.22.13.26-.36.4-.8.4-1.25.12-2.53.27-5.07.39-7.6.06-.82.23-1.63.51-2.41.19-.58.63-1.08,1.29-.97.69.11.73.77.68,1.32-.19,2.53-.25,5.07-.17,7.61.01.54-.02,1.09.4,1.81.02-3.38,1-6.4,1.41-9.51.04-.41.15-.81.34-1.17.3-.53.8-.79,1.39-.67.61.12.64.68.58,1.16-.21,1.73-.49,3.46-.67,5.19-.18,1.84-.28,3.68-.42,5.69.52-.39.52-.86.63-1.24.47-1.65.95-3.29,1.12-5.01.06-.44.18-.87.35-1.29.22-.61.72-1.02,1.33-.93.65.1.56.77.57,1.27.06,2.21-.41,4.36-.72,6.53-.38,2.58-.42,5.2-.11,7.79.05.31.13.6.24.89.38,1.08.88,1.25,1.87.65.27-.15.52-.33.75-.54,1.51-1.45,3.22-1.24,4.99-.63.4.12.73.39.94.75.47.8.25,1.37-.65,1.29-2.56-.23-4.04,1.28-5.45,3.05-.87,1.1-2.19,1.53-3.44,1.96-1.06.36-1.39.95-1.38,2.04.07,4.02.05,8.03.08,12.05,0,.04,0,.08,0,.12l.21.26c.07.09.15.17.24.26.26.28.56.53.89.74.41.26.86.46,1.33.58.39.11.79.16,1.19.16h.26l10.46-.12c.03-1.98.06-3.97.08-5.95.04-2.97.94-5.8,1.29-8.72.45-3.9.44-7.85-.03-11.75-.15-1.24-.64-2.08-1.93-2.56-1.34-.5-2.01-1.88-2.96-2.88-2.85-2.99-4.94-6.63-7.98-9.47-.32-.3-.45-.68-.25-1.08.26-.56.84-.9,1.46-.85,1.26.06,2.27.66,3.13,1.55.97,1,1.91,2.03,3.02,2.88,1.2.91,1.58.78,2.21-.56,1.14-2.46,1.2-4.96.54-7.55-.69-2.68-1.67-5.31-1.54-8.16.08-1.66.46-2.65,1.31-2.61,1.44.06,1.26,1.38,1.43,2.25.54,2.85,1.05,5.7,2.11,8.42.14.37.16,1.03.74.88.47-.12.24-.68.22-1.05-.24-3.36-.57-6.73.04-10.09.11-.58.15-1.19.57-1.67.36-.42.79-.71,1.35-.54.52.15.74.6.75,1.11.02,1.27.08,2.54,0,3.81-.16,2.44.3,4.83.51,7.23.03.31,0,.84.44.85.36,0,.56-.45.64-.79.6-2.55,1.55-5.01,1.9-7.63.09-.67.17-1.34.5-1.95.28-.53.65-.76,1.25-.66.65.11.99.46,1.02,1.11.03.32.02.63-.03.95-.6,3.2-.88,6.47-1.86,9.59-.04.15-.07.31-.09.47-.05.35-.19.81.15.99.43.22.71-.22.96-.52,1.29-1.56,2.54-3.16,3.39-5.02.14-.33.34-.63.58-.89.37-.38.83-.66,1.39-.41.66.29.43.84.35,1.34-.11.83-.42,1.63-.9,2.32-2.75,3.71-3.65,7.96-3.63,12.46,0,1.35-.32,2.69-.93,3.9-.57,1.18-.6,2.4-.52,3.71.24,4.25,1.11,8.42,1.6,12.64.59,5,.82,10,.43,15.01h3.63c.16,0,.33-.01.49-.03.23-.03.46-.07.69-.13.16-.04.32-.09.48-.15.12-.05.24-.09.36-.15.18-.08.35-.18.51-.28.42-.27.8-.6,1.12-.99l.21-.47c.43-5.18-.09-10.35-.35-15.5-.14-2.75-2.69-5.96-6.1-6.04-.62-.01-1.48.18-1.49-.83,0-.86.56-1.36,1.39-1.49,1.07-.16,2.16-.05,3.18.32,2.1.73,3.29-.31,2.71-2.55-.62-2.4-1.03-4.85-1.22-7.33-.05-.66-.17-1.32.02-1.97.18-.64.48-1.19,1.25-1.15.83.04.76.75.85,1.29.36,2.08.83,4.12,1.87,6.21.47-.81.53-1.55.58-2.23.11-1.58.63-3.08.79-4.64.04-.29.15-.56.3-.8.26-.45.63-.81,1.2-.68.65.14.84.65.8,1.23-.11,1.48-.25,2.96-.38,4.45-.07.86-.12,1.73.03,2.66.58-1.66,1.16-3.33,1.74-4.99.29-.83.37-2.06,1.64-1.68,1.14.34.52,1.42.37,2.15-.4,1.98-.92,3.95-1.38,5.92-.11.47-.33,1.05.25,1.33.53.25.82-.29,1.1-.61,1.16-1.29,2.28-2.63,3.45-3.91.33-.36.7-1.01,1.32-.57.56.4.41,1.03.17,1.59-.46,1.02-1.07,1.97-1.81,2.81-1.1,1.27-1.91,2.67-2.18,4.38-.15,1.11-.47,2.19-.92,3.21-1.34,2.82-1.41,5.7-.96,8.72.03.19.06.38.08.57l8.32-10.35c.31-.39.56-.84.73-1.31.07-.19.13-.39.17-.6.15-.66.15-1.35,0-2.01Z" fill="#0086ff" stroke-width="0"/><path d="M230.16,89.95h4.42v4.13c-.99,1.05-2.55,1.68-4.04,1.68-2.92,0-5.38-2.38-5.38-5.19s2.46-5.18,5.38-5.18c1.49,0,3.05.63,4.04,1.68l-1.56,1.4c-.6-.69-1.56-1.12-2.48-1.12-1.72,0-3.16,1.49-3.16,3.22s1.44,3.24,3.16,3.24c.67,0,1.39-.23,1.94-.64v-1.53h-2.32v-1.68Z" stroke-width="0"/><path d="M242.51,92.15l2.41,3.43h-2.45l-2.29-3.25h-1.3v3.25h-2.16v-10.02h4.51c2.19,0,3.78,1.4,3.78,3.38,0,1.58-.99,2.77-2.49,3.21ZM238.88,90.36h2.13c1.06,0,1.79-.55,1.79-1.41s-.73-1.41-1.79-1.41h-2.13v2.83Z" stroke-width="0"/><path d="M246.38,90.56c0-2.81,2.45-5.18,5.34-5.18s5.31,2.36,5.31,5.18-2.42,5.19-5.31,5.19-5.34-2.38-5.34-5.19ZM254.83,90.56c0-1.74-1.43-3.22-3.11-3.22s-3.12,1.49-3.12,3.22,1.43,3.24,3.12,3.24,3.11-1.49,3.11-3.24Z" stroke-width="0"/><path d="M258.13,85.56h2.33l1.85,6.72,2.22-6.72h2.35l2.22,6.72,1.84-6.72h2.35l-3.03,10.02h-2.17l-2.36-6.88-2.38,6.88h-2.17l-3.03-10.02Z" stroke-width="0"/><path d="M274.97,85.56h2.16v10.02h-2.16v-10.02Z" stroke-width="0"/><path d="M279.67,85.56h2.16l4.83,6.48v-6.48h2.16v10.02h-2.16l-4.83-6.48v6.48h-2.16v-10.02Z" stroke-width="0"/><path d="M295.75,89.95h4.42v4.13c-.99,1.05-2.55,1.68-4.04,1.68-2.92,0-5.38-2.38-5.38-5.19s2.46-5.18,5.38-5.18c1.49,0,3.05.63,4.04,1.68l-1.56,1.4c-.6-.69-1.56-1.12-2.48-1.12-1.72,0-3.16,1.49-3.16,3.22s1.44,3.24,3.16,3.24c.67,0,1.39-.23,1.94-.64v-1.53h-2.32v-1.68Z" stroke-width="0"/><path d="M305.67,90.56c0-2.81,2.45-5.18,5.34-5.18,1.52,0,2.9.64,3.88,1.68l-1.56,1.4c-.57-.67-1.41-1.12-2.32-1.12-1.69,0-3.12,1.49-3.12,3.22s1.43,3.24,3.12,3.24c.92,0,1.75-.45,2.32-1.12l1.56,1.4c-.98,1.02-2.36,1.68-3.88,1.68-2.89,0-5.34-2.38-5.34-5.19Z" stroke-width="0"/><path d="M323.77,93.64v1.94h-7.15v-10.02h2.16v8.08h4.99Z" stroke-width="0"/><path d="M324.9,90.56c0-2.81,2.45-5.18,5.34-5.18s5.31,2.36,5.31,5.18-2.42,5.19-5.31,5.19-5.34-2.38-5.34-5.19ZM333.35,90.56c0-1.74-1.43-3.22-3.11-3.22s-3.12,1.49-3.12,3.22,1.43,3.24,3.12,3.24,3.11-1.49,3.11-3.24Z" stroke-width="0"/><path d="M337.28,91.25v-5.69h2.14v5.6c0,1.55.99,2.64,2.39,2.64s2.38-1.09,2.38-2.64v-5.6h2.16v5.69c0,2.64-1.88,4.51-4.54,4.51s-4.54-1.87-4.54-4.51Z" stroke-width="0"/><path d="M348.67,85.56h3.6c3.37,0,5.76,2.07,5.76,5s-2.39,5.02-5.76,5.02h-3.6v-10.02ZM352.55,93.62c1.91,0,3.27-1.27,3.27-3.06s-1.36-3.05-3.27-3.05h-1.72v6.11h1.72Z" stroke-width="0"/><path d="M363.91,85.56h2.16l4.83,6.48v-6.48h2.16v10.02h-2.16l-4.83-6.48v6.48h-2.16v-10.02Z" stroke-width="0"/><path d="M382.14,93.86h-4.35l-.7,1.72h-2.41l4.08-10.02h2.41l4.08,10.02h-2.42l-.7-1.72ZM381.46,92.18l-1.49-3.66-1.49,3.66h2.98Z" stroke-width="0"/><path d="M389.21,87.5h-3.12v-1.94h8.4v1.94h-3.14v8.08h-2.14v-8.08Z" stroke-width="0"/><path d="M396.21,85.56h2.16v10.02h-2.16v-10.02Z" stroke-width="0"/><path d="M410.58,85.56l-4.08,10.02h-2.41l-4.08-10.02h2.42l2.87,7.06,2.86-7.06h2.42Z" stroke-width="0"/><path d="M414.39,87.5v2h5.05v1.94h-5.05v2.2h5.56v1.94h-7.72v-10.02h7.72v1.94h-5.56Z" stroke-width="0"/><path d="M428.31,87.5h-3.12v-1.94h8.4v1.94h-3.14v8.08h-2.14v-8.08Z" stroke-width="0"/><path d="M434.71,90.56c0-2.81,2.45-5.18,5.34-5.18s5.31,2.36,5.31,5.18-2.42,5.19-5.31,5.19-5.34-2.38-5.34-5.19ZM443.15,90.56c0-1.74-1.43-3.22-3.11-3.22s-3.12,1.49-3.12,3.22,1.43,3.24,3.12,3.24,3.11-1.49,3.11-3.24Z" stroke-width="0"/><path d="M451.71,89.95h4.42v4.13c-.99,1.05-2.55,1.68-4.04,1.68-2.92,0-5.38-2.38-5.38-5.19s2.46-5.18,5.38-5.18c1.49,0,3.05.63,4.04,1.68l-1.56,1.4c-.6-.69-1.56-1.12-2.48-1.12-1.72,0-3.16,1.49-3.16,3.22s1.44,3.24,3.16,3.24c.67,0,1.39-.23,1.94-.64v-1.53h-2.32v-1.68Z" stroke-width="0"/><path d="M460.43,87.5v2h5.05v1.94h-5.05v2.2h5.56v1.94h-7.72v-10.02h7.72v1.94h-5.56Z" stroke-width="0"/><path d="M470.38,87.5h-3.12v-1.94h8.4v1.94h-3.14v8.08h-2.14v-8.08Z" stroke-width="0"/><path d="M486.25,85.56v10.02h-2.14v-4.14h-4.56v4.14h-2.16v-10.02h2.16v3.94h4.56v-3.94h2.14Z" stroke-width="0"/><path d="M490.95,87.5v2h5.05v1.94h-5.05v2.2h5.56v1.94h-7.72v-10.02h7.72v1.94h-5.56Z" stroke-width="0"/><path d="M504.38,92.15l2.41,3.43h-2.45l-2.29-3.25h-1.3v3.25h-2.16v-10.02h4.51c2.19,0,3.78,1.4,3.78,3.38,0,1.58-.99,2.77-2.49,3.21ZM500.75,90.36h2.13c1.06,0,1.79-.55,1.79-1.41s-.73-1.41-1.79-1.41h-2.13v2.83Z" stroke-width="0"/></g><g id="b"><polygon points="9.69 85.26 19.97 76.56 23.58 78.28 26.33 79.66 28.8 79.05 31.2 76.97 32.7 75.5 34.54 76.62 36.55 76.84 38.92 76.51 40.98 75.27 42.07 76.73 44.9 75.53 48.14 73.53 51.86 74.97 54.05 76.15 56.16 77.38 58.98 75.74 61.07 76.18 62.96 75.55 64.96 75.64 66.74 77.43 67.94 76.38 69.78 75.7 72.27 74.99 75.73 76.8 78.25 74.49 81.09 74.56 82.61 85.36 9.69 85.26" fill="#005d95" stroke-width="0"/><path d="M48.19,74.09l3.48,1.35,2.13,1.16,2.35,1.36,2.91-1.69,2.03.43,1.94-.65,1.71.08,1.98,1.98,1.48-1.29,1.75-.65,2.26-.64,3.6,1.88,2.63-2.41,2.21.06,1.38,9.81-70.99-.1,8.99-7.61,3.32,1.58,2.91,1.46,2.77-.68,2.49-2.16,1.25-1.22,1.6.97,2.18.25,2.54-.35,1.75-1.06,1.06,1.41,3.18-1.35,3.1-1.91M48.09,72.97l-.42.26-3.04,1.87-2.39,1.02-.59-.79-.54-.72-.77.47-1.58.95-2.21.31-1.84-.21-1.41-.86-.66-.4-.55.54-1.22,1.2-2.29,1.98-2.18.54-2.58-1.29-3.34-1.59-.58-.28-.49.42-8.99,7.61-2.08,1.76h2.72s70.99.1,70.99.1h1.15s-.16-1.14-.16-1.14l-1.38-9.81-.12-.84-.85-.02-2.21-.06h-.4s-.3.26-.3.26l-2.11,1.94-2.98-1.55-.35-.18-.38.11-2.26.64h-.04s-.04.02-.04.02l-1.75.65-.17.06-.14.12-.78.68-1.32-1.32-.27-.27-.39-.02-1.71-.08h-.19s-.18.05-.18.05l-1.68.56-1.76-.37-.38-.08-.33.19-2.4,1.39-1.85-1.07-2.16-1.17-.06-.03-.06-.02-3.48-1.35-.46-.18h0Z" fill="#fff" stroke-width="0"/><path d="M35.34,34.08l-.04-19.31-9.57,15.98h-2.41l-9.57-15.73v19.06h-5.16V4.94h4.45l11.57,19.31,11.36-19.31h4.45l.04,29.14h-5.12Z" fill="#0086ff" stroke-width="0"/><path d="M56.07,31.1c-2.25-2.26-3.37-5.5-3.37-9.72V4.94h5.41v16.23c0,5.72,2.47,8.58,7.41,8.58s7.37-2.86,7.37-8.58V4.94h5.33v16.44c0,4.22-1.12,7.46-3.35,9.72-2.23,2.26-5.36,3.39-9.39,3.39s-7.16-1.13-9.41-3.39Z" fill="#0086ff" stroke-width="0"/><path d="M116.31,4.94v29.14h-4.45l-16.07-19.73v19.73h-5.37V4.94h4.45l16.07,19.73V4.94h5.37Z" fill="#0086ff" stroke-width="0"/><path d="M128.75,4.94h5.41v29.14h-5.41V4.94Z" fill="#0086ff" stroke-width="0"/><path d="M152.17,32.56c-2.37-1.29-4.23-3.07-5.58-5.35-1.35-2.27-2.02-4.84-2.02-7.7s.68-5.43,2.04-7.7c1.36-2.27,3.23-4.06,5.6-5.35,2.37-1.29,5.03-1.94,7.97-1.94,2.39,0,4.56.42,6.54,1.25,1.97.83,3.64,2.04,5,3.62l-3.5,3.29c-2.11-2.27-4.7-3.41-7.78-3.41-2,0-3.79.44-5.37,1.31-1.58.87-2.82,2.09-3.7,3.64-.89,1.55-1.33,3.32-1.33,5.29s.44,3.73,1.33,5.29c.89,1.55,2.12,2.77,3.7,3.64,1.58.87,3.37,1.31,5.37,1.31,3.08,0,5.67-1.15,7.78-3.46l3.5,3.33c-1.36,1.58-3.03,2.79-5.02,3.62-1.98.83-4.17,1.25-6.56,1.25-2.94,0-5.6-.65-7.97-1.94Z" fill="#0086ff" stroke-width="0"/><path d="M207.42,4.94v29.14h-5.41v-12.49h-15.07v12.49h-5.41V4.94h5.41v12.03h15.07V4.94h5.41Z" fill="#0086ff" stroke-width="0"/><path d="M175.45,49.57h13.79c2.78,0,5.07-2.28,5.07-5.02.05-1.32-.41-2.56-1.32-3.51-.68-.73-1.55-1.23-2.51-1.46-.5-2.97-3.06-5.2-6.12-5.2s-5.52,2.15-6.12,5.07c-1.42.41-2.6,1.42-3.2,2.78-1.87.18-3.29,1.78-3.29,3.7,0,2.01,1.64,3.65,3.7,3.65ZM175.45,43.32c.14,0,.27.05.41.05.37-1.6,1.73-2.83,3.42-2.97.14-2.74,2.33-4.88,5.07-4.88s5.07,2.28,5.07,5.07c2.1.05,3.83,1.78,3.74,3.93,0,2.15-1.73,3.93-3.93,3.93h-13.79c-1.42,0-2.56-1.14-2.56-2.56s1.14-2.56,2.56-2.56Z" fill="#fff" stroke-width="0"/><path d="M175.45,48.43h13.79c2.19,0,3.93-1.78,3.93-3.93.09-2.15-1.64-3.88-3.74-3.93,0-2.78-2.28-5.07-5.07-5.07s-4.93,2.15-5.07,4.88c-1.69.14-3.06,1.37-3.42,2.97-.14,0-.27-.05-.41-.05-1.42,0-2.56,1.14-2.56,2.56s1.14,2.56,2.56,2.56Z" fill="#a1daf8" stroke-width="0"/><path d="M123.9,60.81s.05-.09.08-.13l-.4.07.32.06Z" fill="none" stroke-width="0"/><path d="M117.51,75.69v1.58c.11,0,.21-.02.32-.04l-.32-1.54Z" fill="none" stroke-width="0"/><path d="M101.9,54.36c-.41.91-1.19,1.6-2.19,1.83,0,.14-.05.23-.09.32l8.58,1.51-6.3-3.65Z" fill="none" stroke-width="0"/><path d="M99.84,59.38c0,.73-.27,1.46-.78,2.01.05.32.05.59.05.87l8.72-1.51-7.99-1.42v.05Z" fill="none" stroke-width="0"/><path d="M114.31,52.99v-6.44c-.87-.37-1.51-1.1-1.73-2.01-.18.05-.37.05-.5.09,0,.05,0,.14.05.27,0,.46-.09.87-.27,1.28l2.46,6.8Z" fill="none" stroke-width="0"/><path d="M118.92,44.87v-.32c-.14-.05-.32-.05-.46-.09-.23.82-.73,1.51-1.46,1.92v6.62l2.37-6.53c-.32-.46-.46-1-.46-1.6Z" fill="none" stroke-width="0"/><path d="M118.6,81.11h-.09c.05.18.05.37.05.64,0,.89-.42,1.71-1.05,2.27v.46h1.78l-.68-3.38Z" fill="none" stroke-width="0"/><path d="M109.52,47.88c-.18.05-.32.05-.5.05-.91,0-1.78-.41-2.33-1.05-.14.09-.32.18-.5.32.05.09.09.18.09.27l5.43,6.44-2.19-6.03Z" fill="none" stroke-width="0"/><path d="M131.16,66.55c-.05-.18-.05-.37-.09-.59,0-.37.09-.73.23-1.1l-2.89-.51-.31.32c.14.41.14,1,0,1.42l-.05.14s-.02.04-.03.07l2.59,1.49c.23-.41.41-.82.55-1.23Z" fill="none" stroke-width="0"/><path d="M121.24,72.21l-.13-.78c0-.09-.09-.64.14-1.1,0-.18.05-.32.09-.46-.3-.17-.52-.47-.54-.82l-1.24-1.47,1.68,4.61Z" fill="none" stroke-width="0"/><path d="M128.71,69.9c.07.33.06.65-.02.9.02.04.03.08.04.12.18-.24.35-.47.51-.72l-.52-.3Z" fill="none" stroke-width="0"/><path d="M109.61,55.69l-4.34-5.16c-.55.41-1.23.68-1.96.68-.37,0-.73-.05-1.05-.18-.09.09-.14.18-.23.27l7.58,4.38Z" fill="none" stroke-width="0"/><path d="M94.82,61.66v1.02h.55c-.02-.21-.03-.42-.05-.64-.18-.11-.35-.24-.5-.38Z" fill="none" stroke-width="0"/><path d="M128.97,50.94c-.41.18-.82.27-1.28.27-.64,0-1.28-.18-1.78-.59l-4.2,5.02,7.53-4.34c-.09-.09-.18-.23-.27-.37Z" fill="none" stroke-width="0"/><path d="M123.23,63.54s.06-.06.1-.08l-.35-.06.25.14Z" fill="none" stroke-width="0"/><path d="M132.16,61.71c-.64-.59-1.05-1.42-1.05-2.28l-2.33.41s0,.09,0,.14c.09.23.23.5.27.68l.31,1.11,2.75.48c.05-.18.05-.37.05-.55Z" fill="none" stroke-width="0"/><path d="M130.52,74.9c-.14.14-.27.27-.41.41.46.55.68,1.19.68,1.92,0,.32-.05.62-.14.91v6.3h2.1v-9.27c-.25.06-.51.1-.78.1-.5,0-1-.14-1.46-.37Z" fill="none" stroke-width="0"/><path d="M131.57,56.28c-1.05-.14-1.96-.82-2.42-1.78l-6.12,3.56,2.71-.47c.2-.08.43-.12.66-.12h.02l5.23-.91c-.05-.09-.05-.18-.09-.27Z" fill="none" stroke-width="0"/><path d="M121.75,47.93l-2.19,5.98,5.07-6.03c.05-.32.14-.59.23-.87-.14-.09-.32-.18-.46-.27-.64.78-1.64,1.28-2.65,1.19Z" fill="none" stroke-width="0"/><polygon points="122.21 66.47 122.21 66.46 122.28 66.18 121.66 65.82 122.21 66.47" fill="none" stroke-width="0"/><path d="M119.4,79.28c-.62.13-1.25.22-1.89.28v.5c.67-.07,1.34-.17,1.99-.3l-.1-.49Z" fill="#004158" stroke-width="0"/><path d="M96.78,61.3c-.16,0-.31-.02-.45-.06,0,.48.04.95.08,1.43h.46c-.04-.45-.07-.91-.09-1.37,0,0,0,0,0,0Z" fill="#004158" stroke-width="0"/><path d="M128.75,74.34c0,.11,0,.22-.01.34l.09.05s.08.05.13.08c.5-.47.96-.97,1.41-1.49-.1-.14-.18-.29-.23-.46-.43.52-.89,1.01-1.38,1.48Z" fill="#004158" stroke-width="0"/><path d="M131.82,51.14l.18-.1.17.29c.1.01.19.03.29.06-.83-1.47-1.85-2.82-3.03-4.02.11.24.17.51.18.79.83.92,1.58,1.92,2.22,2.99Z" fill="#004158" stroke-width="0"/><path d="M134.44,62.17s0,0,0,0c.16,0,.31.04.45.11.03-.38.04-.76.05-1.14-.14.06-.3.11-.46.14,0,.3-.02.6-.04.9Z" fill="#004158" stroke-width="0"/><path d="M134.15,57.26l.19-.03.05.26c.09.01.18.03.27.05-.21-1.22-.54-2.4-.97-3.54-.07.17-.17.33-.29.47.32.9.58,1.84.76,2.79Z" fill="#004158" stroke-width="0"/><path d="M103.33,46.24l.25-.21.14.17c1.13-.92,2.36-1.71,3.68-2.36.32-.51.88-.85,1.51-.88h0s.43-.17.43-.17l.07.2s0,0,.01,0c1.67-.58,3.46-.94,5.31-1.03.21-.09.43-.14.67-.15v-.1h.46v.13c.13.02.25.06.37.11,1.93.06,3.78.41,5.52,1.01.04,0,.08,0,.12,0l.06-.17.43.16-.02.05c.44.09.82.32,1.1.65,1.48.68,2.87,1.54,4.11,2.56l.15-.17.28.23c.14.02.28.06.41.11-3.41-3.01-7.88-4.84-12.76-4.84s-9.25,1.79-12.64,4.73c.1-.02.21-.03.31-.03,0,0,.01,0,.02,0Z" fill="#004158" stroke-width="0"/><path d="M99.12,51.31l.16-.27.17.1c.58-.96,1.23-1.87,1.97-2.71-.01-.09-.02-.18-.02-.27,0-.12.01-.25.04-.36-.99,1.07-1.85,2.25-2.58,3.53.07,0,.14-.01.21-.01.02,0,.04,0,.06,0Z" fill="#004158" stroke-width="0"/><path d="M96.91,57.47l.05-.26.17.03c.17-.88.4-1.74.69-2.58-.13-.11-.24-.23-.33-.37-.37,1.02-.66,2.09-.85,3.18.05,0,.11,0,.16,0,.04,0,.08,0,.12,0Z" fill="#004158" stroke-width="0"/><path d="M132.24,70.07l-.13.23c.11.01.21.03.31.06.11-.2.22-.4.33-.6v-1.06c-.2.44-.42.87-.66,1.29l.15.09Z" fill="#004158" stroke-width="0"/><path d="M110.21,57.88c-.26.49-.46,1.01-.59,1.57l.46.08c.12-.5.3-.97.54-1.41l-.41-.24Z" fill="#0080c9" stroke-width="0"/><path d="M121.65,59.46c-.12-.56-.32-1.09-.59-1.58l-.41.24c.24.44.42.92.54,1.43l.46-.08Z" fill="#0080c9" stroke-width="0"/><path d="M109.6,62.06c.04.21.1.42.16.62h.47c-.08-.23-.14-.46-.19-.69l-.44.08Z" fill="#0080c9" stroke-width="0"/><path d="M119.52,65.02l.26.31c.41-.38.78-.82,1.08-1.3l-.35-.2c-.27.44-.6.85-.98,1.2Z" fill="#0080c9" stroke-width="0"/><path d="M111.85,56.58l-.32-.38c-.42.37-.78.8-1.09,1.28l.42.24c.28-.42.61-.81.99-1.14Z" fill="#0080c9" stroke-width="0"/><path d="M114.41,66.84c.33.07.66.1,1,.12v-.41c-.31-.01-.62-.05-.92-.11l-.08.4Z" fill="#0080c9" stroke-width="0"/><path d="M121.3,61.5l.43.08c.04-.26.06-.52.06-.78,0-.3-.02-.6-.06-.89l-.46.08c.04.28.06.56.06.85,0,.22-.01.44-.04.66Z" fill="#0080c9" stroke-width="0"/><path d="M121.08,63.63c.26-.5.46-1.03.58-1.6l-.43-.08c-.1.52-.28,1.01-.51,1.47l.35.2Z" fill="#0080c9" stroke-width="0"/><path d="M115.86,66.55v.41c.34-.01.67-.05.99-.12l-.08-.4c-.29.06-.6.1-.91.11Z" fill="#0080c9" stroke-width="0"/><path d="M117.97,66.49c.53-.22,1.02-.52,1.46-.87l-.26-.31c-.41.32-.86.59-1.34.79l.14.38Z" fill="#0080c9" stroke-width="0"/><path d="M110,59.98l-.46-.08c-.04.3-.07.6-.07.9,0,.27.02.54.05.8l.44-.08c-.03-.22-.04-.45-.04-.68,0-.3.02-.59.07-.87Z" fill="#0080c9" stroke-width="0"/><path d="M113.08,65.94l.29.42.09-.25c-.13-.05-.25-.11-.38-.17Z" fill="#0080c9" stroke-width="0"/><path d="M113.93,55.4c.47-.15.96-.23,1.48-.25v-.5c-.57.02-1.13.12-1.65.29l.17.47Z" fill="#0080c9" stroke-width="0"/><path d="M119.09,56.31l.32-.38c-.44-.34-.93-.63-1.46-.84l-.17.47c.47.19.91.44,1.31.75Z" fill="#0080c9" stroke-width="0"/><path d="M120.41,57.73l.42-.24c-.3-.47-.66-.89-1.07-1.27l-.32.38c.37.33.7.71.97,1.13Z" fill="#0080c9" stroke-width="0"/><path d="M113.33,55.09c-.52.21-1.01.49-1.45.83l.32.38c.4-.3.84-.55,1.3-.74l-.17-.47Z" fill="#0080c9" stroke-width="0"/><path d="M115.86,55.15c.52.02,1.02.11,1.49.26l.17-.47c-.53-.17-1.08-.27-1.66-.29v.5Z" fill="#0080c9" stroke-width="0"/><path d="M122.35,42.99l.02-.05-.43-.16-.06.17s.07,0,.1,0c.13,0,.25.01.37.04Z" fill="#004158" stroke-width="0"/><path d="M117.95,55.09l3.11-8.54c-.14-.08-.27-.17-.38-.28l-3.15,8.66-.17.47-1.13,3.1c.15.04.29.09.43.16l1.13-3.1.17-.47Z" fill="#004158" stroke-width="0"/><polygon points="114.55 63.09 113.45 66.12 113.36 66.36 113.57 66.66 114.55 63.09" fill="#004158" stroke-width="0"/><path d="M127.69,46.24c.1,0,.2.01.3.03l-.28-.23-.15.17-.03.04c.05,0,.1,0,.15,0Z" fill="#004158" stroke-width="0"/><path d="M113.93,62.45l-1.79,2.13.27.39,1.87-2.23c-.13-.09-.24-.19-.35-.3Z" fill="#004158" stroke-width="0"/><path d="M119.09,56.31l-2.12,2.53c.13.09.24.18.35.29l2.12-2.53.32-.38,6.16-7.34c-.07-.17-.12-.36-.14-.55l-6.37,7.59-.32.38Z" fill="#004158" stroke-width="0"/><path d="M113.46,61.75l-2.33,1.35.26.38,2.3-1.33c-.09-.12-.16-.26-.22-.4Z" fill="#004158" stroke-width="0"/><path d="M131.93,51.31c.08,0,.16,0,.24.02l-.17-.29-.18.1-.43.25c.17-.05.35-.08.54-.08Z" fill="#004158" stroke-width="0"/><path d="M120.41,57.73l-2.87,1.66c.09.12.17.25.24.39l2.87-1.66.41-.24,9.04-5.22c.1-.32.28-.6.51-.82l-9.78,5.65-.42.24Z" fill="#004158" stroke-width="0"/><path d="M128.2,58.31c.11.13.21.26.29.41l4.42-.78c.06-.05.12-.1.18-.14-.02-.12-.04-.23-.06-.34l-4.83.85Z" fill="#004158" stroke-width="0"/><path d="M133.52,57.58c.2-.07.42-.12.65-.12.07,0,.15,0,.22.01l-.05-.26-.19.03-.68.12c.01.07.03.14.04.21Z" fill="#004158" stroke-width="0"/><path d="M121.19,59.55l-3.28.58c.04.14.07.29.09.45l3.28-.58.46-.08,3.12-.55c-.02-.15-.03-.31-.02-.46l-3.19.56-.46.08Z" fill="#004158" stroke-width="0"/><path d="M110.04,61.98l3.29-.58c-.04-.15-.06-.3-.07-.45l-3.3.58-.44.08-6.04,1.07h2.63l3.49-.62.44-.08Z" fill="#004158" stroke-width="0"/><path d="M97.12,57.24l-.17-.03-.05.26c.3.02.58.11.82.25.02-.12.04-.24.07-.36l-.67-.12Z" fill="#004158" stroke-width="0"/><path d="M129.27,63.37l3.78.67c.03-.15.05-.3.08-.45l-3.68-.65c-.04.15-.1.3-.18.43Z" fill="#004158" stroke-width="0"/><path d="M113.28,60.55c.02-.15.05-.3.09-.45l-3.28-.58-.46-.08-11.38-2.01c-.03.15-.06.3-.08.45l11.38,2.01.46.08,3.28.58Z" fill="#004158" stroke-width="0"/><path d="M121.3,61.5l-3.3-.58c0,.15-.03.31-.07.45l3.29.58.43.08,1.93.34c.01-.14.04-.3.08-.45l-1.93-.34-.43-.08Z" fill="#004158" stroke-width="0"/><path d="M99.45,51.14l-.17-.1-.16.27c.32,0,.62.1.88.24.01-.02.03-.05.04-.07l-.6-.34Z" fill="#004158" stroke-width="0"/><path d="M131.11,69.42l-2.81-1.62c.03.17.03.35,0,.52l2.59,1.49c.08-.13.15-.26.23-.4Z" fill="#004158" stroke-width="0"/><path d="M131.73,70.3c.07,0,.13-.01.2-.01.06,0,.12,0,.18,0l.13-.23-.15-.09-.6-.34c-.07.13-.15.26-.23.4l.46.26Z" fill="#004158" stroke-width="0"/><path d="M120.73,63.42l-2.91-1.68c-.06.14-.14.27-.22.4l2.91,1.68.35.2,1.73,1,.12-.46-1.62-.94-.35-.2Z" fill="#004158" stroke-width="0"/><path d="M110.62,58.12l2.87,1.66c.07-.14.15-.27.24-.39l-2.87-1.66-.42-.24-10-5.78s-.04.07-.07.11c.19.18.35.39.45.64l9.39,5.42.41.24Z" fill="#004158" stroke-width="0"/><path d="M103.58,46.03l-.25.21c.17,0,.33.03.49.07l-.1-.11-.14-.17Z" fill="#004158" stroke-width="0"/><path d="M119.52,65.02l-2.17-2.58c-.11.11-.22.21-.35.3l2.17,2.58.26.31,1.93,2.31s.05-.04.07-.06l.28-.24-1.94-2.31-.26-.31Z" fill="#004158" stroke-width="0"/><path d="M111.85,56.58l2.12,2.53c.11-.11.23-.2.35-.29l-2.12-2.53-.32-.38-6.66-7.94c0,.06,0,.12,0,.18,0,.16-.02.32-.06.47l6.36,7.58.32.38Z" fill="#004158" stroke-width="0"/><path d="M109.42,42.99l-.07-.2-.43.16h0s.07,0,.1,0c.14,0,.27.01.4.04Z" fill="#004158" stroke-width="0"/><path d="M113.76,54.93l-3.23-8.88c-.1.13-.22.25-.36.35l3.16,8.69.17.47,1.13,3.1c.14-.06.28-.12.43-.15l-1.13-3.1-.17-.47Z" fill="#004158" stroke-width="0"/><path d="M117.83,66.11l-1.16-3.18s0,0,0,0l1.5,5.45,2.57,7.07c.09-.15.21-.28.34-.39l-3.12-8.57-.14-.38Z" fill="#004158" stroke-width="0"/><path d="M115.86,41.85v-.13h-.46v.1s.06,0,.09,0c.12,0,.25.01.37.04Z" fill="#004158" stroke-width="0"/><path d="M115.86,54.64v-9.03c-.12.02-.24.04-.37.04-.03,0-.06,0-.09,0v12.8c.08,0,.15-.01.23-.01s.15,0,.23.01v-3.79Z" fill="#004158" stroke-width="0"/><path d="M115.86,66.55v-3.38c-.08,0-.15.01-.23.01s-.15,0-.23-.01v6.18l.46.67v-3.47Z" fill="#004158" stroke-width="0"/><path d="M119.17,78.16c-.55.11-1.1.2-1.66.26v.46c.59-.06,1.18-.15,1.76-.27l-.09-.45Z" fill="#0080c9" stroke-width="0"/><path d="M123.9,44.87c0,.09,0,.17-.02.26.89.47,1.73,1.01,2.52,1.61.11-.1.24-.2.38-.27-.9-.7-1.87-1.32-2.89-1.85.01.08.02.16.02.25Z" fill="#0080c9" stroke-width="0"/><path d="M120.78,43.38c-1.18-.35-2.4-.58-3.67-.69.09.15.17.31.22.48,1.06.1,2.1.3,3.09.58.1-.14.22-.26.35-.37Z" fill="#0080c9" stroke-width="0"/><path d="M97.47,61.17c.01.5.04,1.01.09,1.5h.46c-.06-.58-.09-1.16-.1-1.75-.14.1-.29.19-.45.25Z" fill="#0080c9" stroke-width="0"/><path d="M133.34,61.11c-.01.84-.09,1.67-.22,2.48-.02.15-.05.3-.08.45-.03.16-.06.32-.1.48.12-.1.25-.18.39-.24l.19-1.33c.03-.16.1-.31.19-.42.04-.41.07-.83.08-1.26-.16-.03-.31-.08-.45-.15Z" fill="#0080c9" stroke-width="0"/><path d="M107.1,44.87s0-.07,0-.11c-.97.52-1.88,1.12-2.74,1.79.13.09.25.19.35.3.76-.6,1.57-1.13,2.42-1.6-.03-.13-.04-.26-.04-.39Z" fill="#0080c9" stroke-width="0"/><path d="M113.87,42.72c-1.23.12-2.43.36-3.58.72.13.11.24.24.33.38.98-.29,2-.5,3.04-.61.05-.17.12-.33.21-.48Z" fill="#0080c9" stroke-width="0"/><path d="M98.86,55.13c-.16-.02-.3-.05-.45-.11-.25.76-.46,1.54-.61,2.34-.02.12-.04.24-.07.36.15.09.29.19.41.31,0-.05.02-.09.02-.14.02-.15.05-.3.08-.45.15-.79.36-1.56.61-2.31Z" fill="#0080c9" stroke-width="0"/><path d="M101.98,49.53c-.11-.11-.21-.23-.29-.36-.61.72-1.16,1.5-1.64,2.31-.01.02-.03.05-.04.07.13.08.26.17.37.27.02-.04.04-.07.07-.11.46-.77.97-1.49,1.54-2.18Z" fill="#0080c9" stroke-width="0"/><path d="M131.2,51.45c-.53-.87-1.12-1.7-1.79-2.46-.07.14-.15.27-.25.39.61.72,1.16,1.48,1.65,2.29.12-.09.25-.16.39-.22Z" fill="#0080c9" stroke-width="0"/><path d="M133.09,57.8c.13-.09.27-.16.42-.22-.01-.07-.03-.14-.04-.21-.16-.84-.38-1.66-.66-2.46-.13.07-.27.12-.42.16.26.77.47,1.56.63,2.37.02.11.04.23.06.34Z" fill="#0080c9" stroke-width="0"/><path d="M130.88,69.81c-.66,1.11-1.43,2.14-2.31,3.08l-.06.51s.02.11.04.17c.54-.54,1.04-1.12,1.51-1.72.1-.54.44-1,.9-1.28.11-.17.22-.35.32-.53.08-.13.15-.26.23-.4.44-.79.83-1.62,1.15-2.47-.12-.16-.22-.34-.29-.54-.34.97-.76,1.9-1.25,2.78-.07.13-.15.26-.23.4Z" fill="#0080c9" stroke-width="0"/><path d="M120.06,80.52c0-.14.02-.28.05-.41v-2.14c0-.43.13-.85.37-1.19l-2.31-8.38-1.5-5.45c-.18.09-.37.15-.58.19l.68,3.31.08.4,2.32,11.32.09.45.14.67.1.49.61,2.97v-1.8c-.03-.13-.05-.27-.05-.41Z" fill="#0080c9" stroke-width="0"/><path d="M114.49,66.44l.68-3.31c-.2-.04-.4-.11-.58-.19l-.04.16-.99,3.57.67.98.17-.8.08-.4Z" fill="#0080c9" stroke-width="0"/><path d="M120.43,43.75c-.23.32-.36.7-.36,1.12,0,.55.24,1.05.61,1.4.12.11.24.2.38.28.27.15.59.24.92.24.97,0,1.77-.72,1.9-1.66.01-.08.02-.17.02-.26s0-.17-.02-.25c-.05-.37-.2-.71-.43-.98-.28-.33-.66-.57-1.1-.65-.12-.02-.25-.04-.37-.04-.03,0-.07,0-.1,0-.04,0-.08,0-.12,0-.37.04-.71.19-.98.41-.13.11-.25.23-.35.37ZM120.47,44.82c0-.73.55-1.37,1.28-1.46v1.46h-1.28ZM123.49,44.87h-1.28v-1.46c.73.09,1.28.73,1.28,1.46Z" fill="#005d95" stroke-width="0"/><path d="M127.69,46.24c-.05,0-.1,0-.15,0-.27.02-.53.1-.76.22-.14.07-.26.17-.38.27-.38.35-.63.85-.63,1.41,0,.06,0,.12,0,.18.02.19.06.38.14.55.29.7.97,1.19,1.77,1.19.59,0,1.12-.27,1.48-.69.1-.12.18-.25.25-.39.12-.25.19-.53.19-.83,0,0,0,0,0-.01,0-.28-.07-.55-.18-.79-.2-.44-.57-.8-1.03-.98-.13-.05-.27-.09-.41-.11-.1-.02-.2-.03-.3-.03ZM126.18,48.16c0-.73.55-1.37,1.28-1.46v1.46h-1.28ZM129.19,48.16h-1.28v-1.46c.73.09,1.28.73,1.28,1.46Z" fill="#005d95" stroke-width="0"/><path d="M131.93,51.31c-.19,0-.37.03-.54.08-.07.02-.13.04-.19.07-.14.06-.27.13-.39.22-.07.05-.13.1-.2.16-.24.22-.41.51-.51.82-.06.18-.08.37-.08.56,0,1.06.86,1.92,1.92,1.92.16,0,.32-.02.47-.06.15-.04.29-.09.42-.16.22-.12.41-.27.57-.46.12-.14.22-.3.29-.47.1-.24.16-.5.16-.77,0-.88-.59-1.62-1.39-1.84-.09-.03-.19-.05-.29-.06-.08,0-.16-.02-.24-.02ZM131.7,53.18h-1.28c0-.73.55-1.37,1.28-1.46v1.46ZM133.44,53.22h-1.28v-1.46c.73.09,1.28.73,1.28,1.46Z" fill="#005d95" stroke-width="0"/><path d="M134.17,57.47c-.23,0-.45.04-.65.12-.15.05-.29.13-.42.22-.06.04-.12.09-.18.14-.4.35-.66.87-.66,1.45,0,.76.45,1.42,1.09,1.73.14.07.29.12.45.15.12.02.24.04.37.04.11,0,.21-.01.31-.03.16-.03.31-.07.46-.14.67-.3,1.14-.97,1.14-1.75,0-.89-.61-1.63-1.43-1.85-.09-.02-.18-.04-.27-.05-.07,0-.15-.01-.22-.01ZM133.99,59.38h-1.28c0-.73.55-1.37,1.28-1.46v1.46ZM135.68,59.38h-1.28v-1.46c.73.09,1.28.73,1.28,1.46Z" fill="#005d95" stroke-width="0"/><path d="M132.25,66c0,.22.04.43.11.63.07.2.17.38.29.54.07.09.15.18.23.25l.2-1.42h-.38c0-.45.21-.87.55-1.14l.08-.58c-.14.07-.27.15-.39.24-.43.35-.7.88-.7,1.48Z" fill="#005d95" stroke-width="0"/><path d="M136.09,66c0-.48-.18-.91-.46-1.25l.3,2.03c.11-.24.17-.5.17-.78Z" fill="#005d95" stroke-width="0"/><path d="M132.11,70.3c-.06,0-.12,0-.18,0-.07,0-.13,0-.2.01-.28.03-.55.12-.78.26-.46.28-.79.74-.9,1.28-.02.12-.04.24-.04.37,0,.23.04.44.11.64.06.16.14.32.23.46.35.49.92.82,1.57.82.29,0,.57-.07.82-.19v-.32c-.05-.14-.05-.27-.05-.41l.05-.23v-.78h-.59v-1.46c.22.03.42.1.59.22v-.49c-.1-.05-.21-.09-.33-.12-.1-.03-.21-.05-.31-.06ZM131.7,72.17h-1.28c0-.73.55-1.37,1.28-1.46v1.46Z" fill="#005d95" stroke-width="0"/><path d="M120.11,80.93v-.82c-.03.13-.05.27-.05.41s.02.28.05.41Z" fill="#005d95" stroke-width="0"/><path d="M96.79,61.3c.24,0,.47-.05.68-.13.16-.06.32-.15.45-.25.47-.35.77-.91.77-1.54,0-.53-.21-1.01-.56-1.35-.12-.12-.26-.23-.41-.31-.25-.14-.53-.23-.82-.25-.04,0-.08,0-.12,0-.05,0-.11,0-.16,0-.98.08-1.76.9-1.76,1.91,0,.9.63,1.66,1.47,1.86.14.04.3.06.45.06,0,0,0,0,0,0ZM98.29,59.38h-1.28v-1.46c.73.09,1.28.73,1.28,1.46ZM96.56,59.38h-1.28c0-.73.55-1.37,1.28-1.46v1.46Z" fill="#005d95" stroke-width="0"/><path d="M97.81,54.67c.18.15.38.27.6.36.14.05.29.09.45.11.07,0,.14.01.21.01,1.06,0,1.92-.86,1.92-1.92,0-.27-.06-.53-.16-.76-.11-.24-.26-.46-.45-.64-.11-.1-.24-.2-.37-.27-.26-.15-.56-.23-.88-.24-.02,0-.04,0-.06,0-.07,0-.14,0-.21.01-.96.11-1.7.92-1.7,1.9,0,.4.12.76.33,1.07.09.14.21.26.33.37ZM99.3,53.22v-1.46c.73.09,1.28.73,1.28,1.46h-1.28ZM97.56,53.18c0-.73.55-1.37,1.28-1.46v1.46h-1.28Z" fill="#005d95" stroke-width="0"/><path d="M101.42,48.43c.04.27.13.52.27.74.08.13.18.25.29.36.35.33.81.54,1.33.54.9,0,1.65-.62,1.86-1.45.04-.15.06-.31.06-.47,0-.06,0-.12,0-.18-.04-.43-.22-.82-.5-1.12-.1-.11-.22-.22-.35-.3-.17-.11-.35-.19-.55-.25-.16-.04-.32-.07-.49-.07,0,0-.01,0-.02,0-.11,0-.21.01-.31.03-.79.13-1.42.74-1.57,1.53-.02.12-.04.24-.04.36,0,.09,0,.18.02.27ZM103.49,48.16v-1.46c.73.09,1.28.73,1.28,1.46h-1.28ZM103.08,48.16h-1.28c0-.73.55-1.37,1.28-1.46v1.46Z" fill="#005d95" stroke-width="0"/><path d="M107.1,44.87c0,.13.01.27.04.39.18.87.95,1.52,1.88,1.52.43,0,.83-.15,1.15-.39.13-.1.25-.22.36-.35.25-.33.41-.73.41-1.18,0-.39-.12-.75-.32-1.06-.09-.14-.2-.27-.33-.38-.24-.21-.54-.37-.86-.44,0,0,0,0-.01,0-.13-.03-.26-.04-.4-.04-.03,0-.07,0-.1,0-.64.03-1.19.38-1.51.88-.17.27-.28.59-.3.93,0,.04,0,.07,0,.11ZM107.51,44.82c0-.73.55-1.37,1.28-1.46v1.46h-1.28ZM110.48,44.87h-1.28v-1.46c.73.09,1.28.73,1.28,1.46Z" fill="#005d95" stroke-width="0"/><path d="M113.87,42.72c-.09.15-.16.31-.21.48-.05.17-.08.34-.08.53,0,1.03.81,1.86,1.83,1.91.03,0,.06,0,.09,0,.12,0,.25-.01.37-.04.88-.17,1.55-.95,1.55-1.88,0-.19-.03-.38-.08-.56-.05-.17-.13-.33-.22-.48-.21-.33-.51-.58-.87-.73-.12-.05-.24-.09-.37-.11-.12-.02-.24-.04-.37-.04-.03,0-.06,0-.09,0-.24.01-.46.06-.67.15-.36.16-.66.42-.86.75ZM117.01,43.73h-1.28v-1.46c.73.09,1.28.73,1.28,1.46ZM115.27,42.22v1.46h-1.28c0-.73.55-1.37,1.28-1.46Z" fill="#005d95" stroke-width="0"/><path d="M122.21,43.41v1.46h1.28c0-.73-.55-1.37-1.28-1.46Z" fill="#0bbbef" stroke-width="0"/><path d="M121.75,43.36c-.73.09-1.28.73-1.28,1.46h1.28v-1.46Z" fill="#0bbbef" stroke-width="0"/><path d="M127.92,46.7v1.46h1.28c0-.73-.55-1.37-1.28-1.46Z" fill="#0bbbef" stroke-width="0"/><path d="M127.46,46.7c-.73.09-1.28.73-1.28,1.46h1.28v-1.46Z" fill="#0bbbef" stroke-width="0"/><path d="M132.16,51.76v1.46h1.28c0-.73-.55-1.37-1.28-1.46Z" fill="#0bbbef" stroke-width="0"/><path d="M131.7,51.72c-.73.09-1.28.73-1.28,1.46h1.28v-1.46Z" fill="#0bbbef" stroke-width="0"/><path d="M134.4,59.38h1.28c0-.73-.55-1.37-1.28-1.46v1.46Z" fill="#0bbbef" stroke-width="0"/><path d="M132.71,59.38h1.28v-1.46c-.73.09-1.28.73-1.28,1.46Z" fill="#0bbbef" stroke-width="0"/><path d="M132.71,66h.38l.16-1.14c-.33.27-.55.69-.55,1.14Z" fill="#0bbbef" stroke-width="0"/><path d="M132.16,70.75v1.46h.59v-1.24c-.18-.11-.38-.19-.59-.22Z" fill="#0bbbef" stroke-width="0"/><path d="M130.43,72.17h1.28v-1.46c-.73.09-1.28.73-1.28,1.46Z" fill="#0bbbef" stroke-width="0"/><path d="M97.01,57.92v1.46h1.28c0-.73-.55-1.37-1.28-1.46Z" fill="#0bbbef" stroke-width="0"/><path d="M95.28,59.38h1.28v-1.46c-.73.09-1.28.73-1.28,1.46Z" fill="#0bbbef" stroke-width="0"/><path d="M99.3,51.76v1.46h1.28c0-.73-.55-1.37-1.28-1.46Z" fill="#0bbbef" stroke-width="0"/><path d="M98.84,53.18v-1.46c-.73.09-1.28.73-1.28,1.46h1.28Z" fill="#0bbbef" stroke-width="0"/><path d="M103.49,46.7v1.46h1.28c0-.73-.55-1.37-1.28-1.46Z" fill="#0bbbef" stroke-width="0"/><path d="M101.81,48.16h1.28v-1.46c-.73.09-1.28.73-1.28,1.46Z" fill="#0bbbef" stroke-width="0"/><path d="M109.2,43.41v1.46h1.28c0-.73-.55-1.37-1.28-1.46Z" fill="#0bbbef" stroke-width="0"/><path d="M108.79,43.36c-.73.09-1.28.73-1.28,1.46h1.28v-1.46Z" fill="#0bbbef" stroke-width="0"/><path d="M115.73,42.27v1.46h1.28c0-.73-.55-1.37-1.28-1.46Z" fill="#0bbbef" stroke-width="0"/><path d="M113.99,43.68h1.28v-1.46c-.73.09-1.28.73-1.28,1.46Z" fill="#0bbbef" stroke-width="0"/><path d="M116.67,62.94s0,0,0,0c.12-.06.23-.12.33-.2.12-.09.24-.19.35-.3.09-.09.17-.19.24-.3.09-.13.16-.26.22-.4.05-.12.09-.24.12-.37.04-.15.06-.3.07-.45,0-.04,0-.08,0-.12,0-.08,0-.15-.01-.23-.01-.15-.04-.3-.09-.45-.04-.12-.08-.24-.13-.35-.07-.14-.15-.27-.24-.39-.07-.09-.14-.18-.22-.26-.11-.11-.22-.21-.35-.29-.1-.07-.2-.13-.31-.18-.14-.06-.28-.12-.43-.16-.12-.03-.24-.05-.36-.06-.08,0-.15-.01-.23-.01s-.15,0-.23.01c-.12.01-.24.03-.35.06-.15.04-.29.09-.43.15-.11.05-.21.11-.31.17-.13.08-.25.18-.35.29-.09.08-.16.18-.24.27-.09.12-.17.25-.24.39-.05.11-.09.22-.13.33-.04.14-.07.29-.09.45,0,.08-.01.16-.01.25,0,.05,0,.1,0,.14,0,.15.03.31.07.45.03.12.07.24.12.35.06.14.14.27.22.4.08.11.16.21.25.31.11.11.22.21.35.3.1.07.21.13.32.19.18.09.37.15.58.19.08.02.15.03.23.03.08,0,.15.01.23.01s.15,0,.23-.01c.08,0,.15-.02.23-.03.2-.04.4-.11.58-.19Z" fill="#0080c9" stroke-width="0"/><polygon points="159.38 12.57 158.99 12.57 158.98 12.94 159.39 12.94 159.38 12.57" fill="#004158" stroke-width="0"/><polygon points="158.77 25.95 159.46 25.95 159.46 25.17 159.71 25.17 159.65 22.84 158.71 22.84 158.65 25.17 158.77 25.17 158.77 25.95" fill="#004158" stroke-width="0"/><polygon points="159.79 27.91 158.58 27.91 158.54 29.33 159.83 29.33 159.79 27.91" fill="#004158" stroke-width="0"/><polygon points="159.18 5.27 159 12.03 159.36 12.03 159.18 5.27" fill="#004158" stroke-width="0"/><polygon points="159.95 34.12 158.41 34.12 158.37 35.58 159.99 35.58 159.95 34.12" fill="#004158" stroke-width="0"/><polygon points="159.4 13.49 158.96 13.49 158.74 21.84 159.63 21.84 159.4 13.49" fill="#004158" stroke-width="0"/><polygon points="158.21 41.83 157.61 67.6 160.75 67.6 160.16 41.83 158.21 41.83" fill="#004158" stroke-width="0"/><path d="M161.37,38.18v-1.32s0-.09,0-.14h-4.32s0,.09,0,.14v1.32h4.34Z" fill="#005d95" stroke-width="0"/><path d="M160.43,35.63c-.11-.03-.22-.05-.33-.05h-1.78c-.12,0-.23.02-.34.05h2.45Z" fill="#005d95" stroke-width="0"/><path d="M161.35,40.74c.01-.07.02-.15.02-.23v-1.23h-4.34v1.23c0,.08,0,.15.02.23h4.29Z" fill="#005d95" stroke-width="0"/><path d="M161.69,34.12c.73,0,1.28-.59,1.28-1.28v-2.24c0-.73-.59-1.28-1.28-1.28h-4.93c-.73,0-1.28.59-1.28,1.28v2.24c0,.73.59,1.28,1.28,1.28h4.93Z" fill="#005d95" stroke-width="0"/><path d="M161.42,27.91c.37,0,.64-.27.64-.64l.14-.68v-1.42h-.46v.82s-.14-.05-.23-.05h-.46v-.78h-.46v.78h-.68v-.78h-.46v.78h-.68v-.78h-.46v.78h-.68v-.78h-.46v.78h-.46c-.09,0-.14,0-.23.05v-.82h-.46v2.1c0,.37.27.64.64.64h4.75Z" fill="#0080c9" stroke-width="0"/><path d="M161.37,36.72h.33c.68,0,1.28-.27,1.28-.55,0-.32-.59-.55-1.28-.55h-4.93c-.73,0-1.28.27-1.28.55,0,.32.59.55,1.28.55h4.6Z" fill="#0bbbef" stroke-width="0"/><path d="M161.37,39.28h.32c.68,0,1.28-.27,1.28-.55,0-.32-.59-.55-1.28-.55h-4.93c-.73,0-1.28.27-1.28.55,0,.32.59.55,1.28.55h4.61Z" fill="#0bbbef" stroke-width="0"/><path d="M161.69,41.83c.68,0,1.28-.23,1.28-.55s-.59-.55-1.28-.55h-4.93c-.73,0-1.28.27-1.28.55s.59.55,1.28.55h4.93Z" fill="#0bbbef" stroke-width="0"/><path d="M160.05,22.84c.37,0,.64-.23.64-.5s-.27-.5-.64-.5h-1.73c-.37,0-.64.23-.64.5s.27.5.64.5h1.73Z" fill="#0bbbef" stroke-width="0"/><path d="M159.46,13.49c.37.05.64-.09.64-.27s-.27-.27-.64-.27h-.5c-.37,0-.64.14-.64.27s.27.27.64.27h.5Z" fill="#0080c9" stroke-width="0"/><path d="M159.46,12.57c.37.05.64-.09.64-.27s-.27-.27-.64-.27h-.5c-.37,0-.64.14-.64.27,0,.18.27.27.64.27h.5Z" fill="#0080c9" stroke-width="0"/><polygon points="172.01 68.56 172.01 68.56 170.96 68.56 170.96 70.02 172.01 68.56" fill="#005d95" stroke-width="0"/><polygon points="180.04 73.4 180.27 73.4 180.27 73.03 180.64 73.03 180.64 73.4 180.86 73.4 180.86 73.03 181.23 73.03 181.23 73.4 181.46 73.4 181.46 73.03 181.82 73.03 181.82 72.12 181.87 72.12 182.01 70.57 182.14 72.12 182.19 72.12 182.19 73.03 182.65 73.03 182.65 73.4 182.87 73.4 182.87 73.03 183.24 73.03 183.24 73.4 183.47 73.4 183.47 73.03 183.83 73.03 183.83 73.4 184.06 73.4 184.06 73.03 184.43 73.03 184.43 72.12 184.47 72.12 184.61 70.57 184.74 72.12 184.79 72.12 184.79 73.03 185.16 73.03 185.16 73.4 185.38 73.4 185.38 73.03 185.84 73.03 185.84 73.4 186.07 73.4 186.07 73.03 186.43 73.03 186.43 73.4 186.66 73.4 186.66 73.03 187.03 73.03 187.03 72.12 187.07 72.12 187.2 70.64 186.89 68.56 179.6 68.56 180.04 71.62 180.04 73.4" fill="#005d95" stroke-width="0"/><polygon points="135.26 73.4 135.45 73.4 135.45 73.03 135.81 73.03 135.81 73.4 136.04 73.4 136.04 73.03 136.41 73.03 136.41 73.4 136.63 73.4 136.63 73.03 137 73.03 137 73.4 137.27 73.4 137.27 73.03 137.64 73.03 137.64 72.12 137.68 72.12 137.82 70.57 137.96 72.12 138 72.12 138 73.03 138.37 73.03 138.37 73.4 138.64 73.4 138.64 73.03 139.01 73.03 139.01 73.4 139.24 73.4 139.24 73.03 139.6 73.03 139.6 73.4 139.83 73.4 139.83 73.03 140.19 73.03 140.19 72.12 140.51 72.12 140.65 70.57 140.79 72.12 140.83 72.12 140.83 73.03 141.2 73.03 141.2 73.4 141.43 73.4 141.43 73.03 141.79 73.03 141.79 73.4 142.02 73.4 142.02 73.03 142.39 73.03 142.39 73.4 142.61 73.4 142.61 73.03 142.98 73.03 142.98 72.12 143.02 72.12 143.16 70.57 143.3 72.12 143.34 72.12 143.34 73.03 143.71 73.03 143.71 73.4 143.94 73.4 143.94 73.03 144.3 73.03 144.3 73.4 144.53 73.4 144.53 73.03 144.9 73.03 144.9 73.4 145.12 73.4 145.12 73.03 145.4 73.03 145.4 68.56 135.26 68.56 135.26 73.4" fill="#005d95" stroke-width="0"/><polygon points="187.39 72.12 187.39 73.03 187.57 73.03 187.23 70.83 187.35 72.12 187.39 72.12" fill="#005d95" stroke-width="0"/><polygon points="152.29 73.03 152.29 73.4 152.52 73.4 152.52 73.03 152.98 73.03 152.98 73.4 153.2 73.4 153.2 73.03 153.57 73.03 153.57 73.4 153.8 73.4 153.8 73.03 154.16 73.03 154.16 72.12 154.21 72.12 154.34 70.57 154.48 72.12 154.53 72.12 154.53 73.03 154.89 73.03 154.89 73.4 155.12 73.4 155.12 73.03 155.49 73.03 155.49 73.4 155.71 73.4 155.71 73.03 156.17 73.03 156.17 73.4 156.4 73.4 156.4 73.03 156.76 73.03 156.76 72.12 156.81 72.12 156.95 70.57 157.08 72.12 157.27 72.12 157.27 73.03 157.63 73.03 157.63 73.4 157.86 73.4 157.86 73.03 158.22 73.03 158.22 73.4 158.45 73.4 158.45 73.03 158.82 73.03 158.82 73.4 159.05 73.4 159.05 73.03 159.41 73.03 159.41 72.12 159.46 72.12 159.59 70.57 159.73 72.12 159.78 72.12 159.78 73.03 160.14 73.03 160.14 73.4 160.37 73.4 160.37 73.03 160.73 73.03 160.73 73.4 161.05 73.4 161.05 73.03 161.42 73.03 161.42 73.4 161.65 73.4 161.65 73.03 162.01 73.03 162.01 72.12 162.06 72.12 162.2 70.57 162.33 72.12 162.38 72.12 162.38 73.03 162.74 73.03 162.74 73.4 162.97 73.4 162.97 73.03 163.34 73.03 163.34 73.4 163.57 73.4 163.57 73.03 163.93 73.03 163.93 73.4 164.3 73.4 164.3 73.03 164.66 73.03 164.66 72.12 164.71 72.12 164.84 70.57 164.98 72.12 165.03 72.12 165.03 73.03 165.39 73.03 165.39 73.4 165.62 73.4 165.62 73.03 165.98 73.03 165.98 73.4 166.21 73.4 166.21 73.03 166.58 73.03 166.58 73.4 166.81 73.4 166.81 73.03 166.85 73.03 166.85 71.62 167.29 68.56 152.06 68.56 152.06 73.03 152.29 73.03" fill="#005d95" stroke-width="0"/><polygon points="177.17 71.75 177.17 69.84 177.49 69.84 177.49 72.07 178.45 73.4 178.49 73.4 178.49 71.62 178.93 68.56 176.12 68.56 176.12 70.29 177.17 71.75" fill="#005d95" stroke-width="0"/><polygon points="168.4 73.4 168.45 73.4 169.41 72.07 169.41 69.84 169.68 69.84 169.68 71.75 170.73 70.29 170.73 68.56 167.96 68.56 168.4 71.62 168.4 73.4" fill="#005d95" stroke-width="0"/><polygon points="175.89 70.02 175.89 68.56 174.84 68.56 174.84 68.56 175.89 70.02" fill="#005d95" stroke-width="0"/><polygon points="133.67 73.4 133.71 73.4 133.71 73.1 133.67 73.4" fill="#005d95" stroke-width="0"/><path d="M172.98,81.2h1.08v-.82c.05-.46-.32-.82-.78-.82-.3,0-.56.16-.7.39.01.04.03.08.04.13.12.36.24.74.35,1.12Z" fill="#0bbbef" stroke-width="0"/><path d="M174.07,77.82c-.01-.41-.36-.72-.78-.72-.46,0-.82.37-.82.82v.82h1.5c0-.06,0-.13,0-.19,0-.26.04-.51.1-.73Z" fill="#0bbbef" stroke-width="0"/><path d="M175.84,74.63c-.46,0-.82.37-.82.82v.82h1.6v-.82c.05-.46-.32-.82-.78-.82Z" fill="#0bbbef" stroke-width="0"/><path d="M173.29,74.63c-.46,0-.82.37-.82.82v.82h1.6v-.82c.05-.46-.32-.82-.78-.82Z" fill="#0bbbef" stroke-width="0"/><rect x="143.39" y="79.56" width="1.23" height="1.6" fill="#0080c9" stroke-width="0"/><rect x="140.92" y="79.56" width="1.23" height="1.6" fill="#0080c9" stroke-width="0"/><rect x="138.46" y="79.56" width="1.23" height="1.6" fill="#0080c9" stroke-width="0"/><rect x="135.99" y="79.56" width="1.23" height="1.6" fill="#0080c9" stroke-width="0"/><rect x="143.39" y="77.1" width="1.23" height="1.6" fill="#0080c9" stroke-width="0"/><rect x="140.92" y="77.1" width="1.23" height="1.6" fill="#0080c9" stroke-width="0"/><rect x="138.46" y="77.1" width="1.23" height="1.6" fill="#0080c9" stroke-width="0"/><rect x="135.99" y="77.1" width="1.23" height="1.6" fill="#0080c9" stroke-width="0"/><rect x="143.39" y="74.63" width="1.23" height="1.6" fill="#0080c9" stroke-width="0"/><rect x="140.92" y="74.63" width="1.23" height="1.6" fill="#0080c9" stroke-width="0"/><rect x="138.46" y="74.63" width="1.23" height="1.6" fill="#0080c9" stroke-width="0"/><rect x="135.99" y="74.63" width="1.23" height="1.6" fill="#0080c9" stroke-width="0"/><rect x="157.22" y="79.56" width="1.23" height="1.6" fill="#0080c9" stroke-width="0"/><rect x="154.76" y="79.56" width="1.23" height="1.6" fill="#0080c9" stroke-width="0"/><rect x="152.29" y="79.56" width="1.23" height="1.6" fill="#0080c9" stroke-width="0"/><rect x="157.22" y="77.1" width="1.23" height="1.6" fill="#0080c9" stroke-width="0"/><rect x="154.76" y="77.1" width="1.23" height="1.6" fill="#0080c9" stroke-width="0"/><rect x="152.29" y="77.1" width="1.23" height="1.6" fill="#0080c9" stroke-width="0"/><rect x="157.22" y="74.63" width="1.23" height="1.6" fill="#0080c9" stroke-width="0"/><rect x="154.76" y="74.63" width="1.23" height="1.6" fill="#0080c9" stroke-width="0"/><rect x="152.29" y="74.63" width="1.23" height="1.6" fill="#0080c9" stroke-width="0"/><rect x="165.25" y="79.56" width="1.23" height="1.6" fill="#0080c9" stroke-width="0"/><rect x="162.83" y="79.56" width="1.23" height="1.6" fill="#0080c9" stroke-width="0"/><rect x="160.37" y="79.56" width="1.23" height="1.6" fill="#0080c9" stroke-width="0"/><rect x="165.25" y="77.1" width="1.23" height="1.6" fill="#0080c9" stroke-width="0"/><rect x="162.83" y="77.1" width="1.23" height="1.6" fill="#0080c9" stroke-width="0"/><rect x="160.37" y="77.1" width="1.23" height="1.6" fill="#0080c9" stroke-width="0"/><rect x="184.88" y="79.56" width="1.23" height="1.6" fill="#0080c9" stroke-width="0"/><rect x="182.42" y="79.56" width="1.23" height="1.6" fill="#0080c9" stroke-width="0"/><rect x="184.88" y="77.1" width="1.23" height="1.6" fill="#0080c9" stroke-width="0"/><rect x="182.42" y="77.1" width="1.23" height="1.6" fill="#0080c9" stroke-width="0"/><rect x="179.95" y="77.1" width="1.23" height="1.6" fill="#0080c9" stroke-width="0"/><path d="M145.12,83.39c0-.37-.18-.68-.46-.87l-.5-.32-.5.32c-.27.18-.46.5-.46.87v1.96h1.96l-.04-1.96Z" fill="#0bbbef" stroke-width="0"/><path d="M142.57,83.39c0-.37-.18-.68-.46-.87l-.5-.32-.5.32c-.27.18-.46.5-.46.87v1.96h1.96l-.04-1.96Z" fill="#0bbbef" stroke-width="0"/><path d="M140.01,83.39c0-.37-.18-.68-.46-.87l-.5-.32-.5.32c-.27.18-.46.5-.46.87v1.96h1.96l-.04-1.96Z" fill="#0bbbef" stroke-width="0"/><path d="M137.41,83.39c0-.37-.18-.68-.46-.87l-.5-.32-.5.32c-.27.18-.46.5-.46.87v1.96h1.96l-.04-1.96Z" fill="#0bbbef" stroke-width="0"/><path d="M158.54,82.53l-.5-.32-.5.32c-.27.18-.46.5-.46.87v1.96h1.96l-.04-1.96c0-.37-.18-.68-.46-.87Z" fill="#0bbbef" stroke-width="0"/><path d="M155.99,82.53l-.5-.32-.5.32c-.27.18-.46.5-.46.87v1.96h1.96l-.04-1.96c0-.37-.18-.68-.46-.87Z" fill="#0bbbef" stroke-width="0"/><path d="M153.84,83.39c0-.37-.18-.68-.46-.87l-.5-.32-.5.32c-.27.18-.46.5-.46.87v1.96h1.96l-.04-1.96Z" fill="#0bbbef" stroke-width="0"/><path d="M167.03,83.39c0-.37-.18-.68-.46-.87l-.5-.32-.5.32c-.27.18-.46.5-.46.87v1.96h1.96l-.04-1.96Z" fill="#0bbbef" stroke-width="0"/><path d="M164.48,83.39c0-.37-.18-.68-.46-.87l-.5-.32-.5.32c-.27.18-.46.5-.46.87v1.96h1.96l-.04-1.96Z" fill="#0bbbef" stroke-width="0"/><path d="M161.47,82.53l-.5-.32-.5.32c-.27.18-.46.5-.46.87v1.96h1.96l-.04-1.96c0-.37-.18-.68-.46-.87Z" fill="#0bbbef" stroke-width="0"/><path d="M173.38,83.85s0,.09,0,.13c.12-.42.25-.83.38-1.23.03-.08.05-.15.07-.23l-.5-.32-.09.06c.1.53.16,1.06.14,1.59Z" fill="#0bbbef" stroke-width="0"/><path d="M186.62,83.39c0-.37-.18-.68-.46-.87l-.5-.32-.5.32c-.27.18-.46.5-.46.87v1.96h1.96l-.04-1.96Z" fill="#0bbbef" stroke-width="0"/><path d="M184.06,83.39c0-.37-.18-.68-.46-.87l-.5-.32-.5.32c-.27.18-.46.5-.46.87v.44c.09.33.21.67.32,1.02.05.16.11.33.16.5h1.47l-.04-1.96Z" fill="#0bbbef" stroke-width="0"/><polygon points="185.7 76.27 186.11 76.27 186.11 74.95 185.89 74.63 185.7 74.95 185.7 76.27" fill="#0bbbef" stroke-width="0"/><polygon points="184.88 74.95 184.88 76.27 185.29 76.27 185.29 74.95 185.06 74.63 184.88 74.95" fill="#0bbbef" stroke-width="0"/><polygon points="183.24 76.27 183.65 76.27 183.65 74.95 183.42 74.63 183.24 74.95 183.24 76.27" fill="#0bbbef" stroke-width="0"/><polygon points="182.42 74.95 182.42 76.27 182.83 76.27 182.83 74.95 182.6 74.63 182.42 74.95" fill="#0bbbef" stroke-width="0"/><polygon points="181.18 74.95 181 74.63 180.77 74.95 180.77 76.27 181.18 76.27 181.18 74.95" fill="#0bbbef" stroke-width="0"/><polygon points="179.95 76.27 180.36 76.27 180.36 74.95 180.18 74.63 179.95 74.95 179.95 76.27" fill="#0bbbef" stroke-width="0"/><path d="M149.6,83.39c0-.37-.18-.68-.46-.87l-.5-.32-.5.32c-.27.18-.46.5-.46.87v1.96h1.96l-.04-1.96Z" fill="#0bbbef" stroke-width="0"/><path d="M149.6,80.47c0-.37-.18-.68-.46-.87l-.5-.32-.5.32c-.27.18-.46.5-.46.87v.78h1.96l-.05-.78Z" fill="#0bbbef" stroke-width="0"/><path d="M147.68,78.78h1.96l-.05-.78c0-.37-.18-.68-.46-.87l-.5-.32-.5.32c-.27.18-.46.5-.46.87v.78Z" fill="#0bbbef" stroke-width="0"/><path d="M149.6,75.54c0-.37-.18-.68-.46-.87l-.5-.32-.5.32c-.27.18-.46.5-.46.87v.78h1.96l-.05-.78Z" fill="#0bbbef" stroke-width="0"/><polygon points="150.1 55.64 149.92 55.37 149.69 55.64 149.69 56.78 150.1 56.78 150.1 55.64" fill="#0080c9" stroke-width="0"/><polygon points="148.87 56.78 149.28 56.78 149.28 55.64 149.1 55.37 148.87 55.64 148.87 56.78" fill="#0080c9" stroke-width="0"/><polygon points="148.46 55.64 148.27 55.37 148.05 55.64 148.05 56.78 148.46 56.78 148.46 55.64" fill="#0080c9" stroke-width="0"/><polygon points="147.63 55.64 147.45 55.37 147.22 55.64 147.22 56.78 147.63 56.78 147.63 55.64" fill="#0080c9" stroke-width="0"/><polygon points="148.87 49.84 148.68 49.48 148.46 49.84 148.46 51.26 148.87 51.26 148.87 49.84" fill="#0080c9" stroke-width="0"/><polygon points="149 53.09 148.68 52.67 148.36 53.09 148.36 54.73 149 54.73 149 53.09" fill="#0080c9" stroke-width="0"/><circle cx="148.68" cy="58.61" r=".96" fill="#0bbbef" stroke-width="0"/><polygon points="147.91 61.53 147.54 61.85 147.54 63.26 148.23 63.26 148.23 61.85 147.91 61.53" fill="#0080c9" stroke-width="0"/><polygon points="149.46 61.53 149.14 61.85 149.14 63.26 149.78 63.26 149.78 61.85 149.46 61.53" fill="#0080c9" stroke-width="0"/><polygon points="166.49 74.95 166.3 74.63 166.12 74.95 166.12 76.27 166.49 76.27 166.49 74.95" fill="#0080c9" stroke-width="0"/><polygon points="165.3 76.27 165.66 76.27 165.66 74.95 165.48 74.63 165.3 74.95 165.3 76.27" fill="#0080c9" stroke-width="0"/><polygon points="163.66 74.95 163.66 76.27 164.02 76.27 164.02 74.95 163.84 74.63 163.66 74.95" fill="#0080c9" stroke-width="0"/><polygon points="163.2 74.95 163.02 74.63 162.83 74.95 162.83 76.27 163.2 76.27 163.2 74.95" fill="#0080c9" stroke-width="0"/><polygon points="161.19 74.95 161.19 76.27 161.56 76.27 161.56 74.95 161.37 74.63 161.19 74.95" fill="#0080c9" stroke-width="0"/><polygon points="160.73 74.95 160.55 74.63 160.37 74.95 160.37 76.27 160.73 76.27 160.73 74.95" fill="#0080c9" stroke-width="0"/><path d="M98.41,55.02c-.22-.08-.43-.2-.6-.36-.29.83-.52,1.69-.69,2.58l.67.12c.15-.8.36-1.58.61-2.34Z" fill="#fff" stroke-width="0"/><path d="M110,59.98c-.04.28-.07.57-.07.87,0,.23.02.46.04.68l3.3-.58s0-.1,0-.14c0-.08,0-.17.01-.25l-3.28-.58Z" fill="#fff" stroke-width="0"/><path d="M113.58,43.73c0-.18.03-.36.08-.53-1.04.12-2.06.32-3.04.61.2.3.32.67.32,1.06,0,.44-.15.85-.41,1.18l3.23,8.88c.52-.17,1.07-.27,1.65-.29v-9c-1.02-.05-1.83-.88-1.83-1.91ZM114.31,52.99l-2.46-6.8c.18-.41.27-.82.27-1.28-.05-.14-.05-.23-.05-.27.14-.05.32-.05.5-.09.23.91.87,1.64,1.73,2.01v6.44Z" fill="#fff" stroke-width="0"/><path d="M116.09,63.13c-.08.01-.15.03-.23.03v3.38c.31-.01.61-.05.91-.11l-.68-3.31Z" fill="#fff" stroke-width="0"/><path d="M115.06,58.5c.11-.03.23-.05.35-.06v-3.29c-.51.02-1.01.11-1.48.25l1.13,3.1Z" fill="#fff" stroke-width="0"/><path d="M117.35,55.4c-.47-.15-.97-.24-1.49-.26v3.29c.12.01.24.03.36.06l1.13-3.1Z" fill="#fff" stroke-width="0"/><path d="M113.5,55.55c-.47.19-.91.44-1.3.74l2.12,2.53c.1-.07.2-.12.31-.17l-1.13-3.1Z" fill="#fff" stroke-width="0"/><path d="M109.63,59.45c.12-.55.32-1.08.59-1.57l-9.39-5.42c.1.23.16.49.16.76,0,1.06-.86,1.92-1.92,1.92-.07,0-.14,0-.21-.01-.25.75-.46,1.52-.61,2.31l11.38,2.01ZM99.71,56.19c1-.23,1.78-.91,2.19-1.83l6.3,3.65-8.58-1.51c.05-.09.09-.18.09-.32Z" fill="#fff" stroke-width="0"/><path d="M110.09,59.53l3.28.58c.03-.11.08-.22.13-.33l-2.87-1.66c-.24.44-.42.91-.54,1.41Z" fill="#fff" stroke-width="0"/><path d="M110.86,57.73l2.87,1.66c.07-.1.15-.19.24-.27l-2.12-2.53c-.38.34-.71.72-.99,1.14Z" fill="#fff" stroke-width="0"/><path d="M188.58,84.45v-11.46c0-.14-.05-.32-.18-.5l-.27-1.78v-.23c0-.09-.05-.14-.05-.23l-.27-1.87c-.05-.46-.46-.78-.91-.78h-6.48l-.23-1.55c-.05-.46-.46-.78-.91-.78s-.82.32-.91.78l-.23,1.55h-1.14c-.05-.46-.46-.78-.91-.78h-.37v-.68c0-.5-.41-.91-.91-.91h-.41v-.32c0-.5-.41-.91-.91-.91h-.23c-.5,0-.91.41-.91.91v.32h-.37c-.5,0-.91.41-.91.91v.68h-.37c-.46,0-.82.32-.91.78h-1.1l-.23-1.55c-.05-.46-.46-.78-.91-.78s-.82.32-.91.78l-.23,1.55h-4.73l-.56-24.85h.59c1.32,0,2.19-.59,2.19-1.46,0-.59-.41-1.05-1.05-1.28.59-.23,1.05-.64,1.05-1.28,0-.59-.41-1.05-1.05-1.28.59-.23,1.05-.64,1.05-1.28s-.5-1.14-1.28-1.37c.73-.37,1.28-1.1,1.28-1.96v-2.24c0-.96-.64-1.83-1.51-2.1.37-.27.59-.68.59-1.14l.14-.59v-1.6c0-.5-.41-.91-.91-.91h-.46c-.14,0-.23.05-.37.05-.09-.05-.23-.05-.37-.05h-.46v-.59c.59-.18,1-.73,1-1.32,0-.64-.46-1.19-1.1-1.37l-.18-6.76c.09-.05.18-.14.27-.18.23-.23.37-.5.37-.82,0-.14-.05-.32-.09-.46.05-.14.09-.27.09-.46,0-.41-.23-.82-.73-1.05l-.18-6.03c0-.5-.41-.87-.91-.87s-.91.41-.91.87l-.09,6.07c-.46.18-.68.55-.68,1,0,.14.05.32.09.46-.05.14-.09.27-.09.46,0,.41.23.78.64.96l-.18,6.8c-.64.18-1.1.73-1.1,1.37s.41,1.14,1,1.32v.59h-.59c-.14,0-.23.05-.37.05-.09-.05-.23-.05-.37-.05h-.46c-.5,0-.91.41-.91.91v2.1c0,.59.27,1.05.73,1.32-.78.37-1.28,1.1-1.28,2.01v2.24c0,.87.5,1.64,1.28,2.01-.78.23-1.28.73-1.28,1.32s.41,1.05,1.05,1.28c-.64.23-1.05.68-1.05,1.28s.41,1.05,1.05,1.28c-.64.23-1.05.68-1.05,1.28,0,.96,1.1,1.46,2.19,1.46h.5l-.56,24.85h-3.68v-4.15c0-.46-.37-.87-.82-.91v-7.94l-.14-1.42c-.05-.27-.18-.5-.37-.64-.05-.32-.23-.59-.5-.73v-.32l-.32-2.05c-.05-.23-.14-.41-.32-.55v-.46l-.87-5.39c-.09-.46-.46-.78-.91-.78s-.82.32-.91.78l-.87,5.39v.46c-.18.14-.27.32-.32.55l-.32,2.05v.32c-.27.14-.46.41-.5.73-.18.14-.32.37-.37.64l-.14,1.42v7.94c-.46.05-.82.46-.82.91v4.15h-7.66c.28-.46.45-1.01.45-1.6,0-1-.5-1.96-1.32-2.51.09-.55.14-1.14.14-1.69.73-.59,1.19-1.46,1.19-2.42,0-1.14-.64-2.15-1.55-2.65-.18-.91-.46-1.87-.78-2.74.05-.23.09-.5.09-.78,0-1.19-.68-2.24-1.73-2.74-.82-1.37-1.78-2.65-2.88-3.79-.32-.55-.78-1-1.37-1.28-3.74-3.24-8.44-5.02-13.37-5.02s-9.49,1.69-13.15,4.84c-1,.27-1.78,1.05-2.05,2.01-.87.96-1.6,2.01-2.28,3.1-1.23.41-2.1,1.55-2.1,2.92,0,.41.09.78.23,1.14-.23.68-.41,1.42-.59,2.15-.34.14-.65.33-.91.57v-.43c0-.37-.18-.64-.5-.82v-5.07c.32-.46.5-.96.5-1.46,0-1.14-.87-2.51-2.19-3.06v-.18c.09-.59-.41-1.14-1.05-1.14s-1.14.5-1.14,1.14v.18c-1.32.55-2.19,1.92-2.19,3.06,0,.5.18,1,.5,1.46v5.07c-.27.14-.5.46-.5.82v6.03h-.05v-5.98c0-.37-.18-.64-.5-.82v-5.07c.32-.46.5-.96.5-1.46,0-1.14-.87-2.51-2.19-3.06v-.18c0-.64-.5-1.14-1.14-1.14s-1.14.5-1.14,1.14v.18c-1.32.55-2.19,1.92-2.19,3.06,0,.5.18,1,.5,1.46v5.07c-.27.14-.5.46-.5.82v5.98h-.05c-.5,0-.91.41-.91.91v20.81H8.41c-1.92,0-3.51,1.55-3.51,3.51v5.01c0,1.92,1.55,3.51,3.51,3.51h198.9c1.84,0,3.33-1.49,3.33-3.33v-5.33c0-1.84-1.49-3.33-3.33-3.33-10.86.01-17.15.04-18.73-.04ZM156.76,41.83c-.68,0-1.28-.27-1.28-.55s.55-.55,1.28-.55h.3c-.01-.07-.02-.15-.02-.23v-1.23h-.27c-.68,0-1.28-.23-1.28-.55,0-.27.55-.55,1.28-.55h.27v-1.32s0-.09,0-.14h-.28c-.68,0-1.28-.23-1.28-.55,0-.27.55-.55,1.28-.55h1.22c.11-.03.22-.05.34-.05h.06l.04-1.46h-1.65c-.68,0-1.28-.55-1.28-1.28v-2.24c0-.68.55-1.28,1.28-1.28h1.78l.04-1.42h-1.91c-.37,0-.64-.27-.64-.64v-2.1h.46v.82c.09-.05.14-.05.23-.05h.46v-.78h.46v.78h.68v-.78h.34l.06-2.33h-.4c-.37,0-.64-.23-.64-.5s.27-.5.64-.5h.42l.22-8.35h0c-.37,0-.64-.14-.64-.27s.27-.27.64-.27h.02v-.37s-.02,0-.02,0c-.37,0-.64-.09-.64-.27,0-.14.27-.27.64-.27h.05l.18-6.76.18,6.76h.09c.37,0,.64.09.64.27s-.27.32-.64.27h-.08v.37h.08c.37,0,.64.09.64.27s-.27.32-.64.27h-.05l.22,8.35h.42c.37,0,.64.23.64.5s-.27.5-.64.5h-.4l.06,2.33h.2v.78h.68v-.78h.46v.78h.46c.09,0,.18.05.23.05v-.82h.46v1.42l-.14.68c0,.37-.27.64-.64.64h-1.63l.04,1.42h1.87c.68,0,1.28.55,1.28,1.28v2.24c0,.68-.55,1.28-1.28,1.28h-1.74l.04,1.46h.1c.11,0,.23.02.33.05h1.26c.68,0,1.28.23,1.28.55,0,.27-.59.55-1.28.55h-.33s0,.09,0,.14v1.32h.32c.68,0,1.28.23,1.28.55,0,.27-.59.55-1.28.55h-.32v1.23c0,.08,0,.15-.02.23h.34c.68,0,1.28.23,1.28.55s-.59.55-1.28.55h-1.53l.59,25.77h-3.14l.59-25.77h-1.44ZM136.09,66c0,.28-.06.54-.17.78l-.3-2.03c.29.34.46.77.46,1.25ZM96.62,57.48c.19-1.1.48-2.16.85-3.18-.21-.31-.33-.67-.33-1.07,0-.99.75-1.8,1.7-1.9.73-1.27,1.59-2.45,2.58-3.53.15-.78.78-1.4,1.57-1.53,3.39-2.94,7.81-4.73,12.64-4.73s9.35,1.83,12.76,4.84c.46.18.82.53,1.03.98,1.17,1.2,2.2,2.55,3.03,4.02.8.23,1.39.97,1.39,1.84,0,.28-.06.54-.16.77.43,1.13.76,2.32.97,3.54.82.22,1.43.96,1.43,1.85,0,.78-.47,1.46-1.14,1.75,0,.38-.02.76-.05,1.14-.13-.07-.29-.11-.45-.11,0,0,0,0,0,0,.02-.3.04-.6.04-.9-.1.02-.21.03-.31.03-.13,0-.25-.01-.37-.04-.01.42-.04.84-.08,1.26-.09.12-.16.26-.19.42l-.19,1.33-.08.58-.16,1.14-.2,1.42c-.09-.08-.16-.16-.23-.25-.32.86-.71,1.68-1.15,2.47l.6.34c.23-.42.45-.85.66-1.29v1.06c-.11.2-.21.4-.33.6.11.03.22.07.33.12v2.51l-.05.23c0,.14,0,.27.05.41v.32c-.25.12-.53.19-.82.19-.65,0-1.22-.32-1.57-.82-.44.52-.91,1.02-1.41,1.49-.04-.04-.08-.04-.13-.08l-.09-.05c.01-.11.02-.23.01-.34.48-.47.94-.97,1.38-1.48-.07-.2-.11-.42-.11-.64,0-.12.01-.25.04-.37-.47.61-.97,1.18-1.51,1.72-.01-.06-.04-.14-.04-.17l.06-.51c.88-.94,1.65-1.97,2.31-3.08l-2.59-1.49c.04-.17.03-.35,0-.52l2.81,1.62c.49-.88.91-1.81,1.25-2.78-.07-.2-.11-.41-.11-.63,0-.6.27-1.13.7-1.48.03-.16.07-.32.1-.48l-3.78-.67c.08-.14.14-.28.18-.43l3.68.65c.13-.81.2-1.64.22-2.48-.64-.31-1.09-.97-1.09-1.73,0-.58.26-1.09.66-1.45l-4.42.78c-.08-.15-.17-.29-.29-.41l4.83-.85c-.16-.81-.37-1.61-.63-2.37-.15.04-.31.06-.47.06-1.06,0-1.92-.86-1.92-1.92,0-.2.03-.39.08-.56l-9.04,5.22c.27.49.46,1.02.59,1.58l3.19-.56c-.01.15,0,.31.02.46l-3.12.55c.04.29.06.59.06.89,0,.26-.03.53-.06.78l1.93.34c-.04.15-.06.31-.08.45l-1.93-.34c-.12.56-.32,1.1-.58,1.6l1.62.94-.12.46-1.73-1c-.3.48-.66.92-1.08,1.3l1.94,2.31-.28.24s-.04.04-.07.06l-1.93-2.31c-.44.35-.93.65-1.46.87l3.12,8.57c-.14.11-.26.24-.34.39l-2.57-7.07,2.31,8.38c-.24.34-.37.77-.37,1.19v4.77l-.61-2.97c-.65.13-1.32.23-1.99.3v-.5c.64-.06,1.27-.16,1.89-.28l-.14-.67c-.58.12-1.16.21-1.76.27v-.46c.56-.06,1.12-.14,1.66-.26l-2.32-11.32c-.32.07-.65.11-.99.12v3.06l-.46-.67v-2.39c-.34-.01-.67-.05-1-.12l-.17.8-.67-.98-.2-.3-.29-.42c.12.06.25.12.38.17l1.1-3.02.04-.16c-.11-.05-.22-.12-.32-.19l-1.87,2.23-.27-.39,1.79-2.13c-.09-.09-.18-.2-.25-.31l-2.3,1.33-.26-.38,2.33-1.35c-.05-.11-.09-.23-.12-.35l-3.29.58c.05.24.11.47.19.69h-.47c-.06-.2-.12-.41-.16-.62l-3.49.62h-2.63l6.04-1.07c-.03-.26-.05-.53-.05-.8,0-.31.02-.61.07-.9l-11.38-2.01s-.02.09-.02.14c.35.35.56.82.56,1.35,0,.63-.31,1.19-.77,1.54,0,.59.04,1.17.1,1.75h-.46c-.05-.49-.08-.99-.09-1.5-.21.08-.44.13-.68.13.01.46.04.92.09,1.37h-.46c-.04-.47-.07-.95-.08-1.43-.84-.2-1.47-.96-1.47-1.86,0-1,.77-1.83,1.76-1.91ZM130.65,78.14c.09-.29.14-.59.14-.91,0-.73-.23-1.37-.68-1.92.14-.14.27-.27.41-.41.46.23.96.37,1.46.37.27,0,.53-.03.78-.1v9.27h-2.1v-6.3ZM128.1,64.68l.31-.32,2.89.51c-.14.37-.23.73-.23,1.1.05.23.05.41.09.59-.14.41-.32.82-.55,1.23l-2.59-1.49s.02-.04.03-.07l.05-.14c.14-.41.14-1,0-1.42ZM129.37,61.78l-.31-1.11c-.05-.18-.18-.46-.27-.68,0-.05,0-.09,0-.14l2.33-.41c0,.87.41,1.69,1.05,2.28,0,.18,0,.37-.05.55l-2.75-.48ZM128.73,70.92s-.02-.08-.04-.12c.08-.25.09-.57.02-.9l.52.3c-.16.24-.33.48-.51.72ZM122.99,63.4l.35.06s-.07.05-.1.08l-.25-.14ZM123.58,60.75l.4-.07s-.05.08-.08.13l-.32-.06ZM123.03,58.06l6.12-3.56c.46.96,1.37,1.64,2.42,1.78.05.09.05.18.09.27l-5.23.91h-.02c-.24,0-.46.04-.66.12l-2.71.47ZM122.21,66.46s0,0,0,0l-.55-.65.62.36-.07.28ZM120.8,69.07c.02.34.24.64.54.82-.05.14-.09.27-.09.46-.23.46-.14,1-.14,1.1l.13.78-1.68-4.61,1.24,1.47ZM117.83,77.23c-.11.02-.21.03-.32.04v-1.58l.32,1.54ZM117.51,84.03c.63-.56,1.05-1.38,1.05-2.27,0-.27,0-.46-.05-.64h.09l.68,3.38h-1.78v-.46ZM99.07,61.39c.5-.55.78-1.28.78-2.01v-.05l7.99,1.42-8.72,1.51c0-.27,0-.55-.05-.87ZM94.82,61.66c.15.14.32.27.5.38.02.22.03.43.05.64h-.55v-1.02ZM209.73,92.97h-.05c0,1.42-19.87,2.6-21.28,2.6H8.41c-1.42,0-2.6-1.19-2.6-2.6v-5.01c0-1.42,1.19-2.6,2.6-2.6h73.13v-21.73h.96v-6.89h.5v-6.22c-.31-.32-.5-.71-.5-1.12,0-.99.97-2.22,2.19-2.36v-.88c0-.14.09-.23.23-.23s.23.09.23.23v.88c1.22.14,2.19,1.37,2.19,2.36,0,.43-.19.83-.5,1.14v6.2h.5v6.89h1.83v-6.89h.5v-6.22c-.31-.32-.5-.71-.5-1.12,0-.99.97-2.22,2.19-2.36v-.88c0-.14.09-.23.23-.23s.23.09.23.23v.88c1.22.14,2.19,1.37,2.19,2.36,0,.43-.19.83-.5,1.14v6.2h.5v6.89h16.39l.68.96v.04l5.57,8.13v12.6h4.43v-7.35c0-.73.59-1.28,1.28-1.28h-.46c-.23,0-.41-.18-.41-.41v-.18c0-.23.18-.41.41-.41h.47l.12-1.87c0-.23,0-.59-.05-.82l-.27-1.64c-.05-.23-.05-.5.05-.59.09-.14.14-.27.09-.32-.05-.05,0-.18.05-.23.09-.05.14-.23.14-.32,0-.14.09-.41.18-.59l.09-.14c.09-.23,0-.32-.23-.23l-.27.14c-.18.09-.37.09-.37,0s.14-.27.32-.41l1.73-1.42c.18-.14.14-.23-.09-.18l-.23.05c-.23.05-.37-.09-.32-.32l.55-2.1c.09-.23.32-.46.5-.5.18-.05.41-.27.46-.5s.05-.46,0-.5c-.05-.05-.09-.27-.09-.5v-.05c0-.23.05-.55.14-.68s.14-.41.09-.55c-.05-.18.09-.32.32-.32l.27-.05c.23-.05.41.09.37.23s.05.37.23.5.37.41.41.64l.05.23c.05.18-.05.41-.23.41s-.27.18-.23.41v.05c.05.18.23.23.37.09.14-.18.41-.37.59-.5l.64-.41c.18-.14.32-.41.32-.64l-.09-.96c0-.23-.18-.55-.32-.68l-.03-.03c-.07.09-.22.12-.38.12h-.09c-.37-.05-.78-.27-1.05-.59-.27-.32-.46-1-.14-1.32.14-.14.27-.18.5-.18.37,0,.78.18,1,.46.18.18.32.46.37.73.02.15.02.29,0,.41l.09.14c.14.18.32.5.37.73l.41,1.46c.05.23-.05.5-.18.68l-1.1,1.14c-.18.18-.23.46-.14.68l.09.18c.09.23.09.55,0,.78l-.05.14c-.09.18-.18.5-.23.64-.05.14,0,.46.09.64l.23.41c.09.18.09.46.05.59-.09.14-.09.41,0,.64l.46,1.23c.09.18.05.41-.05.46-.09.05-.14.14-.05.18.05.09.14.32.09.55l-.23,2.01c-.05.23.05.59.14.78.09.18.09.5,0,.64-.14.18-.05.41.14.64l.41.27c.06.02.11.05.15.09h.39c.23,0,.41.18.41.41v.18c0,.23-.18.41-.41.41h-.41c.73,0,1.28.59,1.28,1.28v7.35h3.93v-11.96h0s-.05,0-.05,0l.05-.3v-4.58l.78-5.39.78,5.39v.05h10.13v-5.07h.82v-8.76l.14-1.42.14,1.42.23-2.05.23,2.05.14-1.42.14,1.42v-3.06l.32-2.05.32,2.05v-3.06l.87-5.39.87,5.39v3.06l.32-2.05.32,2.05v3.06l.14-1.42.14,1.42.23-2.05.23,2.05.14-1.42.14,1.42v8.76h.82v5.07h15.23l.34-2.33.34,2.33h2.77v-.78h.23v.78h1.05v-2.37h.23v.59h1.05v-1.83h.23v1.83h1.1v-.59h.23v2.37h1.05v-.78h.23v.78h2.81l.34-2.33.34,2.33h7.29l.31,2.08v-.07s.03.26.03.26l.33,2.2h.06s.05,0,.05,0v12.32h.78s.09,0,.14,0c1.35.07,21.15,1.23,21.15,2.6v5.01Z" fill="#fff" stroke-width="0"/><path d="M120.68,46.27c-.38-.35-.61-.85-.61-1.4,0-.42.14-.81.36-1.12-1-.28-2.03-.48-3.09-.58.05.18.08.36.08.56,0,.93-.67,1.71-1.55,1.88v9.03c.58.02,1.13.12,1.66.29l3.15-8.66ZM117.01,46.38c.73-.41,1.23-1.1,1.46-1.92.14.05.32.05.46.09v.32c0,.59.14,1.14.46,1.6l-2.37,6.53v-6.62Z" fill="#fff" stroke-width="0"/><path d="M116.65,58.66c.11.05.21.11.31.18l2.12-2.53c-.4-.3-.84-.56-1.31-.75l-1.13,3.1Z" fill="#fff" stroke-width="0"/><path d="M130.95,70.57c.23-.14.5-.23.78-.26l-.46-.26c-.11.18-.21.35-.32.53Z" fill="#fff" stroke-width="0"/><path d="M114.49,66.44c.3.06.6.1.92.11v-3.38c-.08,0-.16-.02-.23-.03l-.68,3.31Z" fill="#fff" stroke-width="0"/><path d="M126.77,46.47c.23-.12.49-.2.76-.22l.03-.04c-1.25-1.02-2.63-1.89-4.11-2.56.23.27.38.61.43.98,1.02.53,1.99,1.15,2.89,1.85Z" fill="#fff" stroke-width="0"/><path d="M116.67,62.94l1.16,3.18c.49-.2.94-.47,1.34-.79l-2.17-2.58c-.11.07-.22.14-.33.2Z" fill="#fff" stroke-width="0"/><path d="M117.11,42.69c1.26.1,2.49.34,3.67.69.27-.22.61-.37.98-.41-1.74-.6-3.59-.95-5.52-1.01.36.15.67.41.87.73Z" fill="#fff" stroke-width="0"/><path d="M101.69,49.17c-.14-.22-.23-.47-.27-.74-.73.84-1.39,1.75-1.97,2.71l.6.34c.49-.81,1.04-1.59,1.64-2.31Z" fill="#fff" stroke-width="0"/><path d="M117.95,55.09c.52.21,1.01.5,1.46.84l6.37-7.59c0-.06,0-.12,0-.18,0-.56.24-1.06.63-1.41-.79-.61-1.63-1.15-2.52-1.61-.13.94-.93,1.66-1.9,1.66-.33,0-.65-.09-.92-.24l-3.11,8.54ZM124.4,46.74c.14.09.32.18.46.27-.09.27-.18.55-.23.87l-5.07,6.03,2.19-5.98c1,.09,2.01-.41,2.65-1.19Z" fill="#fff" stroke-width="0"/><path d="M125.91,48.89l-6.16,7.34c.41.37.77.8,1.07,1.27l9.78-5.65c.06-.06.13-.11.2-.16-.49-.81-1.04-1.57-1.65-2.29-.35.42-.88.69-1.48.69-.8,0-1.49-.49-1.77-1.19ZM128.97,50.94c.09.14.18.27.27.37l-7.53,4.34,4.2-5.02c.5.41,1.14.59,1.78.59.46,0,.87-.09,1.28-.27Z" fill="#fff" stroke-width="0"/><path d="M117.78,59.78c.05.11.1.23.13.35l3.28-.58c-.12-.5-.3-.98-.54-1.43l-2.87,1.66Z" fill="#fff" stroke-width="0"/><path d="M131.39,51.38l.43-.25c-.64-1.07-1.38-2.07-2.22-2.99,0,0,0,0,0,.01,0,.3-.07.58-.19.83.66.77,1.26,1.59,1.79,2.46.06-.03.13-.05.19-.07Z" fill="#fff" stroke-width="0"/><path d="M104.72,46.86c.28.3.46.69.5,1.12l6.66,7.94c.44-.34.93-.62,1.45-.83l-3.16-8.69c-.32.24-.72.39-1.15.39-.92,0-1.7-.65-1.88-1.52-.85.47-1.66,1-2.42,1.6ZM109.02,47.93c.18,0,.32,0,.5-.05l2.19,6.03-5.43-6.44c0-.09-.05-.18-.09-.27.18-.14.37-.23.5-.32.55.64,1.42,1.05,2.33,1.05Z" fill="#fff" stroke-width="0"/><path d="M110.44,57.49c.3-.47.67-.9,1.09-1.28l-6.36-7.58c-.21.83-.96,1.45-1.86,1.45-.52,0-.99-.21-1.33-.54-.57.68-1.08,1.41-1.54,2.18l10,5.78ZM102.26,51.03c.32.14.68.18,1.05.18.73,0,1.42-.27,1.96-.68l4.34,5.16-7.58-4.38c.09-.09.14-.18.23-.27Z" fill="#fff" stroke-width="0"/><path d="M120.41,57.73c-.27-.42-.6-.8-.97-1.13l-2.12,2.53c.08.08.16.17.22.26l2.87-1.66Z" fill="#fff" stroke-width="0"/><path d="M117.35,62.44l2.17,2.58c.38-.35.71-.76.98-1.2l-2.91-1.68c-.07.11-.15.2-.24.3Z" fill="#fff" stroke-width="0"/><path d="M113.87,42.72c.2-.33.51-.59.86-.75-1.85.09-3.63.44-5.31,1.03.33.07.62.23.86.44,1.15-.36,2.35-.6,3.58-.72Z" fill="#fff" stroke-width="0"/><path d="M134.15,57.26c-.18-.96-.44-1.89-.76-2.79-.16.19-.35.34-.57.46.27.8.49,1.62.66,2.46l.68-.12Z" fill="#fff" stroke-width="0"/><path d="M118.01,60.8s0,.08,0,.12l3.3.58c.02-.22.04-.44.04-.66,0-.29-.02-.57-.06-.85l-3.28.58c0,.07.01.15.01.23Z" fill="#fff" stroke-width="0"/><path d="M117.81,61.74l2.91,1.68c.23-.46.41-.95.51-1.47l-3.29-.58c-.03.13-.07.25-.12.37Z" fill="#fff" stroke-width="0"/><path d="M104.37,46.56c.85-.68,1.77-1.28,2.74-1.79.02-.34.12-.66.3-.93-1.32.64-2.55,1.44-3.68,2.36l.1.11c.2.05.38.14.55.25Z" fill="#fff" stroke-width="0"/><path d="M60.2,50.13l1.51.09s.09.09.09.14l.59.68c.27.37.78.41,1.19.23l.05-.05c.18-.09.37-.23.55-.32l.18-.14s.14.05.14.05l1.78.55c.09.05.18.05.27.05.37,0,.73-.23.87-.64l.05-.09c.09-.32.05-.64-.18-.87-.27-.32-.59-.55-.87-.78l-.05-.05s-.05,0-.05-.05l-.41-.27-.05-.05-.46-.27c-.09-.05-.18-.09-.23-.14l-.05-.05h-.05s-.09-.05-.18-.05c-.14-.05-.23-.05-.37-.09-.27-.05-.5-.05-.78,0-.09,0-.23.05-.32.09-.05-.05-.09-.09-.14-.09-.37-.27-.78-.37-1.28-.37-.14,0-.18,0-.27.05h-.05c-.09,0-.18.05-.23.05h-.09l-.14.05c-.14.05-.23.05-.32.09-.32.09-.64.18-1,.37-.27.14-.46.46-.5.78v.09c-.14.55.27,1,.78,1ZM60.16,49.08c.27-.14.55-.23.82-.32.14-.05.27-.05.41-.09.09,0,.14-.05.23-.05h.23c.27,0,.55.05.78.23.09.05.14.09.18.14l.09.09.14.14s.05.05.09.09c.09-.05.14-.09.23-.14l.05-.05s.09-.05.14-.05c.09-.05.18-.09.27-.09h.5c.09,0,.14.05.23.05,0,0,.05.05.09.05l.05.05c.09,0,.14.05.23.09l.41.23.41.27c.27.23.55.41.78.68h-.14s-1.78-.55-1.78-.55c-.14,0-.27-.09-.41-.09-.18-.05-.27,0-.41.09-.27.18-.5.37-.78.5l-.05.05-.05-.05-.5-.64c-.09-.14-.18-.23-.27-.32-.09-.09-.18-.14-.32-.14l-1.64-.09v-.09Z" fill="#fff" stroke-width="0"/><path d="M66.73,52.37c-.09.05-.14.09-.18.14h-.09c-.32-.05-.64,0-.91.14,0,0-.05,0-.05.05-.18.09-.37.23-.5.32l-.09.05c-.18.14-.37.27-.55.46-.27.27-.32.64-.23.96v.05c.14.37.5.59.87.59.09,0,.18,0,.32-.05l.82-.27.5.23c.41.18.87.05,1.14-.32l.23-.32,1.19-.14c.5-.05.87-.5.82-1v-.05c-.05-.37-.27-.64-.59-.78-.27-.09-.5-.14-.73-.18h-.05c-.23-.05-.46-.05-.73-.05-.14,0-.27,0-.59.05-.27,0-.46.05-.59.14ZM67.82,53.05c.18,0,.41,0,.59.05s.37.05.59.14l-1.14.14c-.18,0-.41,0-.5.18l-.37.46v.05h-.05l-.46-.23c-.09-.05-.14-.09-.23-.09-.05-.05-.14-.05-.23,0l-1,.37v-.05c.14-.14.27-.27.41-.37.14-.09.27-.18.46-.27.09-.05.27-.05.41-.05.18.05.23.05.32.09.05.05.14.05.18.09.05-.09.14-.14.18-.23,0,0,.05-.05.09-.09.05-.05.09-.05.14-.09s.14-.09.23-.09h.37Z" fill="#fff" stroke-width="0"/><rect x="185.84" y="73.4" width=".23" height="0" fill="#fff" stroke-width="0"/><rect x="183.83" y="73.4" width=".23" height="0" fill="#fff" stroke-width="0"/><rect x="183.24" y="73.4" width=".23" height="0" fill="#fff" stroke-width="0"/><rect x="185.16" y="73.4" width=".23" height="0" fill="#fff" stroke-width="0"/><polygon points="172.19 68.24 173.11 67.05 172.19 67.05 172.19 68.24" fill="#fff" stroke-width="0"/><rect x="181.23" y="73.4" width=".23" height="0" fill="#fff" stroke-width="0"/><rect x="186.43" y="73.4" width=".23" height="0" fill="#fff" stroke-width="0"/><rect x="182.65" y="73.4" width=".23" height="0" fill="#fff" stroke-width="0"/><rect x="139.01" y="73.4" width=".23" height="0" fill="#fff" stroke-width="0"/><rect x="138.37" y="73.4" width=".27" height="0" fill="#fff" stroke-width="0"/><rect x="141.2" y="73.4" width=".23" height="0" fill="#fff" stroke-width="0"/><rect x="137" y="73.4" width=".27" height="0" fill="#fff" stroke-width="0"/><rect x="155.49" y="73.4" width=".23" height="0" fill="#fff" stroke-width="0"/><rect x="136.41" y="73.4" width=".23" height="0" fill="#fff" stroke-width="0"/><rect x="154.89" y="73.4" width=".23" height="0" fill="#fff" stroke-width="0"/><rect x="135.81" y="73.4" width=".23" height="0" fill="#fff" stroke-width="0"/><rect x="135.26" y="73.4" width=".18" height="0" fill="#fff" stroke-width="0"/><rect x="152.29" y="73.4" width=".23" height="0" fill="#fff" stroke-width="0"/><rect x="144.3" y="73.4" width=".23" height="0" fill="#fff" stroke-width="0"/><rect x="144.9" y="73.4" width=".23" height="0" fill="#fff" stroke-width="0"/><rect x="152.98" y="73.4" width=".23" height="0" fill="#fff" stroke-width="0"/><rect x="142.39" y="73.4" width=".23" height="0" fill="#fff" stroke-width="0"/><rect x="143.71" y="73.4" width=".23" height="0" fill="#fff" stroke-width="0"/><rect x="141.79" y="73.4" width=".23" height="0" fill="#fff" stroke-width="0"/><rect x="153.57" y="73.4" width=".23" height="0" fill="#fff" stroke-width="0"/><rect x="139.6" y="73.4" width=".23" height="0" fill="#fff" stroke-width="0"/><rect x="178.45" y="73.4" width=".05" height="0" fill="#fff" stroke-width="0"/><rect x="162.74" y="73.4" width=".23" height="0" fill="#fff" stroke-width="0"/><rect x="168.4" y="73.4" width=".05" height="0" fill="#fff" stroke-width="0"/><rect x="180.64" y="73.4" width=".23" height="0" fill="#fff" stroke-width="0"/><polygon points="174.57 68.24 174.57 67.05 173.65 67.05 174.57 68.24" fill="#fff" stroke-width="0"/><rect x="180.04" y="73.4" width=".23" height="0" fill="#fff" stroke-width="0"/><rect x="156.17" y="73.4" width=".23" height="0" fill="#fff" stroke-width="0"/><rect x="165.98" y="73.4" width=".23" height="0" fill="#fff" stroke-width="0"/><rect x="163.93" y="73.4" width=".37" height="0" fill="#fff" stroke-width="0"/><rect x="163.34" y="73.4" width=".23" height="0" fill="#fff" stroke-width="0"/><rect x="165.39" y="73.4" width=".23" height="0" fill="#fff" stroke-width="0"/><rect x="166.58" y="73.4" width=".23" height="0" fill="#fff" stroke-width="0"/><rect x="161.42" y="73.4" width=".23" height="0" fill="#fff" stroke-width="0"/><rect x="160.73" y="73.4" width=".32" height="0" fill="#fff" stroke-width="0"/><rect x="158.82" y="73.4" width=".23" height="0" fill="#fff" stroke-width="0"/><rect x="157.63" y="73.4" width=".23" height="0" fill="#fff" stroke-width="0"/><rect x="160.14" y="73.4" width=".23" height="0" fill="#fff" stroke-width="0"/><rect x="158.22" y="73.4" width=".23" height="0" fill="#fff" stroke-width="0"/><path d="M124.21,65.69s-.05.07-.08.13l-.09.18c-.06.15-.06.26-.01.31.02.02.06.03.1.01.14,0,.23-.23.23-.46-.03-.16-.09-.23-.15-.18Z" fill="#fff" stroke-width="0"/><path d="M127.46,59.7s0,0,0,0c-.05-.18-.14-.37-.23-.5-.23-.18-.5-.32-.73-.32-.09,0-.14,0-.18.05-.09.09-.05.46.18.73.18.23.46.37.73.41.04,0,.07,0,.09,0,.02,0,.03,0,.05-.01-.02-.1-.02-.19,0-.25,0,0,0,0,0,0,.03-.04.06-.06.09-.07,0,0,0,0,0,0,0,0,0-.01,0-.02h0Z" fill="#fff" stroke-width="0"/><path d="M83,50.51v.06h.06s-.04-.04-.06-.06Z" fill="#004158" stroke-width="0"/><path d="M86.83,50.58v-.04s-.03.03-.04.04h.04Z" fill="#004158" stroke-width="0"/><path d="M94,56.74h-.5v-5.48h-1.92s0,0,0,0c0,0,0,0,0,0h-1.92v5.48h-.5v6.89h4.84v-6.89ZM90.85,54.55c0-.37.14-.68.37-.87l.37-.32.37.32c.23.18.37.5.37.87v2.19h-1.46v-2.19ZM91.58,60.75c-.71,0-1.28-.57-1.28-1.28s.57-1.28,1.28-1.28,1.28.57,1.28,1.28-.57,1.28-1.28,1.28Z" fill="#004158" stroke-width="0"/><path d="M89.66,50.51v.06h.06s-.04-.04-.06-.06Z" fill="#004158" stroke-width="0"/><path d="M93.5,50.58v-.04s-.03.03-.04.04h.04Z" fill="#004158" stroke-width="0"/><path d="M85.14,47.03v-.88c0-.14-.09-.23-.23-.23s-.23.09-.23.23v.88c.08,0,.15-.01.23-.01s.15,0,.23.01Z" fill="#0080c9" stroke-width="0"/><path d="M91.81,47.03v-.88c0-.14-.09-.23-.23-.23s-.23.09-.23.23v.88c.08,0,.15-.01.23-.01s.15,0,.23.01Z" fill="#0080c9" stroke-width="0"/><polygon points="84.92 51.26 84.92 51.26 84.92 51.26 84.92 51.26" fill="#005d95" stroke-width="0"/><path d="M86.79,50.58s.03-.03.04-.04c.31-.31.5-.71.5-1.14,0-.99-.97-2.22-2.19-2.36-.08,0-.15-.01-.23-.01s-.15,0-.23.01c-1.22.14-2.19,1.37-2.19,2.36,0,.42.19.81.5,1.12.02.02.04.04.06.06h3.73Z" fill="#005d95" stroke-width="0"/><polygon points="91.58 51.26 91.58 51.26 91.58 51.26 91.58 51.26" fill="#005d95" stroke-width="0"/><path d="M93.45,50.58s.03-.03.04-.04c.31-.31.5-.71.5-1.14,0-.99-.97-2.22-2.19-2.36-.08,0-.15-.01-.23-.01s-.15,0-.23.01c-1.22.14-2.19,1.37-2.19,2.36,0,.42.19.81.5,1.12.02.02.04.04.06.06h3.73Z" fill="#005d95" stroke-width="0"/><path d="M110.39,72.76v-9.13h-21.77v9.13h21.77ZM107.97,70.71v.87h-.87v-.87h.87ZM100.57,66.41h-.87v-.87h.87v.87ZM100.57,68.1v.87h-.87v-.87h.87ZM104.64,66.41v-.87h.87v.87h-.87ZM107.97,68.1v.87h-.87v-.87h.87ZM105.5,70.71v.87h-.87v-.87h.87ZM105.5,68.97h-.87v-.87h.87v.87ZM103.04,68.1v.87h-.87v-.87h.87ZM98.11,70.71v.87h-.87v-.87h.87ZM98.11,68.97h-.87v-.87h.87v.87ZM97.24,65.55h.87v.87h-.87v-.87ZM95.64,65.55v.87h-.87v-.87h.87ZM95.64,71.57h-.87v-.87h.87v.87ZM94.78,68.97v-.87h.87v.87h-.87ZM100.57,71.57h-.87v-.87h.87v.87ZM102.17,71.57v-.87h.87v.87h-.87ZM107.97,65.55v.87h-.87v-.87h.87ZM102.17,66.41v-.87h.87v.87h-.87ZM92.31,65.55h.87v.87h-.87v-.87ZM92.31,68.1h.87v.87h-.87v-.87ZM92.31,70.71h.87v.87h-.87v-.87ZM89.89,65.55h.87v.87h-.87v-.87ZM89.89,68.1h.87v.87h-.87v-.87ZM89.89,70.71h.87v.87h-.87v-.87Z" fill="#005d95" stroke-width="0"/><polygon points="111.07 72.76 116.64 72.76 111.07 64.63 111.07 72.76" fill="#005d95" stroke-width="0"/><path d="M114.36,78.56c0-1.1-.14-2.15-.37-2.74l-.41-1.05-.41,1.05c-.23.59-.37,1.64-.37,2.74v6.8h1.55v-6.8Z" fill="#0bbbef" stroke-width="0"/><path d="M111.07,78.56c0-1.1-.14-2.15-.37-2.74l-.41-1.05-.41,1.05c-.23.59-.37,1.64-.37,2.74v6.8h1.55v-6.8Z" fill="#0bbbef" stroke-width="0"/><path d="M107.79,78.56c0-1.1-.14-2.15-.37-2.74l-.41-1.05-.41,1.05c-.23.59-.37,1.64-.37,2.74v6.8h1.55v-6.8Z" fill="#0bbbef" stroke-width="0"/><path d="M104.45,78.56c0-1.1-.14-2.15-.37-2.74l-.41-1.05-.41,1.05c-.23.59-.37,1.64-.37,2.74v6.8h1.55v-6.8Z" fill="#0bbbef" stroke-width="0"/><path d="M101.17,78.56c0-1.1-.14-2.15-.37-2.74l-.41-1.05-.41,1.05c-.23.59-.37,1.64-.37,2.74v4.04c.57.25,1.09.58,1.55.99v-5.03Z" fill="#0bbbef" stroke-width="0"/><path d="M97.88,82.15v-3.6c0-1.1-.14-2.15-.37-2.74l-.41-1.05-.41,1.05c-.23.59-.37,1.64-.37,2.74v3.66c.33-.06.66-.09,1-.09.18,0,.37,0,.55.03Z" fill="#0bbbef" stroke-width="0"/><path d="M94.55,82.84v-4.29c0-1.1-.14-2.15-.37-2.74l-.41-1.05-.41,1.05c-.23.59-.37,1.64-.37,2.74v5.53c.44-.5.96-.92,1.55-1.25Z" fill="#0bbbef" stroke-width="0"/><path d="M91.26,78.56c0-1.1-.14-2.15-.37-2.74l-.41-1.05-.41,1.05c-.23.59-.37,1.64-.37,2.74v6.8h1.55v-6.8Z" fill="#0bbbef" stroke-width="0"/><rect x="84.23" y="67.19" width="1.37" height="1.14" fill="#0bbbef" stroke-width="0"/><rect x="84.23" y="71.07" width="1.37" height="1.14" fill="#0bbbef" stroke-width="0"/><rect x="84.23" y="74.95" width="1.37" height="1.14" fill="#0bbbef" stroke-width="0"/><rect x="84.23" y="78.83" width="1.37" height="1.14" fill="#0bbbef" stroke-width="0"/><circle cx="84.92" cy="59.48" r="1.28" fill="#0bbbef" stroke-width="0"/><circle cx="91.58" cy="59.48" r="1.28" fill="#0bbbef" stroke-width="0"/><path d="M85.65,54.55c0-.37-.14-.68-.37-.87l-.37-.32-.37.32c-.23.18-.37.5-.37.87v2.19h1.46v-2.19Z" fill="#0bbbef" stroke-width="0"/><path d="M92.31,54.55c0-.37-.14-.68-.37-.87l-.37-.32-.37.32c-.23.18-.37.5-.37.87v2.19h1.46v-2.19Z" fill="#0bbbef" stroke-width="0"/><polygon points="84.92 51.26 86.83 51.26 86.83 50.58 86.79 50.58 83.06 50.58 83 50.58 83 51.26 84.92 51.26 84.92 51.26" fill="#0080c9" stroke-width="0"/><polygon points="91.58 51.26 93.5 51.26 93.5 50.58 93.45 50.58 89.73 50.58 89.66 50.58 89.66 51.26 91.58 51.26 91.58 51.26" fill="#0080c9" stroke-width="0"/><polygon points="111.07 72.76 110.39 72.76 88.61 72.76 88.61 73.44 116.64 73.44 116.64 72.76 111.07 72.76" fill="#0080c9" stroke-width="0"/><polygon points="88.25 68.33 85.6 68.33 84.23 68.33 81.54 68.33 81.54 68.61 88.25 68.61 88.25 68.33" fill="#0080c9" stroke-width="0"/><polygon points="88.25 72.21 85.6 72.21 84.23 72.21 81.54 72.21 81.54 72.49 88.25 72.49 88.25 72.21" fill="#0080c9" stroke-width="0"/><polygon points="88.25 76.09 85.6 76.09 84.23 76.09 81.54 76.09 81.54 76.37 88.25 76.37 88.25 76.09" fill="#0080c9" stroke-width="0"/><polygon points="88.25 79.97 85.6 79.97 84.23 79.97 81.54 79.97 81.54 80.25 88.25 80.25 88.25 79.97" fill="#0080c9" stroke-width="0"/><polygon points="88.29 73.44 88.29 85.36 88.61 85.36 88.61 73.44 88.61 72.76 88.61 63.63 88.43 63.63 88.29 63.63 88.29 72.76 88.29 73.44" fill="#0080c9" stroke-width="0"/><rect x="107.1" y="65.55" width=".87" height=".87" fill="#0bbbef" stroke-width="0"/><rect x="107.1" y="68.1" width=".87" height=".87" fill="#0bbbef" stroke-width="0"/><rect x="107.1" y="70.71" width=".87" height=".87" fill="#0bbbef" stroke-width="0"/><rect x="104.64" y="65.55" width=".87" height=".87" fill="#0bbbef" stroke-width="0"/><rect x="104.64" y="68.1" width=".87" height=".87" fill="#0bbbef" stroke-width="0"/><rect x="104.64" y="70.71" width=".87" height=".87" fill="#0bbbef" stroke-width="0"/><rect x="102.17" y="65.55" width=".87" height=".87" fill="#0bbbef" stroke-width="0"/><rect x="102.17" y="68.1" width=".87" height=".87" fill="#0bbbef" stroke-width="0"/><rect x="102.17" y="70.71" width=".87" height=".87" fill="#0bbbef" stroke-width="0"/><rect x="99.71" y="65.55" width=".87" height=".87" fill="#0bbbef" stroke-width="0"/><rect x="99.71" y="68.1" width=".87" height=".87" fill="#0bbbef" stroke-width="0"/><rect x="99.71" y="70.71" width=".87" height=".87" fill="#0bbbef" stroke-width="0"/><rect x="97.24" y="65.55" width=".87" height=".87" fill="#0bbbef" stroke-width="0"/><rect x="97.24" y="68.1" width=".87" height=".87" fill="#0bbbef" stroke-width="0"/><rect x="97.24" y="70.71" width=".87" height=".87" fill="#0bbbef" stroke-width="0"/><rect x="94.78" y="65.55" width=".87" height=".87" fill="#0bbbef" stroke-width="0"/><rect x="94.78" y="68.1" width=".87" height=".87" fill="#0bbbef" stroke-width="0"/><rect x="94.78" y="70.71" width=".87" height=".87" fill="#0bbbef" stroke-width="0"/><rect x="92.31" y="65.55" width=".87" height=".87" fill="#0bbbef" stroke-width="0"/><rect x="92.31" y="68.1" width=".87" height=".87" fill="#0bbbef" stroke-width="0"/><rect x="92.31" y="70.71" width=".87" height=".87" fill="#0bbbef" stroke-width="0"/><rect x="89.89" y="65.55" width=".87" height=".87" fill="#0bbbef" stroke-width="0"/><rect x="89.89" y="68.1" width=".87" height=".87" fill="#0bbbef" stroke-width="0"/><rect x="89.89" y="70.71" width=".87" height=".87" fill="#0bbbef" stroke-width="0"/><polygon points="110.39 72.76 111.07 72.76 111.07 64.63 111.07 64.59 110.39 63.63 110.39 72.76" fill="#0080c9" stroke-width="0"/><path d="M25.07,52.88h7.35c1.78,0,3.2-1.42,3.2-3.2,0-1.51-1-2.78-2.37-3.15-.46-1.6-1.92-2.74-3.65-2.74-1.37,0-2.6.73-3.29,1.87-.82,0-1.55.41-2.01,1-1.37.37-2.37,1.6-2.37,3.06,0,1.73,1.42,3.15,3.15,3.15ZM25.03,47.72c.18-.55.68-.91,1.28-.91.23,0,.5.05.68.18.27-1.19,1.32-2.05,2.6-2.05,1.46,0,2.65,1.19,2.65,2.65h.18c1.14,0,2.05.96,2.05,2.1s-.91,2.05-2.05,2.05h-7.35c-1.1,0-2.01-.91-2.01-2.01s.87-1.96,1.96-2.01Z" fill="#fff" stroke-width="0"/><path d="M25.07,51.74h7.35c1.14,0,2.05-.91,2.05-2.05s-.91-2.1-2.05-2.1h-.18c0-1.46-1.19-2.65-2.65-2.65-1.28,0-2.33.87-2.6,2.05-.18-.14-.46-.18-.68-.18-.59,0-1.1.37-1.28.91-1.1.05-1.96.91-1.96,2.01s.91,2.01,2.01,2.01Z" fill="#a1daf8" stroke-width="0"/><path d="M127.37,60.05s-.03.01-.05.01c-.03,0-.05,0-.09,0-.27-.05-.55-.18-.73-.41-.23-.27-.27-.64-.18-.73.05-.05.09-.05.18-.05.23,0,.5.14.73.32.09.14.18.32.23.5,0,0,0,0,0,0h0s0,.01,0,.02c.08-.02.17.04.27.16l.09.13c.02-.12.02-.26,0-.41-.05-.27-.18-.55-.37-.73-.23-.27-.64-.46-1-.46-.23,0-.37.05-.5.18-.32.32-.14,1,.14,1.32.27.32.68.55,1.05.59h.09c.15,0,.31-.03.38-.12l-.06-.06c-.1-.07-.15-.18-.18-.29Z" fill="#00b1eb" stroke-width="0"/><path d="M124.6,75.73c-.04-.08-.06-.17-.06-.27l.09-3.29c0-.37.09-.96.23-1.28l.37-1c.14-.32,0-.78-.23-1.05l-.18-.18c-.05-.09-.09-.18-.14-.27l-1.14.5c-.32.14-.64.23-.68.14-.05-.09.14-.32.41-.55l1.14-.91c.27-.23.68-.41.91-.41s.46-.18.5-.32.09-.14.18,0-.05.5-.23.73c-.05.09-.18.23-.32.32v.05l.14.46c.14.32.14.87.05,1.23l-.23.91c-.09.32-.09.87,0,1.23l1,3.65c.03.11.02.22-.01.32h2.13s-.1-.07-.15-.09l-.41-.27c-.18-.23-.27-.46-.14-.64.09-.14.09-.46,0-.64-.09-.18-.18-.55-.14-.78l.23-2.01c.05-.23-.05-.46-.09-.55-.09-.05-.05-.14.05-.18.09-.05.14-.27.05-.46l-.46-1.23c-.09-.23-.09-.5,0-.64.05-.14.05-.41-.05-.59l-.23-.41c-.09-.18-.14-.5-.09-.64.05-.14.14-.46.23-.64l.05-.14c.09-.23.09-.55,0-.78l-.09-.18c-.09-.23-.05-.5.14-.68l1.1-1.14c.14-.18.23-.46.18-.68l-.41-1.46c-.05-.23-.23-.55-.37-.73l-.09-.14-.09-.13c-.1-.13-.19-.19-.27-.16,0,0,0,0,0,0-.03,0-.06.03-.09.07,0,0,0,0,0,0-.02.06-.02.16,0,.25.03.11.08.22.18.29l.06.06.03.03c.14.14.32.46.32.68l.09.96c0,.23-.14.5-.32.64l-.64.41c-.18.14-.46.32-.59.5-.14.14-.32.09-.37-.09v-.05c-.05-.23.05-.41.23-.41s.27-.23.23-.41l-.05-.23c-.05-.23-.23-.5-.41-.64s-.27-.37-.23-.5-.14-.27-.37-.23l-.27.05c-.23,0-.37.14-.32.32.05.14,0,.41-.09.55s-.14.46-.14.68v.05c0,.23.05.46.09.5.05.05.05.27,0,.5s-.27.46-.46.5c-.18.05-.41.27-.5.5l-.55,2.1c-.05.23.09.37.32.32l.23-.05c.23-.05.27.05.09.18l-1.73,1.42c-.18.14-.32.32-.32.41s.18.09.37,0l.27-.14c.23-.09.32,0,.23.23l-.09.14c-.09.18-.18.46-.18.59,0,.09-.05.27-.14.32-.05.05-.09.18-.05.23.05.05,0,.18-.09.32-.09.09-.09.37-.05.59l.27,1.64c.05.23.05.59.05.82l-.12,1.87h2.24ZM123.94,69.61c.09-.09.23-.14.32-.09s.09.09,0,.18c-.09.09-.23.14-.32.09-.09-.05-.09-.09,0-.18ZM124.86,63.49c0-.18.09-.23.27-.14.14.09.41.14.55.14s.18.14.09.32c-.09.23-.27.27-.5.18-.23-.09-.41-.32-.41-.5ZM124.02,66.31s-.05-.15.01-.31l.09-.18c.03-.07.06-.11.08-.13.06-.05.11.02.15.18,0,.23-.09.46-.23.46-.05.02-.08,0-.1-.01ZM122.62,70.48c.14-.18.41-.18.59,0s.55.37.78.41c.23.05.18.18-.14.32l-.37.18c-.32.18-.68.09-.87-.14-.09-.23-.09-.59,0-.78Z" fill="#0080c9" stroke-width="0"/><path d="M128.51,76.73h.41c.23,0,.41-.18.41-.41v-.18c0-.23-.18-.41-.41-.41h-2.52c-.07.19-.24.34-.45.37h-.78c-.27,0-.48-.15-.58-.37h-2.71c-.23,0-.41.18-.41.41v.18c0,.23.18.41.41.41h6.62Z" fill="#005d95" stroke-width="0"/><path d="M123.49,71.39l.37-.18c.32-.14.37-.27.14-.32-.23-.05-.59-.23-.78-.41s-.46-.18-.59,0c-.09.18-.09.55,0,.78.18.23.55.32.87.14Z" fill="#005d95" stroke-width="0"/><path d="M126.41,75.41l-1-3.65c-.09-.37-.09-.91,0-1.23l.23-.91c.09-.37.09-.91-.05-1.23l-.14-.46v-.05c.14-.09.27-.23.32-.32.18-.23.32-.59.23-.73s-.14-.14-.18,0-.27.32-.5.32-.64.18-.91.41l-1.14.91c-.27.23-.46.46-.41.55.05.09.37,0,.68-.14l1.14-.5c.05.09.09.18.14.27l.18.18c.23.27.37.73.23,1.05l-.37,1c-.14.32-.23.91-.23,1.28l-.09,3.29c0,.1.02.19.06.27.1.22.32.37.58.37h.78c.21-.03.38-.18.45-.37.04-.1.04-.21.01-.32Z" fill="#005d95" stroke-width="0"/><path d="M123.94,69.79c.09.05.23,0,.32-.09.09-.09.09-.14,0-.18s-.23,0-.32.09c-.09.09-.09.14,0,.18Z" fill="#005d95" stroke-width="0"/><path d="M125.27,64c.23.09.41.05.5-.18.09-.18.05-.32-.09-.32s-.41-.05-.55-.14c-.18-.09-.27-.05-.27.14s.18.41.41.5Z" fill="#005d95" stroke-width="0"/><path d="M62.12,49.4c.09.09.18.18.27.32l.5.64.05.05.05-.05c.27-.14.5-.32.78-.5.14-.09.23-.14.41-.09.14,0,.27.09.41.09l1.78.55h.14c-.23-.27-.5-.46-.78-.68l-.41-.27-.41-.23c-.09-.05-.14-.09-.23-.09l-.05-.05s-.09-.05-.09-.05c-.09,0-.14-.05-.23-.05h-.5c-.09,0-.18.05-.27.09-.05,0-.09.05-.14.05l-.05.05c-.09.05-.14.09-.23.14t-.09-.09l-.14-.14-.09-.09s-.09-.09-.18-.14c-.23-.18-.5-.23-.78-.23h-.23c-.09,0-.14.05-.23.05-.14.05-.27.05-.41.09-.27.09-.55.18-.82.32v.09l1.64.09c.14,0,.23.05.32.14Z" fill="#a0d9f7" stroke-width="0"/><path d="M67.09,53.23s-.09.09-.09.09c-.05.09-.14.14-.18.23-.05-.05-.14-.05-.18-.09-.09-.05-.14-.05-.32-.09-.14,0-.32,0-.41.05-.18.09-.32.18-.46.27-.14.09-.27.23-.41.37v.05l1-.37c.09-.05.18-.05.23,0,.09,0,.14.05.23.09l.46.23h.05v-.05l.37-.46c.09-.18.32-.18.5-.18l1.14-.14c-.23-.09-.41-.09-.59-.14s-.41-.05-.59-.05h-.37c-.09,0-.18.05-.23.09s-.09.05-.14.09Z" fill="#a0d9f7" stroke-width="0"/><path d="M97.33,82.65c-2.9,0-5.25,2.35-5.25,5.25s2.35,5.25,5.25,5.25,5.25-2.35,5.25-5.25-2.35-5.25-5.25-5.25ZM97.74,84.18c0-.27.22-.5.5-.5s.5.22.5.5-.22.5-.5.5-.5-.22-.5-.5ZM99.64,85.52c-.27,0-.5-.22-.5-.5s.22-.5.5-.5.5.22.5.5-.22.5-.5.5ZM97.67,85.52c0-.27.22-.5.5-.5s.5.22.5.5-.22.5-.5.5-.5-.22-.5-.5Z" fill="#0bbbef" stroke-width="0"/><path d="M179.46,84.13s0-.02,0-.03c0,0,0,.02,0,.03Z" fill="#a1daf8" stroke-width="0"/><path d="M181.67,84.1s0,.02,0,.03c0,0,0-.02,0-.03Z" fill="#a1daf8" stroke-width="0"/><path d="M181.37,82.65c-.02-.33,0-.63.1-.9.1-.27.26-.51.26-1.09,0-.88-.46-1.35-1.15-1.36h0s0,0-.01,0c0,0,0,0-.01,0h0c-.68.01-1.15.49-1.15,1.36,0,.58.16.82.26,1.09.1.27.12.58.1.9h1.61Z" fill="#a1daf8" stroke-width="0"/><path d="M181.57,83.75c-.03-.12-.06-.25-.09-.37h-1.82c-.03.12-.06.24-.09.37h2Z" fill="#a1daf8" stroke-width="0"/><path d="M179.69,83.2s0,0,0-.01c0,0,0,0,0,.01Z" fill="#a1daf8" stroke-width="0"/><path d="M181.44,83.19s0,0,0,.01c0,0,0,0,0-.01Z" fill="#a1daf8" stroke-width="0"/><path d="M181.79,84.49s0,0,0,0h-2.44c-.41,1.3-.96,2.74-.9,4.12.11,2.43.54,3.41,1.25,4.56h1.75c.71-1.15,1.13-2.13,1.25-4.56.06-1.38-.49-2.82-.9-4.12Z" fill="#a1daf8" stroke-width="0"/><path d="M181.48,83.38c-.01-.06-.03-.12-.04-.18,0,0,0,0,0-.01-.04-.19-.06-.37-.07-.55h-1.61c-.01.18-.04.36-.07.55,0,0,0,0,0,.01-.01.06-.02.12-.04.18h1.82Z" fill="#005d95" stroke-width="0"/><path d="M181.79,84.49s0,0,0,0c-.04-.12-.08-.24-.11-.36,0,0,0-.02,0-.03-.04-.12-.07-.24-.1-.35h-2c-.03.12-.06.23-.1.35,0,0,0,.02,0,.03-.04.12-.07.24-.11.36h2.44Z" fill="#005d95" stroke-width="0"/><path d="M176.65,81.65c-.03-.12-.06-.25-.09-.37h-1.82s0,0,0,0c-.03.12-.06.24-.09.37,0,0,0,0,0,0h2Z" fill="#a1daf8" stroke-width="0"/><path d="M174.81,80.9s0,0,0,0c0,0,0,0,0,0Z" fill="#a1daf8" stroke-width="0"/><path d="M176.75,82s0,.02,0,.03c0,0,0-.02,0-.03Z" fill="#a1daf8" stroke-width="0"/><path d="M174.54,82.02s0-.02,0-.03c0,0,0,.02,0,.03Z" fill="#a1daf8" stroke-width="0"/><path d="M174.77,81.1s0-.01,0-.02c0,0,0,.01,0,.02Z" fill="#a1daf8" stroke-width="0"/><path d="M176.45,80.54s0,0,0,0c-.02-.33,0-.63.1-.9.1-.27.26-.51.26-1.09,0-.88-.46-1.35-1.15-1.36h0s0,0-.01,0c0,0,0,0-.01,0h0c-.68.01-1.15.49-1.15,1.36,0,.58.16.82.26,1.09.1.27.12.58.1.9h1.61Z" fill="#a1daf8" stroke-width="0"/><path d="M176.52,81.09s0,.01,0,.02c0,0,0-.01,0-.02Z" fill="#a1daf8" stroke-width="0"/><path d="M177.77,86.5c.06-1.38-.49-2.82-.9-4.12,0,0,0,0,0,0h-2.44c-.41,1.3-.96,2.74-.9,4.12.11,2.43.54,3.41,1.25,4.56h1.75c.71-1.15,1.13-2.13,1.25-4.56Z" fill="#a1daf8" stroke-width="0"/><path d="M176.56,81.28h0c-.01-.06-.02-.12-.04-.18,0,0,0-.01,0-.02-.04-.19-.06-.37-.07-.54,0,0,0,0,0,0h-1.61c0,.12-.02.24-.04.36,0,0,0,0,0,0,0,.06-.02.12-.03.18,0,0,0,.01,0,.02-.01.06-.02.12-.04.17,0,0,0,0,0,0h1.82Z" fill="#005d95" stroke-width="0"/><path d="M176.87,82.38s0,0,0,0c-.04-.12-.08-.24-.11-.36,0,0,0-.02,0-.03-.04-.12-.07-.24-.1-.35h-2s0,0,0,0c-.03.11-.06.23-.1.35,0,0,0,.02,0,.03-.04.12-.07.24-.11.36h2.44Z" fill="#005d95" stroke-width="0"/><path d="M171.61,78.41s0,.01,0,.02c0,0,0-.01,0-.02Z" fill="#a1daf8" stroke-width="0"/><path d="M171.53,77.87s0,0,0,0c-.02-.33,0-.63.1-.9.1-.27.26-.51.26-1.09,0-.88-.46-1.35-1.15-1.36h0s0,0-.01,0c0,0,0,0-.01,0h0c-.68.01-1.15.49-1.15,1.36,0,.58.16.82.26,1.09.1.27.12.58.1.9h1.61Z" fill="#a1daf8" stroke-width="0"/><path d="M171.57,78.23s0,0,0,0c0,0,0,0,0,0Z" fill="#a1daf8" stroke-width="0"/><path d="M171.83,79.32s0,.02,0,.03c0,0,0-.02,0-.03Z" fill="#a1daf8" stroke-width="0"/><path d="M169.86,78.43s0-.01,0-.02c0,0,0,.01,0,.02Z" fill="#a1daf8" stroke-width="0"/><path d="M171.73,78.97c-.03-.12-.06-.25-.09-.37h-1.82c-.03.12-.06.24-.09.37h2s0,0,0,0Z" fill="#a1daf8" stroke-width="0"/><path d="M169.62,79.35s0-.02,0-.03c0,0,0,.02,0,.03Z" fill="#a1daf8" stroke-width="0"/><path d="M172.85,83.83c.06-1.38-.49-2.82-.9-4.12,0,0,0,0,0,0h-2.44c-.41,1.3-.96,2.74-.9,4.12.11,2.43.54,3.41,1.25,4.56h1.75c.71-1.15,1.13-2.13,1.25-4.56Z" fill="#a1daf8" stroke-width="0"/><path d="M209.71,87.98c0-1.44-1.16-2.61-2.6-2.61-10.1,0-18.63,0-18.67,0h-.78v-12.32h-.05s-.06,0-.06,0h-.17v-.91h-.05l-.11-1.29-.02-.26v.07s-.14,1.48-.14,1.48h-.05v.91h-.37v.37h0s-.23,0-.23,0h0v-.37h-.37v.37h0s-.23,0-.23,0h0v-.37h-.46v.37h0s-.23,0-.23,0h0v-.37h-.37v-.91h-.05l-.14-1.55-.14,1.55h-.05v.91h-.37v.37h0s-.23,0-.23,0h0v-.37h-.37v.37h0s-.23,0-.23,0h0v-.37h-.37v.37h0s-.23,0-.23,0h0v-.37h-.46v-.91h-.05l-.14-1.55-.14,1.55h-.05v.91h-.37v.37h0s-.23,0-.23,0h0v-.37h-.37v.37h0s-.23,0-.23,0h0v-.37h-.37v.37h0s-.23,0-.23,0h0v-1.78l-.44-3.06-.34-2.33-.34,2.33-.44,3.06v1.78h0s-.05,0-.05,0h0s-.96-1.32-.96-1.32v-2.24h-.32v1.92l-1.05-1.46v-2.51h-.23v2.24l-1.05-1.46h0v-2.37h-.23v.59h-1.1v-1.83h-.23v1.83h-1.05v-.59h-.23v2.37h0s-1.05,1.46-1.05,1.46v-2.24h-.23v2.51l-1.05,1.46v-1.92h-.27v2.24l-.96,1.32h0s-.05,0-.05,0h0v-1.78l-.44-3.06-.34-2.33-.34,2.33-.44,3.06v1.42h-.05v.37h0s-.23,0-.23,0h0v-.37h-.37v.37h0s-.23,0-.23,0h0v-.37h-.37v.37h0s-.23,0-.23,0h0v-.37h-.37v-.91h-.05l-.14-1.55-.14,1.55h-.05v.91h-.37v.37h0s-.37,0-.37,0h0v-.37h-.37v.37h0s-.23,0-.23,0h0v-.37h-.37v.37h0s-.23,0-.23,0h0v-.37h-.37v-.91h-.05l-.14-1.55-.14,1.55h-.05v.91h-.37v.37h0s-.23,0-.23,0h0v-.37h-.37v.37h0s-.32,0-.32,0h0v-.37h-.37v.37h0s-.23,0-.23,0h0v-.37h-.37v-.91h-.05l-.14-1.55-.14,1.55h-.05v.91h-.37v.37h0s-.23,0-.23,0h0v-.37h-.37v.37h0s-.23,0-.23,0h0v-.37h-.37v.37h0s-.23,0-.23,0h0v-.37h-.37v-.91h-.18l-.14-1.55-.14,1.55h-.05v.91h-.37v.37h0s-.23,0-.23,0h0v-.37h-.46v.37h0s-.23,0-.23,0h0v-.37h-.37v.37h0s-.23,0-.23,0h0v-.37h-.37v-.91h-.05l-.14-1.55-.14,1.55h-.05v.91h-.37v.37h0s-.23,0-.23,0h0v-.37h-.37v.37h0s-.23,0-.23,0h0v-.37h-.46v.37h0s-.23,0-.23,0h0v-.37h-.23v-9.54h-.82v-8.76l-.14-1.42-.14,1.42-.23-2.05-.23,2.05-.14-1.42-.14,1.42v-3.06l-.32-2.05-.32,2.05v-3.06l-.87-5.39-.87,5.39v3.06l-.32-2.05-.32,2.05v3.06l-.14-1.42-.14,1.42-.23-2.05-.23,2.05-.14-1.42-.14,1.42v8.76h-.82v9.54h-.27v.37h0s-.23,0-.23,0h0v-.37h-.37v.37h0s-.23,0-.23,0h0v-.37h-.37v.37h0s-.23,0-.23,0h0v-.37h-.37v-.91h-.05l-.14-1.55-.14,1.55h-.05v.91h-.37v.37h0s-.23,0-.23,0h0v-.37h-.37v.37h0s-.23,0-.23,0h0v-.37h-.37v.37h0s-.23,0-.23,0h0v-.37h-.37v-.91h-.05l-.14-1.55-.14,1.55h-.32v.91h-.37v.37h0s-.23,0-.23,0h0v-.37h-.37v.37h0s-.23,0-.23,0h0v-.37h-.37v.37h0s-.27,0-.27,0h0v-.37h-.37v-.91h-.05l-.14-1.55-.14,1.55h-.05v.91h-.37v.37h0s-.27,0-.27,0h0v-.37h-.37v.37h0s-.23,0-.23,0h0v-.37h-.37v.37h0s-.23,0-.23,0h0v-.37h-.37v.37h0s-.18,0-.18,0h0v-4.88l-.78-5.39-.78,5.39v4.88h0v11.96h-3.93v-7.35c0-.68-.55-1.28-1.28-1.28h-6.16c-.68,0-1.28.55-1.28,1.28v7.35h-4.43v-11.91h-28.03v11.91h-.32v-21.73h-.96v-6.89h-.5v-5.48h-1.92s0,0,0,0,0,0,0,0h-1.92v5.48h-.5v6.89h-.96v4.7h2.69v-1.14h1.37v1.14h2.65v.27h-6.71v3.61h2.69v-1.14h1.37v1.14h2.65v.27h-6.71v3.61h2.69v-1.14h1.37v1.14h2.65v.27h-6.71v3.61h2.69v-1.14h1.37v1.14h2.65v.27h-6.71v5.11H8.41c-1.43,0-2.6,1.17-2.6,2.6v5.01c0,1.43,1.17,2.6,2.6,2.6h198.68c1.43,0,2.59-1.16,2.6-2.59l.02-5.01ZM84.19,54.55c0-.37.14-.68.37-.87l.37-.32.37.32c.23.18.37.5.37.87v2.19h-1.46v-2.19ZM84.92,60.75c-.71,0-1.28-.57-1.28-1.28s.57-1.28,1.28-1.28,1.28.57,1.28,1.28-.57,1.28-1.28,1.28ZM99.61,78.56c0-1.1.14-2.15.37-2.74l.41-1.05.41,1.05c.23.59.37,1.64.37,2.74v5.03c-.46-.41-.98-.74-1.55-.99v-4.04ZM96.33,78.56c0-1.1.14-2.15.37-2.74l.41-1.05.41,1.05c.23.59.37,1.64.37,2.74v3.6c-.18-.02-.36-.03-.55-.03-.34,0-.68.03-1,.09v-3.66ZM93,78.56c0-1.1.14-2.15.37-2.74l.41-1.05.41,1.05c.23.59.37,1.64.37,2.74v4.29c-.59.32-1.11.75-1.55,1.25v-5.53ZM89.71,85.36v-6.8c0-1.1.14-2.15.37-2.74l.41-1.05.41,1.05c.23.59.37,1.64.37,2.74v6.8h-1.55ZM97.33,93.16c-2.9,0-5.25-2.35-5.25-5.25s2.35-5.25,5.25-5.25,5.25,2.35,5.25,5.25-2.35,5.25-5.25,5.25ZM102.9,85.36v-6.8c0-1.1.14-2.15.37-2.74l.41-1.05.41,1.05c.23.59.37,1.64.37,2.74v6.8h-1.55ZM106.23,85.36v-6.8c0-1.1.14-2.15.37-2.74l.41-1.05.41,1.05c.23.59.37,1.64.37,2.74v6.8h-1.55ZM109.52,85.36v-6.8c0-1.1.14-2.15.37-2.74l.41-1.05.41,1.05c.23.59.37,1.64.37,2.74v6.8h-1.55ZM112.81,85.36v-6.8c0-1.1.14-2.15.37-2.74l.41-1.05.41,1.05c.23.59.37,1.64.37,2.74v6.8h-1.55ZM185.7,74.95l.18-.32.23.32v1.32h-.41v-1.32ZM184.88,74.95l.18-.32.23.32v1.32h-.41v-1.32ZM184.88,77.1h1.23v1.6h-1.23v-1.6ZM184.88,79.56h1.23v1.6h-1.23v-1.6ZM183.24,74.95l.18-.32.23.32v1.32h-.41v-1.32ZM182.42,74.95l.18-.32.23.32v1.32h-.41v-1.32ZM182.42,77.1h1.23v1.6h-1.23v-1.6ZM182.42,79.56h1.23v1.6h-1.23v-1.6ZM180.77,74.95l.23-.32.18.32v1.32h-.41v-1.32ZM179.95,74.95l.23-.32.18.32v1.32h-.41v-1.32ZM179.95,77.1h1.23v1.6h-1.23v-1.6ZM173.97,78.74h-1.5v-.82c0-.46.37-.82.82-.82.42,0,.77.31.78.72-.07.22-.1.46-.1.73,0,.07,0,.13,0,.19ZM175.02,75.45c0-.46.37-.82.82-.82s.82.37.78.82v.82h-1.6v-.82ZM174.57,67.05v1.19l-.91-1.19h.91ZM174.06,75.45v.82h-1.6v-.82c0-.46.37-.82.82-.82s.82.37.78.82ZM172.19,67.05h.91l-.91,1.19v-1.19ZM166.12,74.95l.18-.32.18.32v1.32h-.37v-1.32ZM165.3,74.95l.18-.32.18.32v1.32h-.37v-1.32ZM165.25,77.1h1.23v1.6h-1.23v-1.6ZM165.25,79.56h1.23v1.6h-1.23v-1.6ZM163.66,74.95l.18-.32.18.32v1.32h-.37v-1.32ZM162.83,74.95l.18-.32.18.32v1.32h-.37v-1.32ZM162.83,77.1h1.23v1.6h-1.23v-1.6ZM162.83,79.56h1.23v1.6h-1.23v-1.6ZM161.19,74.95l.18-.32.18.32v1.32h-.37v-1.32ZM160.37,74.95l.18-.32.18.32v1.32h-.37v-1.32ZM160.37,77.1h1.23v1.6h-1.23v-1.6ZM160.37,79.56h1.23v1.6h-1.23v-1.6ZM157.22,74.63h1.23v1.6h-1.23v-1.6ZM157.22,77.1h1.23v1.6h-1.23v-1.6ZM157.22,79.56h1.23v1.6h-1.23v-1.6ZM154.76,74.63h1.23v1.6h-1.23v-1.6ZM154.76,77.1h1.23v1.6h-1.23v-1.6ZM154.76,79.56h1.23v1.6h-1.23v-1.6ZM152.29,74.63h1.23v1.6h-1.23v-1.6ZM152.29,77.1h1.23v1.6h-1.23v-1.6ZM152.29,79.56h1.23v1.6h-1.23v-1.6ZM149.6,75.54l.05.78h-1.96v-.78c0-.37.18-.68.46-.87l.5-.32.5.32c.27.18.46.5.46.87ZM149.14,63.26v-1.42l.32-.32.32.32v1.42h-.64ZM149.64,78.78h-1.96v-.78c0-.37.18-.68.46-.87l.5-.32.5.32c.27.18.46.5.46.87l.05.78ZM148.23,63.26h-.68v-1.42l.37-.32.32.32v1.42ZM147.68,80.47c0-.37.18-.68.46-.87l.5-.32.5.32c.27.18.46.5.46.87l.05.78h-1.96v-.78ZM149.69,55.64l.23-.27.18.27v1.14h-.41v-1.14ZM149.28,55.64v1.14h-.41v-1.14l.23-.27.18.27ZM148.46,49.84l.23-.37.18.37v1.42h-.41v-1.42ZM148.36,53.09l.32-.41.32.41v1.64h-.64v-1.64ZM148.05,55.64l.23-.27.18.27v1.14h-.41v-1.14ZM148.68,57.65c.53,0,.96.43.96.96s-.43.96-.96.96-.96-.43-.96-.96.43-.96.96-.96ZM147.22,55.64l.23-.27.18.27v1.14h-.41v-1.14ZM143.39,74.63h1.23v1.6h-1.23v-1.6ZM143.39,77.1h1.23v1.6h-1.23v-1.6ZM143.39,79.56h1.23v1.6h-1.23v-1.6ZM140.92,74.63h1.23v1.6h-1.23v-1.6ZM140.92,77.1h1.23v1.6h-1.23v-1.6ZM140.92,79.56h1.23v1.6h-1.23v-1.6ZM138.46,74.63h1.23v1.6h-1.23v-1.6ZM138.46,77.1h1.23v1.6h-1.23v-1.6ZM138.46,79.56h1.23v1.6h-1.23v-1.6ZM135.99,74.63h1.23v1.6h-1.23v-1.6ZM135.99,77.1h1.23v1.6h-1.23v-1.6ZM135.99,79.56h1.23v1.6h-1.23v-1.6ZM135.49,85.36v-1.96c0-.37.18-.68.46-.87l.5-.32.5.32c.27.18.46.5.46.87l.04,1.96h-1.96ZM138.09,85.36v-1.96c0-.37.18-.68.46-.87l.5-.32.5.32c.27.18.46.5.46.87l.04,1.96h-1.96ZM140.65,85.36v-1.96c0-.37.18-.68.46-.87l.5-.32.5.32c.27.18.46.5.46.87l.04,1.96h-1.96ZM143.21,85.36v-1.96c0-.37.18-.68.46-.87l.5-.32.5.32c.27.18.46.5.46.87l.04,1.96h-1.96ZM147.68,85.36v-1.96c0-.37.18-.68.46-.87l.5-.32.5.32c.27.18.46.5.46.87l.04,1.96h-1.96ZM151.93,85.36v-1.96c0-.37.18-.68.46-.87l.5-.32.5.32c.27.18.46.5.46.87l.04,1.96h-1.96ZM154.53,85.36v-1.96c0-.37.18-.68.46-.87l.5-.32.5.32c.27.18.46.5.46.87l.04,1.96h-1.96ZM157.08,85.36v-1.96c0-.37.18-.68.46-.87l.5-.32.5.32c.27.18.46.5.46.87l.04,1.96h-1.96ZM160,85.36v-1.96c0-.37.18-.68.46-.87l.5-.32.5.32c.27.18.46.5.46.87l.04,1.96h-1.96ZM162.56,85.36v-1.96c0-.37.18-.68.46-.87l.5-.32.5.32c.27.18.46.5.46.87l.04,1.96h-1.96ZM165.12,85.36v-1.96c0-.37.18-.68.46-.87l.5-.32.5.32c.27.18.46.5.46.87l.04,1.96h-1.96ZM172.85,83.83c-.11,2.43-.54,3.41-1.25,4.56h-1.75c-.71-1.15-1.13-2.13-1.25-4.56-.06-1.38.49-2.82.9-4.12.04-.12.08-.24.11-.36,0,0,0-.02,0-.03.04-.12.07-.24.1-.35.03-.12.06-.25.09-.37.01-.06.02-.12.04-.18,0,0,0-.01,0-.02.04-.19.06-.37.07-.54h0c.02-.33,0-.63-.1-.9-.1-.27-.26-.51-.26-1.09,0-.88.46-1.35,1.15-1.36h0s0,0,.01,0c0,0,0,0,.01,0h0c.68.01,1.15.49,1.15,1.36,0,.58-.16.82-.26,1.09-.1.27-.12.58-.1.9,0,.12.02.24.04.36,0,0,0,0,0,0,0,.06.02.12.03.18,0,0,0,.01,0,.02.01.06.02.12.04.18.03.12.06.24.09.37.03.11.06.23.1.35,0,0,0,.02,0,.03.04.12.07.24.11.36.41,1.3.96,2.74.9,4.12ZM172.63,80.08s-.03-.08-.04-.13c.14-.24.4-.39.7-.39.46,0,.82.37.78.82v.82h-1.08c-.11-.39-.23-.76-.35-1.12ZM173.24,82.27l.09-.06.5.32c-.02.08-.05.15-.07.23-.13.39-.26.8-.38,1.23,0-.04,0-.08,0-.13.02-.53-.03-1.06-.14-1.59ZM177.77,86.5c-.11,2.43-.54,3.41-1.25,4.56h-1.75c-.71-1.15-1.13-2.13-1.25-4.56-.06-1.38.49-2.82.9-4.12h0c.04-.12.08-.24.11-.36,0,0,0-.02,0-.03.04-.12.07-.23.1-.35.03-.12.06-.25.09-.37.01-.06.02-.12.04-.17,0,0,0-.01,0-.02.01-.06.02-.12.03-.18,0,0,0,0,0,0,.02-.12.03-.24.04-.36.02-.33,0-.63-.1-.9-.1-.27-.26-.51-.26-1.09,0-.88.46-1.35,1.15-1.36h0s0,0,.01,0c0,0,0,0,.01,0h0c.68.01,1.15.49,1.15,1.36,0,.58-.16.82-.26,1.09-.1.27-.12.58-.1.9.01.18.04.36.07.54,0,0,0,.01,0,.02.01.06.02.12.04.18.03.12.06.24.09.37.03.12.06.23.1.35,0,0,0,.02,0,.03.04.12.07.24.11.36.41,1.3.96,2.74.9,4.12ZM182.69,88.6c-.11,2.43-.54,3.41-1.25,4.56h-1.75c-.71-1.15-1.13-2.13-1.25-4.56-.06-1.38.49-2.82.9-4.12h0c.04-.12.08-.24.11-.36,0,0,0-.02,0-.03.04-.12.07-.24.1-.35.03-.12.06-.25.09-.37h0c.01-.06.03-.12.04-.18,0,0,0,0,0-.01.04-.19.06-.37.07-.55h0c.02-.33,0-.63-.1-.9-.1-.27-.26-.51-.26-1.09,0-.88.46-1.35,1.15-1.36h0s0,0,.01,0c0,0,0,0,.01,0h0c.68.01,1.15.49,1.15,1.36,0,.58-.16.82-.26,1.09-.1.27-.12.58-.1.9.01.18.04.36.07.55,0,0,0,0,0,.01.01.06.02.12.04.18h0c.03.12.06.24.09.37.03.12.06.23.1.35,0,0,0,.02,0,.03.04.12.07.24.11.36.41,1.3.96,2.74.9,4.12ZM182.63,85.36c-.05-.17-.11-.34-.16-.5-.11-.35-.23-.69-.32-1.02v-.44c0-.37.18-.68.46-.87l.5-.32.5.32c.27.18.46.5.46.87l.04,1.96h-1.47ZM184.7,85.36v-1.96c0-.37.18-.68.46-.87l.5-.32.5.32c.27.18.46.5.46.87l.04,1.96h-1.96Z" fill="#004158" stroke-width="0"/><circle cx="98.24" cy="84.18" r=".5" fill="#004158" stroke-width="0"/><circle cx="98.16" cy="85.52" r=".5" fill="#004158" stroke-width="0"/><path d="M99.64,84.53c-.27,0-.5.22-.5.5s.22.5.5.5.5-.22.5-.5-.22-.5-.5-.5Z" fill="#004158" stroke-width="0"/><path d="M171.64,78.61h0c-.01-.06-.02-.12-.04-.18,0,0,0-.01,0-.02-.01-.06-.02-.12-.03-.18,0,0,0,0,0,0-.02-.12-.03-.24-.04-.36,0,0,0,0,0,0h-1.61c-.01.18-.04.36-.07.54,0,0,0,.01,0,.02-.01.06-.02.12-.04.18h1.82Z" fill="#005d95" stroke-width="0"/><path d="M171.95,79.71s0,0,0,0c-.04-.12-.08-.24-.11-.36,0,0,0-.02,0-.03-.04-.12-.07-.23-.1-.35,0,0,0,0,0,0h-2c-.03.12-.06.23-.1.35,0,0,0,.02,0,.03-.04.12-.07.24-.11.36h2.44Z" fill="#005d95" stroke-width="0"/><path d="M121.87,23.14h8.86c2.01,0,3.65-1.64,3.65-3.61.05-1.69-1-3.1-2.51-3.56-.46-1.96-2.19-3.42-4.29-3.42s-3.79,1.42-4.25,3.38c-.87.32-1.55.91-1.96,1.73-1.28.23-2.28,1.37-2.28,2.74,0,1.51,1.23,2.74,2.78,2.74ZM121.87,18.71c.09,0,.18.05.27.05.23-1.05,1.1-1.83,2.19-1.92.05-1.78,1.51-3.15,3.24-3.15s3.24,1.46,3.24,3.24c1.37.05,2.46,1.14,2.42,2.56,0,1.37-1.1,2.51-2.51,2.51h-8.86c-.91,0-1.64-.73-1.64-1.64s.73-1.64,1.64-1.64Z" fill="#fff" stroke-width="0"/><path d="M121.87,22h8.86c1.42,0,2.51-1.14,2.51-2.51.05-1.42-1.05-2.51-2.42-2.56,0-1.78-1.46-3.24-3.24-3.24s-3.2,1.37-3.24,3.15c-1.1.09-1.96.87-2.19,1.92-.09,0-.18-.05-.27-.05-.91,0-1.64.73-1.64,1.64s.73,1.64,1.64,1.64Z" fill="#a1daf8" stroke-width="0"/><path d="M160.43,29.75c-2,0-3.79-.44-5.37-1.31-1.58-.87-2.82-2.09-3.7-3.64-.65-1.13-1.05-2.37-1.23-3.72-.08.02-.16.05-.24.06-1.72.31-3.62.44-5.23-.24.19,2.3.81,4.41,1.93,6.31,1.35,2.28,3.2,4.06,5.58,5.35,2.37,1.29,5.03,1.94,7.97,1.94,2.39,0,4.57-.42,6.56-1.25,1.98-.83,3.66-2.04,5.02-3.62l-3.5-3.33c-2.11,2.3-4.7,3.46-7.78,3.46Z" fill="#0086ff" stroke-width="0"/></g></svg>