<svg viewBox="0 0 368.73 104" xmlns="http://www.w3.org/2000/svg"><g fill="#004fff"><path d="m126.97 43.22v-22.96h5.68v2.5h.83c.4-.77 1.05-1.44 1.97-2.01s2.12-.86 3.62-.86c1.62 0 2.92.32 3.9.95s1.73 1.46 2.25 2.48h.83c.52-.99 1.25-1.81 2.2-2.45.95-.65 2.29-.97 4.03-.97 1.41 0 2.68.3 3.83.9s2.06 1.51 2.75 2.73 1.03 2.76 1.03 4.61v15.09h-5.77v-14.68c0-1.26-.32-2.21-.96-2.85-.64-.63-1.54-.95-2.7-.95-1.31 0-2.33.42-3.05 1.27s-1.08 2.06-1.08 3.63v13.56h-5.77v-14.68c0-1.26-.32-2.21-.96-2.85-.64-.63-1.54-.95-2.7-.95-1.31 0-2.33.42-3.05 1.27s-1.08 2.06-1.08 3.63v13.56h-5.77z"/><path d="m176.14 43.87c-2.28 0-4.3-.49-6.04-1.46s-3.1-2.35-4.07-4.12-1.46-3.87-1.46-6.27v-.55c0-2.41.48-4.5 1.44-6.27s2.3-3.15 4.03-4.12 3.73-1.46 6.02-1.46 4.21.5 5.88 1.5 2.96 2.39 3.89 4.17 1.39 3.84 1.39 6.18v1.99h-16.71c.06 1.57.65 2.85 1.76 3.84s2.47 1.48 4.07 1.48 2.84-.35 3.61-1.06 1.36-1.5 1.76-2.36l4.77 2.5c-.43.8-1.06 1.67-1.88 2.62-.82.94-1.91 1.74-3.26 2.41-1.36.66-3.09 1-5.19 1zm-5.6-14.77h10.74c-.12-1.33-.66-2.39-1.6-3.19s-2.17-1.2-3.68-1.2-2.82.4-3.75 1.2-1.5 1.87-1.71 3.19z"/><path d="m199.99 43.22c-1.51 0-2.74-.47-3.68-1.41s-1.41-2.2-1.41-3.77v-12.96h-5.74v-4.81h5.74v-7.13h5.83v7.13h6.3v4.81h-6.3v11.94c0 .93.43 1.39 1.3 1.39h4.44v4.81z"/><path d="m218.98 43.87c-1.64 0-3.1-.29-4.4-.86s-2.32-1.4-3.08-2.5-1.13-2.43-1.13-4 .38-2.89 1.13-3.96c.76-1.07 1.81-1.87 3.15-2.41s2.88-.81 4.61-.81h6.3v-1.3c0-1.08-.34-1.97-1.02-2.66s-1.76-1.04-3.24-1.04-2.53.33-3.24 1c-.71.66-1.17 1.52-1.39 2.57l-5.37-1.81c.37-1.17.96-2.25 1.78-3.22s1.91-1.76 3.29-2.36 3.05-.9 5.02-.9c3.02 0 5.42.76 7.18 2.27s2.64 3.7 2.64 6.57v8.56c0 .93.43 1.39 1.3 1.39h1.85v4.81h-3.89c-1.14 0-2.08-.28-2.82-.83-.74-.56-1.11-1.3-1.11-2.22v-.05h-.88c-.12.37-.4.86-.83 1.46s-1.11 1.13-2.04 1.6c-.93.46-2.19.69-3.8.69zm1.02-4.72c1.64 0 2.97-.45 4-1.37 1.03-.91 1.55-2.12 1.55-3.63v-.46h-5.88c-1.08 0-1.93.23-2.55.69s-.93 1.11-.93 1.94.32 1.51.97 2.04 1.59.79 2.82.79z"/><path d="m238.15 43.22v-32.41h5.83v32.41z"/><path d="m259.54 43.87c-2.99 0-5.45-.65-7.36-1.94-1.91-1.3-3.07-3.15-3.47-5.56l5.37-1.39c.22 1.08.58 1.93 1.09 2.55s1.14 1.06 1.9 1.32 1.58.39 2.48.39c1.36 0 2.36-.24 3.01-.72s.97-1.07.97-1.78-.31-1.26-.93-1.64c-.62-.39-1.6-.7-2.96-.95l-1.3-.23c-1.6-.31-3.07-.73-4.4-1.27s-2.39-1.29-3.19-2.25-1.2-2.19-1.2-3.7c0-2.28.83-4.04 2.5-5.25 1.67-1.22 3.86-1.83 6.57-1.83 2.56 0 4.69.57 6.39 1.71s2.81 2.64 3.33 4.49l-5.42 1.67c-.25-1.17-.75-2.01-1.5-2.5-.76-.49-1.69-.74-2.8-.74s-1.96.19-2.55.58-.88.92-.88 1.6c0 .74.31 1.29.93 1.64.62.36 1.45.63 2.5.81l1.3.23c1.73.31 3.29.72 4.7 1.23 1.4.51 2.51 1.23 3.33 2.18.82.94 1.23 2.21 1.23 3.82 0 2.41-.87 4.27-2.62 5.58-1.74 1.31-4.08 1.97-7.01 1.97z"/><path d="m282.14 43.22c-1.51 0-2.74-.47-3.68-1.41s-1.41-2.2-1.41-3.77v-12.96h-5.74v-4.81h5.74v-7.13h5.83v7.13h6.3v4.81h-6.3v11.94c0 .93.43 1.39 1.3 1.39h4.44v4.81z"/><path d="m301.12 43.87c-1.64 0-3.1-.29-4.4-.86s-2.32-1.4-3.08-2.5-1.13-2.43-1.13-4 .38-2.89 1.13-3.96c.76-1.07 1.81-1.87 3.15-2.41s2.88-.81 4.61-.81h6.3v-1.3c0-1.08-.34-1.97-1.02-2.66s-1.76-1.04-3.24-1.04-2.53.33-3.24 1c-.71.66-1.17 1.52-1.39 2.57l-5.37-1.81c.37-1.17.96-2.25 1.78-3.22s1.91-1.76 3.29-2.36c1.37-.6 3.05-.9 5.02-.9 3.02 0 5.42.76 7.18 2.27s2.64 3.7 2.64 6.57v8.56c0 .93.43 1.39 1.3 1.39h1.85v4.81h-3.89c-1.14 0-2.08-.28-2.82-.83-.74-.56-1.11-1.3-1.11-2.22v-.05h-.88c-.12.37-.4.86-.83 1.46s-1.11 1.13-2.04 1.6c-.93.46-2.19.69-3.8.69zm1.02-4.72c1.64 0 2.97-.45 4-1.37 1.03-.91 1.55-2.12 1.55-3.63v-.46h-5.88c-1.08 0-1.93.23-2.55.69s-.93 1.11-.93 1.94.32 1.51.97 2.04 1.59.79 2.82.79z"/><path d="m330.62 43.87c-2.22 0-4.24-.46-6.04-1.39-1.81-.93-3.23-2.27-4.28-4.03s-1.57-3.89-1.57-6.39v-.65c0-2.5.52-4.63 1.57-6.39s2.48-3.1 4.28-4.03c1.81-.93 3.82-1.39 6.04-1.39s4.07.39 5.65 1.16c1.57.77 2.85 1.83 3.82 3.17s1.61 2.86 1.92 4.56l-5.65 1.2c-.12-.93-.4-1.76-.83-2.5s-1.04-1.33-1.83-1.76-1.77-.65-2.94-.65-2.23.25-3.17.76-1.68 1.27-2.22 2.27-.81 2.23-.81 3.68v.46c0 1.45.27 2.68.81 3.68s1.28 1.76 2.22 2.27 2 .76 3.17.76c1.76 0 3.09-.45 4-1.37s1.49-2.11 1.74-3.59l5.65 1.34c-.4 1.64-1.09 3.13-2.06 4.47s-2.25 2.4-3.82 3.17-3.46 1.16-5.65 1.16z"/><path d="m346.5 43.22v-32.41h5.83v17.92h.83l7.59-8.47h7.59l-10.6 11.11 10.97 11.85h-7.5l-8.06-9.12h-.83v9.12h-5.83z"/></g><path d="m138.32 84.39c-2.24 0-4.28-.46-6.1-1.39s-3.27-2.27-4.33-4.03-1.59-3.89-1.59-6.39v-.65c0-2.5.53-4.63 1.59-6.39s2.5-3.1 4.33-4.03c1.82-.93 3.86-1.39 6.1-1.39s4.12.39 5.7 1.16c1.59.77 2.88 1.83 3.86 3.17s1.63 2.86 1.94 4.56l-5.7 1.2c-.13-.93-.41-1.76-.84-2.5-.44-.74-1.05-1.33-1.85-1.76s-1.78-.65-2.97-.65-2.25.25-3.2.76-1.7 1.27-2.24 2.27c-.55 1-.82 2.23-.82 3.68v.46c0 1.45.27 2.68.82 3.68s1.29 1.76 2.24 2.27 2.02.76 3.2.76c1.78 0 3.12-.45 4.04-1.37.92-.91 1.5-2.11 1.75-3.59l5.7 1.34c-.41 1.64-1.1 3.13-2.08 4.47s-2.27 2.4-3.86 3.17-3.49 1.16-5.7 1.16z"/><path d="m154.1 83.74v-32.4h5.77v32.41h-5.77z"/><path d="m176.56 84.39c-2.29 0-4.34-.46-6.16-1.39s-3.26-2.27-4.31-4.03-1.57-3.87-1.57-6.34v-.74c0-2.47.52-4.58 1.57-6.34s2.48-3.1 4.31-4.03c1.82-.93 3.87-1.39 6.16-1.39s4.34.46 6.16 1.39 3.26 2.27 4.31 4.03 1.57 3.87 1.57 6.34v.74c0 2.47-.53 4.58-1.57 6.34-1.05 1.76-2.48 3.1-4.31 4.03-1.82.93-3.87 1.39-6.16 1.39zm0-5.19c1.79 0 3.27-.58 4.44-1.74s1.76-2.82 1.76-4.98v-.46c0-2.16-.58-3.82-1.74-4.98s-2.65-1.74-4.47-1.74-3.27.58-4.44 1.74-1.76 2.82-1.76 4.98v.46c0 2.16.59 3.82 1.76 4.98s2.65 1.74 4.44 1.74z"/><path d="m201.98 84.11c-1.79 0-3.36-.41-4.7-1.23s-2.38-1.95-3.12-3.4-1.11-3.12-1.11-5v-13.7h5.83v13.24c0 1.73.42 3.03 1.27 3.89s2.06 1.3 3.63 1.3c1.79 0 3.18-.59 4.17-1.78s1.48-2.85 1.48-4.98v-11.67h5.83v22.96h-5.74v-3.01h-.83c-.37.77-1.06 1.53-2.08 2.27s-2.56 1.11-4.63 1.11z"/><path d="m230.07 84.39c-1.82 0-3.53-.46-5.12-1.37s-2.86-2.25-3.82-4c-.96-1.76-1.44-3.89-1.44-6.39v-.74c0-2.5.48-4.63 1.44-6.39s2.22-3.09 3.8-4c1.57-.91 3.29-1.37 5.14-1.37 1.39 0 2.55.16 3.5.49.94.32 1.7.73 2.29 1.23.59.49 1.03 1.02 1.34 1.57h.83v-12.08h5.83v32.41h-5.74v-2.78h-.83c-.53.86-1.34 1.65-2.43 2.36-1.1.71-2.69 1.06-4.79 1.06zm1.76-5.09c1.79 0 3.29-.58 4.49-1.74s1.8-2.85 1.8-5.07v-.46c0-2.22-.59-3.91-1.78-5.07s-2.69-1.74-4.51-1.74-3.29.58-4.49 1.74-1.81 2.85-1.81 5.07v.46c0 2.22.6 3.91 1.81 5.07s2.7 1.74 4.49 1.74z"/><path d="m81.43 51.98-29.43 11.5 22.53 8.78 29.47-11.48zm-81.43 8.8 29.47 11.48 22.53-8.78-29.47-11.48z" fill="#09214c"/><path d="m52 81.04-52-20.26v22.96l52 20.26 52-20.26v-22.96z" fill="#004fff"/><path d="m52 0-52 20.26 29.47 11.48 22.53-8.78 22.53 8.78 29.47-11.48z" fill="#09214c"/><path d="m52 40.51-52-20.25v22.96l52 20.26 52-20.26v-22.96z" fill="#004fff"/></svg>