<?xml version="1.0" encoding="UTF-8"?>
<svg id="Layer_1" data-name="Layer 1" xmlns="http://www.w3.org/2000/svg" viewBox="0 0 1064.95 136.97">
  <defs>
    <style>
      .cls-1 {
        fill: #131313;
      }
    </style>
  </defs>
  <path class="cls-1" d="m476.14,28.27h-53.43s-.08.04-.08.08v103.97c0,1.1-.9,2-2,2h-25.81c-1.1,0-2-.9-2-2V28.35s-.04-.08-.08-.08h-53.28c-1.1,0-2-.9-2-2V2.98c0-1.1.9-2,2-2h136.68c1.1,0,2,.9,2,2v23.28c0,1.1-.9,2-2,2ZM855.73.98h-25.81c-1.1,0-2,.9-2,2v129.34c0,1.1.9,2,2,2h25.81c1.1,0,2-.9,2-2V2.98c0-1.1-.9-2-2-2Zm208.58,130.1c.58.5.79,1.32.52,2.04-.27.72-.96,1.2-1.73,1.2h-39.75c-.44,0-.87-.16-1.21-.45l-43.67-37.79c-.4-.35-.64-.86-.64-1.39s.23-1.04.64-1.39l19.87-17.2c.69-.6,1.72-.6,2.41,0l63.54,54.99Zm-65.95-71.88c.35.3.78.45,1.21.45s.86-.15,1.21-.45l63.54-54.99c.58-.5.79-1.32.52-2.04-.27-.72-.96-1.2-1.73-1.2h-39.75c-.44,0-.87.16-1.21.45l-43.67,37.79c-.4.35-.64.86-.64,1.39s.23,1.04.64,1.39l19.87,17.2Zm-8.32,8.44c0-.54-.23-1.04-.64-1.39L914.49,1.43c-.33-.29-.76-.45-1.21-.45h-39.75c-.77,0-1.46.48-1.73,1.2-.27.72-.06,1.53.52,2.04l73.23,63.37s.04.09,0,.13l-73.23,63.37c-.58.5-.79,1.32-.52,2.04.27.72.96,1.2,1.73,1.2h39.75c.44,0,.87-.16,1.21-.45l74.91-64.83c.4-.35.64-.86.64-1.39ZM29.81,44.32c0-.07.08-.11.13-.07,3.92,3.51,93.13,83.39,97.43,86.77,3.8,2.98,8.19,4.83,13.91,3.99,7.4-.9,15.54-7.22,15.54-17.86V2.98c0-1.1-.9-2-2-2h-25.81c-1.1,0-2,.9-2,2v87.91c0,.07-.08.11-.13.07C122.95,87.45,33.75,7.57,29.44,4.19,25.65,1.21,21.26-.64,15.54.2,8.14,1.1,0,7.43,0,18.07v114.25c0,1.1.9,2,2,2h25.81c1.1,0,2-.9,2-2V44.32Zm655.15,0c0-.07.08-.11.13-.07,3.92,3.51,93.13,83.39,97.43,86.77,3.8,2.98,8.19,4.83,13.91,3.99,7.4-.9,15.54-7.22,15.54-17.86V2.98c0-1.1-.9-2-2-2h-25.81c-1.1,0-2,.9-2,2v87.91c0,.07-.08.11-.13.07-3.92-3.51-93.13-83.39-97.43-86.77-3.8-2.98-8.19-4.83-13.91-3.99-7.4.9-15.54,7.23-15.54,17.86v114.25c0,1.1.9,2,2,2h25.81c1.1,0,2-.9,2-2V44.32Zm-429.23,92.65c16.08-.04,34-.95,45-7.44,14.64-8.64,21.76-20.64,21.76-36.67V2.98c0-1.1-.89-2-1.99-2h-26.06c-1.1,0-2,.9-2,2v88.12c-.26,17.54-21.99,17.72-37.67,17.72h-14.25c-15.68,0-37.4-.17-37.66-17.72V2.98c0-1.1-.9-2-2.01-2h-26.06c-1.1,0-2,.9-2,2v89.87c0,16.03,7.13,28.03,21.77,36.67,11,6.49,28.92,7.41,45,7.44h16.17Zm387.13-5.65c.41.58.46,1.34.14,1.98-.32.63-.97,1.03-1.68,1.03h-31.87c-.64,0-1.24-.31-1.61-.84l-18.59-26.58s-.04-.04-.07-.04h-95.56s-.05.01-.07.04l-18.66,26.61c-.35.51-.93.81-1.54.81h-31.87c-.71,0-1.36-.4-1.68-1.03-.32-.63-.27-1.4.14-1.98,0,0,81.05-115.69,86.05-122.6C530.98,1.81,536.01,0,541.42,0c5.97,0,10.58,2.23,15.02,8.18l86.41,123.14Zm-73.02-51.86l-28.36-40.15s-.1-.05-.14,0l-28.37,40.15c-.04.06,0,.13.07.13h56.73c.07,0,.11-.08.07-.13Z"/>
</svg>