<svg width="85" height="123" viewBox="0 0 85 123" fill="none" xmlns="http://www.w3.org/2000/svg">
<g clip-path="url(#clip0_527_836)">
<path d="M31.4571 27.8194C28.9126 30.3858 27.3335 33.7572 26.9883 37.3598C26.6432 40.9624 27.5535 44.5737 29.5642 47.579C31.5749 50.5844 34.5618 52.7982 38.0166 53.8436C41.4715 54.889 45.1808 54.7016 48.5134 53.3131C51.846 51.9246 54.5959 49.4209 56.2952 46.2281C57.9944 43.0352 58.5381 39.3505 57.8336 35.801C57.1292 32.2514 55.22 29.0563 52.4312 26.7594C49.6424 24.4625 46.1462 23.2056 42.5375 23.2028C40.4732 23.1658 38.4234 23.5567 36.5168 24.3511C34.6101 25.1455 32.8875 26.3262 31.4571 27.8194ZM37.5895 63.9093C31.375 62.6857 25.8372 59.1857 22.055 54.0911C18.2729 48.9965 16.5172 42.6722 17.1302 36.3504C17.7431 30.0286 20.6806 24.1621 25.3705 19.8937C30.0605 15.6252 36.1668 13.2607 42.5 13.2607C48.8332 13.2607 54.9396 15.6252 59.6295 19.8937C64.3194 24.1621 67.2569 30.0286 67.8699 36.3504C68.4828 42.6722 66.7271 48.9965 62.945 54.0911C59.1628 59.1857 53.625 62.6857 47.4105 63.9093V73.3529H37.5895V63.9093ZM9.32616 -0.0300598C8.10143 -0.0300598 6.88871 0.211841 5.75721 0.68189C4.62571 1.15194 3.5976 1.8409 2.73159 2.70944C1.86557 3.57797 1.17861 4.60908 0.709928 5.74387C0.241245 6.87867 0 8.09496 0 9.32326V75.8642C0.0039651 78.3436 0.987799 80.7203 2.73593 82.4735C4.48407 84.2267 6.85393 85.2135 9.32616 85.2175H75.6739C78.1487 85.2175 80.5224 84.2325 82.2737 82.4788C84.0251 80.7252 85.011 78.3462 85.015 75.8642V9.35332C85.015 8.12376 84.7733 6.90627 84.3037 5.77049C83.8341 4.63471 83.1457 3.60295 82.2781 2.73422C81.4105 1.86548 80.3807 1.1768 79.2474 0.707634C78.1142 0.238471 76.8998 -0.00197814 75.6739 -1.35601e-06L9.32616 -0.0300598Z" fill="url(#paint0_linear_527_836)"/>
<path fill-rule="evenodd" clip-rule="evenodd" d="M37.5898 63.9093C31.3753 62.6857 25.8375 59.1857 22.0553 54.0911C18.2732 48.9965 16.5175 42.6722 17.1304 36.3504C17.7434 30.0286 20.6809 24.1621 25.3708 19.8936C30.0608 15.6252 36.1671 13.2607 42.5003 13.2607C48.8335 13.2607 54.9398 15.6252 59.6298 19.8936C64.3197 24.1621 67.2572 30.0286 67.8701 36.3504C68.4831 42.6722 66.7274 48.9965 62.9453 54.0911C59.1631 59.1857 53.6253 62.6857 47.4108 63.9093V73.3529H37.5898V63.9093ZM26.9886 37.3598C27.3337 33.7572 28.9129 30.3858 31.4574 27.8193C32.8878 26.3262 34.6104 25.1454 36.517 24.3511C38.4237 23.5567 40.4734 23.1657 42.5378 23.2028C46.1465 23.2056 49.6427 24.4625 52.4315 26.7594C55.2203 29.0563 57.1294 32.2514 57.8339 35.8009C58.5384 39.3505 57.9947 43.0352 56.2955 46.2281C54.5962 49.4209 51.8463 51.9246 48.5137 53.3131C45.1811 54.7016 41.4718 54.889 38.0169 53.8436C34.5621 52.7981 31.5752 50.5843 29.5645 47.579C27.5538 44.5736 26.6435 40.9624 26.9886 37.3598Z" fill="white"/>
<path fill-rule="evenodd" clip-rule="evenodd" d="M29.2381 122.631H31.5022V105.277H29.2381V122.631ZM10.4512 113.849C10.4433 114.884 10.0275 115.875 9.29446 116.605C8.56141 117.334 7.57052 117.744 6.5378 117.744C6.01917 117.749 5.50486 117.649 5.02565 117.45C4.54644 117.251 4.1122 116.957 3.74897 116.586C3.37977 116.233 3.08674 115.808 2.88813 115.337C2.68952 114.867 2.58959 114.36 2.59446 113.849C2.58786 113.331 2.68686 112.817 2.88539 112.338C3.08391 111.86 3.37778 111.427 3.74897 111.067C4.1122 110.696 4.54644 110.402 5.02565 110.203C5.50486 110.004 6.01917 109.904 6.5378 109.909C7.0524 109.901 7.56315 109.999 8.03791 110.199C8.51268 110.398 8.94126 110.694 9.2967 111.067C9.66789 111.427 9.96176 111.86 10.1603 112.338C10.3588 112.817 10.4578 113.331 10.4512 113.849ZM11.1409 109.217C10.4236 108.497 9.54842 107.956 8.58527 107.636C7.62211 107.316 6.59767 107.226 5.59377 107.374C4.58988 107.522 3.63434 107.903 2.80348 108.487C1.97262 109.071 1.28949 109.842 0.808589 110.738C0.327691 111.634 0.0623531 112.63 0.033823 113.647C0.00529291 114.665 0.214361 115.675 0.644274 116.596C1.07419 117.518 1.71305 118.326 2.50985 118.956C3.30666 119.586 4.23932 120.021 5.23334 120.225V122.631H7.82729V120.225C8.97994 119.991 10.0478 119.448 10.9173 118.653C11.7868 117.859 12.4255 116.844 12.7654 115.715C13.1053 114.585 13.1338 113.385 12.8477 112.241C12.5617 111.097 11.9718 110.052 11.1409 109.217ZM69.1221 113.322H70.0966C70.5226 113.335 70.9464 113.258 71.3411 113.097C71.663 112.978 71.9406 112.763 72.1358 112.48C72.3211 112.189 72.4152 111.848 72.4057 111.503C72.4163 111.248 72.3676 110.995 72.2635 110.763C72.1594 110.53 72.0027 110.326 71.806 110.165C71.3037 109.823 70.7022 109.659 70.0966 109.698H69.137L69.1221 113.322ZM66.5881 120.044V107.668H70.8763C71.6338 107.652 72.3857 107.801 73.0804 108.104C73.6973 108.376 74.2193 108.827 74.5798 109.398C74.8806 109.963 75.0528 110.587 75.0839 111.227C75.1151 111.867 75.0043 112.505 74.7597 113.097C74.5587 113.585 74.2452 114.017 73.8451 114.36C73.4067 114.722 72.8951 114.983 72.3457 115.127L76.3791 120.044H73.0954L69.6168 115.458H69.1221V120.074L66.5881 120.044ZM18.3376 115.097H21.4263L19.9269 111.097L18.3376 115.097ZM13.7495 120.044L18.7124 107.668H21.0664L26.0294 120.044H23.3005L22.2959 117.322H17.4979L16.4783 120.044H13.7495ZM38.2795 120.044L34.741 107.668H37.5598L39.8239 116.571L42.3728 107.668H44.277L46.826 116.571L49.0901 107.668H51.9089L48.3554 120.044H45.5365L43.3174 112.571L41.0984 120.044H38.2795ZM60.0956 115.097H57.0069L58.5963 111.097L60.0956 115.097ZM57.3668 107.668L52.4038 120.044H55.1327L56.1523 117.322H60.9503L61.9549 120.044H64.6988L59.7358 107.668H57.3668ZM78.0882 107.668V120.044H85.0004V117.819H80.6222V114.962H84.8205V112.736H80.6222V109.894H85.0004V107.668H78.0882Z" fill="white"/>
</g>
<defs>
<linearGradient id="paint0_linear_527_836" x1="0" y1="-0.0300598" x2="85.0215" y2="84.7595" gradientUnits="userSpaceOnUse">
<stop stop-color="#293683"/>
<stop offset="1" stop-color="#009FE3"/>
</linearGradient>
<clipPath id="clip0_527_836">
<rect width="85" height="123" fill="white"/>
</clipPath>
</defs>
</svg>
