<svg width="85" height="123" viewBox="0 0 85 123" fill="none" xmlns="http://www.w3.org/2000/svg">
<g clip-path="url(#clip0_536_1884)">
<path d="M31.4571 27.8191C28.9126 30.3856 27.3335 33.757 26.9883 37.3596C26.6432 40.9622 27.5535 44.5734 29.5642 47.5788C31.5749 50.5841 34.5618 52.7979 38.0166 53.8434C41.4715 54.8888 45.1808 54.7014 48.5134 53.3129C51.846 51.9244 54.5959 49.4207 56.2952 46.2279C57.9944 43.035 58.5381 39.3503 57.8336 35.8007C57.1292 32.2512 55.22 29.0561 52.4312 26.7592C49.6424 24.4622 46.1462 23.2054 42.5375 23.2026C40.4732 23.1655 38.4234 23.5565 36.5168 24.3509C34.6101 25.1452 32.8875 26.326 31.4571 27.8191ZM37.5895 63.9091C31.375 62.6855 25.8372 59.1855 22.055 54.0909C18.2729 48.9963 16.5172 42.672 17.1302 36.3502C17.7431 30.0284 20.6806 24.1618 25.3705 19.8934C30.0605 15.625 36.1668 13.2605 42.5 13.2605C48.8332 13.2605 54.9396 15.625 59.6295 19.8934C64.3194 24.1618 67.2569 30.0284 67.8699 36.3502C68.4828 42.672 66.7271 48.9963 62.945 54.0909C59.1628 59.1855 53.625 62.6855 47.4105 63.9091V73.3527H37.5895V63.9091ZM9.32616 -0.0302734C8.10143 -0.0302734 6.88871 0.211628 5.75721 0.681676C4.62571 1.15172 3.5976 1.84069 2.73159 2.70922C1.86557 3.57776 1.17861 4.60886 0.709928 5.74366C0.241245 6.87846 0 8.09475 0 9.32305V75.8639C0.0039651 78.3434 0.987799 80.7201 2.73593 82.4733C4.48407 84.2265 6.85393 85.2133 9.32616 85.2173H75.6739C78.1487 85.2173 80.5224 84.2323 82.2737 82.4786C84.0251 80.725 85.011 78.346 85.015 75.8639V9.35311C85.015 8.12354 84.7733 6.90605 84.3037 5.77027C83.8341 4.6345 83.1457 3.60274 82.2781 2.734C81.4105 1.86527 80.3807 1.17658 79.2474 0.707421C78.1142 0.238258 76.8998 -0.00219177 75.6739 -0.000214979L9.32616 -0.0302734Z" fill="url(#paint0_linear_536_1884)"/>
<path fill-rule="evenodd" clip-rule="evenodd" d="M37.5898 63.9093C31.3753 62.6857 25.8375 59.1857 22.0553 54.0911C18.2732 48.9965 16.5175 42.6723 17.1304 36.3505C17.7434 30.0287 20.6809 24.1621 25.3708 19.8937C30.0608 15.6252 36.1671 13.2607 42.5003 13.2607C48.8335 13.2607 54.9398 15.6252 59.6298 19.8937C64.3197 24.1621 67.2572 30.0287 67.8701 36.3505C68.4831 42.6723 66.7274 48.9965 62.9453 54.0911C59.1631 59.1857 53.6253 62.6857 47.4108 63.9093V73.3529H37.5898V63.9093ZM26.9886 37.3598C27.3337 33.7572 28.9129 30.3858 31.4574 27.8194C32.8878 26.3262 34.6104 25.1455 36.517 24.3511C38.4237 23.5567 40.4734 23.1658 42.5378 23.2028C46.1465 23.2057 49.6427 24.4625 52.4315 26.7594C55.2203 29.0563 57.1294 32.2514 57.8339 35.801C58.5384 39.3505 57.9947 43.0352 56.2955 46.2281C54.5962 49.4209 51.8463 51.9246 48.5137 53.3131C45.1811 54.7016 41.4718 54.889 38.0169 53.8436C34.5621 52.7982 31.5752 50.5844 29.5645 47.579C27.5538 44.5737 26.6435 40.9624 26.9886 37.3598Z" fill="white"/>
<path fill-rule="evenodd" clip-rule="evenodd" d="M29.2377 122.631H31.5017V105.277H29.2377V122.631ZM10.4507 113.849C10.4428 114.884 10.027 115.875 9.29397 116.604C8.56093 117.334 7.57003 117.743 6.53731 117.743C6.01868 117.749 5.50437 117.649 5.02516 117.45C4.54595 117.251 4.11171 116.957 3.74848 116.585C3.37928 116.233 3.08625 115.808 2.88764 115.337C2.68903 114.867 2.5891 114.36 2.59397 113.849C2.58738 113.331 2.68637 112.817 2.8849 112.338C3.08343 111.86 3.37729 111.427 3.74848 111.067C4.11171 110.695 4.54595 110.401 5.02516 110.203C5.50437 110.004 6.01868 109.904 6.53731 109.909C7.05191 109.901 7.56266 109.999 8.03743 110.199C8.51219 110.398 8.94077 110.693 9.29622 111.067C9.66741 111.427 9.96127 111.86 10.1598 112.338C10.3583 112.817 10.4573 113.331 10.4507 113.849ZM11.1404 109.217C10.4231 108.497 9.54793 107.956 8.58478 107.636C7.62162 107.316 6.59718 107.226 5.59329 107.374C4.58939 107.522 3.63385 107.903 2.80299 108.487C1.97213 109.071 1.289 109.842 0.808101 110.738C0.327203 111.634 0.0618648 112.63 0.0333347 113.647C0.00480463 114.665 0.213873 115.674 0.643786 116.596C1.0737 117.518 1.71256 118.326 2.50937 118.956C3.30617 119.586 4.23883 120.02 5.23285 120.225V122.631H7.8268V120.225C8.97945 119.99 10.0473 119.447 10.9168 118.653C11.7863 117.859 12.425 116.844 12.7649 115.714C13.1048 114.585 13.1333 113.385 12.8472 112.241C12.5612 111.097 11.9713 110.052 11.1404 109.217ZM69.1216 113.322H70.0962C70.5221 113.334 70.9459 113.258 71.3406 113.097C71.6625 112.978 71.9401 112.763 72.1353 112.48C72.3206 112.189 72.4147 111.848 72.4052 111.503C72.4158 111.248 72.3671 110.995 72.263 110.763C72.1589 110.53 72.0023 110.325 71.8055 110.164C71.3033 109.823 70.7018 109.659 70.0962 109.698H69.1365L69.1216 113.322ZM66.5876 120.044V107.668H70.8758C71.6333 107.652 72.3852 107.801 73.0799 108.104C73.6968 108.376 74.2188 108.826 74.5793 109.398C74.8801 109.962 75.0523 110.587 75.0835 111.227C75.1146 111.867 75.0038 112.505 74.7592 113.097C74.5582 113.584 74.2448 114.017 73.8446 114.36C73.4062 114.722 72.8946 114.983 72.3452 115.127L76.3786 120.044H73.0949L69.6163 115.458H69.1216V120.074L66.5876 120.044ZM18.3371 115.097H21.4258L19.9264 111.097L18.3371 115.097ZM13.749 120.044L18.7119 107.668H21.0659L26.0289 120.044H23.3L22.2954 117.322H17.4974L16.4778 120.044H13.749ZM38.279 120.044L34.7405 107.668H37.5593L39.8234 116.57L42.3723 107.668H44.2766L46.8255 116.57L49.0896 107.668H51.9084L48.3549 120.044H45.536L43.3169 112.571L41.0979 120.044H38.279ZM60.0952 115.097H57.0064L58.5958 111.097L60.0952 115.097ZM57.3663 107.668L52.4034 120.044H55.1322L56.1518 117.322H60.9498L61.9544 120.044H64.6983L59.7353 107.668H57.3663ZM78.0878 107.668V120.044H84.9999V117.819H80.6217V114.961H84.82V112.736H80.6217V109.894H84.9999V107.668H78.0878Z" fill="black"/>
</g>
<defs>
<linearGradient id="paint0_linear_536_1884" x1="0" y1="-0.0302734" x2="85.0215" y2="84.7593" gradientUnits="userSpaceOnUse">
<stop stop-color="#293683"/>
<stop offset="1" stop-color="#009FE3"/>
</linearGradient>
<clipPath id="clip0_536_1884">
<rect width="85" height="123" fill="white"/>
</clipPath>
</defs>
</svg>
