<svg width="3100" height="1040" viewBox="0 0 3100 1040" fill="none" xmlns="http://www.w3.org/2000/svg">
<g clip-path="url(#clip0_868_2697)">
<path d="M507.098 27.393C495.787 27.393 484.006 27.8626 470.048 28.9297C465.609 29.2711 462.152 32.9847 462.152 37.4238V1003.11C462.152 1007.59 465.609 1011.3 470.048 1011.6C484.091 1012.67 495.872 1013.14 507.183 1013.14C518.495 1013.14 530.19 1012.67 544.148 1011.6C548.587 1011.26 552.044 1007.54 552.044 1003.11V37.4238C552.044 32.942 548.587 29.2285 544.148 28.9297C530.19 27.9053 518.495 27.393 507.269 27.393H507.098Z" fill="url(#paint0_linear_868_2697)"/>
<path d="M940.03 236.749C937.81 236.749 935.633 237.602 934.054 239.182C929.871 243.279 925.688 247.463 921.462 251.688C811.082 362.794 757.129 450.766 756.489 520.64C755.849 590.214 810.1 679.125 922.359 792.494C925.603 795.78 928.804 798.981 932.048 802.14L932.859 802.951C934.481 804.53 936.615 805.427 938.877 805.427C939.134 805.427 939.39 805.427 939.646 805.427C942.164 805.213 944.426 803.89 945.878 801.799C960.604 780.67 973.665 758.517 984.677 735.937C986.257 732.693 985.616 728.809 983.098 726.205C894.614 635.886 846.083 563.195 846.467 521.493C846.851 478.724 895.724 405.82 984.037 316.226C986.555 313.665 987.196 309.781 985.659 306.537C974.775 284 961.799 261.762 947.115 240.462C945.664 238.371 943.402 237.048 940.884 236.834C940.627 236.834 940.329 236.834 940.073 236.834L940.03 236.749Z" fill="url(#paint1_linear_868_2697)"/>
<path d="M737.418 76.7316C736.436 76.7316 735.454 76.9024 734.515 77.2439C732.338 78.0122 730.588 79.6768 729.606 81.7684C656.446 244.522 609.152 416.923 609.152 521.071C609.152 630.342 654.483 803.041 724.655 961.1C725.594 963.192 727.344 964.856 729.478 965.625C730.417 965.966 731.442 966.137 732.424 966.137C733.661 966.137 734.942 965.838 736.094 965.326C758.888 954.441 781.126 941.636 802.126 927.252C805.498 924.947 806.779 920.55 805.114 916.794C740.662 769.406 699.045 614.037 699.045 521.029C699.045 428.02 742.113 275.938 808.742 126.288C810.407 122.531 809.169 118.135 805.84 115.83C785.138 101.403 763.369 88.5124 741.131 77.628C739.936 77.0304 738.655 76.7743 737.375 76.7743L737.418 76.7316Z" fill="url(#paint2_linear_868_2697)"/>
<path d="M276.812 76.8058C275.532 76.8058 274.251 77.1046 273.056 77.7022C250.818 88.6293 229.049 101.52 208.347 115.947C204.975 118.295 203.78 122.691 205.445 126.404C272.032 276.054 315.057 430.954 315.057 521.06C315.057 611.166 273.44 769.352 209.03 916.74C207.408 920.496 208.646 924.893 212.018 927.198C232.848 941.454 254.787 954.131 277.154 964.888C278.306 965.442 279.587 965.741 280.867 965.741C281.849 965.741 282.873 965.57 283.812 965.229C285.989 964.418 287.739 962.796 288.678 960.662C359.363 801.067 405.035 628.538 405.035 521.103C405.035 413.667 357.784 244.596 284.623 81.8852C283.684 79.7937 281.892 78.129 279.715 77.3607C278.776 77.0192 277.794 76.8485 276.812 76.8485V76.8058Z" fill="url(#paint3_linear_868_2697)"/>
<path d="M73.5482 236.782C71.0299 237.039 68.7676 238.362 67.3164 240.411C52.5904 261.71 39.6145 283.948 28.7728 306.485C27.1935 309.729 27.8337 313.613 30.3948 316.175C118.708 405.768 167.581 478.672 167.965 521.442C168.52 581.754 63.4748 693.244 31.2484 725.983C28.7301 728.544 28.0898 732.471 29.6691 735.715C40.6816 758.337 53.7429 780.533 68.5542 801.747C70.0054 803.796 72.2677 805.119 74.786 805.375C75.0421 805.375 75.2983 805.375 75.5544 805.375C77.7739 805.375 79.9508 804.479 81.5728 802.899L82.1277 802.344C85.4143 799.058 88.7437 795.771 92.073 792.442C204.332 679.073 258.583 590.163 257.943 520.588C257.302 450.714 203.307 362.743 92.9694 251.636C88.7864 247.411 84.5607 243.27 80.3776 239.13C78.7557 237.551 76.6215 236.697 74.4019 236.697C74.1458 236.697 73.847 236.697 73.5909 236.697L73.5482 236.782Z" fill="url(#paint4_linear_868_2697)"/>
<path d="M1529.15 584.611C1529.15 649.43 1477.11 694.851 1391.94 694.851C1306.3 694.851 1252.84 648.957 1247.64 577.041H1320.5C1322.39 614.418 1346.52 638.548 1390.52 638.548C1426.95 638.548 1452.98 622.461 1452.98 595.02C1452.98 573.729 1436.42 560.954 1407.55 555.276L1351.73 544.394C1300.15 534.458 1260.41 506.544 1260.41 450.241C1260.41 389.68 1313.87 346.151 1387.21 346.151C1463.38 346.151 1519.21 390.626 1523.95 461.596H1451.08C1448.72 426.111 1424.11 401.981 1388.16 401.981C1353.14 401.981 1333.27 421.853 1333.27 445.509C1333.27 468.693 1354.56 478.629 1379.17 483.36L1437.36 495.188C1496.98 507.017 1529.15 534.458 1529.15 584.611Z" fill="white"/>
<path d="M1668.29 690.119H1596.38V350.409H1668.29V690.119Z" fill="white"/>
<path d="M1872.6 690.119H1751.96V350.409H1872.6C1980.48 350.409 2045.77 419.487 2045.77 518.372C2045.77 617.257 1978.11 690.119 1872.6 690.119ZM1823.87 412.39V628.139H1868.82C1936.48 628.139 1971.96 588.869 1971.96 518.372C1971.96 450.714 1936.48 412.39 1868.82 412.39H1823.87Z" fill="white"/>
<path d="M2338.43 627.666V690.119H2109.91V350.409H2335.12V412.863H2181.83V484.306H2320.93V546.287H2181.83V627.666H2338.43Z" fill="white"/>
<path d="M2480.18 690.119H2408.26V350.409H2541.21C2626.85 350.409 2676.53 390.153 2676.53 460.65C2676.53 506.544 2648.14 542.975 2599.88 559.061L2687.41 690.119H2601.77L2525.13 569.943H2480.18V690.119ZM2480.18 410.024V510.802H2537.9C2581.43 510.802 2604.61 493.769 2604.61 460.65C2604.61 427.057 2581.43 410.024 2537.9 410.024H2480.18Z" fill="white"/>
<path d="M2898.27 697.216C2800.33 697.216 2724.63 621.515 2724.63 519.791C2724.63 418.068 2800.33 343.312 2898.27 343.312C2996.68 343.312 3072.86 418.068 3072.86 519.791C3072.86 621.515 2996.68 697.216 2898.27 697.216ZM2898.27 632.87C2960.72 632.87 2998.57 582.245 2998.57 519.791C2998.57 457.338 2960.72 407.659 2898.27 407.659C2836.29 407.659 2798.44 457.338 2798.44 519.791C2798.44 582.245 2836.29 632.87 2898.27 632.87Z" fill="white"/>
</g>
<defs>
<linearGradient id="paint0_linear_868_2697" x1="507.098" y1="-105.207" x2="507.098" y2="1013.14" gradientUnits="userSpaceOnUse">
<stop stop-color="#E8312C"/>
<stop offset="0.615385" stop-color="#E2335A"/>
<stop offset="1" stop-color="#F77216"/>
</linearGradient>
<linearGradient id="paint1_linear_868_2697" x1="871.485" y1="160.251" x2="871.485" y2="805.427" gradientUnits="userSpaceOnUse">
<stop stop-color="#E8312C"/>
<stop offset="0.615385" stop-color="#E2335A"/>
<stop offset="1" stop-color="#F77216"/>
</linearGradient>
<linearGradient id="paint2_linear_868_2697" x1="709.316" y1="-42.9095" x2="709.316" y2="966.137" gradientUnits="userSpaceOnUse">
<stop stop-color="#E8312C"/>
<stop offset="0.615385" stop-color="#E2335A"/>
<stop offset="1" stop-color="#F77216"/>
</linearGradient>
<linearGradient id="paint3_linear_868_2697" x1="304.868" y1="-42.7721" x2="304.867" y2="965.741" gradientUnits="userSpaceOnUse">
<stop stop-color="#E8312C"/>
<stop offset="0.615385" stop-color="#E2335A"/>
<stop offset="1" stop-color="#F77216"/>
</linearGradient>
<linearGradient id="paint4_linear_868_2697" x1="142.932" y1="160.2" x2="142.932" y2="805.375" gradientUnits="userSpaceOnUse">
<stop stop-color="#E8312C"/>
<stop offset="0.615385" stop-color="#E2335A"/>
<stop offset="1" stop-color="#F77216"/>
</linearGradient>
<clipPath id="clip0_868_2697">
<rect width="3100" height="1040" fill="white"/>
</clipPath>
</defs>
</svg>
