<svg width="1360" height="362" viewBox="0 0 1360 362" fill="none" xmlns="http://www.w3.org/2000/svg">
<path d="M489.843 206.823C485.126 204.559 481.73 202.107 479.466 199.277C477.202 196.447 476.07 193.994 476.07 192.296C476.07 191.353 476.448 190.598 477.014 190.032C477.768 189.466 478.523 189.277 479.278 189.277H485.504C486.07 189.277 486.636 189.466 486.824 189.655C487.202 189.843 487.579 190.221 488.145 190.975C490.409 193.805 492.862 195.881 495.692 197.39C498.522 198.899 502.295 199.654 507.011 199.654C512.294 199.654 516.445 198.711 519.652 196.635C522.859 194.749 524.369 191.919 524.369 188.145C524.369 185.693 523.614 183.806 522.293 182.297C520.973 180.787 518.709 179.467 515.501 178.335C512.294 177.203 507.577 175.882 501.352 174.561C492.862 172.675 486.824 170.034 483.24 166.449C479.655 162.864 477.957 158.336 477.957 152.865C477.957 149.28 479.089 145.696 481.164 142.3C483.24 138.904 486.447 136.262 490.786 133.998C495.126 131.734 500.031 130.791 506.068 130.791C512.294 130.791 517.577 131.734 521.916 133.81C526.255 135.885 529.463 138.338 531.727 140.979C533.991 143.809 535.123 146.073 535.123 147.96C535.123 148.903 534.745 149.658 534.179 150.224C533.613 150.79 532.859 151.167 531.915 151.167H526.255C524.935 151.167 523.991 150.601 523.237 149.469C521.539 147.582 520.218 146.073 519.086 145.13C517.954 144.186 516.256 143.243 514.181 142.488C512.105 141.734 509.275 141.356 506.068 141.356C501.352 141.356 497.578 142.3 495.126 144.375C492.484 146.45 491.352 149.092 491.352 152.299C491.352 154.374 491.918 156.072 493.05 157.582C494.182 159.091 496.258 160.412 499.276 161.544C502.295 162.864 506.823 163.996 512.86 165.317C522.105 167.204 528.708 170.034 532.67 173.618C536.632 177.203 538.519 181.919 538.519 187.579C538.519 191.73 537.387 195.692 534.934 199.088C532.481 202.484 528.897 205.125 524.18 207.201C519.463 209.087 513.803 210.219 507.2 210.219C500.22 210.219 494.56 209.087 489.843 206.823Z" fill="black"/>
<path d="M553.613 235.689C553.047 235.123 552.67 234.18 552.67 233.237V135.696C552.67 134.564 553.047 133.81 553.613 133.244C554.179 132.678 555.123 132.3 556.066 132.3H562.292C563.424 132.3 564.179 132.678 564.745 133.244C565.311 133.81 565.688 134.753 565.688 135.696V142.111C571.348 134.564 579.46 130.791 590.026 130.791C600.402 130.791 607.949 133.998 613.232 140.602C618.326 147.205 621.156 155.506 621.344 165.506C621.533 166.638 621.533 168.336 621.533 170.411C621.533 172.675 621.533 174.373 621.344 175.316C620.967 185.315 618.326 193.617 613.232 200.22C608.138 206.823 600.402 210.031 590.026 210.031C579.46 210.031 571.536 206.257 566.254 198.899V233.048C566.254 233.991 565.876 234.746 565.31 235.501C564.744 236.067 563.801 236.444 562.858 236.444H556.255C555.123 236.633 554.368 236.255 553.613 235.689ZM602.478 192.107C605.685 187.768 607.383 181.919 607.76 174.75C607.949 173.807 607.949 172.298 607.949 170.411C607.949 151.544 600.968 142.111 587.007 142.111C580.215 142.111 574.932 144.375 571.536 148.903C568.141 153.431 566.254 158.902 566.065 164.94C565.877 166.072 565.877 167.958 565.877 170.6C565.877 173.429 565.877 175.316 566.065 176.259C566.254 182.297 568.141 187.391 571.725 191.73C575.31 196.069 580.404 198.333 587.007 198.333C594.176 198.711 599.27 196.447 602.478 192.107Z" fill="black"/>
<path d="M643.23 200.786C637.192 194.56 633.985 186.07 633.419 175.316L633.23 170.411L633.419 165.506C633.985 154.94 637.381 146.45 643.23 140.224C649.267 133.998 657.191 130.791 667.19 130.791C677.944 130.791 686.246 134.187 692.283 141.168C698.132 147.96 701.15 157.393 701.15 169.09V171.731C701.15 172.675 700.773 173.429 700.207 174.184C699.641 174.75 698.698 175.127 697.754 175.127H646.814V176.448C647.192 182.863 649.078 188.334 652.663 192.673C656.248 197.201 661.153 199.465 667.002 199.465C671.53 199.465 675.303 198.522 678.322 196.824C681.152 194.937 683.416 193.051 684.925 191.164C685.868 190.032 686.434 189.277 687 189.089C687.566 188.9 688.321 188.711 689.453 188.711H695.868C696.811 188.711 697.566 188.9 698.132 189.466C698.698 190.032 699.075 190.598 699.075 191.353C699.075 193.428 697.754 196.069 695.113 199.088C692.472 202.107 688.698 204.748 683.793 207.012C678.888 209.276 673.416 210.408 667.19 210.408C657.191 210.219 649.267 207.012 643.23 200.786ZM687.755 165.128V164.751C687.755 157.959 685.868 152.299 682.095 147.96C678.322 143.62 673.416 141.545 667.19 141.545C660.776 141.545 655.87 143.62 652.286 147.96C648.701 152.299 646.814 157.77 646.814 164.751V165.128H687.755Z" fill="black"/>
<path d="M722.091 201.35C716.243 195.501 713.036 187.2 712.847 176.446L712.658 170.597L712.847 164.749C713.224 153.995 716.243 145.693 722.091 139.845C727.94 133.996 736.053 130.978 746.618 130.978C753.599 130.978 759.636 132.298 764.541 134.751C769.447 137.204 773.031 140.411 775.484 143.995C777.937 147.769 779.257 151.353 779.446 155.127C779.635 156.07 779.257 156.825 778.503 157.391C777.748 158.145 776.993 158.334 776.05 158.334H769.447C768.503 158.334 767.749 158.145 767.183 157.579C766.617 157.202 766.239 156.259 765.673 155.127C763.975 150.41 761.523 147.014 758.315 144.939C755.297 142.863 751.335 141.92 746.618 141.92C740.392 141.92 735.487 143.807 731.902 147.58C728.317 151.353 726.242 157.202 726.053 165.126L725.865 170.22L726.053 175.314C726.431 183.238 728.317 188.898 731.902 192.86C735.487 196.633 740.392 198.52 746.618 198.52C751.335 198.52 755.297 197.577 758.315 195.501C761.334 193.426 763.787 190.03 765.485 185.313C766.051 184.181 766.428 183.238 766.994 182.861C767.56 182.483 768.126 182.106 769.258 182.106H775.673C776.616 182.106 777.371 182.483 778.125 183.049C778.88 183.804 779.257 184.559 779.069 185.313C778.88 188.898 777.559 192.671 775.107 196.256C772.654 200.029 769.069 203.048 764.164 205.689C759.259 208.331 753.41 209.463 746.241 209.463C736.241 210.217 727.94 207.199 722.091 201.35Z" fill="black"/>
<path d="M800.574 183.051V143.619H788.877C787.934 143.619 787.179 143.242 786.613 142.676C786.047 142.11 785.67 141.355 785.67 140.412V135.695C785.67 134.752 786.047 133.997 786.613 133.243C787.179 132.677 787.934 132.299 788.877 132.299H800.574V107.773C800.574 106.83 800.952 106.075 801.518 105.32C802.084 104.754 802.839 104.377 803.782 104.377H810.196C811.14 104.377 811.894 104.754 812.649 105.32C813.215 105.886 813.592 106.83 813.592 107.773V132.299H831.893C832.836 132.299 833.591 132.677 834.346 133.243C834.912 133.809 835.289 134.752 835.289 135.695V140.412C835.289 141.355 834.912 142.11 834.346 142.676C833.78 143.242 832.836 143.619 831.893 143.619H813.592V181.919C813.592 186.824 814.347 190.597 816.045 193.239C817.743 195.88 820.384 197.012 824.346 197.012H833.402C834.346 197.012 835.1 197.389 835.666 197.955C836.232 198.521 836.61 199.465 836.61 200.408V205.313C836.61 206.256 836.232 207.011 835.666 207.766C835.1 208.332 834.346 208.709 833.402 208.709H823.403C808.121 208.709 800.574 200.219 800.574 183.051Z" fill="black"/>
<path d="M849.062 207.766C848.496 207.2 848.119 206.257 848.119 205.313V135.884C848.119 134.941 848.496 133.998 849.062 133.432C849.628 132.677 850.572 132.488 851.515 132.488H857.741C858.873 132.488 859.628 132.866 860.382 133.432C860.948 133.998 861.326 134.941 861.326 136.073V142.488C865.288 135.884 872.08 132.488 881.702 132.488H887.362C888.494 132.488 889.248 132.866 889.814 133.432C890.38 133.998 890.758 134.941 890.758 135.884V141.167C890.758 142.11 890.38 142.865 889.814 143.62C889.248 144.186 888.305 144.563 887.362 144.563H878.872C873.4 144.563 869.25 146.072 866.231 149.28C863.212 152.487 861.514 156.637 861.514 162.109V205.502C861.514 206.445 861.137 207.2 860.571 207.955C859.816 208.521 859.062 208.898 858.118 208.898H851.515C850.383 208.709 849.628 208.332 849.062 207.766Z" fill="black"/>
<path d="M904.908 201.161C899.059 195.124 896.041 187.011 895.663 176.823L895.475 170.597L895.663 164.371C896.041 154.372 899.248 146.259 905.097 140.034C910.945 133.996 919.247 130.978 929.812 130.978C940.377 130.978 948.678 133.996 954.527 140.034C960.376 146.071 963.583 154.183 963.96 164.371C964.149 166.447 964.338 168.711 964.338 170.597C964.338 172.673 964.149 174.748 963.96 176.823C963.583 186.823 960.376 194.935 954.716 201.161C948.867 207.199 940.566 210.217 929.812 210.217C919.058 210.217 910.757 207.199 904.908 201.161ZM944.716 193.237C948.301 189.275 950.376 183.615 950.754 176.069C950.942 175.125 950.942 173.239 950.942 170.409C950.942 167.579 950.942 165.881 950.754 164.749C950.376 157.391 948.49 151.542 944.716 147.58C941.132 143.618 936.038 141.543 929.812 141.543C923.586 141.543 918.492 143.618 914.907 147.58C911.323 151.542 909.247 157.202 908.87 164.749L908.681 170.409L908.87 176.069C909.247 183.427 911.134 189.275 914.907 193.237C918.492 197.199 923.586 199.275 929.812 199.275C936.226 199.086 941.132 197.199 944.716 193.237Z" fill="black"/>
<path d="M1016.66 201.35C1011 195.501 1008.17 187.2 1007.8 176.446L1007.61 170.597L1007.8 164.749C1008.17 153.995 1011 145.693 1016.66 139.845C1022.32 133.996 1030.06 130.978 1040.25 130.978C1046.66 130.978 1052.13 132.11 1056.85 134.374C1061.38 136.638 1064.77 139.656 1067.04 143.241C1069.3 146.825 1070.43 150.599 1070.62 154.372C1070.81 155.315 1070.43 156.07 1069.68 156.636C1068.92 157.202 1068.17 157.579 1067.41 157.579H1065.34C1064.4 157.579 1063.64 157.391 1063.26 156.825C1062.89 156.447 1062.32 155.504 1061.94 154.372C1060.06 148.901 1057.23 145.127 1053.64 142.863C1050.06 140.6 1045.72 139.468 1040.25 139.468C1033.27 139.468 1027.61 141.543 1023.46 145.882C1019.3 150.221 1017.04 156.636 1016.85 165.503L1016.66 170.597L1016.85 175.691C1017.23 184.559 1019.3 190.973 1023.46 195.313C1027.61 199.652 1033.27 201.727 1040.25 201.727C1045.72 201.727 1050.06 200.595 1053.64 198.331C1057.23 196.067 1059.87 192.105 1061.94 186.823C1062.51 185.691 1062.89 184.747 1063.26 184.37C1063.64 183.993 1064.4 183.615 1065.34 183.615H1067.41C1068.36 183.615 1069.11 183.993 1069.68 184.559C1070.43 185.125 1070.62 185.879 1070.62 186.823C1070.43 190.596 1069.11 194.369 1067.04 197.954C1064.77 201.539 1061.38 204.557 1056.85 206.821C1052.32 209.085 1046.85 210.217 1040.25 210.217C1030.06 210.217 1022.32 207.199 1016.66 201.35Z" fill="black"/>
<path d="M1088.17 207.766C1087.6 207.2 1087.22 206.445 1087.22 205.502V107.584C1087.22 106.641 1087.6 105.886 1088.17 105.32C1088.73 104.754 1089.49 104.377 1090.43 104.377H1092.88C1093.83 104.377 1094.58 104.754 1095.15 105.32C1095.71 105.886 1096.09 106.641 1096.09 107.584V205.502C1096.09 206.445 1095.71 207.2 1095.15 207.766C1094.58 208.332 1093.83 208.709 1092.88 208.709H1090.62C1089.68 208.709 1088.73 208.332 1088.17 207.766Z" fill="black"/>
<path d="M1122.69 200.786C1117.03 194.56 1114.01 186.447 1113.83 176.637L1113.64 170.411L1113.83 164.185C1114.2 154.374 1117.03 146.262 1122.69 140.036C1128.35 133.81 1136.28 130.791 1146.46 130.791C1156.65 130.791 1164.58 133.81 1170.24 140.036C1175.9 146.262 1178.92 154.374 1179.1 164.185C1179.29 165.128 1179.29 167.204 1179.29 170.411C1179.29 173.618 1179.29 175.693 1179.1 176.637C1178.73 186.447 1175.9 194.56 1170.24 200.786C1164.58 207.012 1156.65 210.031 1146.46 210.031C1136.28 210.219 1128.35 207.012 1122.69 200.786ZM1163.26 194.937C1167.6 190.409 1169.86 184.183 1170.05 175.882C1170.24 174.939 1170.24 173.052 1170.24 170.411C1170.24 167.77 1170.24 165.883 1170.05 164.94C1169.67 156.638 1167.41 150.412 1163.26 145.884C1158.92 141.356 1153.45 139.281 1146.46 139.281C1139.48 139.281 1133.82 141.545 1129.67 145.884C1125.33 150.412 1123.07 156.638 1122.88 164.94L1122.69 170.411L1122.88 175.882C1123.26 184.183 1125.52 190.409 1129.67 194.937C1134.01 199.465 1139.48 201.541 1146.46 201.541C1153.45 201.729 1158.92 199.465 1163.26 194.937Z" fill="black"/>
<path d="M1203.06 201.162C1198.16 195.125 1195.52 187.201 1195.52 177.39V135.506C1195.52 134.563 1195.89 133.808 1196.46 133.242C1197.03 132.676 1197.78 132.299 1198.72 132.299H1201.18C1202.12 132.299 1202.88 132.676 1203.44 133.242C1204.01 133.808 1204.38 134.563 1204.38 135.506V176.447C1204.38 193.238 1211.74 201.539 1226.27 201.539C1233.25 201.539 1238.91 199.275 1243.06 194.936C1247.21 190.408 1249.29 184.371 1249.29 176.447V135.506C1249.29 134.563 1249.66 133.808 1250.23 133.242C1250.8 132.676 1251.55 132.299 1252.49 132.299H1254.95C1255.89 132.299 1256.65 132.676 1257.21 133.242C1257.78 133.808 1258.15 134.563 1258.15 135.506V205.501C1258.15 206.444 1257.78 207.199 1257.21 207.765C1256.65 208.331 1255.89 208.708 1254.95 208.708H1252.87C1251.93 208.708 1251.17 208.331 1250.61 207.765C1250.04 207.199 1249.66 206.444 1249.66 205.501V198.521C1246.65 202.294 1243.44 205.313 1239.67 207.199C1235.89 209.086 1230.99 210.218 1225.14 210.218C1215.52 210.218 1208.16 207.199 1203.06 201.162Z" fill="black"/>
<path d="M1283.62 199.842C1278.53 192.861 1275.89 184.56 1275.7 174.561L1275.51 170.41L1275.7 166.259C1276.08 156.449 1278.72 147.959 1283.62 140.978C1288.72 133.997 1296.45 130.602 1307.02 130.602C1317.77 130.602 1325.89 134.563 1331.73 142.299V107.584C1331.73 106.641 1332.11 105.886 1332.68 105.32C1333.24 104.754 1334 104.377 1334.94 104.377H1337.39C1338.34 104.377 1339.09 104.754 1339.66 105.32C1340.22 105.886 1340.6 106.641 1340.6 107.584V205.502C1340.6 206.445 1340.22 207.2 1339.66 207.766C1339.09 208.332 1338.34 208.709 1337.39 208.709H1334.94C1334 208.709 1333.24 208.332 1332.68 207.766C1332.11 207.2 1331.73 206.445 1331.73 205.502V198.521C1326.07 206.257 1317.77 210.218 1307.02 210.218C1296.45 210.218 1288.72 206.822 1283.62 199.842ZM1325.32 193.993C1329.28 188.899 1331.36 182.862 1331.55 175.881C1331.73 174.938 1331.73 173.051 1331.73 170.221C1331.73 167.391 1331.73 165.505 1331.55 164.561C1331.36 160.411 1330.6 156.449 1328.72 152.675C1327.02 148.902 1324.38 145.883 1320.79 143.431C1317.21 140.978 1312.87 139.846 1307.77 139.846C1299.85 139.846 1294 142.299 1290.42 147.393C1286.83 152.487 1284.76 158.901 1284.38 166.825L1284.19 170.976C1284.19 180.032 1285.89 187.579 1289.47 193.427C1293.06 199.276 1299.09 202.106 1307.77 202.106C1315.7 201.729 1321.55 199.087 1325.32 193.993Z" fill="black"/>
<g clip-path="url(#clip0_1831_12993)">
<path d="M210.808 346.82L18.9141 237.704V177.502L210.808 286.618L402.701 179.383V235.823L210.808 346.82Z" fill="#3575CF"/>
<path d="M210.808 248.992L52.7777 158.689L18.9141 177.502V147.401V87.1988L210.808 196.315L240.909 177.502L84.7599 87.1988L131.793 60.8604L210.808 15.709L368.838 107.893L402.701 87.1988V179.383L210.808 68.3857L176.944 87.1988L333.093 177.502" fill="white"/>
<path d="M210.808 248.992L52.7777 158.689L18.9141 177.502V147.401V87.1988L210.808 196.315L240.909 177.502L84.7599 87.1988L131.793 60.8604L210.808 15.709L368.838 107.893L402.701 87.1988V179.383L210.808 68.3857L176.944 87.1988L333.093 177.502" fill="#3575CF"/>
</g>
<defs>
<clipPath id="clip0_1831_12993">
<rect width="421.414" height="361.212" fill="white" transform="translate(0.0996094 0.65918)"/>
</clipPath>
</defs>
</svg>
