<?xml version="1.0" encoding="UTF-8"?>
<svg xmlns="http://www.w3.org/2000/svg" xmlns:xlink="http://www.w3.org/1999/xlink" version="1.1" viewBox="0 0 3240 700">
  <defs>
    <style>
      .cls-1 {
        stroke-linejoin: round;
        stroke-width: 11px;
      }

      .cls-1, .cls-2 {
        stroke: #0bbbef;
      }

      .cls-1, .cls-2, .cls-3, .cls-4 {
        fill: none;
      }

      .cls-2, .cls-3, .cls-4 {
        stroke-miterlimit: 10;
        stroke-width: 4px;
      }

      .cls-5 {
        fill: #0bbbef;
      }

      .cls-6 {
        fill: #1b80c4;
      }

      .cls-7 {
        fill: #1b80c4;
      }

      .cls-8 {
        fill: url(#linear-gradient);
      }

      .cls-9 {
        fill: #d9f0fc;
      }

      .cls-10 {
        fill: #005f97;
      }

      .cls-3 {
        stroke: #004158;
      }

      .cls-11 {
        fill: #004258;
      }

      .cls-12 {
        fill: #004158;
      }

      .cls-4 {
        stroke: #1b80c4;
      }

      .cls-13 {
        fill: #005d95;
      }

      .cls-14 {
        fill: #1fbbee;
      }

      .cls-15 {
        fill: #005d95;
      }
    </style>
    <linearGradient id="linear-gradient" x1="622.4" y1="697" x2="622.4" y2="3" gradientUnits="userSpaceOnUse">
      <stop offset="0" stop-color="#ecf8fe"/>
      <stop offset=".9" stop-color="#a1daf8"/>
    </linearGradient>
  </defs>
  <!-- Generator: Adobe Illustrator 28.7.1, SVG Export Plug-In . SVG Version: 1.2.0 Build 142)  -->
  <g>
    <g id="New_Logo">
      <g id="SKY">
        <rect class="cls-8" x="2.4" y="3" width="1240" height="694" rx="24" ry="24"/>
      </g>
      <g id="Alps">
        <polygon class="cls-5" points="235.1 496.5 272.1 493 232.3 468 153.5 475 200.7 490 223.5 514.2 250.9 506.3 235.1 496.5"/>
        <path class="cls-5" d="M459.8,443l-39.3-4.4-28.8-17.5c.7,1.1,11.7,12.7,11.7,12.7l-7.5,1.8,21.9,11.9,13.6-7,28.4,2.4Z"/>
        <polygon class="cls-5" points="556.2 443 537.1 417.6 536.7 419.9 532.8 422.3 540.1 426.1 531.3 431.8 519.8 451.2 538 440.5 548.2 436.9 556.2 443"/>
        <polygon class="cls-5" points="770.5 429.4 732.1 408.6 669.3 384.3 704.7 408.3 688.4 423.6 704.2 437.8 724.5 438.2 707.2 466 733.7 481.9 767.2 461.2 883.7 493.6 812.9 454 770.5 429.4"/>
        <path class="cls-5" d="M1101.9,410.3l11.4,16.2-18.9,12.9-5.6,15.2c.1,0,48.5-9.6,48.6-9.5,1.6.8-6.3,40.3-6.3,40.3l35.6-41.2-64.8-33.8Z"/>
        <path class="cls-5" d="M1002.9,456.8l-35.6-35.6,2.7,14.5c0,.7-23.7,8.4-23.7,8.4l12,3.4-7.6,17.3,18.8,30,28.9-26.3-15-17.8,19.6,6.2Z"/>
        <polygon class="cls-15" points="1166.7 444.1 1101.9 410.3 1061.2 421.8 1029.6 433.5 1002.9 456.8 967.3 421.1 936.6 419.7 901.7 431.3 865.2 423.6 812.9 454 770.5 429.4 732.1 408.6 669.3 384.3 613.5 418.6 556.2 443 537.1 417.6 505.5 436.6 459.8 443 420.5 438.6 391.7 421.1 369.3 443.1 324.4 481.9 274.6 494.2 232.3 468 153.5 475 2.4 567.9 2.4 644.3 1242.4 644.3 1242.4 421.1 1209.1 420.6 1166.7 444.1"/>
      </g>
      <g id="Clouds_and_Birds">
        <path class="cls-9" d="M1038.7,242.3h99.8c15.9,0,28.3-12.9,28.3-28.3.5-15.9-11.8-28.3-27.3-28.8,0-20.1-16.5-36.5-36.5-36.5s-36,15.4-36.5,35.5c-12.3,1-22.1,9.8-24.7,21.6-1,0-2-.5-3.1-.5-10.3,0-18.5,8.2-18.5,18.5s8.2,18.5,18.5,18.5"/>
        <path class="cls-9" d="M121.8,364.4h99.8c15.9,0,28.3-12.9,28.3-28.3.5-15.9-11.8-28.3-27.3-28.8,0-20.1-16.5-36.5-36.5-36.5s-36,15.4-36.5,35.5c-12.3,1-22.1,9.8-24.7,21.6-1,0-2-.5-3.1-.5-10.3,0-18.5,8.2-18.5,18.5s8.2,18.5,18.5,18.5"/>
        <path class="cls-5" d="M783,132.8c1,1,2,2,3,3.5l5.5,7,.5.5.5-.5c3-1.5,5.5-3.5,8.5-5.5,1.5-1,2.5-1.5,4.5-1,1.5,0,3,1,4.5,1l19.6,6h1.5c-2.5-3-5.5-5-8.5-7.5l-4.5-3-4.5-2.5c-1-.5-1.5-1-2.5-1l-.5-.5c-.5,0-1-.5-1-.5-1,0-1.5-.5-2.5-.5h-5.5c-1,0-2,.5-3,1-.5,0-1,.5-1.5.5l-.5.5c-1,.5-1.5,1-2.5,1.5q-.5-.5-1-1l-1.5-1.5-1-1c-.5-.5-1-1-2-1.5-2.5-2-5.5-2.5-8.5-2.5h-2.5c-1,0-1.5.5-2.5.5-1.5.5-3,.5-4.5,1-3,1-6,2-9,3.5v1l18.1,1c1.5,0,2.5.5,3.5,1.5"/>
        <path class="cls-5" d="M792,185.9c-.5.5-1,1-1,1-.5,1-1.5,1.5-2,2.5-.5-.5-1.5-.5-2-1-1-.5-1.5-.5-3.5-1-1.5,0-3.5,0-4.5.5-2,1-3.5,2-5,3-1.5,1-3,2.5-4.5,4v.5l11-4c1-.5,2-.5,2.5,0,1,0,1.5.5,2.5,1l5,2.5h.5v-.5l4-5c1-2,3.5-2,5.5-2l12.5-1.5c-2.5-1-4.5-1-6.5-1.5-2-.5-4.5-.5-6.5-.5h-4c-1,0-2,.5-2.5,1-.5.5-1,.5-1.5,1"/>
      </g>
      <g id="Type">
        <g>
          <path class="cls-12" d="M1331.8,183.6c-15-8.1-26.8-19.2-35.4-33.5s-12.9-30.5-12.9-48.5,4.3-34.2,12.9-48.5,20.4-25.5,35.4-33.5c15-8.1,31.8-12.1,50.6-12.1s30,2.8,42.8,8.3c12.7,5.5,23.4,13.5,32.1,23.9l-27,25c-12.3-14.2-27.6-21.3-45.8-21.3s-21.3,2.5-30.2,7.4c-8.8,4.9-15.7,11.8-20.7,20.7-4.9,8.8-7.4,18.9-7.4,30.2s2.5,21.3,7.4,30.2c4.9,8.8,11.8,15.7,20.7,20.7,8.8,4.9,18.9,7.4,30.2,7.4,18.2,0,33.5-7.2,45.8-21.6l27,25c-8.7,10.6-19.4,18.6-32.2,24.2-12.8,5.5-27.1,8.3-42.9,8.3s-35.3-4-50.3-12.1Z"/>
          <path class="cls-12" d="M1475.7,10.5h42.1v147.7h91.3v34.3h-133.4V10.5Z"/>
          <path class="cls-12" d="M1657.3,183.4c-15.2-8.1-27-19.4-35.6-33.7-8.6-14.3-12.9-30.4-12.9-48.2s4.3-33.9,12.9-48.2c8.6-14.3,20.5-25.5,35.6-33.7,15.2-8.1,32.2-12.2,51.1-12.2s35.9,4.1,51,12.2c15.1,8.1,27,19.4,35.6,33.7,8.7,14.3,13,30.4,13,48.2s-4.3,33.9-13,48.2c-8.7,14.3-20.5,25.5-35.6,33.7-15.1,8.1-32.1,12.2-51,12.2s-35.9-4.1-51.1-12.2ZM1737.5,152.4c8.7-4.9,15.5-11.8,20.4-20.7s7.4-18.9,7.4-30.2-2.5-21.3-7.4-30.2-11.7-15.7-20.4-20.7c-8.7-4.9-18.4-7.4-29.1-7.4s-20.5,2.5-29.1,7.4c-8.7,4.9-15.5,11.8-20.4,20.7-4.9,8.8-7.4,18.9-7.4,30.2s2.5,21.3,7.4,30.2c4.9,8.8,11.7,15.7,20.4,20.7,8.7,4.9,18.4,7.4,29.1,7.4s20.5-2.5,29.1-7.4Z"/>
          <path class="cls-12" d="M1850.6,174.1c-14.5-14.4-21.7-34.9-21.7-61.6V10.5h42.1v100.4c0,32.6,13.5,48.9,40.6,48.9s23.2-3.9,30.2-11.8c6.9-7.9,10.4-20.2,10.4-37V10.5h41.6v101.9c0,26.7-7.2,47.2-21.7,61.6-14.5,14.4-34.7,21.6-60.7,21.6s-46.2-7.2-60.7-21.6Z"/>
          <path class="cls-12" d="M2027.1,10.5h82.7c19.8,0,37.2,3.8,52.4,11.3,15.2,7.5,27,18.2,35.4,31.9,8.4,13.7,12.6,29.6,12.6,47.8s-4.2,34.1-12.6,47.8c-8.4,13.7-20.2,24.3-35.4,31.9-15.2,7.5-32.6,11.3-52.4,11.3h-82.7V10.5ZM2107.7,158c18.2,0,32.7-5.1,43.6-15.2,10.8-10.1,16.2-23.9,16.2-41.2s-5.4-31.1-16.2-41.2c-10.8-10.1-25.4-15.2-43.6-15.2h-38.5v112.8h38.5Z"/>
          <path class="cls-12" d="M2474.5,10.5v182h-34.6l-90.7-110.5v110.5h-41.6V10.5h34.8l90.5,110.5V10.5h41.6Z"/>
          <path class="cls-12" d="M2629.5,153.5h-84.5l-16.1,39h-43.2l81.1-182h41.6l81.4,182h-44.2l-16.1-39ZM2616.2,121.6l-28.9-69.7-28.9,69.7h57.7Z"/>
          <path class="cls-12" d="M2717.8,44.9h-58.2V10.5h158.6v34.3h-58.2v147.7h-42.1V44.9Z"/>
          <path class="cls-12" d="M2830.8,10.5h42.1v182h-42.1V10.5Z"/>
          <path class="cls-12" d="M3083,10.5l-78.8,182h-41.6l-78.5-182h45.5l55.4,130,56.2-130h41.9Z"/>
          <path class="cls-12" d="M3235.1,158.7v33.8h-140.9V10.5h137.5v33.8h-95.7v39.5h84.5v32.8h-84.5v42.1h99.1Z"/>
          <path class="cls-12" d="M1313.1,439.8c-13.4-3.9-24.2-9-32.4-15.2l14.3-31.7c7.8,5.7,17.1,10.3,27.8,13.8,10.7,3.5,21.5,5.2,32.2,5.2s20.8-1.8,26.5-5.3c5.7-3.6,8.6-8.3,8.6-14.2s-1.7-7.9-5.1-10.8c-3.4-2.9-7.7-5.2-13-6.9-5.3-1.7-12.4-3.6-21.5-5.7-13.9-3.3-25.2-6.6-34.1-9.9-8.8-3.3-16.4-8.6-22.8-15.9-6.3-7.3-9.5-17-9.5-29.1s2.9-20.1,8.6-28.7,14.3-15.4,25.9-20.4c11.5-5,25.6-7.5,42.2-7.5s23,1.4,34.1,4.2c11.1,2.8,20.8,6.8,29.1,12l-13,32c-16.8-9.5-33.6-14.3-50.4-14.3s-20.5,1.9-26.1,5.7c-5.6,3.8-8.5,8.8-8.5,15.1s3.2,10.9,9.8,13.9c6.5,3,16.4,6,29.8,9,13.9,3.3,25.2,6.6,34.1,9.9,8.8,3.3,16.4,8.5,22.8,15.6,6.3,7.1,9.5,16.7,9.5,28.9s-2.9,19.9-8.7,28.5c-5.8,8.6-14.5,15.4-26.1,20.4-11.6,5-25.7,7.5-42.4,7.5s-28.3-2-41.7-5.9Z"/>
          <path class="cls-12" d="M1472.5,424.1c-14.5-14.4-21.7-34.9-21.7-61.6v-101.9h42.1v100.4c0,32.6,13.5,48.9,40.6,48.9s23.2-3.9,30.2-11.8c6.9-7.9,10.4-20.2,10.4-37v-100.4h41.6v101.9c0,26.7-7.2,47.2-21.7,61.6-14.5,14.4-34.7,21.6-60.7,21.6s-46.2-7.2-60.7-21.6Z"/>
          <path class="cls-12" d="M1814.6,442.5l-.3-109.2-53.6,90h-19l-53.3-87.6v106.9h-39.5v-182h34.8l68.1,113.1,67.1-113.1h34.6l.5,182h-39.5Z"/>
          <path class="cls-12" d="M2054.6,442.5l-.3-109.2-53.6,90h-19l-53.3-87.6v106.9h-39.5v-182h34.8l68.1,113.1,67.1-113.1h34.6l.5,182h-39.5Z"/>
          <path class="cls-12" d="M2128.9,260.5h42.1v182h-42.1v-182Z"/>
          <path class="cls-12" d="M2241.9,294.9h-58.2v-34.3h158.6v34.3h-58.2v147.7h-42.1v-147.7Z"/>
          <path class="cls-6" d="M1460.7,692.5l-.3-109.2-53.6,90h-19l-53.3-87.6v106.9h-39.5v-182h34.8l68.1,113.1,67.1-113.1h34.6l.5,182h-39.5Z"/>
          <path class="cls-6" d="M1554.7,674.1c-14.5-14.4-21.7-34.9-21.7-61.6v-101.9h42.1v100.4c0,32.6,13.5,48.9,40.6,48.9s23.2-3.9,30.2-11.8c6.9-7.9,10.4-20.2,10.4-37v-100.4h41.6v101.9c0,26.7-7.2,47.2-21.7,61.6-14.5,14.4-34.7,21.6-60.7,21.6s-46.2-7.2-60.7-21.6Z"/>
          <path class="cls-6" d="M1898.1,510.5v182h-34.6l-90.7-110.5v110.5h-41.6v-182h34.8l90.5,110.5v-110.5h41.6Z"/>
          <path class="cls-6" d="M1932.9,510.5h42.1v182h-42.1v-182Z"/>
          <path class="cls-6" d="M2047,683.6c-15-8.1-26.8-19.2-35.4-33.5s-12.9-30.5-12.9-48.5,4.3-34.2,12.9-48.5,20.4-25.5,35.4-33.5c15-8.1,31.8-12.1,50.6-12.1s30,2.8,42.8,8.3c12.7,5.5,23.4,13.5,32.1,23.9l-27,25c-12.3-14.2-27.6-21.3-45.8-21.3s-21.3,2.5-30.2,7.4c-8.8,4.9-15.7,11.8-20.7,20.7-4.9,8.8-7.4,18.9-7.4,30.2s2.5,21.3,7.4,30.2c4.9,8.8,11.8,15.7,20.7,20.7,8.8,4.9,18.9,7.4,30.2,7.4,18.2,0,33.5-7.2,45.8-21.6l27,25c-8.7,10.6-19.4,18.6-32.2,24.2-12.8,5.5-27.1,8.3-42.9,8.3s-35.3-4-50.3-12.1Z"/>
          <path class="cls-6" d="M2357.8,510.5v182h-42.1v-74.6h-82.7v74.6h-42.1v-182h42.1v71.8h82.7v-71.8h42.1Z"/>
          <path class="cls-6" d="M2591.3,658.2v34.3h-137.5v-27.3l70.2-66.3c7.5-7.1,12.5-13.2,15.1-18.3,2.6-5.1,3.9-10.2,3.9-15.2,0-7.3-2.5-12.9-7.4-16.8-4.9-3.9-12.2-5.8-21.7-5.8s-15.2,1.5-21.6,4.5c-6.4,3-11.8,7.6-16.1,13.7l-30.7-19.8c7.1-10.6,16.9-18.8,29.4-24.8,12.5-6,26.8-9,42.9-9s25.3,2.2,35.5,6.6c10.1,4.4,18,10.7,23.7,18.7,5.6,8.1,8.4,17.5,8.4,28.5s-2.1,19.2-6.2,27.8c-4.2,8.7-12.2,18.5-24.2,29.6l-41.9,39.5h78.3Z"/>
          <path class="cls-6" d="M2640.3,684.5c-11.8-7.5-21-18.2-27.7-32.4-6.7-14.1-10-31-10-50.6s3.3-36.4,10-50.6c6.7-14.1,15.9-24.9,27.7-32.4,11.8-7.5,25.2-11.2,40.3-11.2s28.5,3.7,40.3,11.2c11.8,7.5,21,18.2,27.7,32.4,6.7,14.1,10,31,10,50.6s-3.3,36.4-10,50.6c-6.7,14.1-15.9,24.9-27.7,32.4-11.8,7.5-25.2,11.2-40.3,11.2s-28.5-3.7-40.3-11.2ZM2706.7,645.7c6.3-9.5,9.5-24.3,9.5-44.2s-3.2-34.7-9.5-44.2c-6.3-9.5-15-14.3-26.1-14.3s-19.5,4.8-25.9,14.3c-6.3,9.5-9.5,24.3-9.5,44.2s3.2,34.7,9.5,44.2c6.3,9.5,15,14.3,25.9,14.3s19.8-4.8,26.1-14.3Z"/>
          <path class="cls-6" d="M2906.2,658.2v34.3h-137.5v-27.3l70.2-66.3c7.5-7.1,12.5-13.2,15.1-18.3,2.6-5.1,3.9-10.2,3.9-15.2,0-7.3-2.5-12.9-7.4-16.8-4.9-3.9-12.2-5.8-21.7-5.8s-15.2,1.5-21.6,4.5c-6.4,3-11.8,7.6-16.1,13.7l-30.7-19.8c7.1-10.6,16.9-18.8,29.4-24.8,12.5-6,26.8-9,42.9-9s25.3,2.2,35.5,6.6c10.1,4.4,18,10.7,23.7,18.7,5.6,8.1,8.4,17.5,8.4,28.5s-2.1,19.2-6.2,27.8c-4.2,8.7-12.2,18.5-24.2,29.6l-41.9,39.5h78.3Z"/>
          <path class="cls-6" d="M3040.1,594.3c12.2,10.2,18.3,23.9,18.3,41.1s-2.8,21.2-8.3,30.3c-5.5,9.1-14,16.4-25.4,21.8-11.4,5.5-25.3,8.2-42,8.2s-25.4-1.7-37.8-5.1c-12.4-3.4-22.9-8.2-31.6-14.4l16.6-32.2c6.9,5.2,14.9,9.2,23.9,12.1,9,2.9,18.3,4.3,27.8,4.3s18.9-2.1,25-6.2c6.1-4.2,9.1-10,9.1-17.4s-3.2-13.7-9.5-17.7c-6.3-4-17.3-6-32.9-6h-46.5l9.4-102.4h111v33.8h-75.9l-2.9,34.6h14.8c25.7,0,44.6,5.1,56.8,15.3Z"/>
        </g>
      </g>
      <g id="City">
        <g id="New_City">
          <g id="Floor">
            <path class="cls-11" d="M2.2,628.8h1240.2v44.1c0,13.2-10.8,24-24,24H26.2c-13.2,0-24-10.8-24-24v-44.1h0Z"/>
          </g>
          <g>
            <circle class="cls-2" cx="475.1" cy="434.1" r="147.6"/>
            <circle class="cls-4" cx="475.1" cy="434.1" r="133.5"/>
            <circle class="cls-4" cx="475.1" cy="434.1" r="51.4"/>
            <g>
              <line class="cls-3" x1="475.1" y1="581.8" x2="475.1" y2="286.5"/>
              <g>
                <g>
                  <path class="cls-5" d="M475.1,286.5v-14.2c3.8,0,7.4,1.5,10,4.2,2.7,2.7,4.2,6.3,4.2,10h-14.2Z"/>
                  <path class="cls-3" d="M475.1,286.5v-14.2c3.8,0,7.4,1.5,10,4.2,2.7,2.7,4.2,6.3,4.2,10h-14.2Z"/>
                </g>
                <g>
                  <path class="cls-5" d="M475.1,286.5h-14.2c0-3.8,1.5-7.4,4.2-10,2.7-2.7,6.3-4.2,10-4.2v14.2Z"/>
                  <path class="cls-3" d="M475.1,286.5h-14.2c0-3.8,1.5-7.4,4.2-10,2.7-2.7,6.3-4.2,10-4.2v14.2Z"/>
                </g>
                <g>
                  <path class="cls-12" d="M475.1,286.5h14.2c0,7.8-6.4,14.2-14.2,14.2s-14.2-6.4-14.2-14.2h14.2Z"/>
                  <path class="cls-3" d="M475.1,286.5h14.2c0,7.8-6.4,14.2-14.2,14.2s-14.2-6.4-14.2-14.2h14.2Z"/>
                </g>
              </g>
              <g>
                <g>
                  <path class="cls-5" d="M475.1,581.8v-14.2c3.8,0,7.4,1.5,10,4.2,2.7,2.7,4.2,6.3,4.2,10h-14.2Z"/>
                  <path class="cls-3" d="M475.1,581.8v-14.2c3.8,0,7.4,1.5,10,4.2,2.7,2.7,4.2,6.3,4.2,10h-14.2Z"/>
                </g>
                <g>
                  <path class="cls-5" d="M475.1,581.8h-14.2c0-3.8,1.5-7.4,4.2-10,2.7-2.7,6.3-4.2,10-4.2v14.2Z"/>
                  <path class="cls-3" d="M475.1,581.8h-14.2c0-3.8,1.5-7.4,4.2-10,2.7-2.7,6.3-4.2,10-4.2v14.2Z"/>
                </g>
                <g>
                  <path class="cls-12" d="M475.1,581.8h14.2c0,7.8-6.4,14.2-14.2,14.2s-14.2-6.4-14.2-14.2h14.2Z"/>
                  <path class="cls-3" d="M475.1,581.8h14.2c0,7.8-6.4,14.2-14.2,14.2s-14.2-6.4-14.2-14.2h14.2Z"/>
                </g>
              </g>
            </g>
            <g>
              <line class="cls-3" x1="525.6" y1="572.9" x2="424.6" y2="295.4"/>
              <g>
                <g>
                  <path class="cls-5" d="M424.6,295.4v-14.2c3.8,0,7.4,1.5,10,4.2s4.2,6.3,4.2,10h-14.2Z"/>
                  <path class="cls-3" d="M424.6,295.4v-14.2c3.8,0,7.4,1.5,10,4.2s4.2,6.3,4.2,10h-14.2Z"/>
                </g>
                <g>
                  <path class="cls-5" d="M424.6,295.4h-14.2c0-3.8,1.5-7.4,4.2-10,2.7-2.7,6.3-4.2,10-4.2v14.2Z"/>
                  <path class="cls-3" d="M424.6,295.4h-14.2c0-3.8,1.5-7.4,4.2-10,2.7-2.7,6.3-4.2,10-4.2v14.2Z"/>
                </g>
                <g>
                  <path class="cls-12" d="M424.6,295.4h14.2c0,7.8-6.4,14.2-14.2,14.2-7.8,0-14.2-6.4-14.2-14.2h14.2Z"/>
                  <path class="cls-3" d="M424.6,295.4h14.2c0,7.8-6.4,14.2-14.2,14.2-7.8,0-14.2-6.4-14.2-14.2h14.2Z"/>
                </g>
              </g>
              <g>
                <g>
                  <path class="cls-5" d="M525.6,572.9v-14.2c3.8,0,7.4,1.5,10,4.2s4.2,6.3,4.2,10h-14.2Z"/>
                  <path class="cls-3" d="M525.6,572.9v-14.2c3.8,0,7.4,1.5,10,4.2s4.2,6.3,4.2,10h-14.2Z"/>
                </g>
                <g>
                  <path class="cls-5" d="M525.6,572.9h-14.2c0-3.8,1.5-7.4,4.2-10,2.7-2.7,6.3-4.2,10-4.2v14.2Z"/>
                  <path class="cls-3" d="M525.6,572.9h-14.2c0-3.8,1.5-7.4,4.2-10,2.7-2.7,6.3-4.2,10-4.2v14.2Z"/>
                </g>
                <g>
                  <path class="cls-12" d="M525.6,572.9h14.2c0,7.8-6.4,14.2-14.2,14.2-7.8,0-14.2-6.4-14.2-14.2h14.2Z"/>
                  <path class="cls-3" d="M525.6,572.9h14.2c0,7.8-6.4,14.2-14.2,14.2-7.8,0-14.2-6.4-14.2-14.2h14.2Z"/>
                </g>
              </g>
            </g>
            <g>
              <line class="cls-3" x1="570" y1="547.2" x2="380.2" y2="321"/>
              <g>
                <g>
                  <path class="cls-5" d="M380.2,321v-14.2c3.8,0,7.4,1.5,10,4.2,2.7,2.7,4.2,6.3,4.2,10h-14.2Z"/>
                  <path class="cls-3" d="M380.2,321v-14.2c3.8,0,7.4,1.5,10,4.2,2.7,2.7,4.2,6.3,4.2,10h-14.2Z"/>
                </g>
                <g>
                  <path class="cls-5" d="M380.2,321h-14.2c0-3.8,1.5-7.4,4.2-10,2.7-2.7,6.3-4.2,10-4.2v14.2Z"/>
                  <path class="cls-3" d="M380.2,321h-14.2c0-3.8,1.5-7.4,4.2-10,2.7-2.7,6.3-4.2,10-4.2v14.2Z"/>
                </g>
                <g>
                  <path class="cls-12" d="M380.2,321h14.2c0,7.8-6.4,14.2-14.2,14.2-7.8,0-14.2-6.4-14.2-14.2h14.2Z"/>
                  <path class="cls-3" d="M380.2,321h14.2c0,7.8-6.4,14.2-14.2,14.2-7.8,0-14.2-6.4-14.2-14.2h14.2Z"/>
                </g>
              </g>
              <g>
                <g>
                  <path class="cls-5" d="M570,547.2v-14.2c3.8,0,7.4,1.5,10,4.2,2.7,2.7,4.2,6.3,4.2,10h-14.2Z"/>
                  <path class="cls-3" d="M570,547.2v-14.2c3.8,0,7.4,1.5,10,4.2,2.7,2.7,4.2,6.3,4.2,10h-14.2Z"/>
                </g>
                <g>
                  <path class="cls-5" d="M570,547.2h-14.2c0-3.8,1.5-7.4,4.2-10,2.7-2.7,6.3-4.2,10-4.2v14.2Z"/>
                  <path class="cls-3" d="M570,547.2h-14.2c0-3.8,1.5-7.4,4.2-10,2.7-2.7,6.3-4.2,10-4.2v14.2Z"/>
                </g>
                <g>
                  <path class="cls-12" d="M570,547.2h14.2c0,7.8-6.4,14.2-14.2,14.2-7.8,0-14.2-6.4-14.2-14.2h14.2Z"/>
                  <path class="cls-3" d="M570,547.2h14.2c0,7.8-6.4,14.2-14.2,14.2-7.8,0-14.2-6.4-14.2-14.2h14.2Z"/>
                </g>
              </g>
            </g>
            <g>
              <line class="cls-3" x1="620.5" y1="459.8" x2="329.7" y2="408.5"/>
              <g>
                <g>
                  <path class="cls-5" d="M329.7,408.5v-14.2c3.8,0,7.4,1.5,10,4.2s4.2,6.3,4.2,10h-14.2Z"/>
                  <path class="cls-3" d="M329.7,408.5v-14.2c3.8,0,7.4,1.5,10,4.2s4.2,6.3,4.2,10h-14.2Z"/>
                </g>
                <g>
                  <path class="cls-5" d="M329.7,408.5h-14.2c0-3.8,1.5-7.4,4.2-10,2.7-2.7,6.3-4.2,10-4.2v14.2Z"/>
                  <path class="cls-3" d="M329.7,408.5h-14.2c0-3.8,1.5-7.4,4.2-10,2.7-2.7,6.3-4.2,10-4.2v14.2Z"/>
                </g>
                <g>
                  <path class="cls-12" d="M329.7,408.5h14.2c0,7.8-6.4,14.2-14.2,14.2-7.8,0-14.2-6.4-14.2-14.2h14.2Z"/>
                  <path class="cls-3" d="M329.7,408.5h14.2c0,7.8-6.4,14.2-14.2,14.2-7.8,0-14.2-6.4-14.2-14.2h14.2Z"/>
                </g>
              </g>
              <g>
                <g>
                  <path class="cls-5" d="M620.5,459.8v-14.2c3.8,0,7.4,1.5,10,4.2,2.7,2.7,4.2,6.3,4.2,10h-14.2Z"/>
                  <path class="cls-3" d="M620.5,459.8v-14.2c3.8,0,7.4,1.5,10,4.2,2.7,2.7,4.2,6.3,4.2,10h-14.2Z"/>
                </g>
                <g>
                  <path class="cls-5" d="M620.5,459.8h-14.2c0-3.8,1.5-7.4,4.2-10s6.3-4.2,10-4.2v14.2Z"/>
                  <path class="cls-3" d="M620.5,459.8h-14.2c0-3.8,1.5-7.4,4.2-10s6.3-4.2,10-4.2v14.2Z"/>
                </g>
                <g>
                  <path class="cls-12" d="M620.5,459.8h14.2c0,7.8-6.4,14.2-14.2,14.2-7.8,0-14.2-6.4-14.2-14.2h14.2Z"/>
                  <path class="cls-3" d="M620.5,459.8h14.2c0,7.8-6.4,14.2-14.2,14.2-7.8,0-14.2-6.4-14.2-14.2h14.2Z"/>
                </g>
              </g>
            </g>
            <g>
              <line class="cls-3" x1="603" y1="508" x2="347.3" y2="360.3"/>
              <g>
                <g>
                  <path class="cls-5" d="M347.3,360.3v-14.2c3.8,0,7.4,1.5,10,4.2,2.7,2.7,4.2,6.3,4.2,10h-14.2Z"/>
                  <path class="cls-3" d="M347.3,360.3v-14.2c3.8,0,7.4,1.5,10,4.2,2.7,2.7,4.2,6.3,4.2,10h-14.2Z"/>
                </g>
                <g>
                  <path class="cls-5" d="M347.3,360.3h-14.2c0-3.8,1.5-7.4,4.2-10,2.7-2.7,6.3-4.2,10-4.2v14.2Z"/>
                  <path class="cls-3" d="M347.3,360.3h-14.2c0-3.8,1.5-7.4,4.2-10,2.7-2.7,6.3-4.2,10-4.2v14.2Z"/>
                </g>
                <g>
                  <path class="cls-12" d="M347.3,360.3h14.2c0,7.8-6.4,14.2-14.2,14.2-7.8,0-14.2-6.4-14.2-14.2h14.2Z"/>
                  <path class="cls-3" d="M347.3,360.3h14.2c0,7.8-6.4,14.2-14.2,14.2-7.8,0-14.2-6.4-14.2-14.2h14.2Z"/>
                </g>
              </g>
              <g>
                <g>
                  <path class="cls-5" d="M603,508v-14.2c3.8,0,7.4,1.5,10,4.2,2.7,2.7,4.2,6.3,4.2,10h-14.2Z"/>
                  <path class="cls-3" d="M603,508v-14.2c3.8,0,7.4,1.5,10,4.2,2.7,2.7,4.2,6.3,4.2,10h-14.2Z"/>
                </g>
                <g>
                  <path class="cls-5" d="M603,508h-14.2c0-3.8,1.5-7.4,4.2-10,2.7-2.7,6.3-4.2,10-4.2v14.2Z"/>
                  <path class="cls-3" d="M603,508h-14.2c0-3.8,1.5-7.4,4.2-10,2.7-2.7,6.3-4.2,10-4.2v14.2Z"/>
                </g>
                <g>
                  <path class="cls-12" d="M603,508h14.2c0,7.8-6.4,14.2-14.2,14.2-7.8,0-14.2-6.4-14.2-14.2h14.2Z"/>
                  <path class="cls-3" d="M603,508h14.2c0,7.8-6.4,14.2-14.2,14.2-7.8,0-14.2-6.4-14.2-14.2h14.2Z"/>
                </g>
              </g>
            </g>
            <g>
              <line class="cls-3" x1="620.5" y1="408.5" x2="329.7" y2="459.8"/>
              <g>
                <g>
                  <path class="cls-5" d="M329.7,459.8v-14.2c3.8,0,7.4,1.5,10,4.2,2.7,2.7,4.2,6.3,4.2,10h-14.2Z"/>
                  <path class="cls-3" d="M329.7,459.8v-14.2c3.8,0,7.4,1.5,10,4.2,2.7,2.7,4.2,6.3,4.2,10h-14.2Z"/>
                </g>
                <g>
                  <path class="cls-5" d="M329.7,459.8h-14.2c0-3.8,1.5-7.4,4.2-10,2.7-2.7,6.3-4.2,10-4.2v14.2Z"/>
                  <path class="cls-3" d="M329.7,459.8h-14.2c0-3.8,1.5-7.4,4.2-10,2.7-2.7,6.3-4.2,10-4.2v14.2Z"/>
                </g>
                <g>
                  <path class="cls-12" d="M329.7,459.8h14.2c0,7.8-6.4,14.2-14.2,14.2-7.8,0-14.2-6.4-14.2-14.2h14.2Z"/>
                  <path class="cls-3" d="M329.7,459.8h14.2c0,7.8-6.4,14.2-14.2,14.2-7.8,0-14.2-6.4-14.2-14.2h14.2Z"/>
                </g>
              </g>
              <g>
                <g>
                  <path class="cls-5" d="M620.5,408.5v-14.2c3.8,0,7.4,1.5,10,4.2,2.7,2.7,4.2,6.3,4.2,10h-14.2Z"/>
                  <path class="cls-3" d="M620.5,408.5v-14.2c3.8,0,7.4,1.5,10,4.2,2.7,2.7,4.2,6.3,4.2,10h-14.2Z"/>
                </g>
                <g>
                  <path class="cls-5" d="M620.5,408.5h-14.2c0-3.8,1.5-7.4,4.2-10,2.7-2.7,6.3-4.2,10-4.2v14.2Z"/>
                  <path class="cls-3" d="M620.5,408.5h-14.2c0-3.8,1.5-7.4,4.2-10,2.7-2.7,6.3-4.2,10-4.2v14.2Z"/>
                </g>
                <g>
                  <path class="cls-12" d="M620.5,408.5h14.2c0,7.8-6.4,14.2-14.2,14.2-7.8,0-14.2-6.4-14.2-14.2h14.2Z"/>
                  <path class="cls-3" d="M620.5,408.5h14.2c0,7.8-6.4,14.2-14.2,14.2-7.8,0-14.2-6.4-14.2-14.2h14.2Z"/>
                </g>
              </g>
            </g>
            <g>
              <line class="cls-3" x1="603" y1="360.3" x2="347.3" y2="508"/>
              <g>
                <g>
                  <path class="cls-5" d="M347.3,508v-14.2c3.8,0,7.4,1.5,10,4.2s4.2,6.3,4.2,10h-14.2Z"/>
                  <path class="cls-3" d="M347.3,508v-14.2c3.8,0,7.4,1.5,10,4.2s4.2,6.3,4.2,10h-14.2Z"/>
                </g>
                <g>
                  <path class="cls-5" d="M347.3,508h-14.2c0-3.8,1.5-7.4,4.2-10,2.7-2.7,6.3-4.2,10-4.2v14.2Z"/>
                  <path class="cls-3" d="M347.3,508h-14.2c0-3.8,1.5-7.4,4.2-10,2.7-2.7,6.3-4.2,10-4.2v14.2Z"/>
                </g>
                <g>
                  <path class="cls-12" d="M347.3,508h14.2c0,7.8-6.4,14.2-14.2,14.2s-14.2-6.4-14.2-14.2h14.2Z"/>
                  <path class="cls-3" d="M347.3,508h14.2c0,7.8-6.4,14.2-14.2,14.2s-14.2-6.4-14.2-14.2h14.2Z"/>
                </g>
              </g>
              <g>
                <g>
                  <path class="cls-5" d="M603,360.3v-14.2c3.8,0,7.4,1.5,10,4.2s4.2,6.3,4.2,10h-14.2Z"/>
                  <path class="cls-3" d="M603,360.3v-14.2c3.8,0,7.4,1.5,10,4.2s4.2,6.3,4.2,10h-14.2Z"/>
                </g>
                <g>
                  <path class="cls-5" d="M603,360.3h-14.2c0-3.8,1.5-7.4,4.2-10,2.7-2.7,6.3-4.2,10-4.2v14.2Z"/>
                  <path class="cls-3" d="M603,360.3h-14.2c0-3.8,1.5-7.4,4.2-10,2.7-2.7,6.3-4.2,10-4.2v14.2Z"/>
                </g>
                <g>
                  <path class="cls-12" d="M603,360.3h14.2c0,7.8-6.4,14.2-14.2,14.2s-14.2-6.4-14.2-14.2h14.2Z"/>
                  <path class="cls-3" d="M603,360.3h14.2c0,7.8-6.4,14.2-14.2,14.2s-14.2-6.4-14.2-14.2h14.2Z"/>
                </g>
              </g>
            </g>
            <g>
              <line class="cls-3" x1="570" y1="321" x2="380.2" y2="547.2"/>
              <g>
                <g>
                  <path class="cls-5" d="M380.2,547.2v-14.2c3.8,0,7.4,1.5,10,4.2s4.2,6.3,4.2,10h-14.2Z"/>
                  <path class="cls-3" d="M380.2,547.2v-14.2c3.8,0,7.4,1.5,10,4.2s4.2,6.3,4.2,10h-14.2Z"/>
                </g>
                <g>
                  <path class="cls-5" d="M380.2,547.2h-14.2c0-3.8,1.5-7.4,4.2-10,2.7-2.7,6.3-4.2,10-4.2v14.2Z"/>
                  <path class="cls-3" d="M380.2,547.2h-14.2c0-3.8,1.5-7.4,4.2-10,2.7-2.7,6.3-4.2,10-4.2v14.2Z"/>
                </g>
                <g>
                  <path class="cls-12" d="M380.2,547.2h14.2c0,7.8-6.4,14.2-14.2,14.2-7.8,0-14.2-6.4-14.2-14.2h14.2Z"/>
                  <path class="cls-3" d="M380.2,547.2h14.2c0,7.8-6.4,14.2-14.2,14.2-7.8,0-14.2-6.4-14.2-14.2h14.2Z"/>
                </g>
              </g>
              <g>
                <g>
                  <path class="cls-5" d="M570,321v-14.2c3.8,0,7.4,1.5,10,4.2,2.7,2.7,4.2,6.3,4.2,10h-14.2Z"/>
                  <path class="cls-3" d="M570,321v-14.2c3.8,0,7.4,1.5,10,4.2,2.7,2.7,4.2,6.3,4.2,10h-14.2Z"/>
                </g>
                <g>
                  <path class="cls-5" d="M570,321h-14.2c0-3.8,1.5-7.4,4.2-10s6.3-4.2,10-4.2v14.2Z"/>
                  <path class="cls-3" d="M570,321h-14.2c0-3.8,1.5-7.4,4.2-10s6.3-4.2,10-4.2v14.2Z"/>
                </g>
                <g>
                  <path class="cls-12" d="M570,321h14.2c0,7.8-6.4,14.2-14.2,14.2-7.8,0-14.2-6.4-14.2-14.2h14.2Z"/>
                  <path class="cls-3" d="M570,321h14.2c0,7.8-6.4,14.2-14.2,14.2-7.8,0-14.2-6.4-14.2-14.2h14.2Z"/>
                </g>
              </g>
            </g>
            <g>
              <line class="cls-3" x1="525.6" y1="295.4" x2="424.6" y2="572.9"/>
              <g>
                <g>
                  <path class="cls-5" d="M424.6,572.9v-14.2c3.8,0,7.4,1.5,10,4.2s4.2,6.3,4.2,10h-14.2Z"/>
                  <path class="cls-3" d="M424.6,572.9v-14.2c3.8,0,7.4,1.5,10,4.2s4.2,6.3,4.2,10h-14.2Z"/>
                </g>
                <g>
                  <path class="cls-5" d="M424.6,572.9h-14.2c0-3.8,1.5-7.4,4.2-10,2.7-2.7,6.3-4.2,10-4.2v14.2Z"/>
                  <path class="cls-3" d="M424.6,572.9h-14.2c0-3.8,1.5-7.4,4.2-10,2.7-2.7,6.3-4.2,10-4.2v14.2Z"/>
                </g>
                <g>
                  <path class="cls-12" d="M424.6,572.9h14.2c0,7.8-6.4,14.2-14.2,14.2-7.8,0-14.2-6.4-14.2-14.2h14.2Z"/>
                  <path class="cls-3" d="M424.6,572.9h14.2c0,7.8-6.4,14.2-14.2,14.2-7.8,0-14.2-6.4-14.2-14.2h14.2Z"/>
                </g>
              </g>
              <g>
                <g>
                  <path class="cls-5" d="M525.6,295.4v-14.2c3.8,0,7.4,1.5,10,4.2s4.2,6.3,4.2,10h-14.2Z"/>
                  <path class="cls-3" d="M525.6,295.4v-14.2c3.8,0,7.4,1.5,10,4.2s4.2,6.3,4.2,10h-14.2Z"/>
                </g>
                <g>
                  <path class="cls-5" d="M525.6,295.4h-14.2c0-3.8,1.5-7.4,4.2-10s6.3-4.2,10-4.2v14.2Z"/>
                  <path class="cls-3" d="M525.6,295.4h-14.2c0-3.8,1.5-7.4,4.2-10s6.3-4.2,10-4.2v14.2Z"/>
                </g>
                <g>
                  <path class="cls-12" d="M525.6,295.4h14.2c0,7.8-6.4,14.2-14.2,14.2-7.8,0-14.2-6.4-14.2-14.2h14.2Z"/>
                  <path class="cls-3" d="M525.6,295.4h14.2c0,7.8-6.4,14.2-14.2,14.2-7.8,0-14.2-6.4-14.2-14.2h14.2Z"/>
                </g>
              </g>
            </g>
            <circle class="cls-5" cx="475.1" cy="434.1" r="27.1"/>
            <polyline class="cls-1" points="436.7 638.2 475.1 432.5 513.6 638.2"/>
          </g>
          <g>
            <polygon class="cls-11" points="936.4 89.5 936.3 92.4 939.5 92.4 939.5 89.5 936.4 89.5"/>
            <polygon class="cls-11" points="934.7 195.1 940.1 195.1 940.1 189 942.1 189 941.6 170.6 934.2 170.6 933.7 189 934.7 189 934.7 195.1"/>
            <polygon class="cls-11" points="942.7 210.6 933.1 210.6 932.8 221.7 943 221.7 942.7 210.6"/>
            <polygon class="cls-11" points="937.9 31.9 936.5 85.2 939.3 85.2 937.9 31.9"/>
            <polygon class="cls-11" points="944 259.6 931.8 259.6 931.5 271.1 944.3 271.1 944 259.6"/>
            <polygon class="cls-11" points="939.7 96.7 936.2 96.7 934.4 162.7 941.4 162.7 939.7 96.7"/>
            <polygon class="cls-11" points="925.5 496.2 950.3 496.2 945.6 320.4 930.2 320.4 925.5 496.2"/>
            <g>
              <path class="cls-10" d="M955.2,281.2c0-.4,0-.7,0-1.1h-34.1c0,.4,0,.7,0,1.1v10.4h34.2v-10.4Z"/>
              <path class="cls-10" d="M945.1,271.1h-14c-.9,0-1.8.1-2.7.4h19.3c-.8-.2-1.7-.4-2.6-.4"/>
              <path class="cls-10" d="M955.2,310v-9.7h-34.2v9.7c0,.6,0,1.2.2,1.8h33.9c.1-.6.2-1.2.2-1.8"/>
              <path class="cls-10" d="M957.7,259.6c5.8,0,10.1-4.7,10.1-10.1v-17.6c0-5.8-4.7-10.1-10.1-10.1h-38.9c-5.8,0-10.1,4.7-10.1,10.1v17.6c0,5.8,4.7,10.1,10.1,10.1h38.9Z"/>
              <path class="cls-7" d="M955.6,210.6c2.9,0,5-2.2,5-5l1.1-5.4v-11.2h-3.6v6.5c-.4,0-1.1-.4-1.8-.4h-3.6v-6.1h-3.6v6.1h-5.4v-6.1h-3.6v6.1h-5.4v-6.1h-3.6v6.1h-5.4v-6.1h-3.6v6.1h-3.6c-.7,0-1.1,0-1.8.4v-6.5h-3.6v16.6c0,2.9,2.2,5,5,5h37.5Z"/>
              <path class="cls-14" d="M957.7,280.1c5.4,0,10.1-2.2,10.1-4.3s-4.7-4.3-10.1-4.3h-38.9c-5.8,0-10.1,2.2-10.1,4.3s4.7,4.3,10.1,4.3h38.9Z"/>
              <path class="cls-14" d="M957.7,300.3c5.4,0,10.1-2.2,10.1-4.3s-4.7-4.3-10.1-4.3h-38.9c-5.8,0-10.1,2.2-10.1,4.3s4.7,4.3,10.1,4.3h38.9Z"/>
              <path class="cls-14" d="M945.6,320.4h12.1c5.4,0,10.1-1.8,10.1-4.3s-4.7-4.3-10.1-4.3h-38.9c-5.8,0-10.1,2.2-10.1,4.3s4.7,4.3,10.1,4.3h26.8Z"/>
              <path class="cls-14" d="M944.8,170.6c2.9,0,5-1.8,5-4s-2.2-4-5-4h-13.7c-2.9,0-5,1.8-5,4s2.2,4,5,4h13.7Z"/>
              <path class="cls-7" d="M940.1,96.7c2.9.4,5-.7,5-2.2s-2.2-2.2-5-2.2h-4c-2.9,0-5,1.1-5,2.2s2.2,2.2,5,2.2h4Z"/>
              <path class="cls-7" d="M940.1,89.5c2.9.4,5-.7,5-2.2s-2.2-2.2-5-2.2h-4c-2.9,0-5,1.1-5,2.2s2.2,2.2,5,2.2h4Z"/>
            </g>
          </g>
          <polygon class="cls-10" points="615.6 534.5 615.9 534.5 615.9 532.1 615.6 534.5"/>
          <g>
            <path class="cls-11" d="M215.7,353.9v.5h.5c-.2-.2-.3-.3-.5-.5"/>
            <path class="cls-11" d="M246,354.4v-.3c-.1.1-.2.2-.3.3h.3Z"/>
            <path class="cls-11" d="M283.5,434.7c-5.6,0-10.1-4.5-10.1-10.1s4.5-10.1,10.1-10.1,10.1,4.5,10.1,10.1-4.5,10.1-10.1,10.1M277.7,385.7c0-2.9,1.1-5.4,2.9-6.8l2.9-2.5,2.9,2.5c1.8,1.4,2.9,4,2.9,6.8v17.3h-11.5v-17.3ZM302.6,403h-4v-43.2h-30.3v43.2h-4v54.4h38.2v-54.4Z"/>
            <path class="cls-11" d="M268.3,353.9v.5h.5c-.2-.2-.3-.3-.5-.5"/>
            <path class="cls-11" d="M298.6,354.4v-.3c-.1.1-.2.2-.3.3h.3Z"/>
            <path class="cls-7" d="M232.7,326.4v-6.9c0-1.1-.7-1.8-1.8-1.8s-1.8.7-1.8,1.8v6.9c.6,0,1.2-.1,1.8-.1s1.2,0,1.8.1"/>
            <path class="cls-7" d="M285.3,326.4v-6.9c0-1.1-.7-1.8-1.8-1.8s-1.8.7-1.8,1.8v6.9c.6,0,1.2-.1,1.8-.1s1.2,0,1.8.1"/>
          </g>
          <path class="cls-10" d="M245.7,354.4c.1-.1.2-.2.3-.3,2.5-2.5,4-5.6,4-9,0-7.8-7.7-17.5-17.3-18.6-.6,0-1.2-.1-1.8-.1s-1.2,0-1.8.1c-9.6,1.1-17.3,10.8-17.3,18.6s1.5,6.4,4,8.9c.2.2.3.3.5.5h29.4Z"/>
          <path class="cls-10" d="M298.2,354.4c.1-.1.2-.2.3-.3,2.5-2.5,4-5.6,4-9,0-7.8-7.7-17.5-17.3-18.6-.6,0-1.2-.1-1.8-.1s-1.2,0-1.8.1c-9.6,1.1-17.3,10.8-17.3,18.6s1.5,6.4,4,8.9c.2.2.3.3.5.5h29.4Z"/>
          <path class="cls-6" d="M270.1,513.2h6.8v6.8h-6.8v-6.8ZM270.1,492.7h6.8v6.8h-6.8v-6.8ZM270.1,472.5h6.8v6.8h-6.8v-6.8ZM289.2,513.2h6.8v6.8h-6.8v-6.8ZM289.2,492.7h6.8v6.8h-6.8v-6.8ZM289.2,472.5h6.8v6.8h-6.8v-6.8ZM308.7,513.2h6.8v6.8h-6.8v-6.8ZM308.7,492.7h6.8v6.8h-6.8v-6.8ZM308.7,472.5h6.8v6.8h-6.8v-6.8ZM328.1,513.2h6.8v6.8h-6.8v-6.8ZM328.1,492.7h6.8v6.8h-6.8v-6.8ZM328.1,472.5h6.8v6.8h-6.8v-6.8ZM347.6,513.2h6.8v6.8h-6.8v-6.8ZM347.6,492.7h6.8v6.8h-6.8v-6.8ZM347.6,472.5h6.8v6.8h-6.8v-6.8ZM367,513.2h6.8v6.8h-6.8v-6.8ZM367,492.7h6.8v6.8h-6.8v-6.8ZM367,472.5h6.8v6.8h-6.8v-6.8ZM386.5,513.2h6.8v6.8h-6.8v-6.8ZM386.5,492.7h6.8v6.8h-6.8v-6.8ZM386.5,472.5h6.8v6.8h-6.8v-6.8ZM405.9,513.2h6.8v6.8h-6.8v-6.8ZM405.9,492.7h6.8v6.8h-6.8v-6.8ZM405.9,472.5h6.8v6.8h-6.8v-6.8ZM431.9,529.4v-72h-171.8v72h171.8Z"/>
          <polygon class="cls-7" points="481.2 529.4 437.3 465.3 437.3 529.4 481.2 529.4"/>
          <g>
            <path class="cls-14" d="M457.1,545.3l-3.2,8.3c-1.8,4.7-2.9,13-2.9,21.6v53.7h12.2v-53.7c0-8.6-1.1-16.9-2.9-21.6l-3.2-8.3Z"/>
            <path class="cls-14" d="M431.1,545.3l-3.2,8.3c-1.8,4.7-2.9,13-2.9,21.6v53.7h12.2v-53.7c0-8.6-1.1-16.9-2.9-21.6l-3.2-8.3Z"/>
            <path class="cls-14" d="M405.2,545.3l-3.2,8.3c-1.8,4.7-2.9,13-2.9,21.6v53.7h12.2v-53.7c0-8.6-1.1-16.9-2.9-21.6l-3.2-8.3Z"/>
            <path class="cls-14" d="M378.9,545.3l-3.2,8.3c-1.8,4.7-2.9,13-2.9,21.6v53.7h12.2v-53.7c0-8.6-1.1-16.9-2.9-21.6l-3.2-8.3Z"/>
            <path class="cls-14" d="M274.8,545.3l-3.2,8.3c-1.8,4.7-2.9,13-2.9,21.6v53.7h12.2v-53.7c0-8.6-1.1-16.9-2.9-21.6l-3.2-8.3Z"/>
            <path class="cls-14" d="M300.8,545.3l-3.2,8.3c-1.8,4.7-2.9,13-2.9,21.6v53.7h12.2v-53.7c0-8.6-1.1-16.9-2.9-21.6l-3.2-8.3Z"/>
            <path class="cls-14" d="M327,545.3l-3.2,8.3c-1.8,4.7-2.9,13-2.9,21.6v53.7h12.2v-53.7c0-8.6-1.1-16.9-2.9-21.6l-3.2-8.3Z"/>
            <path class="cls-14" d="M353,545.3l-3.2,8.3c-1.8,4.7-2.9,13-2.9,21.6v53.7h12.2v-53.7c0-8.6-1.1-16.9-2.9-21.6l-3.2-8.3Z"/>
          </g>
          <rect class="cls-14" x="225.5" y="485.5" width="10.8" height="9"/>
          <rect class="cls-14" x="225.5" y="516.1" width="10.8" height="9"/>
          <rect class="cls-14" x="225.5" y="546.7" width="10.8" height="9"/>
          <rect class="cls-14" x="225.5" y="577.3" width="10.8" height="9"/>
          <g>
            <path class="cls-14" d="M230.9,414.5c-5.6,0-10.1,4.5-10.1,10.1s4.5,10.1,10.1,10.1,10.1-4.5,10.1-10.1-4.5-10.1-10.1-10.1"/>
            <path class="cls-14" d="M283.5,414.5c-5.6,0-10.1,4.5-10.1,10.1s4.5,10.1,10.1,10.1,10.1-4.5,10.1-10.1-4.5-10.1-10.1-10.1"/>
            <path class="cls-14" d="M236.6,385.7c0-2.9-1.1-5.4-2.9-6.8l-2.9-2.5-2.9,2.5c-1.8,1.4-2.9,4-2.9,6.8v17.3h11.5v-17.3Z"/>
            <path class="cls-14" d="M289.2,385.7c0-2.9-1.1-5.4-2.9-6.8l-2.9-2.5-2.9,2.5c-1.8,1.4-2.9,4-2.9,6.8v17.3h11.5v-17.3Z"/>
          </g>
          <polygon class="cls-7" points="245.7 354.4 216.2 354.4 215.7 354.4 215.7 359.8 230.9 359.8 230.9 359.8 246 359.8 246 354.4 245.7 354.4"/>
          <polygon class="cls-7" points="298.2 354.4 268.8 354.4 268.3 354.4 268.3 359.8 283.5 359.8 283.5 359.8 298.6 359.8 298.6 354.4 298.2 354.4"/>
          <polygon class="cls-10" points="437.3 529.4 431.9 529.4 260 529.4 260 534.8 481.2 534.8 481.2 529.4 437.3 529.4"/>
          <polygon class="cls-10" points="258.6 457.4 257.5 457.4 257.5 529.4 257.5 534.8 257.5 628.8 260 628.8 260 534.8 260 529.4 260 457.4 258.6 457.4"/>
          <rect class="cls-14" x="405.9" y="472.5" width="6.8" height="6.8"/>
          <rect class="cls-14" x="405.9" y="492.7" width="6.8" height="6.8"/>
          <rect class="cls-14" x="405.9" y="513.2" width="6.8" height="6.8"/>
          <rect class="cls-14" x="386.5" y="472.5" width="6.8" height="6.8"/>
          <rect class="cls-14" x="386.5" y="492.7" width="6.8" height="6.8"/>
          <rect class="cls-14" x="386.5" y="513.2" width="6.8" height="6.8"/>
          <rect class="cls-14" x="367" y="472.5" width="6.8" height="6.8"/>
          <rect class="cls-14" x="367" y="492.7" width="6.8" height="6.8"/>
          <rect class="cls-14" x="367" y="513.2" width="6.8" height="6.8"/>
          <rect class="cls-14" x="347.6" y="472.5" width="6.8" height="6.8"/>
          <rect class="cls-14" x="347.6" y="492.7" width="6.8" height="6.8"/>
          <rect class="cls-14" x="347.6" y="513.2" width="6.8" height="6.8"/>
          <rect class="cls-14" x="328.1" y="472.5" width="6.8" height="6.8"/>
          <rect class="cls-14" x="328.1" y="492.7" width="6.8" height="6.8"/>
          <rect class="cls-14" x="328.1" y="513.2" width="6.8" height="6.8"/>
          <rect class="cls-14" x="308.7" y="472.5" width="6.8" height="6.8"/>
          <rect class="cls-14" x="308.7" y="492.7" width="6.8" height="6.8"/>
          <rect class="cls-14" x="308.7" y="513.2" width="6.8" height="6.8"/>
          <rect class="cls-14" x="289.2" y="472.5" width="6.8" height="6.8"/>
          <rect class="cls-14" x="289.2" y="492.7" width="6.8" height="6.8"/>
          <rect class="cls-14" x="289.2" y="513.2" width="6.8" height="6.8"/>
          <rect class="cls-14" x="270.1" y="472.5" width="6.8" height="6.8"/>
          <rect class="cls-14" x="270.1" y="492.7" width="6.8" height="6.8"/>
          <rect class="cls-14" x="270.1" y="513.2" width="6.8" height="6.8"/>
          <polygon class="cls-7" points="431.9 529.4 437.3 529.4 437.3 465.3 437.3 465 431.9 457.4 431.9 529.4"/>
          <path class="cls-11" d="M230.9,434.7c-5.6,0-10.1-4.5-10.1-10.1s4.5-10.1,10.1-10.1,10.1,4.5,10.1,10.1-4.5,10.1-10.1,10.1"/>
          <path class="cls-11" d="M225.1,385.7c0-2.9,1.1-5.4,2.9-6.8l2.9-2.5,2.9,2.5c1.8,1.4,2.9,4,2.9,6.8v17.3h-11.5v-17.3Z"/>
          <polygon class="cls-11" points="481.2 628.8 481.2 534.8 260 534.8 260 628.8 257.5 628.8 257.5 534.8 257.5 529.4 257.5 457.4 250 457.4 250 403 246 403 246 359.8 230.9 359.8 230.9 359.8 230.9 359.8 215.7 359.8 215.7 403 211.8 403 211.8 457.4 204.2 457.4 204.2 494.5 225.5 494.5 225.5 485.5 236.3 485.5 236.3 494.5 257.2 494.5 257.2 496.6 204.2 496.6 204.2 525.1 225.5 525.1 225.5 516.1 236.3 516.1 236.3 525.1 257.2 525.1 257.2 527.3 204.2 527.3 204.2 555.7 225.5 555.7 225.5 546.7 236.3 546.7 236.3 555.7 257.2 555.7 257.2 557.9 204.2 557.9 204.2 586.3 225.5 586.3 225.5 577.3 236.3 577.3 236.3 586.3 257.2 586.3 257.2 588.5 204.2 588.5 204.2 628.8 481.2 628.8"/>
          <g>
            <path class="cls-6" d="M655.7,429.2c-.1,0-.2,0-.4,0-.2,0-.4,0-.7,0-2.2-.4-4.3-1.4-5.8-3.2-1.8-2.2-2.2-5-1.4-5.8s.7-.4,1.4-.4c1.8,0,4,1.1,5.8,2.5.7,1.1,1.4,2.5,1.8,4,0,0,0,0,0,.1.6-.2,1.4.3,2.1,1.3l.7,1.1c.2-.9.2-2,0-3.2-.4-2.2-1.4-4.3-2.9-5.8-1.8-2.2-5-3.6-7.9-3.6s-2.9.4-4,1.4c-2.5,2.5-1.1,7.9,1.1,10.4,2.2,2.5,5.4,4.3,8.3,4.7h.7c1.2,0,2.4-.3,3-1l-.5-.5c-.8-.6-1.2-1.4-1.4-2.3"/>
            <path class="cls-5" d="M631.2,505.3c-.7.7-1.8,1.1-2.5.7-.7-.4-.7-.7,0-1.4.7-.7,1.8-1.1,2.5-.7.7.4.7.7,0,1.4M628,517.2l-2.9,1.4c-2.5,1.4-5.4.7-6.8-1.1-.7-1.8-.7-4.7,0-6.1,1.1-1.4,3.2-1.4,4.7,0,1.4,1.4,4.3,2.9,6.1,3.2s1.4,1.4-1.1,2.5M629.3,478.5c-.4-.3-.4-1.2,0-2.4l.7-1.4c.2-.5.4-.9.6-1.1.5-.4.9.2,1.2,1.4,0,1.8-.7,3.6-1.8,3.6-.4.1-.6,0-.8-.1M638.1,455.2c1.1.7,3.2,1.1,4.3,1.1s1.4,1.1.7,2.5c-.7,1.8-2.2,2.2-4,1.4-1.8-.7-3.2-2.5-3.2-4s.7-1.8,2.2-1.1M633.4,550.7l.7-25.9c0-2.9.7-7.6,1.8-10.1l2.9-7.9c1.1-2.5,0-6.1-1.8-8.3l-1.4-1.4c-.4-.7-.7-1.4-1.1-2.2l-9,4c-2.5,1.1-5,1.8-5.4,1.1-.4-.7,1.1-2.5,3.2-4.3l9-7.2c2.2-1.8,5.4-3.2,7.2-3.2s3.6-1.4,4-2.5c.4-1.1.7-1.1,1.4,0,.7,1.1-.4,4-1.8,5.8-.4.7-1.4,1.8-2.5,2.5v.4l1.1,3.6c1.1,2.5,1.1,6.8.4,9.7l-1.8,7.2c-.7,2.5-.7,6.8,0,9.7l7.9,28.8c.2.9.2,1.7,0,2.5h16.8c-.4-.3-.8-.5-1.2-.7l-3.2-2.2c-1.4-1.8-2.2-3.6-1.1-5,.7-1.1.7-3.6,0-5-.7-1.4-1.4-4.3-1.1-6.1l1.8-15.9c.4-1.8-.4-3.6-.7-4.3-.7-.4-.4-1.1.4-1.4.7-.4,1.1-2.2.4-3.6l-3.6-9.7c-.7-1.8-.7-4,0-5,.4-1.1.4-3.2-.4-4.7l-1.8-3.2c-.7-1.4-1.1-4-.7-5,.4-1.1,1.1-3.6,1.8-5l.4-1.1c.7-1.8.7-4.3,0-6.1l-.7-1.4c-.7-1.8-.4-4,1.1-5.4l8.6-9c1.1-1.4,1.8-3.6,1.4-5.4l-3.2-11.5c-.4-1.8-1.8-4.3-2.9-5.8l-.7-1.1-.7-1.1c-.8-1-1.5-1.5-2.1-1.3,0,0,0,0,0,0-.3,0-.5.3-.7.6,0,0,0,0,0,0-.2.5-.2,1.3,0,2,.2.8.7,1.7,1.4,2.3l.5.5.3.3c1.1,1.1,2.5,3.6,2.5,5.4l.7,7.6c0,1.8-1.1,4-2.5,5l-5,3.2c-1.4,1.1-3.6,2.5-4.7,4-1.1,1.1-2.5.7-2.9-.7v-.4c-.4-1.8.4-3.2,1.8-3.2s2.2-1.8,1.8-3.2l-.4-1.8c-.4-1.8-1.8-4-3.2-5-1.4-1.1-2.2-2.9-1.8-4,.4-1.1-1.1-2.2-2.9-1.8l-2.2.4c-1.8,0-2.9,1.1-2.5,2.5.4,1.1,0,3.2-.7,4.3-.7,1.1-1.1,3.6-1.1,5.4v.4c0,1.8.4,3.6.7,4,.4.4.4,2.2,0,4-.4,1.8-2.2,3.6-3.6,4-1.4.4-3.2,2.2-4,4l-4.3,16.6c-.4,1.8.7,2.9,2.5,2.5l1.8-.4c1.8-.4,2.2.4.7,1.4l-13.7,11.2c-1.4,1.1-2.5,2.5-2.5,3.2s1.4.7,2.9,0l2.2-1.1c1.8-.7,2.5,0,1.8,1.8l-.7,1.1c-.7,1.4-1.4,3.6-1.4,4.7s-.4,2.2-1.1,2.5c-.4.4-.7,1.4-.4,1.8s0,1.4-.7,2.5c-.7.7-.7,2.9-.4,4.7l2.2,13c.4,1.8.4,4.7.4,6.5l-1,14.8h17.6c-.3-.6-.5-1.4-.5-2.2"/>
            <path class="cls-6" d="M668,560.8c1.8,0,3.2-1.4,3.2-3.2v-1.4c0-1.8-1.4-3.2-3.2-3.2h-19.9c-.5,1.5-1.9,2.6-3.5,2.9h-6.1c-2.1,0-3.8-1.1-4.6-2.9h-21.3c-1.8,0-3.2,1.4-3.2,3.2v1.4c0,1.8,1.4,3.2,3.2,3.2h55.5Z"/>
            <path class="cls-6" d="M629.1,514.7c-1.8-.4-4.7-1.8-6.1-3.2-1.4-1.4-3.6-1.4-4.7,0-.7,1.4-.7,4.3,0,6.1,1.4,1.8,4.3,2.5,6.8,1.1l2.9-1.4c2.5-1.1,2.9-2.2,1.1-2.5"/>
            <path class="cls-6" d="M648.2,550.3l-7.9-28.8c-.7-2.9-.7-7.2,0-9.7l1.8-7.2c.7-2.9.7-7.2-.4-9.7l-1.1-3.6v-.4c1.1-.7,2.2-1.8,2.5-2.5,1.4-1.8,2.5-4.7,1.8-5.8-.7-1.1-1.1-1.1-1.4,0s-2.2,2.5-4,2.5-5,1.4-7.2,3.2l-9,7.2c-2.2,1.8-3.6,3.6-3.2,4.3.4.7,2.9,0,5.4-1.1l9-4c.4.7.7,1.4,1.1,2.2l1.4,1.4c1.8,2.2,2.9,5.8,1.8,8.3l-2.9,7.9c-1.1,2.5-1.8,7.2-1.8,10.1l-.7,25.9c0,.8.2,1.5.5,2.2.8,1.7,2.5,2.9,4.6,2.9h6.1c1.7-.2,3-1.4,3.5-2.9.3-.8.3-1.7,0-2.5"/>
            <path class="cls-6" d="M628.7,504.6c-.7.7-.7,1.1,0,1.4.7.4,1.8,0,2.5-.7.7-.7.7-1.1,0-1.4-.7-.4-1.8,0-2.5.7"/>
            <path class="cls-6" d="M639.1,460.3c1.8.7,3.2.4,4-1.4.7-1.4.4-2.5-.7-2.5s-3.2-.4-4.3-1.1c-1.4-.7-2.2-.4-2.2,1.1s1.4,3.2,3.2,4"/>
            <path class="cls-11" d="M674.8,628.8v-58c0-5.4-4.3-10.1-10.1-10.1h-48.6c-5.4,0-10.1,4.3-10.1,10.1v58h68.8Z"/>
          </g>
          <g>
            <polygon class="cls-11" points="1121.6 628.8 1121.6 535.2 1121.6 531.6 1121.3 531.6 1120.8 531.6 1119.5 531.6 1119.5 524.4 1119.1 524.4 1118.2 514.2 1118 512.1 1118 512.7 1116.9 524.4 1116.6 524.4 1116.6 531.6 1113.7 531.6 1113.7 534.5 1111.9 534.5 1111.9 531.6 1109 531.6 1109 534.5 1107.2 534.5 1107.2 531.6 1103.6 531.6 1103.6 534.5 1101.8 534.5 1101.8 531.6 1098.9 531.6 1098.9 524.4 1098.6 524.4 1097.5 512.1 1096.4 524.4 1096 524.4 1096 531.6 1093.2 531.6 1093.2 534.5 1091.4 534.5 1091.4 531.6 1088.5 531.6 1088.5 534.5 1086.7 534.5 1086.7 531.6 1083.8 531.6 1083.8 534.5 1082 534.5 1082 531.6 1078.4 531.6 1078.4 524.4 1078 524.4 1077 512.1 1075.9 524.4 1075.5 524.4 1075.5 531.6 1072.6 531.6 1072.6 534.5 1070.8 534.5 1070.8 531.6 1068 531.6 1068 534.5 1066.2 534.5 1066.2 531.6 1063.3 531.6 1063.3 534.5 1061.5 534.5 1061.5 520.4 1058 496.3 1055.3 477.9 1052.7 496.3 1049.2 520.4 1049.2 534.5 1048.9 534.5 1041.3 524 1041.3 506.4 1038.8 506.4 1038.8 521.5 1030.5 510 1030.5 496.3 1030.5 490.2 1028.7 490.2 1028.7 496.3 1028.7 507.8 1020.4 496.3 1020.4 477.6 1018.6 477.6 1018.6 482.2 1010 482.2 1010 467.8 1008.2 467.8 1008.2 482.2 999.9 482.2 999.9 477.6 998.1 477.6 998.1 496.3 989.8 507.8 989.8 496.3 989.8 490.2 988 490.2 988 496.3 988 510 979.7 521.5 979.7 506.4 977.5 506.4 977.5 524 970 534.5 969.6 534.5 969.6 520.4 966.1 496.3 963.5 477.9 960.8 496.3 957.4 520.4 957.4 531.6 957 531.6 957 534.5 955.2 534.5 955.2 531.6 952.3 531.6 952.3 534.5 950.5 534.5 950.5 531.6 947.6 531.6 947.6 534.5 945.8 534.5 945.8 531.6 943 531.6 943 524.4 942.6 524.4 941.5 512.1 940.4 524.4 940.1 524.4 940.1 531.6 937.2 531.6 937.2 534.5 934.3 534.5 934.3 531.6 931.4 531.6 931.4 534.5 929.6 534.5 929.6 531.6 926.8 531.6 926.8 534.5 925 534.5 925 531.6 922.1 531.6 922.1 524.4 921.7 524.4 920.6 512.1 919.5 524.4 919.2 524.4 919.2 531.6 916.3 531.6 916.3 534.5 914.5 534.5 914.5 531.6 911.6 531.6 911.6 534.5 909.1 534.5 909.1 531.6 906.2 531.6 906.2 534.5 904.4 534.5 904.4 531.6 901.5 531.6 901.5 524.4 901.2 524.4 900.1 512.1 899 524.4 898.7 524.4 898.7 531.6 895.8 531.6 895.8 534.5 894 534.5 894 531.6 891.1 531.6 891.1 534.5 889.3 534.5 889.3 531.6 886.4 531.6 886.4 534.5 884.6 534.5 884.6 531.6 881.7 531.6 881.7 524.4 880.3 524.4 879.2 512.1 878.1 524.4 877.8 524.4 877.8 531.6 874.9 531.6 874.9 534.5 873.1 534.5 873.1 531.6 869.5 531.6 869.5 534.5 867.7 534.5 867.7 531.6 864.8 531.6 864.8 534.5 863 534.5 863 531.6 860.1 531.6 860.1 524.4 859.8 524.4 858.7 512.1 857.6 524.4 857.2 524.4 857.2 531.6 854.3 531.6 854.3 534.5 852.5 534.5 852.5 531.6 849.7 531.6 849.7 534.5 847.9 534.5 847.9 531.6 844.3 531.6 844.3 534.5 842.5 534.5 842.5 531.6 840.7 531.6 840.7 456.3 834.2 456.3 834.2 387.1 833.1 376 832 387.1 830.2 370.9 828.4 387.1 827.3 376 826.3 387.1 826.3 363 823.7 346.8 821.2 363 821.2 338.9 814.4 296.4 807.5 338.9 807.5 363 805 346.8 802.5 363 802.5 387.1 801.4 376 800.3 387.1 798.5 370.9 796.7 387.1 795.6 376 794.6 387.1 794.6 456.3 788.1 456.3 788.1 531.6 785.9 531.6 785.9 534.5 784.1 534.5 784.1 531.6 781.2 531.6 781.2 534.5 779.4 534.5 779.4 531.6 776.6 531.6 776.6 534.5 774.7 534.5 774.7 531.6 771.9 531.6 771.9 524.4 771.5 524.4 770.4 512.1 769.3 524.4 769 524.4 769 531.6 766.1 531.6 766.1 534.5 764.3 534.5 764.3 531.6 761.4 531.6 761.4 534.5 759.6 534.5 759.6 531.6 756.7 531.6 756.7 534.5 754.9 534.5 754.9 531.6 752.1 531.6 752.1 524.4 751.7 524.4 750.6 512.1 749.5 524.4 747 524.4 747 531.6 744.1 531.6 744.1 534.5 742.3 534.5 742.3 531.6 739.4 531.6 739.4 534.5 737.6 534.5 737.6 531.6 734.8 531.6 734.8 534.5 732.6 534.5 732.6 531.6 729.7 531.6 729.7 524.4 729.4 524.4 728.3 512.1 727.2 524.4 726.8 524.4 726.8 531.6 724 531.6 724 534.5 721.8 534.5 721.8 531.6 718.9 531.6 718.9 534.5 717.1 534.5 717.1 531.6 714.2 531.6 714.2 534.5 712.4 534.5 712.4 531.6 709.6 531.6 709.6 534.5 708.1 534.5 708.1 496.3 708.1 495.9 702 453.4 695.9 495.9 695.9 628.8 1121.6 628.8"/>
            <polygon class="cls-5" points="998.1 496.3 989.8 496.3 989.8 507.8 998.1 496.3"/>
            <polygon class="cls-5" points="1061.5 534.5 1063.3 534.5 1063.3 531.6 1066.1 531.6 1066.1 534.5 1067.9 534.5 1067.9 531.6 1070.8 531.6 1070.8 534.5 1072.6 534.5 1072.6 531.6 1075.5 531.6 1075.5 524.4 1075.9 524.4 1077 512.1 1078 524.4 1078.4 524.4 1078.4 531.6 1082 531.6 1082 534.5 1083.8 534.5 1083.8 531.6 1086.7 531.6 1086.7 534.5 1088.5 534.5 1088.5 531.6 1091.4 531.6 1091.4 534.5 1093.2 534.5 1093.2 531.6 1096 531.6 1096 524.4 1096.4 524.4 1097.5 512.1 1098.6 524.4 1098.9 524.4 1098.9 531.6 1101.8 531.6 1101.8 534.5 1103.6 534.5 1103.6 531.6 1107.2 531.6 1107.2 534.5 1109 534.5 1109 531.6 1111.9 531.6 1111.9 534.5 1113.7 534.5 1113.7 531.6 1116.6 531.6 1116.6 524.4 1116.9 524.4 1118 512.7 1115.5 496.3 1058 496.3 1061.5 520.4 1061.5 534.5"/>
            <polygon class="cls-5" points="709.6 534.5 709.6 531.6 712.4 531.6 712.4 534.5 714.2 534.5 714.2 531.6 717.1 531.6 717.1 534.5 718.9 534.5 718.9 531.6 721.8 531.6 721.8 534.5 724 534.5 724 531.6 726.8 531.6 726.8 524.4 727.2 524.4 728.3 512.1 729.4 524.4 729.7 524.4 729.7 531.6 732.6 531.6 732.6 534.5 734.8 534.5 734.8 531.6 737.6 531.6 737.6 534.5 739.4 534.5 739.4 531.6 742.3 531.6 742.3 534.5 744.1 534.5 744.1 531.6 747 531.6 747 524.4 749.5 524.4 750.6 512.1 751.7 524.4 752.1 524.4 752.1 531.6 754.9 531.6 754.9 534.5 756.7 534.5 756.7 531.6 759.6 531.6 759.6 534.5 761.4 534.5 761.4 531.6 764.3 531.6 764.3 534.5 766.1 534.5 766.1 531.6 769 531.6 769 524.4 769.3 524.4 770.4 512.1 771.5 524.4 771.9 524.4 771.9 531.6 774.7 531.6 774.7 534.5 776.5 534.5 776.5 531.6 779.4 531.6 779.4 534.5 781.2 534.5 781.2 531.6 784.1 531.6 784.1 534.5 785.9 534.5 785.9 531.6 788.1 531.6 788.1 496.3 708.1 496.3 708.1 534.5 709.6 534.5"/>
            <polygon class="cls-10" points="1119.1 524.4 1119.5 524.4 1119.5 531.6 1120.8 531.6 1118.2 514.2 1119.1 524.4"/>
            <polygon class="cls-5" points="842.5 531.6 842.5 534.5 844.3 534.5 844.3 531.6 847.9 531.6 847.9 534.5 849.7 534.5 849.7 531.6 852.6 531.6 852.6 534.5 854.4 534.5 854.4 531.6 857.2 531.6 857.2 524.4 857.6 524.4 858.7 512.1 859.8 524.4 860.1 524.4 860.1 531.6 863 531.6 863 534.5 864.8 534.5 864.8 531.6 867.7 531.6 867.7 534.5 869.5 534.5 869.5 531.6 873.1 531.6 873.1 534.5 874.9 534.5 874.9 531.6 877.8 531.6 877.8 524.4 878.1 524.4 879.2 512.1 880.3 524.4 881.7 524.4 881.7 531.6 884.6 531.6 884.6 534.5 886.4 534.5 886.4 531.6 889.3 531.6 889.3 534.5 891.1 534.5 891.1 531.6 894 531.6 894 534.5 895.8 534.5 895.8 531.6 898.7 531.6 898.7 524.4 899 524.4 900.1 512.1 901.2 524.4 901.5 524.4 901.5 531.6 904.4 531.6 904.4 534.5 906.2 534.5 906.2 531.6 909.1 531.6 909.1 534.5 911.6 534.5 911.6 531.6 914.5 531.6 914.5 534.5 916.3 534.5 916.3 531.6 919.2 531.6 919.2 524.4 919.5 524.4 920.6 512.1 921.7 524.4 922.1 524.4 922.1 531.6 925 531.6 925 534.5 926.8 534.5 926.8 531.6 929.6 531.6 929.6 534.5 931.4 534.5 931.4 531.6 934.3 531.6 934.3 534.5 937.2 534.5 937.2 531.6 940.1 531.6 940.1 524.4 940.4 524.4 941.5 512.1 942.6 524.4 943 524.4 943 531.6 945.8 531.6 945.8 534.5 947.6 534.5 947.6 531.6 950.5 531.6 950.5 534.5 952.3 534.5 952.3 531.6 955.2 531.6 955.2 534.5 957 534.5 957 531.6 957.4 531.6 957.4 520.4 960.8 496.3 840.7 496.3 840.7 531.6 842.5 531.6"/>
            <polygon class="cls-5" points="1038.8 521.5 1038.8 506.4 1041.3 506.4 1041.3 524 1048.9 534.5 1049.2 534.5 1049.2 520.4 1052.7 496.3 1030.5 496.3 1030.5 510 1038.8 521.5"/>
            <polygon class="cls-5" points="969.6 534.5 970 534.5 977.5 524 977.5 506.4 979.7 506.4 979.7 521.5 988 510 988 496.3 966.1 496.3 969.6 520.4 969.6 534.5"/>
            <polygon class="cls-5" points="1028.7 496.3 1020.4 496.3 1028.7 507.8 1028.7 496.3"/>
            <polygon class="cls-7" points="805 443.3 805 454.5 810.4 454.5 810.4 443.3 807.9 440.8 805 443.3"/>
            <polygon class="cls-7" points="817.6 443.3 817.6 454.5 822.7 454.5 822.7 443.3 820.1 440.8 817.6 443.3"/>
            <polygon class="cls-11" points="999.5 484.4 1006.7 484.4 999.5 493.8 999.5 484.4"/>
            <polygon class="cls-11" points="1018.2 484.4 1018.2 493.8 1011 484.4 1018.2 484.4"/>
            <g>
              <rect class="cls-6" x="772.2" y="583.1" width="9.7" height="12.6"/>
              <rect class="cls-6" x="752.8" y="583.1" width="9.7" height="12.6"/>
              <rect class="cls-6" x="733.3" y="583.1" width="9.7" height="12.6"/>
              <rect class="cls-6" x="713.9" y="583.1" width="9.7" height="12.6"/>
              <rect class="cls-6" x="772.2" y="563.6" width="9.7" height="12.6"/>
              <rect class="cls-6" x="752.8" y="563.6" width="9.7" height="12.6"/>
              <rect class="cls-6" x="733.3" y="563.6" width="9.7" height="12.6"/>
              <rect class="cls-6" x="713.9" y="563.6" width="9.7" height="12.6"/>
              <rect class="cls-6" x="772.2" y="544.2" width="9.7" height="12.6"/>
              <rect class="cls-6" x="752.8" y="544.2" width="9.7" height="12.6"/>
              <rect class="cls-6" x="733.3" y="544.2" width="9.7" height="12.6"/>
              <rect class="cls-6" x="713.9" y="544.2" width="9.7" height="12.6"/>
              <rect class="cls-6" x="881.4" y="583.1" width="9.7" height="12.6"/>
              <rect class="cls-6" x="861.9" y="583.1" width="9.7" height="12.6"/>
              <rect class="cls-6" x="842.5" y="583.1" width="9.7" height="12.6"/>
              <rect class="cls-6" x="881.4" y="563.6" width="9.7" height="12.6"/>
              <rect class="cls-6" x="861.9" y="563.6" width="9.7" height="12.6"/>
              <rect class="cls-6" x="842.5" y="563.6" width="9.7" height="12.6"/>
              <rect class="cls-6" x="881.4" y="544.2" width="9.7" height="12.6"/>
              <rect class="cls-6" x="861.9" y="544.2" width="9.7" height="12.6"/>
              <rect class="cls-6" x="842.5" y="544.2" width="9.7" height="12.6"/>
              <rect class="cls-6" x="944.8" y="583.1" width="9.7" height="12.6"/>
              <rect class="cls-6" x="925.7" y="583.1" width="9.7" height="12.6"/>
              <rect class="cls-6" x="906.2" y="583.1" width="9.7" height="12.6"/>
              <rect class="cls-6" x="944.8" y="563.6" width="9.7" height="12.6"/>
              <rect class="cls-6" x="925.7" y="563.6" width="9.7" height="12.6"/>
              <rect class="cls-6" x="906.2" y="563.6" width="9.7" height="12.6"/>
              <rect class="cls-6" x="1099.6" y="583.1" width="9.7" height="12.6"/>
              <rect class="cls-6" x="1080.2" y="583.1" width="9.7" height="12.6"/>
              <rect class="cls-6" x="1099.6" y="563.6" width="9.7" height="12.6"/>
              <rect class="cls-6" x="1080.2" y="563.6" width="9.7" height="12.6"/>
              <rect class="cls-6" x="1060.7" y="563.6" width="9.7" height="12.6"/>
              <g>
                <path class="cls-5" d="M782.3,606.5l-4-2.5-4,2.5c-2.2,1.4-3.6,4-3.6,6.8v15.5h15.4l-.3-15.5c0-2.9-1.4-5.4-3.6-6.8"/>
                <path class="cls-5" d="M762.1,606.5l-4-2.5-4,2.5c-2.2,1.4-3.6,4-3.6,6.8v15.5h15.4l-.3-15.5c0-2.9-1.4-5.4-3.6-6.8"/>
                <path class="cls-5" d="M742,606.5l-4-2.5-4,2.5c-2.2,1.4-3.6,4-3.6,6.8v15.5h15.4l-.3-15.5c0-2.9-1.4-5.4-3.6-6.8"/>
                <path class="cls-5" d="M721.4,606.5l-4-2.5-4,2.5c-2.2,1.4-3.6,4-3.6,6.8v15.5h15.4l-.3-15.5c0-2.9-1.4-5.4-3.6-6.8"/>
                <path class="cls-5" d="M891.8,606.5l-4-2.5-4,2.5c-2.2,1.4-3.6,4-3.6,6.8v15.5h15.4l-.3-15.5c0-2.9-1.4-5.4-3.6-6.8"/>
                <path class="cls-5" d="M871.6,606.5l-4-2.5-4,2.5c-2.2,1.4-3.6,4-3.6,6.8v15.5h15.4l-.3-15.5c0-2.9-1.4-5.4-3.6-6.8"/>
                <path class="cls-5" d="M851.1,606.5l-4-2.5-4,2.5c-2.2,1.4-3.6,4-3.6,6.8v15.5h15.4l-.3-15.5c0-2.9-1.4-5.4-3.6-6.8"/>
                <path class="cls-5" d="M955.2,606.5l-4-2.5-4,2.5c-2.2,1.4-3.6,4-3.6,6.8v15.5h15.4l-.3-15.5c0-2.9-1.4-5.4-3.6-6.8"/>
                <path class="cls-5" d="M935,606.5l-4-2.5-4,2.5c-2.2,1.4-3.6,4-3.6,6.8v15.5h15.4l-.3-15.5c0-2.9-1.4-5.4-3.6-6.8"/>
                <path class="cls-5" d="M914.9,606.5l-4-2.5-4,2.5c-2.2,1.4-3.6,4-3.6,6.8v15.5h15.4l-.3-15.5c0-2.9-1.4-5.4-3.6-6.8"/>
                <path class="cls-5" d="M1109.7,606.5l-4-2.5-4,2.5c-2.2,1.4-3.6,4-3.6,6.8v15.5h15.4l-.3-15.5c0-2.9-1.4-5.4-3.6-6.8"/>
                <path class="cls-5" d="M1089.6,606.5l-4-2.5-4,2.5c-2.2,1.4-3.6,4-3.6,6.8v15.5h15.4l-.3-15.5c0-2.9-1.4-5.4-3.6-6.8"/>
                <path class="cls-5" d="M1069.4,606.5l-4-2.5-4,2.5c-2.2,1.4-3.6,4-3.6,6.8v15.5h15.4l-.3-15.5c0-2.9-1.4-5.4-3.6-6.8"/>
              </g>
              <polygon class="cls-6" points="1106.1 546.7 1106.1 557.2 1109.4 557.2 1109.4 546.7 1107.6 544.2 1106.1 546.7"/>
              <polygon class="cls-6" points="1099.6 546.7 1099.6 557.2 1102.9 557.2 1102.9 546.7 1101.1 544.2 1099.6 546.7"/>
              <polygon class="cls-6" points="1086.7 546.7 1086.7 557.2 1089.9 557.2 1089.9 546.7 1088.1 544.2 1086.7 546.7"/>
              <polygon class="cls-6" points="1080.2 546.7 1080.2 557.2 1083.4 557.2 1083.4 546.7 1081.6 544.2 1080.2 546.7"/>
              <polygon class="cls-6" points="1067.2 546.7 1067.2 557.2 1070.5 557.2 1070.5 546.7 1069 544.2 1067.2 546.7"/>
              <polygon class="cls-6" points="1060.7 546.7 1060.7 557.2 1064 557.2 1064 546.7 1062.5 544.2 1060.7 546.7"/>
              <g>
                <path class="cls-5" d="M817.6,606.5l-4-2.5-4,2.5c-2.2,1.4-3.6,4-3.6,6.8v15.5h15.4l-.3-15.5c0-2.9-1.4-5.4-3.6-6.8"/>
                <path class="cls-5" d="M817.6,583.5l-4-2.5-4,2.5c-2.2,1.4-3.6,4-3.6,6.8v6.1h15.5l-.4-6.1c0-2.9-1.4-5.4-3.6-6.8"/>
                <path class="cls-5" d="M817.6,564l-4-2.5-4,2.5c-2.2,1.4-3.6,4-3.6,6.8v6.1h15.5l-.4-6.1c0-2.9-1.4-5.4-3.6-6.8"/>
                <path class="cls-5" d="M817.6,544.6l-4-2.5-4,2.5c-2.2,1.4-3.6,4-3.6,6.8v6.1h15.5l-.4-6.1c0-2.9-1.4-5.4-3.6-6.8"/>
              </g>
              <polygon class="cls-6" points="951.6 546.7 951.6 557.2 954.5 557.2 954.5 546.7 953 544.2 951.6 546.7"/>
              <polygon class="cls-6" points="945.1 546.7 945.1 557.2 948 557.2 948 546.7 946.6 544.2 945.1 546.7"/>
              <polygon class="cls-6" points="932.2 546.7 932.2 557.2 935 557.2 935 546.7 933.6 544.2 932.2 546.7"/>
              <polygon class="cls-6" points="925.7 546.7 925.7 557.2 928.5 557.2 928.5 546.7 927.1 544.2 925.7 546.7"/>
              <polygon class="cls-6" points="912.7 546.7 912.7 557.2 915.6 557.2 915.6 546.7 914.1 544.2 912.7 546.7"/>
              <polygon class="cls-6" points="906.2 546.7 906.2 557.2 909.1 557.2 909.1 546.7 907.7 544.2 906.2 546.7"/>
              <path class="cls-5" d="M1098.2,628.8v-15.5c0-2.9,1.4-5.4,3.6-6.8l4-2.5,4,2.5c2.2,1.4,3.6,4,3.6,6.8l.3,15.5h-15.4Z"/>
              <rect class="cls-6" x="1099.6" y="583.1" width="9.7" height="12.6"/>
              <rect class="cls-6" x="1099.6" y="563.6" width="9.7" height="12.6"/>
              <polygon class="cls-6" points="1099.6 546.7 1101.1 544.2 1102.9 546.7 1102.9 557.2 1099.6 557.2 1099.6 546.7"/>
              <polygon class="cls-6" points="1106.1 546.7 1107.6 544.2 1109.4 546.7 1109.4 557.2 1106.1 557.2 1106.1 546.7"/>
              <path class="cls-5" d="M1081.8,628.8c-.4-1.3-.9-2.7-1.3-3.9-.9-2.8-1.8-5.5-2.5-8v-3.5c0-2.9,1.4-5.4,3.6-6.8l4-2.5,4,2.5c2.2,1.4,3.6,4,3.6,6.8l.3,15.5h-11.6Z"/>
              <rect class="cls-6" x="1060.7" y="563.6" width="9.7" height="12.6"/>
              <polygon class="cls-6" points="1060.7 546.7 1062.5 544.2 1064 546.7 1064 557.2 1060.7 557.2 1060.7 546.7"/>
              <polygon class="cls-6" points="1067.2 546.7 1069 544.2 1070.5 546.7 1070.5 557.2 1067.2 557.2 1067.2 546.7"/>
              <rect class="cls-6" x="1080.2" y="583.1" width="9.7" height="12.6"/>
              <rect class="cls-6" x="1080.2" y="563.6" width="9.7" height="12.6"/>
              <polygon class="cls-6" points="1080.2 546.7 1081.6 544.2 1083.4 546.7 1083.4 557.2 1080.2 557.2 1080.2 546.7"/>
              <polygon class="cls-6" points="1086.7 546.7 1088.1 544.2 1089.9 546.7 1089.9 557.2 1086.7 557.2 1086.7 546.7"/>
              <path class="cls-5" d="M1014.3,550.7v6.5h-12.6v-6.5c0-3.6,2.9-6.5,6.5-6.5s6.5,2.9,6.1,6.5"/>
              <path class="cls-5" d="M1021.8,550.7c0-3.6,2.9-6.5,6.5-6.5s6.5,2.9,6.1,6.5v6.5h-12.6v-6.5Z"/>
              <path class="cls-5" d="M943.7,628.8v-15.5c0-2.9,1.4-5.4,3.6-6.8l4-2.5,4,2.5c2.2,1.4,3.6,4,3.6,6.8l.3,15.5h-15.4Z"/>
              <rect class="cls-6" x="944.8" y="583.1" width="9.7" height="12.6"/>
              <rect class="cls-6" x="944.8" y="563.6" width="9.7" height="12.6"/>
              <polygon class="cls-6" points="945.1 546.7 946.6 544.2 948 546.7 948 557.2 945.1 557.2 945.1 546.7"/>
              <polygon class="cls-6" points="951.6 546.7 953 544.2 954.5 546.7 954.5 557.2 951.6 557.2 951.6 546.7"/>
              <path class="cls-5" d="M923.5,628.8v-15.5c0-2.9,1.4-5.4,3.6-6.8l4-2.5,4,2.5c2.2,1.4,3.6,4,3.6,6.8l.3,15.5h-15.4Z"/>
              <rect class="cls-6" x="925.7" y="583.1" width="9.7" height="12.6"/>
              <rect class="cls-6" x="925.7" y="563.6" width="9.7" height="12.6"/>
              <polygon class="cls-6" points="925.7 546.7 927.1 544.2 928.6 546.7 928.6 557.2 925.7 557.2 925.7 546.7"/>
              <polygon class="cls-6" points="932.2 546.7 933.6 544.2 935 546.7 935 557.2 932.2 557.2 932.2 546.7"/>
              <path class="cls-5" d="M903.3,628.8v-15.5c0-2.9,1.4-5.4,3.6-6.8l4-2.5,4,2.5c2.2,1.4,3.6,4,3.6,6.8l.3,15.5h-15.4Z"/>
              <rect class="cls-6" x="906.2" y="583.1" width="9.7" height="12.6"/>
              <rect class="cls-6" x="906.2" y="563.6" width="9.7" height="12.6"/>
              <polygon class="cls-6" points="906.2 546.7 907.7 544.2 909.1 546.7 909.1 557.2 906.2 557.2 906.2 546.7"/>
              <polygon class="cls-6" points="912.7 546.7 914.1 544.2 915.6 546.7 915.6 557.2 912.7 557.2 912.7 546.7"/>
              <path class="cls-5" d="M880.3,628.8v-15.5c0-2.9,1.4-5.4,3.6-6.8l4-2.5,4,2.5c2.2,1.4,3.6,4,3.6,6.8l.3,15.5h-15.4Z"/>
              <rect class="cls-6" x="881.4" y="583.1" width="9.7" height="12.6"/>
              <rect class="cls-6" x="881.4" y="563.6" width="9.7" height="12.6"/>
              <rect class="cls-6" x="881.4" y="544.2" width="9.7" height="12.6"/>
              <path class="cls-5" d="M860.1,628.8v-15.5c0-2.9,1.4-5.4,3.6-6.8l4-2.5,4,2.5c2.2,1.4,3.6,4,3.6,6.8l.3,15.5h-15.4Z"/>
              <rect class="cls-6" x="861.9" y="583.1" width="9.7" height="12.6"/>
              <rect class="cls-6" x="861.9" y="563.6" width="9.7" height="12.6"/>
              <rect class="cls-6" x="861.9" y="544.2" width="9.7" height="12.6"/>
              <path class="cls-5" d="M839.6,628.8v-15.5c0-2.9,1.4-5.4,3.6-6.8l4-2.5,4,2.5c2.2,1.4,3.6,4,3.6,6.8l.3,15.5h-15.4Z"/>
              <rect class="cls-6" x="842.5" y="583.1" width="9.7" height="12.6"/>
              <rect class="cls-6" x="842.5" y="563.6" width="9.7" height="12.6"/>
              <rect class="cls-6" x="842.5" y="544.2" width="9.7" height="12.6"/>
              <polygon class="cls-5" points="825.2 403.4 821.9 403.4 821.9 394.4 823.7 392.2 825.2 394.4 825.2 403.4"/>
              <polygon class="cls-5" points="822.7 454.5 817.6 454.5 817.6 443.3 820.1 440.8 822.7 443.3 822.7 454.5"/>
              <path class="cls-5" d="M806.1,557.5v-6.1c0-2.9,1.4-5.4,3.6-6.8l4-2.5,4,2.5c2.2,1.4,3.6,4,3.6,6.8l.4,6.1h-15.5Z"/>
              <path class="cls-5" d="M806.1,577v-6.1c0-2.9,1.4-5.4,3.6-6.8l4-2.5,4,2.5c2.2,1.4,3.6,4,3.6,6.8l.4,6.1h-15.5Z"/>
              <path class="cls-5" d="M806.1,596.4v-6.1c0-2.9,1.4-5.4,3.6-6.8l4-2.5,4,2.5c2.2,1.4,3.6,4,3.6,6.8l.4,6.1h-15.5Z"/>
              <path class="cls-6" d="M806.1,628.8v-15.5c0-2.9,1.4-5.4,3.6-6.8l4-2.5,4,2.5c2.2,1.4,3.6,4,3.6,6.8l.3,15.5h-15.4Z"/>
              <polygon class="cls-5" points="805 443.3 807.9 440.8 810.4 443.3 810.4 454.5 805 454.5 805 443.3"/>
              <polygon class="cls-5" points="802.5 394.4 804.3 392.2 805.7 394.4 805.7 403.4 802.5 403.4 802.5 394.4"/>
              <path class="cls-6" d="M814,410.2c4.2,0,7.6,3.4,7.6,7.6s-3.4,7.6-7.6,7.6-7.6-3.4-7.6-7.6,3.4-7.6,7.6-7.6"/>
              <polygon class="cls-5" points="809 394.4 810.8 392.2 812.2 394.4 812.2 403.4 809 403.4 809 394.4"/>
              <polygon class="cls-5" points="811.5 374.2 814 370.9 816.5 374.2 816.5 387.1 811.5 387.1 811.5 374.2"/>
              <polygon class="cls-5" points="812.2 348.6 814 345.7 815.5 348.6 815.5 359.8 812.2 359.8 812.2 348.6"/>
              <polygon class="cls-5" points="818.7 394.4 818.7 403.4 815.5 403.4 815.5 394.4 817.3 392.2 818.7 394.4"/>
              <path class="cls-5" d="M770.8,628.8v-15.5c0-2.9,1.4-5.4,3.6-6.8l4-2.5,4,2.5c2.2,1.4,3.6,4,3.6,6.8l.3,15.5h-15.4Z"/>
              <rect class="cls-6" x="772.2" y="583.1" width="9.7" height="12.6"/>
              <rect class="cls-6" x="772.2" y="563.6" width="9.7" height="12.6"/>
              <rect class="cls-6" x="772.2" y="544.2" width="9.7" height="12.6"/>
              <path class="cls-5" d="M750.6,628.8v-15.5c0-2.9,1.4-5.4,3.6-6.8l4-2.5,4,2.5c2.2,1.4,3.6,4,3.6,6.8l.3,15.5h-15.4Z"/>
              <rect class="cls-6" x="752.8" y="583.1" width="9.7" height="12.6"/>
              <rect class="cls-6" x="752.8" y="563.6" width="9.7" height="12.6"/>
              <rect class="cls-6" x="752.8" y="544.2" width="9.7" height="12.6"/>
              <path class="cls-5" d="M730.4,628.8v-15.5c0-2.9,1.4-5.4,3.6-6.8l4-2.5,4,2.5c2.2,1.4,3.6,4,3.6,6.8l.3,15.5h-15.4Z"/>
              <rect class="cls-6" x="733.3" y="583.1" width="9.7" height="12.6"/>
              <rect class="cls-6" x="733.3" y="563.6" width="9.7" height="12.6"/>
              <rect class="cls-6" x="733.3" y="544.2" width="9.7" height="12.6"/>
              <path class="cls-5" d="M709.9,628.8v-15.5c0-2.9,1.4-5.4,3.6-6.8l4-2.5,4,2.5c2.2,1.4,3.6,4,3.6,6.8l.3,15.5h-15.4Z"/>
              <rect class="cls-6" x="713.9" y="583.1" width="9.7" height="12.6"/>
              <rect class="cls-6" x="713.9" y="563.6" width="9.7" height="12.6"/>
              <rect class="cls-6" x="713.9" y="544.2" width="9.7" height="12.6"/>
              <g>
                <path class="cls-5" d="M1034.6,570c.4-3.6-2.5-6.5-6.1-6.5s-6.5,2.9-6.5,6.5v6.5h12.6v-6.5Z"/>
                <path class="cls-5" d="M1001.7,570v6.5h12.6v-6.5c.4-3.6-2.5-6.5-6.1-6.5s-6.5,2.9-6.5,6.5"/>
                <path class="cls-5" d="M981.4,570v6.5h12.6v-6.5c.4-3.6-2.5-6.5-6.1-6.5s-6.5,2.9-6.5,6.5"/>
              </g>
              <g>
                <path class="cls-5" d="M1034.6,589.4c.4-3.6-2.5-6.5-6.1-6.5s-6.5,2.9-6.5,6.5v6.5h12.6v-6.5Z"/>
                <path class="cls-5" d="M1001.7,589.4v6.5h12.6v-6.5c.4-3.6-2.5-6.5-6.1-6.5s-6.5,2.9-6.5,6.5"/>
                <path class="cls-5" d="M981.4,589.4v6.5h12.6v-6.5c.4-3.6-2.5-6.5-6.1-6.5s-6.5,2.9-6.5,6.5"/>
              </g>
              <g>
                <path class="cls-5" d="M1034.6,550.5c.4-3.6-2.5-6.5-6.1-6.5s-6.5,2.9-6.5,6.5v6.5h12.6v-6.5Z"/>
                <path class="cls-5" d="M1001.7,550.5v6.5h12.6v-6.5c.4-3.6-2.5-6.5-6.1-6.5s-6.5,2.9-6.5,6.5"/>
                <path class="cls-5" d="M981.4,550.5v6.5h12.6v-6.5c.4-3.6-2.5-6.5-6.1-6.5s-6.5,2.9-6.5,6.5"/>
              </g>
              <rect class="cls-6" x="1060.7" y="583.8" width="9.7" height="12.6"/>
              <path class="cls-5" d="M1069.4,606.5l-4-2.5-4,2.5c-2.2,1.4-3.6,4-3.6,6.8v15.5h15.4l-.3-15.5c0-2.9-1.4-5.4-3.6-6.8"/>
              <path class="cls-5" d="M1089.6,606.5l-4-2.5-4,2.5c-2.2,1.4-3.6,4-3.6,6.8v15.5h15.4l-.3-15.5c0-2.9-1.4-5.4-3.6-6.8"/>
              <path class="cls-6" d="M1011.8,606.5l-4-2.5-4,2.5c-2.2,1.4-3.6,4-3.6,6.8v15.5h15.4l-.3-15.5c0-2.9-1.4-5.4-3.6-6.8"/>
              <path class="cls-6" d="M1032,606.5l-4-2.5-4,2.5c-2.2,1.4-3.6,4-3.6,6.8v15.5h15.4l-.3-15.5c0-2.9-1.4-5.4-3.6-6.8"/>
              <path class="cls-6" d="M991.6,606.5l-4-2.5-4,2.5c-2.2,1.4-3.6,4-3.6,6.8v15.5h15.4l-.3-15.5c0-2.9-1.4-5.4-3.6-6.8"/>
            </g>
          </g>
          <polygon class="cls-13" points="236.5 494.5 225.3 494.5 203.4 494.5 203.4 496.6 258 496.6 258 494.5 236.5 494.5"/>
          <polygon class="cls-13" points="236.5 525.1 225.3 525.1 203.4 525.1 203.4 527.3 258 527.3 258 525.1 236.5 525.1"/>
          <polygon class="cls-13" points="236.5 555.7 225.3 555.7 203.4 555.7 203.4 557.9 258 557.9 258 555.7 236.5 555.7"/>
          <polygon class="cls-13" points="236.5 586.3 225.3 586.3 203.4 586.3 203.4 588.5 258 588.5 258 586.3 236.5 586.3"/>
          <path class="cls-6" d="M463.2,628.8h-12.2v-53.7c0-8.6,1.1-16.9,2.9-21.6l3.2-8.3,3.2,8.3c1.8,4.7,2.9,13,2.9,21.6v53.7Z"/>
          <path class="cls-5" d="M437.3,628.8h-12.2v-53.7c0-8.6,1.1-16.9,2.9-21.6l3.2-8.3,3.2,8.3c1.8,4.7,2.9,13,2.9,21.6v53.7Z"/>
          <path class="cls-6" d="M411.3,628.8h-12.3v-53.7c0-8.6,1.1-16.9,2.9-21.6l3.2-8.3,3.2,8.3c1.8,4.7,2.9,13,2.9,21.6v53.7Z"/>
          <path class="cls-5" d="M385,628.8h-12.2v-53.7c0-8.6,1.1-16.9,2.9-21.6l3.2-8.3,3.2,8.3c1.8,4.7,2.9,13,2.9,21.6v53.7Z"/>
          <path class="cls-5" d="M280.9,628.8h-12.3v-53.7c0-8.6,1.1-16.9,2.9-21.6l3.2-8.3,3.2,8.3c1.8,4.7,2.9,13,2.9,21.6v53.7Z"/>
          <path class="cls-6" d="M294.6,575.2c0-8.6,1.1-16.9,2.9-21.6l3.2-8.3,3.2,8.3c1.8,4.7,2.9,13,2.9,21.6v53.7h-12.2v-53.7Z"/>
          <path class="cls-5" d="M320.9,575.2c0-8.6,1.1-16.9,2.9-21.6l3.2-8.3,3.2,8.3c1.8,4.7,2.9,13,2.9,21.6v53.7h-12.2v-53.7Z"/>
          <path class="cls-6" d="M346.9,575.2c0-8.6,1.1-16.9,2.9-21.6l3.2-8.3,3.2,8.3c1.8,4.7,2.9,13,2.9,21.6v53.7h-12.3v-53.7Z"/>
        </g>
      </g>
    </g>
  </g>
</svg>
