<?xml version="1.0" encoding="utf-8"?>
<!-- Generator: Adobe Illustrator 13.0.1, SVG Export Plug-In . SVG Version: 6.00 Build 14948)  -->
<!DOCTYPE svg PUBLIC "-//W3C//DTD SVG 1.1//EN" "http://www.w3.org/Graphics/SVG/1.1/DTD/svg11.dtd">
<svg version="1.1" id="Livello_1" xmlns="http://www.w3.org/2000/svg" xmlns:xlink="http://www.w3.org/1999/xlink" x="0px" y="0px"
	 width="519.877px" height="145.476px" viewBox="0 0 519.877 145.476" enable-background="new 0 0 519.877 145.476"
	 xml:space="preserve">
<g>
	<g>
		<path d="M116.764,94.419l-1.375-16.599h4.684l0.176,1.184c1.684,10.827,7.195,16.234,16.577,16.234
			c4.041,0,7.518-1.261,10.4-3.819c2.912-2.54,4.364-5.588,4.364-9.146c0-2.213-0.754-4.169-2.254-5.882
			c-1.485-1.64-5.117-4.048-10.837-7.154l-5.581-3.081c-10.676-5.856-16.029-12.404-16.029-19.624c0-5.349,1.963-9.584,5.912-12.668
			c3.919-3.129,9.234-4.691,15.984-4.691c5.684,0,11.93,1.235,18.734,3.717v13.827h-4.691l-0.176-1.125
			c-0.298-1.926-0.662-3.566-1.129-4.956c-0.47-1.39-1.143-2.584-2.04-3.662c-0.875-1.044-2.14-2.025-3.757-2.875
			c-1.625-0.89-4.011-1.342-7.162-1.342c-3.309,0-6.033,0.967-8.146,2.875c-2.118,1.916-3.162,4.386-3.162,7.375
			c0,4.382,4.154,8.885,12.462,13.496l6.198,3.434c6.073,3.356,10.272,6.456,12.595,9.301c2.298,2.849,3.434,6.353,3.434,10.492
			c0,5.757-2.294,10.382-6.886,13.853c-4.606,3.515-10.68,5.265-18.223,5.265C128.917,98.846,122.197,97.367,116.764,94.419z"/>
		<path d="M185.305,39.612c3.441-4.57,7.662-6.856,12.654-6.856c4.033,0,7.368,1.644,9.952,4.916
			c2.569,3.297,3.878,7.489,3.878,12.672c0,3.349-1.173,5.478-3.559,6.378c-2.357,0.883-7.963,1.331-16.875,1.331h-12.315
			C179.776,50.307,181.886,44.178,185.305,39.612z M204.105,91.5c-7.169,0-13.176-2.562-18.018-7.709
			c-4.827-5.147-7.25-11.588-7.25-19.323c0-0.518,0-1.467,0.055-2.827h45.171v-1.882c0-9.643-2.253-17.139-6.79-22.518
			c-4.544-5.39-10.915-8.07-19.08-8.07c-9.091,0-16.65,3.312-22.69,9.915c-6.048,6.625-9.051,14.93-9.051,24.955
			c0,10.106,3.147,18.455,9.434,24.969c6.316,6.556,14.337,9.835,24.08,9.835c8.132,0,16.452-2.485,25.073-7.481v-5.526
			C217.925,89.625,210.947,91.5,204.105,91.5z"/>
		<path d="M248.416,39.612c3.416-4.57,7.658-6.856,12.68-6.856c4.038,0,7.357,1.644,9.909,4.916
			c2.581,3.297,3.882,7.489,3.882,12.672c0,3.349-1.169,5.478-3.551,6.378c-2.354,0.883-8.004,1.331-16.88,1.331h-12.331
			C242.898,50.307,244.986,44.178,248.416,39.612z M267.197,91.5c-7.152,0-13.152-2.562-18.02-7.709
			c-4.831-5.147-7.246-11.588-7.246-19.323c0-0.518,0.041-1.467,0.07-2.827h45.195v-1.882c0-9.643-2.287-17.139-6.823-22.518
			c-4.536-5.39-10.904-8.07-19.086-8.07c-9.069,0-16.657,3.312-22.668,9.915c-6.047,6.625-9.062,14.93-9.062,24.955
			c0,10.106,3.143,18.455,9.456,24.969c6.275,6.556,14.297,9.835,24.068,9.835c8.102,0,16.454-2.485,25.086-7.481v-5.526
			C281.035,89.625,274.042,91.5,267.197,91.5z"/>
		<path d="M314.092,98.846l-17.904-52.149c-2.742-8.084-5.309-12.15-7.742-12.15h-0.75v-3.577h25.176v3.577h-0.765
			c-4.302,0-6.434,1.309-6.434,3.922c0,0.706,0.169,1.636,0.515,2.779c0.404,1.353,0.625,2.132,0.661,2.364
			c0.5,1.9,0.802,2.938,0.897,3.132l12.059,35.128l17.933-50.903h3.735l21.124,51.376l10.89-35.602
			c1.117-3.882,1.698-6.654,1.698-8.393c0-2.519-1.743-3.805-5.213-3.805h-0.86v-3.577h18.234v3.577h-0.875
			c-2.934,0-5.684,4.073-8.213,12.198l-16.353,52.102h-3.72l-21.455-52.91l-18.779,52.91H314.092z"/>
		<path d="M405.338,39.612c3.448-4.57,7.668-6.856,12.653-6.856c4.052,0,7.382,1.644,9.948,4.916
			c2.566,3.297,3.867,7.489,3.867,12.672c0,3.349-1.146,5.478-3.536,6.378c-2.353,0.883-7.978,1.331-16.874,1.331h-12.331
			C399.845,50.307,401.926,44.178,405.338,39.612z M424.117,91.5c-7.146,0-13.154-2.562-17.992-7.709
			c-4.83-5.147-7.265-11.588-7.265-19.323c0-0.518,0.022-1.467,0.066-2.827h45.197v-1.882c0-9.643-2.279-17.139-6.823-22.518
			c-4.537-5.39-10.89-8.07-19.08-8.07c-9.073,0-16.632,3.312-22.698,9.915c-6.021,6.625-9.043,14.93-9.043,24.955
			c0,10.106,3.124,18.455,9.44,24.969c6.301,6.556,14.33,9.835,24.102,9.835c8.081,0,16.448-2.485,25.051-7.481v-5.526
			C437.969,89.625,430.984,91.5,424.117,91.5z"/>
		<path d="M477.071,40.756c3.088-1.265,6.117-1.901,9.051-1.901c6.448,0,11.668,2.555,15.757,7.676
			c4.073,5.114,6.103,11.768,6.103,19.937c0,8.194-1.985,14.963-6.037,20.261c-4.029,5.305-9.161,7.944-15.41,7.944
			c-3.368,0-6.787-0.868-10.287-2.592c-3.507-1.714-6.411-4-8.771-6.827V46.505C470.777,43.95,473.982,42.046,477.071,40.756z
			 M463.512,95.238c3.294,1.177,6.617,2.066,9.955,2.706c3.338,0.573,6.669,0.901,10.029,0.901c10.728,0,19.463-3.464,26.227-10.327
			c6.765-6.864,10.154-15.746,10.154-26.617c0-9.507-2.552-17.315-7.75-23.48c-5.103-6.169-11.705-9.25-19.653-9.25
			c-3.904,0-7.934,1.022-12.124,3.081c-4.147,2.059-8.419,5.128-12.875,9.246V0l-21.896,7.93v0.853l3.368,1.445
			c3.559,1.559,5.72,3.099,6.47,4.684c0.787,1.544,1.147,5.202,1.147,10.948v73.375L463.512,95.238z"/>
		<path d="M74.552,51.759H57.023c16.125,0,24.135,10.886,17.929,24.312c-6.231,13.455-24.333,24.349-40.436,24.349H52.02
			c16.113,0,34.201-10.894,40.425-24.349C98.662,62.645,90.647,51.759,74.552,51.759z"/>
		<path d="M40.028,51.759H22.51c16.124,0,24.146,10.886,17.937,24.312C34.201,89.525,16.087,100.419,0,100.419h17.496
			c16.135,0,34.205-10.894,40.443-24.349C64.167,62.645,56.134,51.759,40.028,51.759z"/>
		<path fill="#F3C844" d="M98.331,0.316H80.842c16.124,0,24.135,10.918,17.907,24.355C92.515,38.083,74.413,49.009,58.31,49.009
			h17.521c16.087,0,34.197-10.926,40.432-24.337C122.484,11.235,114.469,0.316,98.331,0.316z"/>
		<path d="M63.85,0.316H46.325c16.128,0,24.124,10.918,17.911,24.355c-6.213,13.411-24.33,24.337-40.432,24.337h17.499
			c16.091,0,34.212-10.926,40.414-24.337C87.971,11.235,79.956,0.316,63.85,0.316z"/>
	</g>
	<g>
		<path d="M321.385,125.352h-7.359v-2.478h17.653v2.478h-7.36v19.599h-2.934V125.352z"/>
		<path d="M334.127,122.874h2.934v9.492h11.625v-9.492h2.934v22.076h-2.934v-10.114h-11.625v10.114h-2.934V122.874z"/>
		<path d="M356.568,122.874h2.941v22.076h-2.941V122.874z"/>
		<path d="M364.42,122.874h3.125l11.617,17.899h0.066v-17.899h2.786v22.076h-3.22l-11.529-17.717H367.2v17.717h-2.779V122.874z"/>
		<path d="M386.78,122.874h2.934v11.007l11.191-11.007h3.801l-9.301,8.903l9.676,13.173h-3.713l-7.978-11.161l-3.677,3.43v7.731
			h-2.934V122.874z"/>
		<path d="M431.506,129.517c-0.618-3.121-3.118-4.694-6.184-4.694c-5.25,0-7.478,4.33-7.478,8.934c0,5.04,2.228,9.242,7.514,9.242
			c3.86,0,6.089-2.717,6.368-6.364h2.934c-0.559,5.504-3.985,8.842-9.552,8.842c-6.859,0-10.205-5.073-10.205-11.503
			c0-6.397,3.654-11.625,10.455-11.625c4.604,0,8.404,2.475,9.088,7.169H431.506z"/>
		<path d="M438.315,122.874h2.934v19.598h11.684v2.479h-14.617V122.874z"/>
		<path d="M464.835,122.348c7.015,0,10.573,5.566,10.573,11.562c0,6-3.559,11.565-10.573,11.565s-10.573-5.565-10.573-11.565
			C454.262,127.914,457.821,122.348,464.835,122.348z M464.835,142.998c5.382,0,7.64-4.636,7.64-9.088
			c0-4.448-2.258-9.088-7.64-9.088c-5.375,0-7.632,4.64-7.632,9.088C457.204,138.362,459.46,142.998,464.835,142.998z"/>
		<path d="M496.621,136.973c0,5.562-3.184,8.503-8.69,8.503c-5.684,0-9.051-2.629-9.051-8.503v-14.099h2.934v14.099
			c0,3.893,2.228,6.025,6.117,6.025c3.713,0,5.757-2.133,5.757-6.025v-14.099h2.934V136.973z"/>
		<path d="M501.319,122.874h7.574c6.801,0,10.602,3.404,10.602,10.51c0,7.39-3.242,11.566-10.602,11.566h-7.574V122.874z
			 M504.26,142.472h4.883c2.007,0,7.418-0.551,7.418-8.683c0-5.262-1.948-8.438-7.353-8.438h-4.948V142.472z"/>
	</g>
</g>
</svg>
